<?xml version="1.0" standalone="no"?>
<!DOCTYPE svg PUBLIC "-//W3C//DTD SVG 1.1//EN" "http://www.w3.org/Graphics/SVG/1.1/DTD/svg11.dtd" >
<svg xmlns="http://www.w3.org/2000/svg">
<metadata></metadata>
<defs>
<font id="AlekseiRegular" horiz-adv-x="671" >
<font-face units-per-em="1000" ascent="750" descent="-250" />
<missing-glyph horiz-adv-x="195" />
<glyph unicode="&#xfb01;" horiz-adv-x="656" d="M57 5v34l39 7q17 3 23.5 12.5t9 36t2.5 95.5v235l-69 1v25l69 25q3 105 67.5 167.5t169.5 62.5q60 0 120 -12q21 -4 35 -18t14 -37t-16.5 -39.5t-39.5 -16.5q-24 0 -40 16.5t-16 39.5q0 11 2 16l-55 13q-85 0 -118.5 -40t-33.5 -123v-26h166v-14q76 19 147 19 q-2 -59 -2 -109v-321l55 -14v-35l-67 -8h-77l-63 8v33l29 8q24 6 29 20t5 73l-1 224q0 43 -11 54q-21 12 -44 12v-4h-166v-371l65 -15v-34l-77 -8h-81z" />
<glyph unicode="&#xfb02;" horiz-adv-x="662" d="M62 434v17l69 25q3 105 69.5 167.5t163.5 62.5q34 0 58 -4q58 10 115 10q-6 -56 -6 -123v-534l64 -16v-34l-72 -8h-81l-73 8v34l37 7q25 4 30 19t5 78v438q0 51 -12 61q-17 13 -63 11l1 11q-73 2 -110 -34t-37 -125v-26h118v-46h-118v-393l61 -14v-21l-73 -8h-81l-59 8 v21q7 2 18 4q33 7 39 27.5t6 132.5v243z" />
<glyph unicode="&#xfb03;" horiz-adv-x="951" d="M62 434v17l69 25q4 110 82.5 170t188.5 60q100 0 169 -21q50 21 107 21q62 0 120 -12q21 -4 35 -18t14 -37t-16.5 -39.5t-39.5 -16.5q-24 0 -40 16.5t-16 39.5q0 6 2 16l-55 13q-84 0 -118 -40t-34 -123v-26h166v-14q79 19 148 19q-3 -59 -3 -109v-333l55 -14v-23l-67 -8 h-77l-62 8v21l28 7q24 6 29 23t5 83l-1 230q0 45 -11 57q-23 12 -44 12v-5h-166v-393l62 -14v-21l-74 -8h-80l-60 8v21q7 2 18 4.5t14.5 2.5t11 4.5t8.5 7l5 12.5t4 18.5t1.5 27.5t1.5 37v50v243l-70 1v17l70 25q3 109 71 171q-57 16 -110 16q-89 0 -136 -36t-47 -130v-18 h142v-46h-142v-393l61 -14v-21l-73 -8h-81l-59 8v21q7 2 18 4q33 7 39 27.5t6 132.5v243z" />
<glyph horiz-adv-x="1000" />
<glyph horiz-adv-x="1000" />
<glyph unicode=" "  horiz-adv-x="195" />
<glyph unicode="&#x09;" horiz-adv-x="195" />
<glyph unicode="&#xa0;" horiz-adv-x="195" />
<glyph unicode="!" horiz-adv-x="293" d="M67 47q0 25 17 42t43 17q24 0 42 -17t18 -42q0 -23 -18 -41t-42 -18q-25 0 -42.5 17.5t-17.5 41.5zM69 643l118 11l-38 -489h-43z" />
<glyph unicode="&#x22;" horiz-adv-x="183" d="M7 690l61 2l-19 -185h-32zM94 690l61 2l-19 -185h-31z" />
<glyph unicode="#" horiz-adv-x="633" d="M19 193l11 59h111l31 163h-113l11 58h113l34 174h69l-34 -174h128l34 174h70l-34 -174h120l-11 -58h-120l-31 -163h121l-11 -59h-122l-37 -193h-69l37 193h-129l-37 -193h-68l37 193h-111zM210 252h128l31 163h-128z" />
<glyph unicode="$" horiz-adv-x="397" d="M26 71l5 139h44q13 -75 20 -100q31 -20 67 -25v190l-23 10q-105 43 -105 129q0 52 36 84.5t92 42.5v93h47v-87h15q44 0 118 -21l-3 -129h-46q-13 59 -22 96q-28 13 -62 15v-170l38 -17q57 -25 81.5 -58.5t24.5 -78.5q0 -59 -41.5 -95t-102.5 -44v-112h-47v110 q-71 3 -136 28zM103 436q0 -49 59 -77v144q-27 -8 -43 -26.5t-16 -40.5zM209 86q34 6 53.5 27t19.5 53q0 33 -16 51.5t-57 37.5v-169z" />
<glyph unicode="%" horiz-adv-x="753" d="M58 476q0 65 37.5 105t97.5 40q61 0 96 -39t35 -105q0 -65 -37.5 -102.5t-95.5 -37.5q-62 0 -97.5 37t-35.5 102zM136 477q0 -48 15 -75t42 -27q53 0 53 102q0 106 -56 106q-54 0 -54 -106zM143 0l1 14l208 310l187 324h76v-15l-214 -323l-181 -310h-77zM426 133 q0 65 37.5 105t97.5 40q61 0 96 -39t35 -105q0 -65 -38 -102.5t-96 -37.5q-62 0 -97 37t-35 102zM503 134q0 -48 15 -75t43 -27q53 0 53 102q0 106 -56 106q-55 0 -55 -106z" />
<glyph unicode="&#x26;" horiz-adv-x="642" d="M48 144q0 56 28.5 92.5t87.5 73.5q-88 90 -88 171q0 74 51 114t125 40q66 0 114 -33.5t48 -95.5q0 -51 -31.5 -88.5t-89.5 -73.5l-22 -14q140 -136 162 -157q23 50 40 126l-73 18v31l70 8h66l63 -8v-31l-64 -16q-16 -5 -20 -27q-18 -75 -49 -133q47 -45 112 -101l32 -10 l-5 -28l-98 -9q-39 30 -91 77q-74 -79 -181 -79q-83 0 -135 40.5t-52 112.5zM131 152q0 -44 33 -76t87 -32q81 0 133 55q-45 43 -135 131l-55 50q-63 -52 -63 -128zM150 505q0 -28 26 -69t66 -80q100 71 100 136q0 46 -27 70.5t-73 24.5q-40 0 -66 -23t-26 -59z" />
<glyph unicode="'" horiz-adv-x="140" d="M25 507v183l77 10l-21 -193h-56z" />
<glyph unicode="(" horiz-adv-x="254" d="M41 290q0 252 132 411l47 -27q-107 -138 -107 -384q0 -247 107 -383l-48 -27q-131 153 -131 410z" />
<glyph unicode=")" horiz-adv-x="254" d="M20 -93q107 138 107 384q0 247 -107 383l49 27q130 -155 130 -410q0 -254 -132 -411z" />
<glyph unicode="*" horiz-adv-x="360" d="M15 552l9 29q8 24 30 12l66 -34l31 -31l-3 -10l-44 -7l-71 14q-26 5 -18 27zM60 443l51 52l39 19l8 -5l-6 -43l-35 -65q-12 -23 -31 -8l-25 17q-19 15 -1 33zM126 646q-2 25 20 25h30q24 0 21 -25l-11 -73l-20 -39h-10l-20 39zM166 511l8 6l40 -20l49 -53q19 -19 -1 -33 l-24 -18q-20 -13 -32 9l-34 64zM171 531l30 31l67 32q23 10 30 -11l10 -29q7 -23 -19 -28l-71 -14l-44 9z" />
<glyph unicode="+" horiz-adv-x="456" d="M46 278v71h139v140h71v-140h140v-71h-140v-140h-71v140h-139z" />
<glyph unicode="," horiz-adv-x="256" d="M60 48q0 23 19 40t44 17q28 0 44.5 -17.5t16.5 -52.5t-24 -97t-52 -101l-35 22q39 91 40 120l-35 17q-5 4 -11.5 19t-6.5 33z" />
<glyph unicode="-" horiz-adv-x="288" d="M18 279v69h241v-69h-241z" />
<glyph unicode="." horiz-adv-x="250" d="M58 47q0 25 17 42t43 17q24 0 42 -17t18 -42q0 -23 -18 -41t-42 -18q-25 0 -42.5 17.5t-17.5 41.5z" />
<glyph unicode="/" horiz-adv-x="397" d="M13 -74l287 786h60l-288 -786h-59z" />
<glyph unicode="0" horiz-adv-x="542" d="M35 313q0 136 62 229t166 93q110 0 170 -92t60 -232q0 -138 -64 -232t-165 -94q-104 0 -166.5 91t-62.5 237zM136 317q0 -140 35 -208.5t95 -68.5q39 0 65 21.5t43.5 83.5t17.5 166q0 125 -33.5 198t-99.5 73q-123 0 -123 -265z" />
<glyph unicode="1" horiz-adv-x="402" d="M32 548q120 38 212 103h30q-5 -100 -5 -182l-1 -284q0 -25 0.5 -55.5t0.5 -36.5q1 -21 9 -29t28 -13l42 -8v-38l-72 -8h-103l-82 8v38l49 10q23 5 29.5 27.5t6.5 101.5l2 367q-68 -34 -130 -50z" />
<glyph unicode="2" horiz-adv-x="498" d="M25 8v41q82 74 230 234q69 73 69 152q0 61 -32.5 93.5t-84.5 32.5q-95 0 -130 -113l-39 16q20 79 71.5 124t127.5 45q83 0 134 -51t51 -132q0 -116 -120 -219q-117 -102 -198 -178l203 5q24 1 35 9.5t16 30.5l19 74h47v-164l-79 -10h-261z" />
<glyph unicode="3" horiz-adv-x="464" d="M20 51q3 17 7 29q4 19 24 23t42 -15q36 -38 45 -47q28 -7 56 -7q57 0 89.5 37.5t32.5 90.5q0 43 -24.5 74.5t-61.5 46.5h-97v56q91 -2 132.5 25t41.5 104q0 47 -27.5 77t-76.5 30q-89 0 -114 -105h-47v109q3 1 31 14.5t41.5 18.5t41 11t54.5 6q89 0 139.5 -45.5 t50.5 -114.5q0 -59 -31 -97.5t-84 -54.5v-2q60 -13 93 -53t33 -97q0 -81 -59.5 -129.5t-156.5 -48.5q-67 0 -131 16q-26 6 -37.5 16.5t-6.5 31.5z" />
<glyph unicode="4" horiz-adv-x="484" d="M12 195v48q54 88 135.5 202t149.5 193h52v-387h9l86 -10v-36l-86 -10h-9v-104q0 -18 6.5 -26t24.5 -12l39 -11v-37l-69 -8h-106l-63 6v38l47 13q18 4 25.5 12t7.5 27v102h-249zM76 251h185v269q-104 -137 -185 -269z" />
<glyph unicode="5" horiz-adv-x="484" d="M21 73l30 28q53 -61 140 -61q64 0 102.5 39t38.5 105q0 72 -45.5 113t-125.5 41q-48 0 -101 -14l27 303h262l78 4l-13 -80h-274l-16 -162q45 12 93 12q95 0 155.5 -54.5t60.5 -140.5q0 -120 -93 -181q-61 -37 -141 -37q-65 0 -110 25.5t-68 59.5z" />
<glyph unicode="6" horiz-adv-x="491" d="M34 263q0 152 98.5 262.5t234.5 110.5q47 0 59 -6l-4 -31q-31 0 -59 -4q-86 -15 -149.5 -89.5t-73.5 -177.5q22 25 56.5 41t70.5 16q86 0 133 -49t47 -137q0 -98 -62 -153.5t-139 -55.5q-38 0 -73.5 14.5t-67.5 44.5t-51.5 85t-19.5 129zM138 238q1 -107 32.5 -152.5 t79.5 -45.5q42 0 69 36.5t27 108.5q0 64 -25.5 101t-73.5 37q-66 0 -107 -44q-2 -24 -2 -41z" />
<glyph unicode="7" horiz-adv-x="463" d="M22 552v75h425v-32l-291 -605l-89 8l294 555h-235q-30 0 -39 -21t-19 -92h-41z" />
<glyph unicode="8" horiz-adv-x="482" d="M38 146q0 108 129 173q-9 6 -10 7q-95 53 -95 152q0 68 48.5 112t122.5 44q71 0 121.5 -34.5t50.5 -100.5q0 -91 -116 -155l40 -26q57 -36 78 -73.5t21 -83.5q0 -72 -57 -124.5t-139 -52.5q-87 0 -140.5 45t-53.5 117zM123 150q0 -46 31.5 -80t82.5 -34q49 0 78.5 33 t29.5 77q0 57 -69 101l-74 49q-79 -59 -79 -146zM135 499q0 -50 67 -93q17 -13 51 -37q42 30 60 58t18 66q0 39 -26 64.5t-75 25.5q-43 0 -69 -22.5t-26 -61.5z" />
<glyph unicode="9" horiz-adv-x="489" d="M30 427q0 101 60.5 155t140.5 54q37 0 71.5 -14t67 -44t52.5 -85.5t20 -129.5q0 -90 -30.5 -163.5t-79.5 -118t-107 -68t-116 -23.5q-49 0 -58 6l4 32q28 -2 59 3q89 15 151 88.5t71 179.5q-47 -57 -127 -57q-85 0 -132 48.5t-47 136.5zM130 440q0 -62 26.5 -99.5 t72.5 -37.5q69 0 108 44q1 12 1 41q0 108 -31.5 153.5t-77.5 45.5q-44 0 -71.5 -37t-27.5 -110z" />
<glyph unicode=":" horiz-adv-x="263" d="M74 47q0 25 17 42t43 17q24 0 42 -17t18 -42q0 -23 -18 -41t-42 -18q-25 0 -42.5 17.5t-17.5 41.5zM74 438q0 25 17 42t43 17q24 0 42 -17t18 -42q0 -23 -18 -41t-42 -18q-25 0 -42.5 17.5t-17.5 41.5z" />
<glyph unicode=";" horiz-adv-x="280" d="M83 48q0 23 19 40t44 17q28 0 44.5 -17.5t16.5 -52.5t-24 -97t-52 -101l-35 22q39 91 40 120l-35 17q-5 4 -11.5 19t-6.5 33zM88 438q0 25 17 42t43 17q24 0 42 -17t18 -42q0 -23 -18 -41t-42 -18q-25 0 -42.5 17.5t-17.5 41.5z" />
<glyph unicode="&#x3c;" horiz-adv-x="589" d="M77 248v55l367 148v-66l-275 -111l275 -109v-66z" />
<glyph unicode="=" horiz-adv-x="505" d="M34 191v68h397v-68h-397zM34 331v68h397v-68h-397z" />
<glyph unicode="&#x3e;" horiz-adv-x="458" d="M25 99v63l275 113l-275 113v63l367 -149v-55z" />
<glyph unicode="?" horiz-adv-x="444" d="M17 544q1 9 13 22l21 20q24 27 68 51.5t93 24.5q87 0 136.5 -43.5t49.5 -108.5q0 -31 -9.5 -59t-32.5 -57.5t-36.5 -44t-44.5 -45.5q-58 -53 -58 -147h-60q0 54 14.5 98t35 73t41.5 56t35.5 59t14.5 69q0 47 -26.5 72.5t-78.5 25.5q-27 0 -51 -11l-31 -83 q-9 -23 -30.5 -27.5t-33.5 10.5l-17 19q-14 17 -13 26zM128 47q0 25 17 42t43 17q24 0 42 -17t18 -42q0 -23 -18 -41t-42 -18q-25 0 -42.5 17.5t-17.5 41.5z" />
<glyph unicode="@" horiz-adv-x="794" d="M50 198q0 150 108 256t257 106q144 0 231 -81t87 -214q0 -72 -20.5 -127t-52 -83t-61.5 -41.5t-57 -13.5q-71 0 -84 101q-53 -103 -115 -105q-55 -2 -92 50.5t-37 141.5q0 30 10.5 64t32 67.5t62.5 55.5t94 22q26 0 120 -6l-3 -263q0 -50 19 -65t48 13q31 23 47.5 77 t16.5 111q0 106 -65.5 170.5t-183.5 64.5q-121 0 -205 -87.5t-84 -212.5q0 -142 79.5 -215t200.5 -73l86 4l1 -49q-38 -12 -89 -12q-67 0 -126.5 18.5t-111.5 57t-82.5 107.5t-30.5 161zM303 199q0 -66 16.5 -96.5t40.5 -30.5q17 0 39.5 22.5t41.5 56.5l3 190 q-63 10 -102 -22q-39 -38 -39 -120z" />
<glyph unicode="A" horiz-adv-x="621" d="M-20 5v35l38 7q35 7 47 42l207 574h79l196 -568q6 -18 14.5 -27.5t15 -12t20.5 -5.5l31 -7v-38l-68 -8h-84l-94 8v35l73 14l-60 182h-216l-61 -184l71 -12v-35l-94 -8h-56zM193 280h188l-71 215q-8 26 -21 83q-8 -32 -24 -83z" />
<glyph unicode="B" horiz-adv-x="589" d="M33 5v37l50 11q28 6 29 37q2 50 2 87v287q0 59 -2 92q-3 31 -29 37l-50 10v37l78 8h138q128 0 194 -38t66 -125q0 -60 -37 -95.5t-99 -47.5v-2q157 -26 157 -160q0 -62 -35 -104.5t-87.5 -60.5t-118.5 -18h-180zM210 48h64q149 4 149 121q0 75 -41.5 107t-120.5 32h-51 v-260zM210 356l49 2q75 2 112.5 30t37.5 90q0 58 -39 86.5t-98 28.5h-60q-2 -61 -2 -162v-75z" />
<glyph unicode="C" horiz-adv-x="582" d="M34 315q0 147 88 247t228 100q102 0 178 -26v-83l-7 -90h-46l-4 28q-10 64 -33 92q-24 27 -94 27q-87 0 -144.5 -72t-57.5 -211q0 -133 63.5 -208.5t157.5 -75.5q46 0 66 8q31 10 39 55l14 77h47v-156q-63 -42 -180 -42q-135 0 -225 84.5t-90 245.5z" />
<glyph unicode="D" d="M32 5v37l50 11q26 5 29 40q1 13 1 101v248q0 100 -1 115q-2 17 -8 25t-21 11l-49 10v37l82 8q23 0 79 0.5t81 0.5q163 0 253.5 -80t90.5 -237q0 -163 -96.5 -249t-264.5 -86h-148zM210 197q0 -111 1 -144l68 1q113 1 173.5 65.5t60.5 193.5q1 135 -59 207q-59 72 -176 72 h-3l-65 -1v-394z" />
<glyph unicode="E" horiz-adv-x="582" d="M33 5v37l50 11q28 6 29 40q2 52 2 89v279q0 66 -2 95q-3 31 -29 37l-50 10v37l76 9h325q40 0 78 3l-1 -173h-50l-15 71q-6 27 -22.5 36t-67.5 9h-146v-234h131q18 0 27 26l19 66h37v-247h-36l-21 74q-7 25 -28 25h-129v-89q0 -89 1 -162h199q36 0 46 49l15 67h49v-172 q-38 2 -117 2h-300z" />
<glyph unicode="F" horiz-adv-x="544" d="M41 5v37l50 11q17 4 22 11.5t7 27.5q2 24 2 86v289q0 58 -2 89q-2 30 -29 37l-50 9v38l84 9h332q27 0 53 3l-1 -173h-44l-15 74q-5 27 -20.5 35t-66.5 8h-145v-237h116q18 0 27 25l19 66h37v-247h-36l-20 75q-7 24 -29 24h-114v-133q0 -87 1 -109l83 -17v-38l-84 -6h-116 z" />
<glyph unicode="G" horiz-adv-x="641" d="M34 322q0 144 88 242t229 98q97 0 180 -26v-83l-8 -90h-45l-4 28q-10 64 -33 92q-24 27 -95 27q-87 0 -145 -71.5t-58 -207.5q0 -135 62.5 -211.5t156.5 -76.5q48 0 87 9v136q0 30 -32 37l-51 10v37l82 7h89l75 -8v-36l-42 -10q-17 -4 -23 -12t-6 -26v-168 q-97 -34 -191 -34q-144 0 -230 87t-86 250z" />
<glyph unicode="H" horiz-adv-x="772" d="M33 5v37l50 11q16 4 22 11.5t7 26.5q1 30 1 91v280q0 31 -0.5 52t-0.5 42q-1 31 -28 37l-51 10v37l83 8h93l78 -8v-36l-77 -17v-225h338v225l-77 16v37l78 8h95l82 -8v-37l-51 -10q-15 -3 -20.5 -10.5t-7.5 -26.5q-2 -30 -2 -93v-281q0 -54 1 -91q1 -32 29 -38l50 -11 v-37l-82 -8h-94l-78 8v36l77 17v246h-338v-246l77 -16v-37l-83 -8h-90z" />
<glyph unicode="I" horiz-adv-x="337" d="M33 5v37l50 11q16 4 22 11.5t7 26.5q2 56 2 94v270q0 66 -3 101q-1 31 -27 37l-51 10v37l82 8h94l82 -8v-37l-51 -11q-27 -4 -28 -36q-2 -31 -2 -100v-270q0 -48 1 -95q0 -19 6.5 -26.5t22.5 -10.5l51 -12v-37l-84 -8h-92z" />
<glyph unicode="J" horiz-adv-x="388" d="M34 18v36q-1 22 15 30q6 2 13 2q11 0 25 -8l60 -36q17 7 22 11q12 13 16 48t4 137v226q0 39 -3 92q-1 32 -28 37l-52 10v37l80 8h104l76 -8v-37l-51 -11q-27 -6 -28 -36q-2 -46 -2 -87v-213q0 -119 -32.5 -179.5t-118.5 -80.5q-20 -4 -41 -4q-8 0 -17 1l-3 -1h-6 q-11 0 -20 6q-12 7 -13 20z" />
<glyph unicode="K" horiz-adv-x="616" d="M33 5v37l50 11q16 4 22 11.5t7 26.5q2 60 2 91v280q0 31 -1 52t-1 42q-1 31 -28 37l-51 10v37l83 8h93l76 -8v-36l-75 -17v-220h48l160 194q12 14 9.5 24.5t-16.5 13.5l-30 5v36l88 8h67l52 -8v-36q-62 -9 -102 -54q-52 -60 -160 -176q23 -30 52 -71t46 -67.5t54 -84.5 t48 -74q14 -24 53 -35v-37l-115 -8q-18 15 -31 39l-183 289h-40v-267l75 -16v-37l-81 -8h-90z" />
<glyph unicode="L" horiz-adv-x="549" d="M32 7v35l51 11q16 4 22 11t7 25q2 50 2 86v291q0 56 -3 92q-2 31 -27 35l-51 10v37l85 8h93l81 -8v-37l-51 -10q-28 -4 -29 -37q0 -18 -0.5 -28t-1 -21t-0.5 -41v-411q14 -1 58 -1h107q34 0 50 9.5t22 40.5l16 79h46v-185l-111 2h-288z" />
<glyph unicode="M" horiz-adv-x="879" d="M20 5v36l53 13q26 5 29 43l36 442v11q0 36 -25 42l-52 10v38l76 8h143v-29l-2.5 -2.5t-4 -7t0.5 -11.5l147 -498l173 499l5 49h127l75 -8v-37q-47 -7 -64 -21q-14 -12 -14 -40v-11l32 -426q2 -25 9 -36t24 -16l48 -11v-37l-81 -8h-89l-87 8v37l52 12q28 6 28 46v8 l-20 304l-9 139q-44 -127 -48 -143l-151 -417h-68l-135 427q-9 27 -38 147l-8 -144l-27 -362l80 -18v-36l-88 -8h-62z" />
<glyph unicode="N" horiz-adv-x="695" d="M31 5v37l52 12q20 4 25 22q4 18 4 109v345q0 27 -8.5 40t-28.5 19l-43 14v37l71 8h79l275 -395q65 -97 78 -121v352q0 66 -1 102l-78 17v37l83 8h55l74 -8v-37l-50 -11q-26 -4 -27 -36q-3 -44 -3 -101v-455l-72 -8l-349 513v-446l76 -17v-37l-79 -8h-70z" />
<glyph unicode="O" horiz-adv-x="663" d="M33 325q0 142 78 240.5t211 98.5q139 0 216.5 -95.5t77.5 -243.5q0 -144 -77.5 -242.5t-214.5 -98.5q-136 0 -213.5 94.5t-77.5 246.5zM142 330q0 -135 48 -212.5t139 -77.5q81 0 129.5 68.5t48.5 204.5q0 137 -47 216.5t-141 79.5q-87 0 -132 -72.5t-45 -206.5z" />
<glyph unicode="P" horiz-adv-x="533" d="M32 603v37l88 8h128q265 0 265 -188q0 -80 -60.5 -136.5t-164.5 -56.5q-55 0 -77 2v-86q0 -93 1 -124l78 -16v-38l-84 -8h-95l-78 8v37l50 11q15 3 21.5 11t7.5 27q2 48 2 94v280q0 58 -3 92q-1 30 -28 36zM211 307q8 -1 58 -1q72 0 107.5 40t35.5 109q0 137 -147 137 q-16 0 -33.5 -1t-19.5 -1q-1 -73 -1 -179v-104z" />
<glyph unicode="Q" horiz-adv-x="663" d="M33 325q0 142 78 240.5t211 98.5q139 0 216.5 -95.5t77.5 -243.5q0 -133 -66 -228.5t-185 -109.5q28 -12 37 -17q24 -15 82 -56t75 -52q16 -7 51 -11v-49l-124 -10q-31 20 -73.5 66t-78 84t-55.5 45q-116 16 -181 107.5t-65 230.5zM142 330q0 -135 48 -212.5t139 -77.5 q81 0 129.5 68.5t48.5 204.5q0 137 -47 216.5t-141 79.5q-87 0 -132 -72.5t-45 -206.5z" />
<glyph unicode="R" horiz-adv-x="600" d="M37 5v37l51 11q16 2 22 9.5t7 26.5q1 20 1 115v209q0 104 -2 144q-2 18 -7.5 25.5t-20.5 10.5l-51 10v37l84 8h146q259 0 259 -167q0 -58 -41 -110.5t-106 -73.5q7 -9 15 -20q24 -38 67 -109.5t54 -89.5q15 -25 63 -33v-40l-123 -7q-14 13 -27 37l-148 249h-66v-83 l1 -144l73 -14v-38l-85 -8h-90zM214 334l112 1q41 12 69.5 48t28.5 84q0 57 -41.5 90.5t-102.5 33.5q-17 0 -32 -0.5t-24 -1.5l-8 -1q-2 -62 -2 -178v-76z" />
<glyph unicode="S" horiz-adv-x="514" d="M44 32v167h47q9 -80 49 -122q37 -36 101 -36q56 0 88 33t32 83q0 82 -82 117l-90 38q-138 60 -138 174q0 82 60.5 129t155.5 47q74 0 150 -23l25 -8v-161h-45q-19 84 -47 112q-30 30 -91 30q-53 0 -86 -28t-33 -76q0 -68 81 -103l100 -44q73 -32 103 -76t30 -104 q0 -93 -64 -143q-63 -49 -157 -48h-4q-87 1 -170 37z" />
<glyph unicode="T" horiz-adv-x="598" d="M13 484l3 166l30 -2q29 -1 43 -1h416q12 0 28.5 0.5t29.5 1.5t14 1l4 -166h-48q-17 74 -28 89q-18 26 -76 30q-25 2 -85 2q-1 -35 -1 -134v-286q0 -76 1 -95q1 -18 7 -25.5t22 -10.5l51 -12v-37l-85 -8h-96l-77 8v36l50 13q16 3 22 10t7 26q1 24 1 94v287q0 87 -1 133 q-119 -1 -142.5 -14t-37.5 -80q-4 -17 -6 -26h-46z" />
<glyph unicode="U" horiz-adv-x="645" d="M12 603v37l75 8h94l72 -7v-38l-74 -13q-1 -50 -1 -149v-197q0 -125 45 -170q39 -38 115 -38q80 0 117.5 51t37.5 139v245q0 11 -0.5 51t-0.5 67l-67 14v37l79 8h53l67 -8v-37l-39 -9q-15 -4 -20.5 -12t-6.5 -26q-2 -58 -2 -96v-224q0 -124 -62 -188.5t-163 -64.5 q-125 0 -187.5 61.5t-62.5 191.5v199q0 71 -2 121q-1 34 -27 40z" />
<glyph unicode="V" horiz-adv-x="632" d="M-10 603v37l69 8h97l82 -8v-36l-73 -15l123 -372q32 -99 37 -145q11 42 46 146l124 372l-69 13v37l84 8h63l63 -8v-36l-50 -10q-24 -6 -38 -45l-205 -568h-75l-198 561q-16 44 -35 50z" />
<glyph unicode="W" horiz-adv-x="950" d="M-10 604v36l69 8h83l98 -8v-36l-75 -14l102 -375q29 -106 32 -149q16 70 37 146l118 430l63 1l117 -427q27 -99 32 -153h1q6 35 37 149l111 377l-68 14v37l94 8h52l66 -8v-36l-50 -9q-28 -7 -41 -46l-177 -568h-86l-106 381l-30 111l-29 -109l-111 -383h-91l-166 561 q-13 45 -40 51z" />
<glyph unicode="X" horiz-adv-x="610" d="M-9 5v35l44 9q31 7 55 40l160 232l-150 239q-18 29 -50 38l-31 7v35l63 8h85l97 -8v-36l-69 -14l122 -193l119 196l-62 10v37l79 8h64l67 -8v-35l-47 -10q-35 -10 -55 -42l-136 -202l169 -264q17 -29 54 -38l30 -8v-36l-69 -8h-81l-99 8v36l68 14l-139 220l-145 -224 l74 -10v-36l-86 -8h-65z" />
<glyph unicode="Y" horiz-adv-x="550" d="M-1 603v37l63 8h97l84 -8v-36l-72 -14l85 -191q23 -53 35 -92q13 32 42 90l91 192l-70 15v36l87 8h37l82 -8v-36l-50 -10q-27 -5 -43 -39l-145 -289v-80q0 -62 1 -95q0 -18 6.5 -25.5t22.5 -12.5l51 -11v-37l-81 -8h-97l-80 8v37l49 11q16 5 22.5 12t7.5 25q1 13 1 88v82 l-152 311q-10 20 -35 25z" />
<glyph unicode="Z" horiz-adv-x="541" d="M20 3v19l30 50l334 530l-259 -2l-25 -138h-59l5 178l83 8h274l94 -10v-22l-24 -41l-332 -530l266 1l34 139h49l2 -176l-70 -11h-314z" />
<glyph unicode="[" horiz-adv-x="307" d="M78 -131v874h173v-55h-109v-764h109v-55h-173z" />
<glyph unicode="\" horiz-adv-x="397" d="M20 706h69l279 -819h-70z" />
<glyph unicode="]" horiz-adv-x="307" d="M39 -76h109v764h-109v55h173v-874h-173v55z" />
<glyph unicode="^" horiz-adv-x="456" d="M39 276l153 367h55l153 -367h-63l-119 283l-116 -283h-63z" />
<glyph unicode="_" horiz-adv-x="458" d="M30 -33h386v-65h-386v65z" />
<glyph unicode="`" horiz-adv-x="514" d="M95.5 639q-0.5 5 2.5 8.5t8 3.5h85l121 -100q5 -5 3.5 -9.5t-6.5 -4.5h-46l-162 94q-5 3 -5.5 8z" />
<glyph unicode="a" horiz-adv-x="494" d="M38 100q0 54 33 81.5t86 43.5q59 17 139 27q0 12 0.5 35.5t0.5 36.5q0 55 -19.5 82.5t-66.5 27.5q-28 0 -58 -19l8 -31q3 -9 3 -17q0 -11 -6 -19q-10 -14 -33 -14h-56l-16 43l13 17q12 14 24 26q67 65 157 65q142 0 142 -152q0 -45 -2 -126.5t-2 -108.5q0 -29 6.5 -36 t33.5 -7h29v-39l-107 -30l-45 62q-56 -62 -136 -62q-59 0 -93.5 32t-34.5 82zM129 113q0 -64 77 -64q51 0 89 38l2 127q-70 -14 -104 -25q-64 -21 -64 -76z" />
<glyph unicode="b" horiz-adv-x="552" d="M12 653l4 38q74 21 167 21q-5 -66 -5 -125v-161q57 62 139 62q78 0 133 -62.5t55 -180.5q0 -68 -22.5 -120.5t-58.5 -81t-75.5 -42.5t-78.5 -14q-49 0 -89 13l-97 6q4 30 4 159v415q0 51 -12 62q-15 11 -52 11h-12zM178 56q36 -17 92 -17t97 47t41 146t-35.5 145.5 t-91.5 46.5q-59 0 -103 -49v-319z" />
<glyph unicode="c" horiz-adv-x="461" d="M34 234q0 120 66 188t161 68q78 0 132 -50l14 -10q13 -8 17 -20.5t-3 -24.5l-13 -27q-7 -16 -27 -18h-3q-18 0 -32 19l-56 80q-18 2 -27 2q-61 0 -96 -51t-35 -140q0 -84 39 -137.5t103 -53.5q83 0 130 70l28 -17q-56 -127 -180 -127q-97 0 -157.5 68.5t-60.5 180.5z" />
<glyph unicode="d" horiz-adv-x="551" d="M34 231q0 68 22 120t58 81t75.5 43t80.5 14q53 0 93 -14v105q0 49 -12 62q-16 11 -63 11l3 38q80 21 166 21q-4 -73 -4 -125v-392q0 -24 0.5 -46t0.5 -35v-15q0 -27 4 -35t18 -10l42 -9v-34l-125 -16l-26 54q-53 -60 -139 -60q-82 0 -138 61.5t-56 180.5zM131 240 q0 -96 35.5 -142.5t91.5 -46.5q28 0 57.5 12t47.5 31v324q-41 19 -90 19q-59 0 -100.5 -47.5t-41.5 -149.5z" />
<glyph unicode="e" horiz-adv-x="489" d="M40 236q0 114 66.5 184t162.5 70q87 0 135 -54q44 -50 43 -109v-10v-8q0 -9 -1 -22q-2 -25 -33 -25h-283v-14q0 -80 39.5 -134.5t113.5 -54.5q87 0 135 68l28 -17q-59 -125 -184 -125q-102 0 -162 70t-60 181zM129 305l229 6l-1 19q-2 49 -30 76t-70 27q-46 0 -92 -32 q-29 -47 -36 -96z" />
<glyph unicode="f" horiz-adv-x="335" d="M32 5v34l34 6q26 5 32.5 20.5t6.5 77.5v282l-69 1v25l69 25q2 84 52 155.5t141 74.5q17 0 24 -1q28 -2 39 -4q10 -2 16 -4t11 -8.5t5 -17.5v-29q0 -20 -15 -28q-6 -3 -13 -3q-9 0 -19 6l-81 45q-71 -23 -71 -149v-34h118v-54h-118v-371l68 -15v-34l-80 -8h-79z" />
<glyph unicode="g" horiz-adv-x="514" d="M15 -123q0 52 38.5 86t85.5 47q-41 21 -41 64q0 42 54 74q-52 19 -82.5 61.5t-30.5 98.5q0 74 54.5 125t134.5 51q48 0 94 -23l1 23q0 22 15 31q8 5 21 5q9 0 19 -2l118 -27l12 -18l-122 -49l-13 -4q43 -49 43 -113q0 -74 -54.5 -123t-134.5 -49q-19 0 -28 1 q-21 -19 -21 -34q0 -23 39 -27q14 -1 48.5 -4t48 -4t41.5 -5.5t40.5 -10t30.5 -15.5t26 -23.5t14.5 -32.5t6.5 -44q0 -79 -71.5 -132.5t-187.5 -53.5q-92 0 -145.5 33.5t-53.5 93.5zM97 -110q0 -81 146 -81q70 0 114 28t44 78q0 27 -21 45.5t-64 22.5q-40 4 -122 10 q-97 -39 -97 -103zM126 309q0 -58 30 -93.5t77 -35.5q44 0 69.5 32t25.5 97q0 57 -29.5 91t-75.5 34q-44 0 -70.5 -33t-26.5 -92z" />
<glyph unicode="h" horiz-adv-x="595" d="M30 653l3 38q92 21 168 21q-6 -52 -6 -123v-177q29 32 70.5 53.5t83.5 21.5q74 0 110.5 -38.5t36.5 -120.5v-272l59 -15v-36l-65 -8h-79l-74 8v34l40 10q20 5 24.5 19t4.5 75v148q0 63 -20 93.5t-76 30.5q-66 0 -115 -54v-304l64 -18v-34l-72 -8h-77l-77 8v34l37 8 q25 6 30.5 21t5.5 78l-1 434q0 51 -12 62q-15 11 -51 11h-12z" />
<glyph unicode="i" horiz-adv-x="308" d="M35 425l3 39q3 0 22.5 4t37.5 7t47.5 6t57.5 3q-2 -59 -2 -109v-317l63 -16v-37l-70 -8h-83l-73 8v37l39 8q25 6 29.5 18.5t4.5 70.5v224q0 42 -12 50q-18 13 -48 13q-8 0 -16 -1zM93 649q0 23 16 39t40 16q23 0 39.5 -16t16.5 -39q0 -24 -16.5 -40t-39.5 -16 q-24 0 -40 16t-16 40z" />
<glyph unicode="j" horiz-adv-x="277" d="M21 425l3 39q3 0 23.5 4t39.5 7t48 6t54 3q-3 -56 -3 -109v-285q0 -168 -31 -239q-34 -78 -107 -96l-21 20l22 12q31 31 39.5 86t8.5 182l-1 315q0 35 -12 43q-17 13 -47 13q-8 0 -16 -1zM80 649q0 23 16 39t40 16q23 0 39.5 -16t16.5 -39q0 -24 -16.5 -40t-39.5 -16 q-24 0 -40 16t-16 40z" />
<glyph unicode="k" horiz-adv-x="531" d="M30 653l3 38q80 21 168 21q-6 -56 -6 -123v-304h34q7 0 14 7q105 124 110 132q-11 6 -60 11l7 35l95 7h45l70 -8v-33q-77 -10 -109 -41l-106 -112q43 -38 150 -199q14 -21 31 -30t47 -15v-34l-117 -7q-17 9 -34 33q-73 101 -140 200h-37v-176l64 -16v-34l-72 -8h-81 l-73 8v34l37 7q25 4 30 19t5 78v438q0 51 -12 61q-15 11 -51 11h-12z" />
<glyph unicode="l" horiz-adv-x="305" d="M30 653l3 38q80 21 168 21q-6 -56 -6 -123v-534l64 -16v-34l-72 -8h-81l-73 8v34l37 7q25 4 30 19t5 78v438q0 51 -12 61q-15 11 -51 11h-12z" />
<glyph unicode="m" horiz-adv-x="894" d="M34 425l4 39q90 20 160 20v-38q0 -15 -5 -43q29 35 73 59.5t89 24.5q110 0 136 -86q30 36 74 61t89 25q74 0 110.5 -38.5t36.5 -120.5v-272l62 -17v-34l-68 -8h-78l-76 8v34l42 10q14 3 19 10t7 26t2 66v140q0 63 -20 93.5t-76 30.5q-65 0 -116 -55q2 -20 2 -32v-272 l63 -17v-34l-74 -8h-73l-75 8v34l39 10q15 3 20.5 9.5t8 27t2.5 67.5v138q0 63 -20 93.5t-76 30.5q-66 0 -115 -54v-304l64 -18v-34l-80 -8h-76l-71 8v34l42 8q21 4 26 20t5 73v224q0 35 -11 49q-25 13 -54 13q-6 0 -12 -1z" />
<glyph unicode="n" horiz-adv-x="601" d="M35 425l4 39q86 20 159 20v-38q0 -15 -5 -43q29 35 73 59.5t89 24.5q74 0 110.5 -38.5t36.5 -120.5v-272l59 -15v-36l-65 -8h-79l-74 8v34l40 10q20 5 24.5 19t4.5 75v148q0 63 -20 93.5t-76 30.5q-66 0 -115 -54v-304l64 -18v-34l-72 -8h-79l-75 8v34l41 9q21 5 26.5 21 t5.5 74v221q0 34 -12 49q-24 13 -51 13q-7 0 -14 -1z" />
<glyph unicode="o" horiz-adv-x="535" d="M35 235q0 115 60 185.5t165 70.5q106 0 166.5 -66.5t60.5 -179.5q0 -116 -60.5 -188.5t-167.5 -72.5q-102 0 -163 71.5t-61 179.5zM132 245q0 -104 36 -156.5t95 -52.5q57 0 91.5 49.5t34.5 143.5q0 209 -131 209q-59 0 -92.5 -50.5t-33.5 -142.5z" />
<glyph unicode="p" horiz-adv-x="558" d="M18 425l3 39q95 20 159 20v-37q0 -14 -2 -28q57 70 144 70q78 0 133 -62.5t55 -180.5q0 -69 -22 -121.5t-58 -81t-74 -42t-78 -13.5q-57 0 -95 14v-198l67 -14v-36l-72 -8h-85l-71 8v34l36 7q25 5 30.5 19.5t5.5 77.5v463q0 51 -12 58q-20 13 -51 13q-6 0 -13 -1zM183 57 q35 -18 94 -18q56 0 96 46.5t40 147.5t-35.5 146.5t-91.5 45.5q-27 0 -55.5 -15t-47.5 -37v-316z" />
<glyph unicode="q" horiz-adv-x="536" d="M33 231q0 68 22 120t58 81t75.5 43t80.5 14q62 0 108 -20l80 -8l7 -10q-11 -44 -11 -120v-483q0 -31 1 -45l63 -14v-34l-67 -9h-93l-72 9v32l45 9q21 4 27 18t6 51v180q-54 -56 -136 -56t-138 61.5t-56 180.5zM130 240q0 -97 35 -143t92 -46q29 0 58.5 12.5t47.5 32.5 v321q-40 20 -91 20q-60 0 -101 -47.5t-41 -149.5z" />
<glyph unicode="r" horiz-adv-x="388" d="M39 425l3 39q82 20 158 20v-38q0 -18 -2 -48l54 71l9 5l1 3h5l3 2l1 -1l50 5q8 0 14 1q21 0 29 -5q12 -6 10 -24l-3 -32q-2 -22 -20 -28q-7 -2 -15 -2q-11 0 -22 5l-49 20l-61 -55v-203l1 -105l67 -16v-34l-77 -8h-80l-73 8v33l39 8q24 5 29 19.5t5 73.5v224q0 43 -11 50 q-20 13 -50 13q-7 0 -15 -1z" />
<glyph unicode="s" horiz-adv-x="447" d="M52 26v135h46q1 -21 6 -39.5t16 -40t33.5 -34.5t53.5 -13q95 0 95 75q0 44 -65 76l-86 40q-91 37 -91 126q0 60 47 99t119 39t134 -32q1 0 4.5 -1.5t5.5 -2.5v-129h-52q-1 44 -25.5 81t-71.5 37q-31 0 -56.5 -15t-25.5 -53q0 -47 59 -73l86 -39q59 -27 81 -55.5t22 -75.5 q0 -53 -45 -98.5t-127 -45.5q-92 0 -163 39z" />
<glyph unicode="t" horiz-adv-x="360" d="M34 424l4 43q23 0 43 13.5t30 29t24.5 39t21.5 33.5l38 1l-7 -105h133v-54h-135q-3 -279 -3 -306q0 -45 10 -55q8 -8 36 -8h12q24 1 72 5l7 -42q-94 -27 -147 -27q-77 0 -77 92q1 89 5 341h-67z" />
<glyph unicode="u" horiz-adv-x="592" d="M18 425l4 39q94 20 163 20q-2 -32 -2 -93q0 -142 1 -229q2 -107 98 -107q63 0 109 58v231q0 59 -12 69q-18 12 -54 12h-10l4 39q95 19 165 19q-2 -30 -2 -84v-298q0 -39 22 -47l31 -12v-37l-129 -12l-14 71q-65 -79 -148 -79q-69 0 -110 38t-41 120q0 13 0.5 74t0.5 97 v11q0 70 -12 85q-13 16 -48 16q-8 0 -16 -1z" />
<glyph unicode="v" horiz-adv-x="471" d="M-19 431v37l67 8h74l87 -8v-37l-75 -13l82 -235q10 -33 29 -102q11 40 33 102l91 236l-68 12v37l69 8h55l59 -7v-38l-35 -8q-22 -5 -30 -29l-159 -402h-62l-151 403q-8 24 -27 29z" />
<glyph unicode="w" horiz-adv-x="712" d="M-15 431v37l72 8h77l79 -8v-37l-74 -12l67 -245q13 -46 21 -83q16 56 26 87l95 296h51l87 -300q1 -4 22 -84q5 18 25 87l74 242l-65 12v37l70 8h56l56 -7v-38l-35 -8q-25 -6 -32 -28l-132 -403h-67l-80 268l-23 81q-8 -33 -23 -81l-87 -268h-70l-121 405q-7 23 -30 27z " />
<glyph unicode="x" horiz-adv-x="505" d="M3 5v37l29 5q40 7 52 22l118 167l-128 174q-8 12 -45 18l-20 3v37l67 8h71l82 -8v-37l-57 -11l87 -126l30 44l55 81l-55 12v37l74 8h52l56 -8v-37l-28 -5q-40 -7 -51 -22l-105 -141l139 -197q8 -11 33 -18l29 -6v-37l-59 -8h-71l-84 8v37l56 10l-66 97q-13 17 -33 53 l-101 -149l56 -11v-37l-72 -8h-57z" />
<glyph unicode="y" horiz-adv-x="505" d="M14 431v37l64 8h88l76 -8v-37l-74 -12l75 -216q18 -54 34 -118q77 205 121 334l-63 12v37l67 8h54l62 -7v-38l-40 -7q-15 -2 -21 -6.5t-11 -18.5q-80 -234 -174 -454q-43 -101 -75 -143t-82 -49v-1l-36 -3q-6 -1 -12 -1q-46 0 -46 36v31q0 20 17 28q7 3 15 3q13 0 29 -8 l60 -27q27 11 63 95l32 77l-28 73l-132 348q-6 15 -28 21z" />
<glyph unicode="z" horiz-adv-x="481" d="M39 6v37l285 389l-195 -2l-19 -97h-56l2 139l59 8h245l65 -2v-38l-286 -392l209 2l26 98h50l1 -142l-58 -8h-262z" />
<glyph unicode="{" horiz-adv-x="338" d="M45 212v33l45 12q39 10 55 37.5t16 91.5v191q0 165 117 165q7 0 16.5 -1t13.5 -1v-27q-38 0 -56.5 -29.5t-18.5 -101.5v-223q0 -52 -22.5 -86t-61.5 -46q84 -30 84 -129v-232q0 -62 19 -89.5t56 -27.5v-26q-3 0 -8 -1.5t-10.5 -2t-11.5 -0.5q-117 0 -117 168v185 q0 59 -15.5 87.5t-55.5 40.5z" />
<glyph unicode="|" horiz-adv-x="178" d="M50 -254v966h63v-966h-63z" />
<glyph unicode="}" horiz-adv-x="302" d="M17 -251q38 0 56 29.5t18 101.5v222q0 105 83 131q-83 32 -83 130v232q0 117 -74 117v27q21 3 29 3q117 0 117 -167v-186q0 -58 16 -87t55 -40l45 -13v-33l-45 -12q-39 -10 -55 -37.5t-16 -91.5v-191q0 -165 -117 -165q-5 0 -29 3v27z" />
<glyph unicode="~" horiz-adv-x="470" d="M10 321q9 49 39.5 76t74.5 27q41 0 90 -26t87 -26q51 0 61 52l53 -16q-10 -45 -41 -71.5t-74 -26.5q-48 0 -98.5 25.5t-76.5 25.5q-54 0 -64 -56z" />
<glyph unicode="&#xa1;" horiz-adv-x="292" d="M52 -179l40 492h62l40 -480zM63 428q0 23 18 40.5t43 17.5q24 0 42 -17.5t18 -40.5q0 -25 -17.5 -42.5t-42.5 -17.5t-43 17.5t-18 42.5z" />
<glyph unicode="&#xa2;" horiz-adv-x="460" d="M35 225q0 108 50.5 173t126.5 81v122h56v-117q80 -3 125 -46l14 -9q28 -18 14 -46l-13 -26q-8 -17 -27.5 -18.5t-35.5 18.5l-55 81l-22 2v-140h-56v131q-85 -35 -85 -182q0 -58 23 -104.5t62 -68.5v156h56v-171h2q82 0 128 70l33 -19q-54 -117 -163 -126v-129h-56v131 q-82 12 -129.5 79t-47.5 158z" />
<glyph unicode="&#xa3;" horiz-adv-x="482" d="M7 26q24 56 73 74q32 17 49 45.5t17 82.5q0 42 -3 77h-90l12 51h75q-3 37 -3 77q0 57 16 96t46 60t65.5 29.5t82.5 8.5q32 0 54 -5l54 -12q24 -5 18 -31l-9 -30q-5 -17 -22 -20.5t-34 9.5l-58 49q-124 0 -124 -122q0 -39 4 -109h132l-8 -51h-121q1 -15 1 -46 q0 -113 -59 -161q18 -4 61 -15.5t72 -18t46 -6.5q47 0 69 37l31 -18q-18 -44 -50 -64t-65 -20q-28 0 -115.5 22.5t-111.5 22.5q-45 0 -68 -36z" />
<glyph unicode="&#xa4;" horiz-adv-x="509" d="M30 539l59 51l63 -86q42 25 96 25q56 0 96 -24l63 84l59 -51l-67 -87q32 -52 32 -133q0 -80 -31 -131l66 -88l-59 -49l-63 83q-39 -23 -96 -23q-56 0 -94 22l-62 -82l-60 50l66 86q-32 50 -32 131q0 79 32 131zM143 318q0 -72 29.5 -110t74.5 -38q48 0 77 38t29 110 q0 77 -29 114.5t-77 37.5q-45 0 -74.5 -38.5t-29.5 -113.5z" />
<glyph unicode="&#xa5;" horiz-adv-x="566" d="M16 577v30l54 7h96l68 -7v-29l-60 -12l123 -258h1l2 1l135 257l-61 12v29l74 7h35l69 -7v-29l-28 -7q-5 -1 -9.5 -3t-8 -3t-7 -4.5l-5 -5t-5 -6.5t-4 -6.5t-5 -9t-5.5 -9.5l-124 -216h122v-46h-145v-73h145v-45h-145q0 -35 1 -56q0 -32 30 -36l50 -10v-37l-80 -8h-100 l-77 8v37l48 9q17 4 23.5 12t8.5 24q1 19 1 57h-144v45h144v73h-144v46h119l-127 233q-13 24 -39 30z" />
<glyph unicode="&#xa6;" horiz-adv-x="181" d="M52 185h63v-439h-63v439zM52 265v447h63v-447h-63z" />
<glyph unicode="&#xa7;" horiz-adv-x="522" d="M39 239q0 57 38.5 100.5t101.5 57.5q-98 53 -98 152q0 74 55.5 117t130.5 43q56 0 131 -32l10 -3q26 -10 18 -36l-14 -35q-8 -17 -26 -18t-33 14l-67 67q-4 0 -12 0.5t-13 0.5q-51 0 -78 -27t-27 -68q0 -71 81 -106l84 -38q72 -32 101.5 -72.5t29.5 -91.5 q0 -63 -38.5 -105t-98.5 -59q96 -49 96 -142q0 -79 -60.5 -121t-135.5 -42q-56 0 -138 34l18 24l66 -4q16 -10 28 -12l4 -5l-62 -18l-45 12q-46 12 -36 45l9 30q6 21 25.5 25t36.5 -15l68 -74q13 -3 38 -3q49 0 79.5 28.5t30.5 73.5q0 39 -20.5 60.5t-61.5 38.5l-90 38 q-54 22 -90 63.5t-36 102.5zM118 254q0 -69 87 -106l53 -23q113 27 113 123q0 68 -90 106l-42 17q-53 -11 -87 -41.5t-34 -75.5z" />
<glyph unicode="&#xa8;" horiz-adv-x="517" d="M102 607q0 22 14.5 36.5t36.5 14.5q21 0 36 -14.5t15 -36.5q0 -21 -15 -36t-36 -15q-22 0 -36.5 15t-14.5 36zM298 607q0 22 14.5 36.5t36.5 14.5q21 0 36 -14.5t15 -36.5q0 -21 -15 -36t-36 -15q-22 0 -36.5 15t-14.5 36z" />
<glyph unicode="&#xa9;" horiz-adv-x="775" d="M45 325q0 139 97.5 236t236.5 97t237.5 -97.5t98.5 -235.5q0 -139 -98.5 -237t-237.5 -98t-236.5 98t-97.5 237zM105 325q0 -118 79 -199.5t195 -81.5t196 81.5t80 199.5t-80 198.5t-196 80.5t-195 -80.5t-79 -198.5zM183 325q0 90 58.5 147t160.5 57q31 0 105 -20l23 -4 v-104h-48q-15 59 -29 73q-19 19 -54 19q-55 0 -91 -43t-36 -116q0 -84 42 -123t97 -39q29 0 54 11l19 85h41l6 -52v-55q-67 -35 -132 -35q-87 0 -151.5 51.5t-64.5 147.5z" />
<glyph unicode="&#xaa;" horiz-adv-x="326" d="M27 443q0 66 73 88q40 11 87 16v11q0 35 -13 52t-44 17q-50 0 -78 -28l-12 24q15 18 48 32t70 14q55 0 79.5 -24.5t24.5 -81.5q0 -15 -1 -57t-1 -67q0 -13 1 -19t6 -10t16 -4h19v-21l-80 -19l-27 35q-32 -35 -85 -35q-40 0 -61.5 21.5t-21.5 55.5zM96 449q0 -20 13 -31 t32 -11q26 0 46 18v92q-38 -8 -54 -14q-37 -12 -37 -54z" />
<glyph unicode="&#xab;" horiz-adv-x="384" d="M21 265v20l114 179h63l-98 -190l99 -189h-67zM181 265v20l114 179h63l-98 -190l99 -189h-67z" />
<glyph unicode="&#xac;" horiz-adv-x="585" d="M40 235v56h436v-215h-56v159h-380z" />
<glyph unicode="&#xae;" horiz-adv-x="775" d="M45 325q0 138 98 235.5t236 97.5q141 0 238.5 -96.5t97.5 -236.5q0 -139 -98.5 -237t-237.5 -98t-236.5 98t-97.5 237zM105 325q0 -118 79 -199.5t195 -81.5q119 0 197.5 80t78.5 201q0 118 -80 198.5t-196 80.5t-195 -80.5t-79 -198.5zM208 516l33 4h124q90 0 133.5 -24 t43.5 -76q0 -39 -29 -64.5t-77 -35.5q15 -8 27 -26l66 -99q16 -19 27 -23l5 -2v-22l-86 -6q-17 9 -26 29l-86 144h-27v-136l43 -10v-21l-49 -5h-92l-29 4v24l27 5q17 4 17 26l1 8v25v34v115v32t-0.5 32.5t-0.5 14.5q0 12 -5 18t-20 8l-18 4zM336 345l57 1q29 5 48 25t19 46 q0 65 -85 65h-39v-137z" />
<glyph unicode="&#xaf;" horiz-adv-x="425" d="M54 556v52h303v-52h-303z" />
<glyph unicode="&#xb0;" horiz-adv-x="404" d="M45 686q0 62 44 106.5t106 44.5q63 0 106 -43.5t43 -108.5q0 -63 -43 -107.5t-106 -44.5t-106.5 44.5t-43.5 108.5zM99 681q0 -37 28 -65.5t65 -28.5q44 0 71 27t27 70q0 44 -27 71.5t-69 27.5q-40 0 -67.5 -29.5t-27.5 -72.5z" />
<glyph unicode="&#xb1;" horiz-adv-x="456" d="M22 0v69h397v-69h-397zM46 284v71h139v137h71v-137h140v-71h-140v-133h-71v133h-139z" />
<glyph unicode="&#xb2;" horiz-adv-x="331" d="M18 354v42q35 34 132 124q36 34 36 75q0 24 -16.5 39t-43.5 15q-54 0 -70 -58l-38 14q12 44 46.5 71.5t83.5 27.5q58 0 91 -32t33 -75q0 -60 -76 -117q-112 -80 -123 -89l107 3q28 0 39 32l12 38h41v-110l-50 -5h-153z" />
<glyph unicode="&#xb3;" horiz-adv-x="332" d="M14 396l5 18q6 17 21 18t28 -12l37 -38q8 -2 26 -2q35 0 50.5 19.5t15.5 45.5q0 36 -35 55h-68v40q50 2 76 17t26 53q0 23 -15.5 37.5t-39.5 14.5q-57 0 -71 -71h-41v82q9 6 47.5 18t75.5 12q59 0 93 -24t34 -67q0 -32 -23 -55.5t-60 -27.5v-2q46 -5 68.5 -26.5 t22.5 -52.5q0 -48 -39.5 -75.5t-113.5 -27.5q-53 0 -91 13q-38 10 -29 38z" />
<glyph unicode="&#xb4;" horiz-adv-x="514" d="M199.5 541.5q-1.5 4.5 3.5 9.5l121 100h86q8 0 10 -7.5t-5 -12.5l-163 -94h-46q-5 0 -6.5 4.5z" />
<glyph unicode="&#xb5;" horiz-adv-x="599" d="M98 -255l5 270v461h92q-3 -10 -3 -83v-247q0 -49 26 -76t76 -27q60 0 105 57v230q0 2 -0.5 59t0.5 87h92q-2 -30 -2 -89v-301q0 -39 19 -46l35 -13v-22l-129 -12l-11 58q-25 -31 -63 -48.5t-76 -17.5q-51 0 -85 23l12 -252q-45 -11 -93 -11z" />
<glyph unicode="&#xb6;" horiz-adv-x="581" d="M55 488q0 76 52 118t135 42h10v-825h-58v506q-59 5 -99 45t-40 114zM297 -178l1 826h83l69 -8v-35l-59 -14q-11 -2 -18 -11.5t-9 -27t-2.5 -30.5t0.5 -37t1 -33v-630h-66z" />
<glyph unicode="&#xb7;" horiz-adv-x="250" d="M58 244q0 25 17 42t43 17q24 0 42 -17t18 -42q0 -23 -18 -41t-42 -18q-25 0 -42.5 17.5t-17.5 41.5z" />
<glyph unicode="&#xb8;" horiz-adv-x="466" d="M173 -164q28 0 49 13t21 37q0 42 -43 61l17 78l48 -3l-5 -56q23 -9 38.5 -28.5t15.5 -46.5q0 -47 -42 -71t-94 -24z" />
<glyph unicode="&#xb9;" horiz-adv-x="322" d="M43 639q100 30 155 66h23q-3 -93 -3 -99v-197q0 -18 10.5 -24t41.5 -11v-21l-45 -5h-95l-58 5v21q24 4 33.5 6t17.5 9t8 19l1 214q-48 -19 -79 -26z" />
<glyph unicode="&#xba;" horiz-adv-x="341" d="M19 512q0 70 37.5 113t106.5 43q70 0 107.5 -40.5t37.5 -109.5q0 -72 -38.5 -115t-106.5 -43t-106 42.5t-38 109.5zM91 517q0 -61 21 -94t53 -33t51 31.5t19 88.5q0 62 -19 94.5t-54 32.5q-32 0 -51.5 -32t-19.5 -88z" />
<glyph unicode="&#xbb;" horiz-adv-x="383" d="M11 85l99 189l-99 190h64l114 -179v-20l-112 -180h-66zM171 85l99 189l-99 190h64l114 -179v-20l-112 -180h-66z" />
<glyph unicode="&#xbc;" horiz-adv-x="868" d="M50 582q100 30 155 66h23q-3 -93 -3 -99v-197q0 -18 10.5 -24t41.5 -11v-21l-45 -5h-95l-58 5v21q24 4 33.5 6t17.5 9t8 19l1 214q-48 -19 -79 -26zM159 0l422 648h70l-421 -648h-71zM480 107v30q78 122 169 221h67v-211h3l53 -8v-26l-53 -6h-3v-53q0 -18 16 -22l31 -8 v-21l-43 -5h-101l-42 4v22l34 8q23 4 23 23v52h-154zM540 147h94v132q-51 -63 -94 -132z" />
<glyph unicode="&#xbd;" horiz-adv-x="856" d="M50 582q100 30 155 66h23q-3 -93 -3 -99v-197q0 -18 10.5 -24t41.5 -11v-21l-45 -5h-95l-58 5v21q24 4 33.5 6t17.5 9t8 19l1 214q-48 -19 -79 -26zM147 0l422 648h70l-421 -648h-71zM499 4v42q35 34 132 124q36 34 36 75q0 24 -16.5 39t-43.5 15q-54 0 -70 -58l-38 14 q12 44 46.5 71.5t83.5 27.5q58 0 91 -32t33 -75q0 -60 -76 -117q-112 -80 -123 -89l107 3q28 0 39 32l12 38h41v-110l-50 -5h-153z" />
<glyph unicode="&#xbe;" horiz-adv-x="868" d="M17 339l5 18q6 17 21 18t28 -12l37 -38q8 -2 26 -2q35 0 50.5 19.5t15.5 45.5q0 36 -35 55h-68v40q50 2 76 17t26 53q0 23 -15.5 37.5t-39.5 14.5q-57 0 -71 -71h-41v82q9 6 47.5 18t75.5 12q59 0 93 -24t34 -67q0 -32 -23 -55.5t-60 -27.5v-2q46 -5 68.5 -26.5 t22.5 -52.5q0 -48 -39.5 -75.5t-113.5 -27.5q-53 0 -91 13q-38 10 -29 38zM159 0l422 648h70l-421 -648h-71zM480 107v30q78 122 169 221h67v-211h3l53 -8v-26l-53 -6h-3v-53q0 -18 16 -22l31 -8v-21l-43 -5h-101l-42 4v22l34 8q23 4 23 23v52h-154zM540 147h94v132 q-51 -63 -94 -132z" />
<glyph unicode="&#xbf;" horiz-adv-x="412" d="M4 -40q0 31 9.5 59t32.5 57.5t36.5 44t44.5 45.5q58 53 58 147h60q0 -54 -14.5 -98t-35 -73t-41.5 -56t-35.5 -59t-14.5 -69q0 -47 26.5 -72.5t78.5 -25.5q28 0 56 14l32 84q9 23 30.5 27.5t33.5 -10.5l17 -19q14 -17 13 -26t-13 -22l-21 -20l-4 -1q-22 -28 -67.5 -53.5 t-95.5 -25.5q-87 0 -136.5 43.5t-49.5 108.5zM157 429q0 25 17 42t43 17q24 0 42 -17t18 -42q0 -23 -18 -41t-42 -18q-25 0 -42.5 17.5t-17.5 41.5z" />
<glyph unicode="&#xc0;" horiz-adv-x="603" d="M-28 5v35l38 7q35 7 47 42l207 574h79l196 -568q6 -18 14.5 -27.5t15 -12t20.5 -5.5l31 -7v-38l-68 -8h-84l-94 8v35l73 14l-60 182h-216l-61 -184l71 -12v-35l-94 -8h-56zM138.5 801q-0.5 5 2.5 8.5t8 3.5h85l121 -100q5 -5 3.5 -9.5t-6.5 -4.5h-46l-162 94q-5 3 -5.5 8 zM185 280h188l-71 215q-8 26 -21 83q-8 -32 -24 -83z" />
<glyph unicode="&#xc1;" horiz-adv-x="603" d="M-28 5v35l38 7q35 7 47 42l207 574h79l196 -568q6 -18 14.5 -27.5t15 -12t20.5 -5.5l31 -7v-38l-68 -8h-84l-94 8v35l73 14l-60 182h-216l-61 -184l71 -12v-35l-94 -8h-56zM185 280h188l-71 215q-8 26 -21 83q-8 -32 -24 -83zM249.5 703.5q-1.5 4.5 3.5 9.5l121 100h86 q8 0 10 -7.5t-5 -12.5l-163 -94h-46q-5 0 -6.5 4.5z" />
<glyph unicode="&#xc2;" horiz-adv-x="603" d="M-28 5v35l38 7q35 7 47 42l207 574h79l196 -568q6 -18 14.5 -27.5t15 -12t20.5 -5.5l31 -7v-38l-68 -8h-84l-94 8v35l73 14l-60 182h-216l-61 -184l71 -12v-35l-94 -8h-56zM185 280h188l-71 215q-8 26 -21 83q-8 -32 -24 -83zM186 745l126 113l131 -115l-26 -31l-107 73 l-101 -72z" />
<glyph unicode="&#xc3;" horiz-adv-x="603" d="M-28 5v35l38 7q35 7 47 42l207 574h79l196 -568q6 -18 14.5 -27.5t15 -12t20.5 -5.5l31 -7v-38l-68 -8h-84l-94 8v35l73 14l-60 182h-216l-61 -184l71 -12v-35l-94 -8h-56zM140 744q28 78 98 78q22 0 60 -22.5t59 -22.5q39 0 60 38l35 -20q-17 -41 -45 -61t-55 -20 q-22 0 -61 21t-60 21q-42 0 -59 -32zM185 280h188l-71 215q-8 26 -21 83q-8 -32 -24 -83z" />
<glyph unicode="&#xc4;" horiz-adv-x="603" d="M-28 5v35l38 7q35 7 47 42l207 574h79l196 -568q6 -18 14.5 -27.5t15 -12t20.5 -5.5l31 -7v-38l-68 -8h-84l-94 8v35l73 14l-60 182h-216l-61 -184l71 -12v-35l-94 -8h-56zM146 769q0 22 14.5 36.5t36.5 14.5q21 0 36 -14.5t15 -36.5q0 -21 -15 -36t-36 -15 q-22 0 -36.5 15t-14.5 36zM185 280h188l-71 215q-8 26 -21 83q-8 -32 -24 -83zM342 769q0 22 14.5 36.5t36.5 14.5q21 0 36 -14.5t15 -36.5q0 -21 -15 -36t-36 -15q-22 0 -36.5 15t-14.5 36z" />
<glyph unicode="&#xc5;" horiz-adv-x="603" d="M-28 5v35l38 7q35 7 47 42l207 574h79l196 -568q6 -18 14.5 -27.5t15 -12t20.5 -5.5l31 -7v-38l-68 -8h-84l-94 8v35l73 14l-60 182h-216l-61 -184l71 -12v-35l-94 -8h-56zM185 280h188l-71 215q-8 26 -21 83q-8 -32 -24 -83zM207 753q0 37 25.5 63t62.5 26t63.5 -26 t26.5 -63t-26 -62.5t-64 -25.5q-37 0 -62.5 25.5t-25.5 62.5zM251 753q0 -19 13 -31.5t31 -12.5q19 0 32 12.5t13 31.5t-13 32t-32 13q-18 0 -31 -13t-13 -32z" />
<glyph unicode="&#xc6;" horiz-adv-x="808" d="M-17 5v24q24 5 34.5 8.5t21 14.5t19.5 32l254 565h364q40 0 78 3v-173h-51l-15 90q-5 28 -23 35.5t-83 7.5h-129q0 -30 -0.5 -93t-0.5 -88v-76h137q5 0 9.5 3.5t8 10t6 13.5t5 17.5t4 18t4 19t3.5 16.5h37v-247h-36q-2 8 -5.5 25.5t-6.5 29t-7 24.5t-10 19.5t-14 6.5 h-135v-95q0 -102 1 -176h207q14 0 26 12.5t16 33.5l15 84h45v-172q-38 2 -117 2h-309l-47 5v21l36 9q16 4 22 11.5t7 26.5q2 25 2 102v77h-164l-90 -211l62 -13v-23l-82 -8h-49zM211 295h145v317h-9z" />
<glyph unicode="&#xc7;" horiz-adv-x="583" d="M35 315q0 147 88 247t228 100q102 0 178 -26v-83l-7 -90h-46l-4 28q-10 64 -33 92q-24 27 -94 27q-87 0 -144.5 -72t-57.5 -211q0 -133 63.5 -208.5t157.5 -75.5q46 0 66 8q31 10 39 55l14 77h47v-156q-63 -42 -180 -42q-15 0 -41 2l-2 -23q23 -9 38.5 -28.5t15.5 -46.5 q0 -47 -42 -71t-94 -24l-5 40q28 0 49 13t21 37q0 42 -43 61l11 51q-100 25 -161.5 106t-61.5 213z" />
<glyph unicode="&#xc8;" horiz-adv-x="568" d="M33 5v37l50 11q28 6 29 40q2 52 2 89v279q0 66 -2 95q-3 31 -29 37l-50 10v37l76 9h325q40 0 78 3l-1 -173h-50l-15 71q-6 27 -22.5 36t-67.5 9h-146v-234h131q18 0 27 26l19 66h37v-247h-36l-21 74q-7 25 -28 25h-129v-89q0 -89 1 -162h199q36 0 46 49l15 67h49v-172 q-38 2 -117 2h-300zM164.5 802q-0.5 5 2.5 8.5t8 3.5h85l121 -100q5 -4 3.5 -9t-6.5 -5h-46l-162 94q-5 3 -5.5 8z" />
<glyph unicode="&#xc9;" horiz-adv-x="568" d="M33 5v37l50 11q28 6 29 40q2 52 2 89v279q0 66 -2 95q-3 31 -29 37l-50 10v37l76 9h325q40 0 78 3l-1 -173h-50l-15 71q-6 27 -22.5 36t-67.5 9h-146v-234h131q18 0 27 26l19 66h37v-247h-36l-21 74q-7 25 -28 25h-129v-89q0 -89 1 -162h199q36 0 46 49l15 67h49v-172 q-38 2 -117 2h-300zM204.5 705q-1.5 5 3.5 9l121 100h86q8 0 10 -8t-5 -12l-163 -94h-46q-5 0 -6.5 5z" />
<glyph unicode="&#xca;" horiz-adv-x="568" d="M33 5v37l50 11q28 6 29 40q2 52 2 89v279q0 66 -2 95q-3 31 -29 37l-50 10v37l76 9h325q40 0 78 3l-1 -173h-50l-15 71q-6 27 -22.5 36t-67.5 9h-146v-234h131q18 0 27 26l19 66h37v-247h-36l-21 74q-7 25 -28 25h-129v-89q0 -89 1 -162h199q36 0 46 49l15 67h49v-172 q-38 2 -117 2h-300zM186 745l126 113l131 -115l-26 -31l-107 73l-101 -72z" />
<glyph unicode="&#xcb;" horiz-adv-x="568" d="M33 5v37l50 11q28 6 29 40q2 52 2 89v279q0 66 -2 95q-3 31 -29 37l-50 10v37l76 9h325q40 0 78 3l-1 -173h-50l-15 71q-6 27 -22.5 36t-67.5 9h-146v-234h131q18 0 27 26l19 66h37v-247h-36l-21 74q-7 25 -28 25h-129v-89q0 -89 1 -162h199q36 0 46 49l15 67h49v-172 q-38 2 -117 2h-300zM131 770q0 22 14.5 36.5t36.5 14.5q21 0 36 -14.5t15 -36.5q0 -21 -15 -36t-36 -15q-22 0 -36.5 15t-14.5 36zM327 770q0 22 14.5 36.5t36.5 14.5q21 0 36 -14.5t15 -36.5q0 -21 -15 -36t-36 -15q-22 0 -36.5 15t-14.5 36z" />
<glyph unicode="&#xcc;" horiz-adv-x="337" d="M34 5v37l50 11q16 4 22 11.5t7 26.5q2 56 2 94v270q0 66 -3 101q-1 31 -27 37l-51 10v37l82 8h94l82 -8v-37l-51 -11q-27 -4 -28 -36q-2 -31 -2 -100v-270q0 -48 1 -95q0 -19 6.5 -26.5t22.5 -10.5l51 -12v-37l-84 -8h-92zM46.5 801q-0.5 5 2.5 8.5t8 3.5h85l121 -100 q5 -5 3.5 -9.5t-6.5 -4.5h-46l-162 94q-5 3 -5.5 8z" />
<glyph unicode="&#xcd;" horiz-adv-x="337" d="M34 5v37l50 11q16 4 22 11.5t7 26.5q2 56 2 94v270q0 66 -3 101q-1 31 -27 37l-51 10v37l82 8h94l82 -8v-37l-51 -11q-27 -4 -28 -36q-2 -31 -2 -100v-270q0 -48 1 -95q0 -19 6.5 -26.5t22.5 -10.5l51 -12v-37l-84 -8h-92zM59.5 703.5q-1.5 4.5 3.5 9.5l121 100h86 q8 0 10 -7.5t-5 -12.5l-163 -94h-46q-5 0 -6.5 4.5z" />
<glyph unicode="&#xce;" horiz-adv-x="337" d="M33 735l126 113l131 -115l-26 -31l-107 73l-101 -72zM34 5v37l50 11q16 4 22 11.5t7 26.5q2 56 2 94v270q0 66 -3 101q-1 31 -27 37l-51 10v37l82 8h94l82 -8v-37l-51 -11q-27 -4 -28 -36q-2 -31 -2 -100v-270q0 -48 1 -95q0 -19 6.5 -26.5t22.5 -10.5l51 -12v-37l-84 -8 h-92z" />
<glyph unicode="&#xcf;" horiz-adv-x="337" d="M13 769q0 22 14.5 36.5t36.5 14.5q21 0 36 -14.5t15 -36.5q0 -21 -15 -36t-36 -15q-22 0 -36.5 15t-14.5 36zM34 5v37l50 11q16 4 22 11.5t7 26.5q2 56 2 94v270q0 66 -3 101q-1 31 -27 37l-51 10v37l82 8h94l82 -8v-37l-51 -11q-27 -4 -28 -36q-2 -31 -2 -100v-270 q0 -48 1 -95q0 -19 6.5 -26.5t22.5 -10.5l51 -12v-37l-84 -8h-92zM209 769q0 22 14.5 36.5t36.5 14.5q21 0 36 -14.5t15 -36.5q0 -21 -15 -36t-36 -15q-22 0 -36.5 15t-14.5 36z" />
<glyph unicode="&#xd0;" horiz-adv-x="666" d="M32 5v37l50 11q26 5 29 40q1 13 1 101v92h-74v69h74v87q0 100 -1 115q-2 17 -8 25t-21 11l-49 10v37l82 8q23 0 79 0.5t81 0.5q163 0 253.5 -80t90.5 -237q0 -163 -96.5 -249t-264.5 -86h-148zM210 197q0 -111 1 -144l68 1q113 1 173.5 65.5t60.5 193.5 q0 135 -59.5 207.5t-178.5 71.5l-65 -1v-236h69v-69h-69v-89z" />
<glyph unicode="&#xd1;" horiz-adv-x="692" d="M22 5v37l52 12q20 4 25 22q4 18 4 109v345q0 27 -8.5 40t-28.5 19l-43 14v37l71 8h79l275 -395q65 -97 78 -121v352q0 66 -1 102l-78 17v37l83 8h55l74 -8v-37l-50 -11q-26 -4 -27 -36q-3 -44 -3 -101v-455l-72 -8l-349 513v-446l76 -17v-37l-79 -8h-70zM182 744 q28 78 98 78q22 0 60 -22.5t59 -22.5q39 0 60 38l35 -20q-17 -41 -45 -61t-55 -20q-22 0 -61 21t-60 21q-42 0 -59 -32z" />
<glyph unicode="&#xd2;" d="M35 325q0 142 78 240.5t211 98.5q139 0 216.5 -95.5t77.5 -243.5q0 -144 -77.5 -242.5t-214.5 -98.5q-136 0 -213.5 94.5t-77.5 246.5zM144 330q0 -135 48 -212.5t139 -77.5q81 0 129.5 68.5t48.5 204.5q0 137 -47 216.5t-141 79.5q-87 0 -132 -72.5t-45 -206.5z M213.5 802q-0.5 5 2.5 8.5t8 3.5h85l121 -100q5 -4 3.5 -9t-6.5 -5h-46l-162 94q-5 3 -5.5 8z" />
<glyph unicode="&#xd3;" d="M35 325q0 142 78 240.5t211 98.5q139 0 216.5 -95.5t77.5 -243.5q0 -144 -77.5 -242.5t-214.5 -98.5q-136 0 -213.5 94.5t-77.5 246.5zM144 330q0 -135 48 -212.5t139 -77.5q81 0 129.5 68.5t48.5 204.5q0 137 -47 216.5t-141 79.5q-87 0 -132 -72.5t-45 -206.5z M226.5 705q-1.5 5 3.5 9l121 100h86q8 0 10 -8t-5 -12l-163 -94h-46q-5 0 -6.5 5z" />
<glyph unicode="&#xd4;" d="M35 325q0 142 78 240.5t211 98.5q139 0 216.5 -95.5t77.5 -243.5q0 -144 -77.5 -242.5t-214.5 -98.5q-136 0 -213.5 94.5t-77.5 246.5zM144 330q0 -135 48 -212.5t139 -77.5q81 0 129.5 68.5t48.5 204.5q0 137 -47 216.5t-141 79.5q-87 0 -132 -72.5t-45 -206.5zM199 745 l126 113l131 -115l-26 -31l-107 73l-101 -72z" />
<glyph unicode="&#xd5;" d="M35 325q0 142 78 240.5t211 98.5q139 0 216.5 -95.5t77.5 -243.5q0 -144 -77.5 -242.5t-214.5 -98.5q-136 0 -213.5 94.5t-77.5 246.5zM144 330q0 -135 48 -212.5t139 -77.5q81 0 129.5 68.5t48.5 204.5q0 137 -47 216.5t-141 79.5q-87 0 -132 -72.5t-45 -206.5zM174 753 q28 78 98 78q22 0 60 -22.5t59 -22.5q39 0 60 38l35 -20q-17 -41 -45 -61t-55 -20q-22 0 -61 21t-60 21q-42 0 -59 -32z" />
<glyph unicode="&#xd6;" d="M35 325q0 142 78 240.5t211 98.5q139 0 216.5 -95.5t77.5 -243.5q0 -144 -77.5 -242.5t-214.5 -98.5q-136 0 -213.5 94.5t-77.5 246.5zM144 330q0 -135 48 -212.5t139 -77.5q81 0 129.5 68.5t48.5 204.5q0 137 -47 216.5t-141 79.5q-87 0 -132 -72.5t-45 -206.5zM180 769 q0 22 14.5 36.5t36.5 14.5q21 0 36 -14.5t15 -36.5q0 -21 -15 -36t-36 -15q-22 0 -36.5 15t-14.5 36zM376 769q0 22 14.5 36.5t36.5 14.5q21 0 36 -14.5t15 -36.5q0 -21 -15 -36t-36 -15q-22 0 -36.5 15t-14.5 36z" />
<glyph unicode="&#xd7;" horiz-adv-x="468" d="M45 173l134 141l-132 140l50 47l130 -137l130 136l49 -46l-132 -139l134 -141l-50 -48l-132 139l-132 -139z" />
<glyph unicode="&#xd8;" d="M35 325q0 142 78 240.5t211 98.5q64 0 117 -22l32 71h61l-44 -98q62 -44 95 -120t33 -170q0 -144 -77.5 -242.5t-214.5 -98.5q-60 0 -106 18l-33 -75h-60l44 100q-66 42 -101 119.5t-35 178.5zM144 330q0 -152 59 -229l212 480q-40 28 -94 28q-87 0 -132 -72.5 t-45 -206.5zM247 62q38 -22 84 -22q81 0 129.5 68.5t48.5 204.5q0 147 -53 224z" />
<glyph unicode="&#xd9;" horiz-adv-x="653" d="M5 603v37l75 8h94l72 -7v-38l-74 -13q-1 -50 -1 -149v-197q0 -125 45 -170q39 -38 115 -38q80 0 117.5 51t37.5 139v245q0 11 -0.5 51t-0.5 67l-67 14v37l79 8h53l67 -8v-37l-39 -9q-15 -4 -20.5 -12t-6.5 -26q-2 -58 -2 -96v-224q0 -124 -62 -188.5t-163 -64.5 q-125 0 -187.5 61.5t-62.5 191.5v199q0 71 -2 121q-1 34 -27 40zM203.5 801q-0.5 5 2.5 8.5t8 3.5h85l121 -100q5 -5 3.5 -9.5t-6.5 -4.5h-46l-162 94q-5 3 -5.5 8z" />
<glyph unicode="&#xda;" horiz-adv-x="653" d="M5 603v37l75 8h94l72 -7v-38l-74 -13q-1 -50 -1 -149v-197q0 -125 45 -170q39 -38 115 -38q80 0 117.5 51t37.5 139v245q0 11 -0.5 51t-0.5 67l-67 14v37l79 8h53l67 -8v-37l-39 -9q-15 -4 -20.5 -12t-6.5 -26q-2 -58 -2 -96v-224q0 -124 -62 -188.5t-163 -64.5 q-125 0 -187.5 61.5t-62.5 191.5v199q0 71 -2 121q-1 34 -27 40zM216.5 703.5q-1.5 4.5 3.5 9.5l121 100h86q8 0 10 -7.5t-5 -12.5l-163 -94h-46q-5 0 -6.5 4.5z" />
<glyph unicode="&#xdb;" horiz-adv-x="653" d="M5 603v37l75 8h94l72 -7v-38l-74 -13q-1 -50 -1 -149v-197q0 -125 45 -170q39 -38 115 -38q80 0 117.5 51t37.5 139v245q0 11 -0.5 51t-0.5 67l-67 14v37l79 8h53l67 -8v-37l-39 -9q-15 -4 -20.5 -12t-6.5 -26q-2 -58 -2 -96v-224q0 -124 -62 -188.5t-163 -64.5 q-125 0 -187.5 61.5t-62.5 191.5v199q0 71 -2 121q-1 34 -27 40zM191 735l126 113l131 -115l-26 -31l-107 73l-101 -72z" />
<glyph unicode="&#xdc;" horiz-adv-x="653" d="M5 603v37l75 8h94l72 -7v-38l-74 -13q-1 -50 -1 -149v-197q0 -125 45 -170q39 -38 115 -38q80 0 117.5 51t37.5 139v245q0 11 -0.5 51t-0.5 67l-67 14v37l79 8h53l67 -8v-37l-39 -9q-15 -4 -20.5 -12t-6.5 -26q-2 -58 -2 -96v-224q0 -124 -62 -188.5t-163 -64.5 q-125 0 -187.5 61.5t-62.5 191.5v199q0 71 -2 121q-1 34 -27 40zM170 769q0 22 14.5 36.5t36.5 14.5q21 0 36 -14.5t15 -36.5q0 -21 -15 -36t-36 -15q-22 0 -36.5 15t-14.5 36zM366 769q0 22 14.5 36.5t36.5 14.5q21 0 36 -14.5t15 -36.5q0 -21 -15 -36t-36 -15 q-22 0 -36.5 15t-14.5 36z" />
<glyph unicode="&#xdd;" horiz-adv-x="559" d="M6 603v37l63 8h97l84 -8v-36l-72 -14l85 -191q23 -53 35 -92q13 32 42 90l91 192l-70 15v36l87 8h37l82 -8v-36l-50 -10q-27 -5 -43 -39l-145 -289v-80q0 -62 1 -95q0 -18 6.5 -25.5t22.5 -12.5l51 -11v-37l-81 -8h-97l-80 8v37l49 11q16 5 22.5 12t7.5 25q1 13 1 88v82 l-152 311q-10 20 -35 25zM171.5 703.5q-1.5 4.5 3.5 9.5l121 100h86q8 0 10 -7.5t-5 -12.5l-163 -94h-46q-5 0 -6.5 4.5z" />
<glyph unicode="&#xde;" horiz-adv-x="540" d="M48 618v22l63 8h103l61 -8v-22l-35 -8q-27 -6 -28 -36q-1 -14 -1 -43h37q265 0 265 -188q0 -76 -61.5 -135t-163.5 -59q-44 0 -77 3q0 -24 0.5 -58t0.5 -52l63 -14v-23l-65 -8h-101l-60 8v22l34 8q16 4 22 11.5t7 26.5q2 50 2 102v290q0 74 -3 110q-1 30 -28 35zM211 189 q17 -1 58 -1q69 0 106.5 42.5t37.5 106.5q0 70 -42 111t-106 41q-37 0 -53 -2h-1v-298z" />
<glyph unicode="&#xdf;" horiz-adv-x="587" d="M22 5v35l43 10q22 5 30 14t9 36q2 70 2 103v267q2 36 4 52q7 82 59 133t138 51q84 0 133 -40.5t49 -103.5q0 -65 -36.5 -104.5t-93.5 -54.5q87 -12 134 -68.5t47 -135.5q0 -65 -21 -110t-54 -65t-60 -27.5t-53 -7.5q-62 0 -120 22v128h41q6 -110 72 -110q97 0 97 155 q0 84 -50 139.5t-141 55.5v31l24 8q61 20 91 51t30 87q0 47 -25.5 77.5t-72.5 30.5q-46 0 -76.5 -35.5t-30.5 -113.5v-48l-1 -470h-80z" />
<glyph unicode="&#xe0;" horiz-adv-x="506" d="M49 100q0 54 33 81.5t86 43.5q59 17 139 27q0 12 0.5 35.5t0.5 36.5q0 55 -19.5 82.5t-66.5 27.5q-28 0 -58 -19l8 -31q7 -22 -2.5 -36t-33.5 -14h-56l-16 43l13 17q12 14 24 26q67 65 157 65q142 0 142 -152q0 -45 -2 -126.5t-2 -108.5q0 -29 6.5 -36t33.5 -7h29v-39 l-107 -30l-45 62q-56 -62 -136 -62q-59 0 -93.5 32t-34.5 82zM131.5 639q-0.5 5 2.5 8.5t8 3.5h85l121 -100q5 -5 3.5 -9.5t-6.5 -4.5h-46l-162 94q-5 3 -5.5 8zM140 113q0 -64 77 -64q51 0 89 38l2 127q-70 -14 -104 -25q-64 -21 -64 -76z" />
<glyph unicode="&#xe1;" horiz-adv-x="506" d="M49 100q0 54 33 81.5t86 43.5q59 17 139 27q0 12 0.5 35.5t0.5 36.5q0 55 -19.5 82.5t-66.5 27.5q-28 0 -58 -19l8 -31q7 -22 -2.5 -36t-33.5 -14h-56l-16 43l13 17q12 14 24 26q67 65 157 65q142 0 142 -152q0 -45 -2 -126.5t-2 -108.5q0 -29 6.5 -36t33.5 -7h29v-39 l-107 -30l-45 62q-56 -62 -136 -62q-59 0 -93.5 32t-34.5 82zM140 113q0 -64 77 -64q51 0 89 38l2 127q-70 -14 -104 -25q-64 -21 -64 -76zM148.5 541.5q-1.5 4.5 3.5 9.5l121 100h86q8 0 10 -7.5t-5 -12.5l-163 -94h-46q-5 0 -6.5 4.5z" />
<glyph unicode="&#xe2;" horiz-adv-x="506" d="M49 100q0 54 33 81.5t86 43.5q59 17 139 27q0 12 0.5 35.5t0.5 36.5q0 55 -19.5 82.5t-66.5 27.5q-28 0 -58 -19l8 -31q7 -22 -2.5 -36t-33.5 -14h-56l-16 43l13 17q12 14 24 26q67 65 157 65q142 0 142 -152q0 -45 -2 -126.5t-2 -108.5q0 -29 6.5 -36t33.5 -7h29v-39 l-107 -30l-45 62q-56 -62 -136 -62q-59 0 -93.5 32t-34.5 82zM117 575l126 113l131 -115l-26 -31l-107 73l-101 -72zM140 113q0 -64 77 -64q51 0 89 38l2 127q-70 -14 -104 -25q-64 -21 -64 -76z" />
<glyph unicode="&#xe3;" horiz-adv-x="506" d="M49 100q0 54 33 81.5t86 43.5q59 17 139 27q0 12 0.5 35.5t0.5 36.5q0 55 -19.5 82.5t-66.5 27.5q-28 0 -58 -19l8 -31q7 -22 -2.5 -36t-33.5 -14h-56l-16 43l13 17q12 14 24 26q67 65 157 65q142 0 142 -152q0 -45 -2 -126.5t-2 -108.5q0 -29 6.5 -36t33.5 -7h29v-39 l-107 -30l-45 62q-56 -62 -136 -62q-59 0 -93.5 32t-34.5 82zM90 587q28 78 98 78q22 0 60 -22.5t59 -22.5q39 0 60 38l35 -20q-17 -41 -45 -61t-55 -20q-22 0 -61 21t-60 21q-42 0 -59 -32zM140 113q0 -64 77 -64q51 0 89 38l2 127q-70 -14 -104 -25q-64 -21 -64 -76z" />
<glyph unicode="&#xe4;" horiz-adv-x="506" d="M49 100q0 54 33 81.5t86 43.5q59 17 139 27q0 12 0.5 35.5t0.5 36.5q0 55 -19.5 82.5t-66.5 27.5q-28 0 -58 -19l8 -31q7 -22 -2.5 -36t-33.5 -14h-56l-16 43l13 17q12 14 24 26q67 65 157 65q142 0 142 -152q0 -45 -2 -126.5t-2 -108.5q0 -29 6.5 -36t33.5 -7h29v-39 l-107 -30l-45 62q-56 -62 -136 -62q-59 0 -93.5 32t-34.5 82zM107 613q0 22 14.5 36.5t36.5 14.5q21 0 36 -14.5t15 -36.5q0 -21 -15 -36t-36 -15q-22 0 -36.5 15t-14.5 36zM140 113q0 -64 77 -64q51 0 89 38l2 127q-70 -14 -104 -25q-64 -21 -64 -76zM303 613 q0 22 14.5 36.5t36.5 14.5q21 0 36 -14.5t15 -36.5q0 -21 -15 -36t-36 -15q-22 0 -36.5 15t-14.5 36z" />
<glyph unicode="&#xe5;" horiz-adv-x="506" d="M49 100q0 54 33 81.5t86 43.5q59 17 139 27q0 12 0.5 35.5t0.5 36.5q0 55 -19.5 82.5t-66.5 27.5q-28 0 -58 -19l8 -31q7 -22 -2.5 -36t-33.5 -14h-56l-16 43l13 17q12 14 24 26q67 65 157 65q142 0 142 -152q0 -45 -2 -126.5t-2 -108.5q0 -29 6.5 -36t33.5 -7h29v-39 l-107 -30l-45 62q-56 -62 -136 -62q-59 0 -93.5 32t-34.5 82zM140 113q0 -64 77 -64q51 0 89 38l2 127q-70 -14 -104 -25q-64 -21 -64 -76zM158 599q0 37 25.5 63t62.5 26t63.5 -26t26.5 -63t-26 -62.5t-64 -25.5q-37 0 -62.5 25.5t-25.5 62.5zM202 599q0 -19 13 -31.5 t31 -12.5q19 0 32 12.5t13 31.5t-13 32t-32 13q-18 0 -31 -13t-13 -32z" />
<glyph unicode="&#xe6;" horiz-adv-x="746" d="M49 100q0 94 125 129q60 16 117 24q1 27 8 57l3 34q1 60 -36.5 85.5t-85.5 4.5l-18 -9l10 -41q7 -22 -2.5 -36t-33.5 -14h-56l-16 43l13 17q20 24 41 40q61 51 133 51q88 0 115 -56q64 61 154 61q86 0 134.5 -54.5t44.5 -118.5q1 -9 -1 -25q-2 -26 -33 -26h-284v-18 q0 -75 39 -132.5t113 -57.5q85 0 134 70l30 -19q-28 -60 -76 -92t-107 -32q-110 0 -172 81q-55 -80 -149 -80q-70 0 -107 31.5t-37 82.5zM141 113q0 -37 24 -55.5t60 -18.5q58 0 100 52q-29 53 -34 125q-50 -10 -87 -21q-63 -21 -63 -82zM381 306l225 6v18q-1 50 -29 78 t-70 28q-46 0 -92 -32q-28 -46 -34 -98z" />
<glyph unicode="&#xe7;" horiz-adv-x="460" d="M33 234q0 120 66 188t161 68q75 0 128 -47l19 -13q13 -8 17 -20.5t-3 -24.5l-13 -27q-7 -16 -27 -17.5t-35 18.5l-56 80q-18 2 -28 2q-61 0 -96 -51t-35 -140q0 -84 39 -137.5t103 -53.5q83 0 130 70l28 -17q-56 -127 -180 -127h-7l-2 -21q23 -9 38.5 -28.5t15.5 -46.5 q0 -47 -42 -71t-94 -24l-5 40q28 0 49 13t21 37q0 42 -43 61l10 48q-73 19 -116 83t-43 158z" />
<glyph unicode="&#xe8;" horiz-adv-x="491" d="M36 236q0 114 66.5 184t162.5 70q87 0 134.5 -54t43.5 -119q1 -10 -1 -30q-2 -25 -33 -25h-283v-14q0 -80 39.5 -134.5t113.5 -54.5q87 0 135 68l28 -17q-59 -125 -184 -125q-102 0 -162 70t-60 181zM124.5 641q-0.5 5 2.5 8.5t8 3.5h85l121 -100q5 -5 3.5 -9.5 t-6.5 -4.5h-46l-162 94q-5 3 -5.5 8zM125 305l229 6l-1 19q-2 49 -30 76t-70 27q-46 0 -92 -32q-29 -47 -36 -96z" />
<glyph unicode="&#xe9;" horiz-adv-x="491" d="M36 236q0 114 66.5 184t162.5 70q87 0 134.5 -54t43.5 -119q1 -10 -1 -30q-2 -25 -33 -25h-283v-14q0 -80 39.5 -134.5t113.5 -54.5q87 0 135 68l28 -17q-59 -125 -184 -125q-102 0 -162 70t-60 181zM125 305l229 6l-1 19q-2 49 -30 76t-70 27q-46 0 -92 -32 q-29 -47 -36 -96zM176.5 543.5q-1.5 4.5 3.5 9.5l121 100h86q8 0 10 -7.5t-5 -12.5l-163 -94h-46q-5 0 -6.5 4.5z" />
<glyph unicode="&#xea;" horiz-adv-x="491" d="M36 236q0 114 66.5 184t162.5 70q87 0 134.5 -54t43.5 -119q1 -10 -1 -30q-2 -25 -33 -25h-283v-14q0 -80 39.5 -134.5t113.5 -54.5q87 0 135 68l28 -17q-59 -125 -184 -125q-102 0 -162 70t-60 181zM125 305l229 6l-1 19q-2 49 -30 76t-70 27q-46 0 -92 -32 q-29 -47 -36 -96zM148 583l126 113l131 -115l-26 -31l-107 73l-101 -72z" />
<glyph unicode="&#xeb;" horiz-adv-x="491" d="M36 236q0 114 66.5 184t162.5 70q87 0 134.5 -54t43.5 -119q1 -10 -1 -30q-2 -25 -33 -25h-283v-14q0 -80 39.5 -134.5t113.5 -54.5q87 0 135 68l28 -17q-59 -125 -184 -125q-102 0 -162 70t-60 181zM125 305l229 6l-1 19q-2 49 -30 76t-70 27q-46 0 -92 -32 q-29 -47 -36 -96zM129 606q0 22 14.5 36.5t36.5 14.5q21 0 36 -14.5t15 -36.5q0 -21 -15 -36t-36 -15q-22 0 -36.5 15t-14.5 36zM325 606q0 22 14.5 36.5t36.5 14.5q21 0 36 -14.5t15 -36.5q0 -21 -15 -36t-36 -15q-22 0 -36.5 15t-14.5 36z" />
<glyph unicode="&#xec;" horiz-adv-x="342" d="M35 425l3 39q3 0 22.5 4t37.5 7t47.5 6t57.5 3q-2 -59 -2 -109v-317l63 -16v-37l-70 -8h-83l-73 8v37l39 8q25 6 29.5 18.5t4.5 70.5v224q0 42 -12 50q-23 16 -64 12zM39.5 649.5q2.5 6.5 11.5 6.5h70l61 -105q3 -4 1 -8.5t-8 -4.5h-40l-92 98q-6 7 -3.5 13.5z" />
<glyph unicode="&#xed;" horiz-adv-x="342" d="M35 425l3 39q3 0 22.5 4t37.5 7t47.5 6t57.5 3q-2 -59 -2 -109v-317l63 -16v-37l-70 -8h-83l-73 8v37l39 8q25 6 29.5 18.5t4.5 70.5v224q0 42 -12 50q-23 16 -64 12zM104.5 541.5q-1.5 4.5 1.5 8.5l60 105h71q8 0 11 -6.5t-3 -13.5l-93 -98h-40q-6 0 -7.5 4.5z" />
<glyph unicode="&#xee;" horiz-adv-x="337" d="M35 425l3 39q3 0 22.5 4t37.5 7t47.5 6t57.5 3q-2 -59 -2 -109v-317l63 -16v-37l-70 -8h-83l-73 8v37l39 8q25 6 29.5 18.5t4.5 70.5v224q0 42 -12 50q-23 16 -64 12zM131 583l126 113l131 -115l-26 -31l-107 73l-101 -72z" />
<glyph unicode="&#xef;" horiz-adv-x="337" d="M-2 647q0 22 14.5 37t36.5 15q21 0 36 -15t15 -37q0 -21 -15 -36t-36 -15q-22 0 -36.5 15t-14.5 36zM35 425l3 39q3 0 22.5 4t37.5 7t47.5 6t57.5 3q-2 -59 -2 -109v-317l63 -16v-37l-70 -8h-83l-73 8v37l39 8q25 6 29.5 18.5t4.5 70.5v224q0 42 -12 50q-23 16 -64 12z M178 647q0 22 14.5 37t36.5 15q21 0 36 -15t15 -37q0 -21 -15 -36t-36 -15q-22 0 -36.5 15t-14.5 36z" />
<glyph unicode="&#xf0;" horiz-adv-x="548" d="M46 246q0 107 58 174.5t155 67.5q90 0 141 -65q-11 89 -51 150l-92 -38l-18 39l83 34q-56 58 -138 58q-38 0 -76 -10l-7 37q47 18 103 18q121 0 197 -70l85 35l18 -40l-73 -30q74 -100 74 -286q0 -90 -21.5 -157t-57 -103.5t-75.5 -53.5t-84 -17q-95 0 -158 68.5 t-63 188.5zM143 236q0 -94 39 -144.5t94 -50.5q53 0 93 55t40 183q0 24 -2 58q-52 93 -136 93q-55 0 -91.5 -51.5t-36.5 -142.5z" />
<glyph unicode="&#xf1;" horiz-adv-x="601" d="M35 425l4 39q86 20 159 20v-38q0 -15 -5 -43q29 35 73 59.5t89 24.5q74 0 110.5 -38.5t36.5 -120.5v-272l59 -15v-36l-65 -8h-79l-74 8v34l40 10q20 5 24.5 19t4.5 75v148q0 63 -20 93.5t-76 30.5q-66 0 -115 -54v-304l64 -18v-34l-72 -8h-79l-75 8v34l41 9q21 5 26.5 21 t5.5 74v221q0 34 -12 49q-30 16 -65 12zM139 587q28 78 98 78q22 0 60 -22.5t59 -22.5q39 0 60 38l35 -20q-17 -41 -45 -61t-55 -20q-22 0 -61 21t-60 21q-42 0 -59 -32z" />
<glyph unicode="&#xf2;" horiz-adv-x="534" d="M34 235q0 115 60 185.5t165 70.5q106 0 166.5 -66.5t60.5 -179.5q0 -116 -60.5 -188.5t-167.5 -72.5q-102 0 -163 71.5t-61 179.5zM131 245q0 -104 36 -156.5t95 -52.5q57 0 91.5 49.5t34.5 143.5q0 209 -131 209q-59 0 -92.5 -50.5t-33.5 -142.5zM143.5 640 q-0.5 5 2.5 8.5t8 3.5h85l121 -100q5 -4 3.5 -9t-6.5 -5h-46l-162 94q-5 3 -5.5 8z" />
<glyph unicode="&#xf3;" horiz-adv-x="534" d="M34 235q0 115 60 185.5t165 70.5q106 0 166.5 -66.5t60.5 -179.5q0 -116 -60.5 -188.5t-167.5 -72.5q-102 0 -163 71.5t-61 179.5zM131 245q0 -104 36 -156.5t95 -52.5q57 0 91.5 49.5t34.5 143.5q0 209 -131 209q-59 0 -92.5 -50.5t-33.5 -142.5zM155.5 543 q-1.5 5 3.5 9l121 100h86q8 0 10 -8t-5 -12l-163 -94h-46q-5 0 -6.5 5z" />
<glyph unicode="&#xf4;" horiz-adv-x="534" d="M34 235q0 115 60 185.5t165 70.5q106 0 166.5 -66.5t60.5 -179.5q0 -116 -60.5 -188.5t-167.5 -72.5q-102 0 -163 71.5t-61 179.5zM131 245q0 -104 36 -156.5t95 -52.5q57 0 91.5 49.5t34.5 143.5q0 209 -131 209q-59 0 -92.5 -50.5t-33.5 -142.5zM131 575l126 113 l131 -115l-26 -31l-107 73l-101 -72z" />
<glyph unicode="&#xf5;" horiz-adv-x="534" d="M34 235q0 115 60 185.5t165 70.5q106 0 166.5 -66.5t60.5 -179.5q0 -116 -60.5 -188.5t-167.5 -72.5q-102 0 -163 71.5t-61 179.5zM113 587q28 78 98 78q22 0 60 -22.5t59 -22.5q39 0 60 38l35 -20q-17 -41 -45 -61t-55 -20q-22 0 -61 21t-60 21q-42 0 -59 -32zM131 245 q0 -104 36 -156.5t95 -52.5q57 0 91.5 49.5t34.5 143.5q0 209 -131 209q-59 0 -92.5 -50.5t-33.5 -142.5z" />
<glyph unicode="&#xf6;" horiz-adv-x="534" d="M34 235q0 115 60 185.5t165 70.5q106 0 166.5 -66.5t60.5 -179.5q0 -116 -60.5 -188.5t-167.5 -72.5q-102 0 -163 71.5t-61 179.5zM111 607q0 22 14.5 36.5t36.5 14.5q21 0 36 -14.5t15 -36.5q0 -21 -15 -36t-36 -15q-22 0 -36.5 15t-14.5 36zM131 245q0 -104 36 -156.5 t95 -52.5q57 0 91.5 49.5t34.5 143.5q0 209 -131 209q-59 0 -92.5 -50.5t-33.5 -142.5zM307 607q0 22 14.5 36.5t36.5 14.5q21 0 36 -14.5t15 -36.5q0 -21 -15 -36t-36 -15q-22 0 -36.5 15t-14.5 36z" />
<glyph unicode="&#xf7;" horiz-adv-x="528" d="M42 279v69h437v-69h-437zM197 154q0 25 17 42t43 17q24 0 42 -17t18 -42q0 -23 -18 -41t-42 -18q-25 0 -42.5 17.5t-17.5 41.5zM197 467q0 25 17 42t43 17q24 0 42 -17t18 -42q0 -23 -18 -41t-42 -18q-25 0 -42.5 17.5t-17.5 41.5z" />
<glyph unicode="&#xf8;" horiz-adv-x="534" d="M14 -69l81 124q-61 70 -61 180q0 115 60 185.5t165 70.5q58 0 105 -22l72 110h70l-93 -142q73 -67 73 -192q0 -116 -60.5 -188.5t-167.5 -72.5q-65 0 -118 32l-55 -85h-71zM131 245q0 -67 15 -112l183 282q-31 23 -72 23q-59 0 -92.5 -50.5t-33.5 -142.5zM178 73 q33 -37 84 -37q57 0 91.5 49.5t34.5 143.5q0 85 -22 135z" />
<glyph unicode="&#xf9;" horiz-adv-x="599" d="M26 425l4 39q94 20 163 20q-2 -32 -2 -93q0 -142 1 -229q2 -107 98 -107q63 0 109 58v231q0 59 -12 69q-21 14 -64 12l4 39q95 19 165 19q-2 -30 -2 -84v-298q0 -39 22 -47l31 -12v-37l-129 -12l-14 71q-65 -79 -148 -79q-69 0 -110 38t-41 120q0 13 0.5 74t0.5 97 q1 80 -12 96q-16 19 -64 15zM158.5 641q-0.5 5 2.5 8.5t8 3.5h85l121 -100q5 -5 3.5 -9.5t-6.5 -4.5h-46l-162 94q-5 3 -5.5 8z" />
<glyph unicode="&#xfa;" horiz-adv-x="599" d="M26 425l4 39q94 20 163 20q-2 -32 -2 -93q0 -142 1 -229q2 -107 98 -107q63 0 109 58v231q0 59 -12 69q-21 14 -64 12l4 39q95 19 165 19q-2 -30 -2 -84v-298q0 -39 22 -47l31 -12v-37l-129 -12l-14 71q-65 -79 -148 -79q-69 0 -110 38t-41 120q0 13 0.5 74t0.5 97 q1 80 -12 96q-16 19 -64 15zM190.5 543q-1.5 5 3.5 9l121 100h86q8 0 10 -8t-5 -12l-163 -94h-46q-5 0 -6.5 5z" />
<glyph unicode="&#xfb;" horiz-adv-x="599" d="M26 425l4 39q94 20 163 20q-2 -32 -2 -93q0 -142 1 -229q2 -107 98 -107q63 0 109 58v231q0 59 -12 69q-21 14 -64 12l4 39q95 19 165 19q-2 -30 -2 -84v-298q0 -39 22 -47l31 -12v-37l-129 -12l-14 71q-65 -79 -148 -79q-69 0 -110 38t-41 120q0 13 0.5 74t0.5 97 q1 80 -12 96q-16 19 -64 15zM150 575l126 113l131 -115l-26 -31l-107 73l-101 -72z" />
<glyph unicode="&#xfc;" horiz-adv-x="599" d="M26 425l4 39q94 20 163 20q-2 -32 -2 -93q0 -142 1 -229q2 -107 98 -107q63 0 109 58v231q0 59 -12 69q-21 14 -64 12l4 39q95 19 165 19q-2 -30 -2 -84v-298q0 -39 22 -47l31 -12v-37l-129 -12l-14 71q-65 -79 -148 -79q-69 0 -110 38t-41 120q0 13 0.5 74t0.5 97 q1 80 -12 96q-16 19 -64 15zM125 607q0 22 14.5 36.5t36.5 14.5q21 0 36 -14.5t15 -36.5q0 -21 -15 -36t-36 -15q-22 0 -36.5 15t-14.5 36zM321 607q0 22 14.5 36.5t36.5 14.5q21 0 36 -14.5t15 -36.5q0 -21 -15 -36t-36 -15q-22 0 -36.5 15t-14.5 36z" />
<glyph unicode="&#xfd;" horiz-adv-x="510" d="M27 431v37l64 8h88l76 -8v-37l-74 -12l75 -216q18 -54 34 -118q77 205 121 334l-63 12v37l67 8h54l62 -7v-38l-40 -7q-15 -2 -21 -6.5t-11 -18.5q-80 -234 -174 -454q-42 -99 -74 -141t-80 -51v-1l-36 -3q-58 -5 -58 35v31q0 20 17.5 28t43.5 -5l59 -26q27 14 61 94 l32 77l-28 73l-132 348q-6 15 -28 21zM153.5 543q-1.5 5 3.5 9l121 100h86q8 0 10 -8t-5 -12l-163 -94h-46q-5 0 -6.5 5z" />
<glyph unicode="&#xfe;" horiz-adv-x="564" d="M33 653l4 38q81 21 166 21q-5 -54 -5 -121v-160q56 56 131 56q81 0 136 -63t55 -180q0 -56 -15 -101t-39 -73.5t-55 -48t-62.5 -27.5t-62.5 -8q-49 0 -88 13v-195l67 -16v-34l-72 -8h-85l-72 8v34l36 7q26 4 31.5 19.5t5.5 81.5l-1 686q0 52 -12 60q-7 5 -15 7.5 t-15.5 3.5t-13.5 1t-12 -0.5t-7 -0.5zM198 46q30 -15 88 -15q59 0 101.5 48.5t42.5 155.5q0 100 -38.5 148.5t-94.5 48.5q-55 0 -99 -42v-344z" />
<glyph unicode="&#xff;" horiz-adv-x="510" d="M27 431v37l64 8h88l76 -8v-37l-74 -12l75 -216q18 -54 34 -118q77 205 121 334l-63 12v37l67 8h54l62 -7v-38l-40 -7q-15 -2 -21 -6.5t-11 -18.5q-80 -234 -174 -454q-42 -99 -74 -141t-80 -51v-1l-36 -3q-58 -5 -58 35v31q0 20 17.5 28t43.5 -5l59 -26q27 14 61 94 l32 77l-28 73l-132 348q-6 15 -28 21zM141 607q0 22 14.5 36.5t36.5 14.5q21 0 36 -14.5t15 -36.5q0 -21 -15 -36t-36 -15q-22 0 -36.5 15t-14.5 36zM337 607q0 22 14.5 36.5t36.5 14.5q21 0 36 -14.5t15 -36.5q0 -21 -15 -36t-36 -15q-22 0 -36.5 15t-14.5 36z" />
<glyph unicode="&#x152;" horiz-adv-x="976" d="M33 325q0 142 78 240.5t211 98.5q119 0 197 -75v60h351l50 3l-2 -173h-48l-16 89q-5 28 -22.5 36.5t-80.5 8.5h-134q0 -32 -1 -93t-1 -88v-78h140q12 0 17.5 13t16.5 60q4 17 6 26h37v-247h-36q-1 6 -3.5 16.5t-4 17t-4 16t-4 15.5t-4 13t-5 11.5t-5.5 8t-6 5.5t-7 2 h-137q0 -3 -0.5 -9t-0.5 -9v-77q0 -94 4 -177h207q15 0 26.5 12.5t15.5 33.5l15 85h44v-172l-120 2h-288v61q-77 -77 -195 -77q-136 0 -213.5 94.5t-77.5 246.5zM142 330q0 -137 48.5 -217.5t139.5 -80.5q80 0 128.5 68t48.5 213q0 139 -46.5 221t-141.5 82q-87 0 -132 -75 t-45 -211z" />
<glyph unicode="&#x153;" horiz-adv-x="853" d="M35 235q0 115 60 185.5t165 70.5q127 0 187 -93q31 44 78.5 68t101.5 24q87 0 134.5 -54t43.5 -119q1 -10 -1 -30q-2 -25 -33 -25h-283v-14q0 -80 39.5 -134.5t113.5 -54.5q87 0 135 68l28 -17q-59 -125 -184 -125q-118 0 -179 91q-61 -92 -182 -92q-102 0 -163 71.5 t-61 179.5zM132 245q0 -104 36 -156.5t95 -52.5q57 0 91.5 49.5t34.5 143.5q0 209 -131 209q-59 0 -92.5 -50.5t-33.5 -142.5zM487 305l229 6l-1 19q-2 49 -30 76t-70 27q-46 0 -92 -32q-29 -47 -36 -96z" />
<glyph unicode="&#x178;" horiz-adv-x="559" d="M6 603v37l63 8h97l84 -8v-36l-72 -14l85 -191q23 -53 35 -92q13 32 42 90l91 192l-70 15v36l87 8h37l82 -8v-36l-50 -10q-27 -5 -43 -39l-145 -289v-80q0 -62 1 -95q0 -18 6.5 -25.5t22.5 -12.5l51 -11v-37l-81 -8h-97l-80 8v37l49 11q16 5 22.5 12t7.5 25q1 13 1 88v82 l-152 311q-10 20 -35 25zM151 779q0 22 14.5 36.5t36.5 14.5q21 0 36 -14.5t15 -36.5q0 -21 -15 -36t-36 -15q-22 0 -36.5 15t-14.5 36zM347 779q0 22 14.5 36.5t36.5 14.5q21 0 36 -14.5t15 -36.5q0 -21 -15 -36t-36 -15q-22 0 -36.5 15t-14.5 36z" />
<glyph unicode="&#x2c6;" horiz-adv-x="485" d="M100 573l126 113l131 -115l-26 -31l-107 73l-101 -72z" />
<glyph unicode="&#x2dc;" horiz-adv-x="470" d="M61 582q28 78 98 78q22 0 60 -22.5t59 -22.5q39 0 60 38l35 -20q-17 -41 -45 -61t-55 -20q-22 0 -61 21t-60 21q-42 0 -59 -32z" />
<glyph unicode="&#x2013;" horiz-adv-x="501" d="M34 279v69h397v-69h-397z" />
<glyph unicode="&#x2014;" horiz-adv-x="756" d="M0 272v76h743v-76h-743z" />
<glyph unicode="&#x2018;" horiz-adv-x="180" d="M22 502q0 72 65 156l34 -30q-27 -51 -32 -91l26 -5q21 -16 21 -46q0 -21 -16 -36.5t-42 -15.5t-41 18.5t-15 49.5z" />
<glyph unicode="&#x2019;" horiz-adv-x="179" d="M28 600q0 22 16 37.5t42 15.5t41 -18.5t15 -49.5q0 -78 -60 -155l-35 27q18 34 29 91q-48 7 -48 52z" />
<glyph unicode="&#x201a;" horiz-adv-x="224" d="M42 47q0 23 20 39.5t45 16.5q61 0 61 -72q0 -33 -24 -95.5t-52 -101.5l-36 22q1 3 9 28t16.5 52t9.5 38l-33 20q-4 3 -10 19.5t-6 33.5z" />
<glyph unicode="&#x201c;" horiz-adv-x="344" d="M24 508q3 73 63 151l36 -28q-26 -50 -33 -95l26 -5q22 -15 22 -45q0 -21 -16 -36.5t-43 -15.5q-22 0 -36.5 14t-17.5 39q-2 14 -1 21zM187 502q0 74 62 154l36 -28q-25 -49 -31 -92l26 -5q22 -15 22 -45q0 -21 -16 -36.5t-42 -15.5t-41.5 18.5t-15.5 49.5z" />
<glyph unicode="&#x201d;" horiz-adv-x="344" d="M31 600q0 22 15.5 37.5t42.5 15.5q26 0 41 -18.5t15 -49.5q0 -78 -60 -155l-35 27q18 34 29 91q-48 7 -48 52zM193 600q0 22 15.5 37.5t42.5 15.5q26 0 41 -18.5t15 -49.5q0 -77 -62 -157l-35 26q18 33 31 94q-48 7 -48 52z" />
<glyph unicode="&#x201e;" horiz-adv-x="395" d="M28 47q0 23 20.5 39.5t45.5 16.5q61 0 61 -72q0 -33 -24 -95.5t-52 -101.5l-36 22q1 3 9 28t16.5 52t9.5 38l-33 20q-5 3 -11 19t-6 34zM205 47q0 23 20 39.5t45 16.5q62 0 62 -72q0 -33 -24 -95.5t-52 -101.5l-37 22q33 98 35 118l-33 20q-4 3 -10 19.5t-6 33.5z" />
<glyph unicode="&#x2022;" horiz-adv-x="469" d="M75 268q0 63 44.5 107t107.5 44t107.5 -44t44.5 -107q0 -64 -44.5 -108t-107.5 -44t-107.5 44t-44.5 108z" />
<glyph unicode="&#x2026;" horiz-adv-x="602" d="M58 47q0 25 17 42t43 17q24 0 42 -17t18 -42q0 -23 -18 -41t-42 -18q-25 0 -42.5 17.5t-17.5 41.5zM254 47q0 25 17 42t43 17q24 0 42 -17t18 -42q0 -23 -18 -41t-42 -18q-25 0 -42.5 17.5t-17.5 41.5zM450 47q0 25 17 42t43 17q24 0 42 -17t18 -42q0 -23 -18 -41 t-42 -18q-25 0 -42.5 17.5t-17.5 41.5z" />
<glyph unicode="&#x2039;" horiz-adv-x="224" d="M14 265v20l114 179h69l-98 -190l98 -189h-71z" />
<glyph unicode="&#x203a;" horiz-adv-x="224" d="M12 85l99 189l-99 190h69l115 -179v-20l-112 -180h-72z" />
<glyph unicode="&#x20ac;" horiz-adv-x="613" d="M5 220l12 45h64q-1 11 -1 34q0 16 2 46h-76l12 45h73q25 106 104 172.5t190 66.5q99 0 172 -26v-71l-7 -80h-41l-4 27q-10 59 -30 84q-23 23 -91 23q-79 0 -127.5 -49.5t-61.5 -146.5h256l-12 -45h-248q-1 -11 -1 -34q0 -18 2 -46h257l-12 -45h-238q20 -89 76 -137.5 t127 -48.5q40 0 61 8q31 11 38 53l12 68h45l1 -91v-45q-62 -41 -175 -41q-111 0 -193 59.5t-104 174.5h-82z" />
<glyph unicode="&#x2122;" horiz-adv-x="715" d="M30 650q1 0 13 -1t18 -1h192q7 0 17.5 1t11.5 1l-1 -71h-31q-4 23 -11.5 33t-27.5 11h-22v-180q0 -21 2.5 -27t10.5 -8l21 -4v-16l-34 -3h-73l-32 3v16l23 4q8 2 10.5 8t2.5 27v180h-24q-18 -1 -23.5 -9.5t-9.5 -34.5h-31zM288 388v15l22 5q12 3 12 18l18 184 q1 10 -10 14l-20 6v15l26 3h89l1 -16q-1 0 -2 -1t-3 -3.5t0 -7.5l51 -176l67 183l2 21h79l31 -3v-15q-3 -1 -12.5 -1t-13 -1.5t-6.5 -9t-2 -21.5l14 -172q1 -15 11 -18l22 -3v-16l-30 -3h-64l-33 3v14l19 4q11 3 10 17l-9 138q-1 13 -1 34l-10 -33l-64 -178h-50l-56 171 q-7 18 -10 40q0 -25 -1 -38l-13 -146l31 -8v-15l-33 -3h-36z" />
<glyph unicode="&#xe000;" horiz-adv-x="489" d="M0 0v475h475v-475h-475z" />
<glyph unicode="&#xfb04;" horiz-adv-x="958" d="M62 434v17l69 25q4 110 82.5 170t188.5 60q102 0 171 -22q49 22 102 22q34 0 57 -4q58 10 115 10q-6 -56 -6 -123v-534l64 -16v-34l-72 -8h-81l-73 8v34l37 7q25 4 30 19t5 78v438q0 51 -12 61q-17 13 -63 11l1 11q-73 2 -110 -34t-37 -125v-26h118v-46h-118v-393l62 -14 v-21l-74 -8h-80l-60 8v21q7 2 18 4.5t14.5 2.5t11 4.5t8.5 7l5 12.5t4 18.5t1.5 27.5t1.5 37v50v243l-70 1v17l70 25q3 107 72 170q-54 17 -111 17q-89 0 -136 -36t-47 -130v-18h142v-46h-142v-393l61 -14v-21l-73 -8h-81l-59 8v21q7 2 18 4q33 7 39 27.5t6 132.5v243z" />
</font>
</defs>
</svg>
