<?xml version="1.0" standalone="no"?>
<!DOCTYPE svg PUBLIC "-//W3C//DTD SVG 1.1//EN" "http://www.w3.org/Graphics/SVG/1.1/DTD/svg11.dtd" >
<svg xmlns="http://www.w3.org/2000/svg">
<metadata></metadata>
<defs>
<font id="AlekseiRegular" horiz-adv-x="580" >
<font-face units-per-em="1000" ascent="750" descent="-250" />
<missing-glyph horiz-adv-x="195" />
<glyph unicode="&#xfb01;" horiz-adv-x="638" d="M73 437v15l69 17q1 106 62 170.5t158 64.5q69 0 116 -14q36 -10 36 -44q0 -19 -13 -32t-32 -13t-32 13t-13 32q0 8 3 16l-58 12q-95 0 -129.5 -42.5t-34.5 -131.5v-28h126v-36h-126v-402l59 -13v-16l-65 -8h-58l-58 8v16l27 5q23 4 27.5 29t4.5 131v250zM378 439l4 20 q47 18 125 18q-2 -59 -2 -109v-332l53 -13v-18l-59 -8h-57l-60 8v16l28 7q22 5 27 21t5 71l-1 263q0 30 -11 44q-26 15 -52 12z" />
<glyph unicode="&#xfb02;" horiz-adv-x="644" d="M73 437v15l69 17q1 107 63.5 171t152.5 64q41 0 59 -4q43 12 93 12q-5 -53 -5 -125v-551l53 -13v-18l-59 -8h-57l-60 8v16l14 3q33 7 39 25t6 104v369q0 127 -10 137q-5 5 -15 8q-108 14 -159.5 -20t-51.5 -147v-28h126v-36h-126v-402l59 -13v-16l-65 -8h-58l-58 8v16 q37 8 42 11q15 10 16 73q1 23 1 81v250z" />
<glyph unicode="&#xfb03;" horiz-adv-x="918" d="M73 437v15l69 17q1 58 24 104t61 74t83.5 42.5t93.5 14.5q93 0 159 -21q43 21 99 21q69 0 116 -14q36 -10 36 -44q0 -19 -13 -32t-32 -13t-32 13t-13 32q0 8 3 16l-58 12q-95 0 -129.5 -42.5t-34.5 -131.5v-28h126v-36h-126v-402l59 -13v-16l-65 -8h-58l-58 8v16 q37 8 42 11q15 10 16 73q1 23 1 81v250l-69 1v15l69 17q1 120 77 185q-53 16 -112 16q-98 0 -150 -38t-52 -142v-18h126v-36h-126v-402l59 -13v-16l-65 -8h-58l-58 8v16q37 8 42 11q15 10 16 73q1 23 1 81v250zM678 439l4 20q47 18 125 18q-2 -59 -2 -109v-332l53 -13v-18 l-59 -8h-57l-60 8v16l28 7q22 5 27 21t5 71l-1 263q0 30 -11 44q-26 15 -52 12z" />
<glyph horiz-adv-x="1000" />
<glyph horiz-adv-x="1000" />
<glyph unicode=" "  horiz-adv-x="195" />
<glyph unicode="&#x09;" horiz-adv-x="195" />
<glyph unicode="&#xa0;" horiz-adv-x="195" />
<glyph unicode="!" horiz-adv-x="299" d="M75 40q0 22 15 37.5t37 15.5q21 0 37 -15.5t16 -37.5q0 -20 -16 -36t-37 -16t-36.5 15.5t-15.5 36.5zM80 643l96 11l-35 -479h-27z" />
<glyph unicode="&#x22;" horiz-adv-x="180" d="M8 690h59l-17 -183h-28zM92 690h59l-17 -183h-28z" />
<glyph unicode="#" horiz-adv-x="633" d="M28 197l9 51h115l35 180h-117l9 51h118l32 168h52l-33 -168h138l32 168h52l-33 -168h125l-9 -51h-126l-34 -180h127l-9 -51h-128l-38 -197h-51l38 197h-138l-38 -197h-51l38 197h-115zM204 248h137l35 180h-138z" />
<glyph unicode="$" horiz-adv-x="381" d="M22 73l5 134h37l17 -98q37 -20 74 -25v200l-20 9q-49 20 -76 48.5t-27 74.5t34.5 78t88.5 44v96h45v-90h10q44 0 121 -21l-3 -124h-38l-21 96q-32 11 -69 13v-179l34 -15q106 -47 106 -134q0 -56 -40.5 -90t-99.5 -41v-124h-45v122q-71 2 -133 26zM91 432q0 -28 13.5 -47 t47.5 -34l3 -2v154q-28 -8 -46 -28t-18 -43zM200 85q37 6 58 28t21 56q0 37 -17.5 56.5t-61.5 39.5v-180z" />
<glyph unicode="%" horiz-adv-x="700" d="M66 483q0 61 34 98.5t83 37.5q51 0 82 -36t31 -100q0 -63 -32 -97t-84 -34t-83 34t-31 97zM126 483q0 -96 57 -96q53 0 53 96q0 101 -56 101q-54 0 -54 -101zM133 0l2 7l198 319l199 322h51l-3 -8l-205 -330l-193 -310h-49zM406 127q0 61 34 98.5t83 37.5q51 0 82 -36 t31 -100q0 -63 -32 -97t-84 -34t-83 34t-31 97zM466 127q0 -96 57 -96q53 0 53 96q0 101 -56 101q-54 0 -54 -101z" />
<glyph unicode="&#x26;" horiz-adv-x="635" d="M50 141q0 57 27.5 95t89.5 80q-84 91 -84 172q0 71 47.5 109t115.5 38q62 0 106.5 -32t44.5 -91q0 -54 -31.5 -90.5t-92.5 -77.5l-22 -15q112 -111 174 -169q30 61 46 146l-61 15v19l59 8h55l46 -8v-19l-49 -13q-13 -6 -17 -22q-17 -84 -52 -151q60 -55 120 -104l29 -6 v-25l-89 -9q-53 44 -98 86q-71 -86 -177 -86q-88 0 -137.5 41t-49.5 109zM118 150q0 -45 36 -83t90 -38q86 0 144 71q-63 60 -126 123q-66 63 -69 66q-42 -32 -58.5 -64t-16.5 -75zM136 501q0 -26 25.5 -67.5t63.5 -79.5q112 77 112 139q0 52 -28.5 80t-75.5 28 q-44 0 -70.5 -28.5t-26.5 -71.5z" />
<glyph unicode="'" horiz-adv-x="129" d="M27 506v179l73 10l-20 -189h-53z" />
<glyph unicode="(" horiz-adv-x="241" d="M40 289q0 256 129 408l38 -24q-110 -127 -110 -384t110 -384l-40 -24q-127 156 -127 408z" />
<glyph unicode=")" horiz-adv-x="241" d="M20 -95q110 127 110 384t-110 384l40 24q127 -156 127 -408q0 -256 -129 -408z" />
<glyph unicode="*" horiz-adv-x="356" d="M15 554l8 23q6 21 27 10l67 -32l31 -30l-1 -4l-44 -7l-71 15q-24 5 -17 25zM61 440l51 54l38 20l3 -2l-7 -42l-36 -65q-11 -21 -28 -8l-20 14q-17 13 -1 29zM128 645q-2 23 18 23h24q22 0 18 -23l-9 -74l-19 -38h-4l-20 38zM164 514l3 2l40 -20l49 -54q16 -18 -1 -30 l-20 -14q-17 -13 -28 8l-36 64zM168 527l30 31l68 31q22 9 27 -10l8 -23q7 -20 -17 -25l-72 -16l-43 8z" />
<glyph unicode="+" horiz-adv-x="420" d="M40 289v56h135v135h56v-135h135v-56h-135v-135h-56v135h-135z" />
<glyph unicode="," horiz-adv-x="255" d="M68 41q0 22 15.5 37t37.5 15q23 0 39 -16.5t16 -46.5q0 -32 -23 -88t-49 -89l-27 16q37 97 37 117l-31 18q-15 12 -15 37z" />
<glyph unicode="-" horiz-adv-x="241" d="M12 289v56h209v-56h-209z" />
<glyph unicode="." horiz-adv-x="250" d="M66 40q0 22 15 37.5t37 15.5q21 0 37 -15.5t16 -37.5q0 -20 -16 -36t-37 -16t-36.5 15.5t-15.5 36.5z" />
<glyph unicode="/" horiz-adv-x="398" d="M15 -75l287 787h56l-288 -787h-55z" />
<glyph unicode="0" horiz-adv-x="540" d="M40 316q0 82 25 153.5t76.5 118.5t119.5 47q72 0 124.5 -47.5t76.5 -119.5t24 -157q0 -81 -25 -154t-77 -122.5t-121 -49.5q-108 0 -165.5 95t-57.5 236zM121 318q0 -295 143 -295q33 0 56.5 12t44 43t30.5 91t10 149q0 128 -36.5 203.5t-110.5 75.5q-137 0 -137 -279z " />
<glyph unicode="1" horiz-adv-x="362" d="M20 559q103 33 196 98h21q-5 -103 -5 -189l-1 -299q0 -81 3 -100q3 -20 10 -27t25 -10l39 -8v-19l-71 -8h-83l-71 8v19l47 10q16 3 22.5 13t9.5 36.5t3 84.5l2 405q-56 -35 -131 -55z" />
<glyph unicode="2" horiz-adv-x="486" d="M25 8v30q94 80 240 239q71 76 71 157q0 69 -34.5 106t-90.5 37q-102 0 -141 -119l-27 13q21 78 70 120.5t118 42.5q80 0 129.5 -50.5t49.5 -132.5q0 -116 -116 -219q-110 -98 -210 -194l231 6q20 1 27.5 8t12.5 26l21 84h36v-154l-78 -10h-260z" />
<glyph unicode="3" horiz-adv-x="442" d="M21 40l6 29q3 15 20.5 19.5t39.5 -13.5q8 -8 24 -24.5t24 -24.5q31 -9 53 -9q57 0 92 41.5t35 102.5q0 47 -29.5 82t-69.5 50h-88v40q88 -7 133.5 23t45.5 117q0 51 -28.5 86t-81.5 35q-92 0 -116 -108h-39v94q8 4 33.5 16t38 16.5t36 10t47.5 5.5q87 0 133.5 -45 t46.5 -112q0 -112 -107 -154v-1q55 -16 86.5 -57.5t31.5 -97.5q0 -79 -56 -127.5t-144 -48.5q-58 0 -117 13q-28 4 -41 13t-9 29z" />
<glyph unicode="4" horiz-adv-x="468" d="M10 202v41q53 86 136 200.5t151 194.5h31v-390h10l86 -8v-28l-86 -10h-10v-133q0 -32 33 -39l32 -7v-18l-67 -8h-78l-62 6v17l41 11q34 9 34 40v131h-251zM61 248h200v286q-102 -126 -200 -286z" />
<glyph unicode="5" horiz-adv-x="469" d="M26 78l23 18q28 -34 59 -52t85 -18q68 0 109 43.5t41 113.5q0 81 -49 124.5t-130 43.5q-65 0 -102 -16l27 292h252l74 4l-11 -60h-275l-18 -183q45 12 98 12q96 0 153 -54.5t57 -138.5q0 -121 -90 -181q-59 -38 -132 -38q-59 0 -103 26t-68 64z" />
<glyph unicode="6" horiz-adv-x="476" d="M40 263q0 91 38.5 176t115 142t172.5 57l45 -3v-17q-30 0 -59 -6q-100 -22 -165.5 -105t-67.5 -199q22 29 60 50.5t78 21.5q85 0 130 -47.5t45 -137.5q0 -95 -59.5 -150t-130.5 -55q-86 0 -144 66.5t-58 206.5zM119 243q5 -220 126 -220q47 0 78.5 39.5t31.5 120.5 q0 70 -29.5 109.5t-83.5 39.5q-36 0 -69.5 -16.5t-53.5 -41.5q-1 -9 0 -31z" />
<glyph unicode="7" horiz-adv-x="441" d="M20 566v61h417v-25l-295 -613l-73 9l303 576h-260q-14 0 -22.5 -6t-13.5 -20t-7.5 -26t-5 -34.5t-5.5 -35.5h-33z" />
<glyph unicode="8" horiz-adv-x="464" d="M40 136q0 116 132 188l-27 20q-33 23 -56 60t-23 81q0 62 44.5 105.5t110.5 43.5q69 0 116.5 -34t47.5 -97q0 -93 -126 -164l68 -48q46 -35 64.5 -69t18.5 -76q0 -62 -52.5 -111.5t-130.5 -49.5q-88 0 -137.5 43.5t-49.5 107.5zM110 141q0 -48 33 -83.5t86 -35.5 q52 0 82 36t30 84q0 62 -66 110l-73 51q-92 -61 -92 -162zM117 497q0 -54 68 -103l44 -32q50 33 72 61.5t22 70.5q0 44 -27 73.5t-77 29.5q-45 0 -73.5 -28t-28.5 -72z" />
<glyph unicode="9" horiz-adv-x="474" d="M30 437q0 96 58.5 148.5t133.5 52.5q35 0 68.5 -15t63.5 -45.5t48 -85.5t18 -127q0 -88 -29.5 -161.5t-76.5 -118.5t-103 -70t-113 -25l-45 3v14q31 0 59 6q99 21 164 105t68 200q-20 -27 -58.5 -45t-82.5 -18q-78 0 -125.5 46t-47.5 136zM101 445q0 -69 33.5 -110.5 t85.5 -41.5q36 0 70 15.5t53 38.5q1 9 1 38q0 122 -37 171t-87 49q-51 0 -85 -39.5t-34 -120.5z" />
<glyph unicode=":" horiz-adv-x="259" d="M70 40q0 22 15 37.5t37 15.5q21 0 37 -15.5t16 -37.5q0 -20 -16 -36t-37 -16t-36.5 15.5t-15.5 36.5zM70 435q0 22 15 37.5t37 15.5q21 0 37 -15.5t16 -37.5q0 -20 -16 -36t-37 -16t-36.5 15.5t-15.5 36.5z" />
<glyph unicode=";" horiz-adv-x="271" d="M80 41q0 22 15.5 37t37.5 15q23 0 39 -16.5t16 -46.5q0 -32 -23 -88t-49 -89l-27 16q37 97 37 117l-31 18q-15 12 -15 37zM87 435q0 22 15 37.5t37 15.5q21 0 37 -15.5t16 -37.5q0 -20 -16 -36t-37 -16t-36.5 15.5t-15.5 36.5z" />
<glyph unicode="&#x3c;" horiz-adv-x="626" d="M89 256v39l367 153v-49l-291 -125l291 -120v-50z" />
<glyph unicode="=" horiz-adv-x="473" d="M30 200v56h366v-56h-366zM30 330v56h366v-56h-366z" />
<glyph unicode="&#x3e;" horiz-adv-x="456" d="M19 104v46l291 127l-291 125v46l367 -152v-39z" />
<glyph unicode="?" horiz-adv-x="424" d="M21 545q0 8 12 21l9 10q24 31 68 58.5t93 27.5q84 0 130.5 -43t46.5 -108q0 -19 -6 -39t-12.5 -33.5t-22.5 -34t-24 -30t-30 -33t-29 -30.5q-27 -29 -37.5 -59t-9.5 -77h-50q1 54 16 96.5t36 69t41.5 50t35 54t14.5 68.5q0 50 -29.5 77t-85.5 27q-24 0 -50 -12l-31 -82 q-8 -21 -27.5 -24.5t-31.5 9.5l-11 11q-15 18 -15 26zM131 40q0 22 15 37.5t37 15.5q21 0 37 -15.5t16 -37.5q0 -20 -16 -36t-37 -16t-36.5 15.5t-15.5 36.5z" />
<glyph unicode="@" horiz-adv-x="792" d="M50 202q0 145 107 251.5t256 106.5q146 0 230.5 -79t84.5 -212q0 -74 -21.5 -130t-53 -84t-60.5 -41t-52 -13q-72 0 -79 111q-16 -33 -30 -54t-38 -41t-51 -21q-54 -2 -94 52t-40 148q0 26 10.5 57.5t32 65t63 55.5t94.5 22q16 0 34.5 -1t44 -2t43.5 -2l-3 -257 q-1 -58 23.5 -74.5t58.5 19.5q29 30 43.5 84t14.5 109q0 106 -68 171.5t-188 65.5q-124 0 -213 -89.5t-89 -217.5q0 -145 82.5 -221.5t206.5 -76.5l87 5v-43q-34 -12 -84 -12q-70 0 -130.5 19t-111.5 58.5t-80.5 109t-29.5 161.5zM289 197q0 -71 18.5 -100.5t45.5 -29.5 q21 0 49 30t46 71l3 175q-83 15 -125 -29q-37 -40 -37 -117z" />
<glyph unicode="A" horiz-adv-x="610" d="M-5 5v19l39 11q9 2 15 8.5t8.5 12.5t9.5 25l212 583h49l203 -575q11 -33 16 -41.5t17 -12.5l27 -10v-20l-52 -8h-58l-72 8v18l62 12l-72 208h-225l-72 -209l61 -11v-18l-74 -8h-50zM186 278h201l-73 215l-23 86h-5q-11 -44 -25 -86z" />
<glyph unicode="B" horiz-adv-x="574" d="M56 623v17l65 8h110q258 0 258 -161q0 -114 -130 -145v-2q151 -28 151 -160q0 -61 -35 -103.5t-87 -61t-115 -18.5h-159l-57 8v17l27 6q29 5 30 41q1 25 1 97v311q0 69 -2 102q-1 32 -29 38zM184 26q53 0 79 1q84 2 123.5 40.5t39.5 99.5q0 150 -176 150h-66v-291z M184 348l62 3q83 3 124 32t41 97q0 65 -45 99.5t-105 34.5h-75q-2 -136 -2 -183v-83z" />
<glyph unicode="C" horiz-adv-x="577" d="M40 315q0 145 87.5 246t223.5 101q106 0 173 -21v-90l-10 -80h-28l-4 24q-13 80 -33 105q-23 28 -104 28q-110 0 -166.5 -77t-56.5 -226q0 -138 70 -221t173 -83q41 0 68 8q35 10 46 67l13 72h33l-3 -110v-36q-56 -37 -171 -37q-60 0 -114.5 20t-99 59t-71 104t-26.5 147 z" />
<glyph unicode="D" horiz-adv-x="663" d="M55 5v16l28 7q15 4 21 12.5t8 27.5q2 22 2 148v247q0 83 -2 116q-1 32 -29 38l-23 5v18l61 8q13 0 66.5 0.5t83.5 0.5q155 0 244 -81t89 -237q0 -163 -95.5 -248.5t-263.5 -85.5h-130zM183 216q0 -129 3 -185l82 1q120 1 188.5 71t68.5 209q1 141 -65 222q-65 80 -195 80 h-3l-78 -1q-1 -50 -1 -182v-215z" />
<glyph unicode="E" horiz-adv-x="571" d="M56 5v16l28 7q17 4 23 12t7 29q1 25 1 97v312q0 68 -2 101q-1 32 -29 38l-25 5v18l62 9h306q37 0 70 3l-1 -172h-38l-14 90q-3 23 -12 32.5t-32 13.5t-75 4h-140q0 -39 -0.5 -105.5t-0.5 -90.5v-75h162q17 0 28 44l14 59h26v-246h-25l-17 67q-11 43 -28 43h-160v-100 q0 -143 1 -186h232q13 0 26 14.5t17 35.5l15 85h32v-167q-37 2 -115 2h-296z" />
<glyph unicode="F" horiz-adv-x="528" d="M65 5v16l29 7q18 4 23 12t7 29q1 12 1 98v311q0 68 -2 101q-2 32 -29 38l-29 6v17l66 9h312q25 0 51 3l-1 -172h-30l-15 97q-3 20 -11.5 29t-32 12.5t-75.5 3.5h-135v-273h142q17 0 28 44l14 59h26v-246h-25l-17 67q-11 43 -28 43h-140v-149q0 -31 0.5 -77.5t0.5 -55.5 l63 -12v-17l-45 -5h-108z" />
<glyph unicode="G" horiz-adv-x="618" d="M40 315q0 145 87.5 246t222.5 101q107 0 174 -21v-90l-10 -80h-28l-4 24q-14 81 -33 105q-23 28 -104 28q-110 0 -166.5 -77t-56.5 -226q0 -141 68 -222.5t168 -81.5q53 0 101 11v165q0 31 -32 37l-33 6v18l67 8h62l61 -8v-18l-26 -4q-17 -3 -23.5 -11.5t-6.5 -27.5v-183 q-89 -29 -177 -29q-139 0 -225 88t-86 242z" />
<glyph unicode="H" horiz-adv-x="755" d="M55 5v16l26 7q15 4 21 12.5t8 28.5q3 32 3 97v413q0 33 -25 37l-32 6v18l63 8h63l55 -8v-16l-55 -15v-256h375v256l-57 13v18l63 8h63l60 -8v-16l-28 -7q-15 -4 -21 -12.5t-8 -28.5q-3 -32 -3 -97v-413q0 -32 25 -37l28 -6v-18l-59 -8h-63l-57 8v16l57 15v277h-375v-277 l55 -13v-18l-61 -8h-63z" />
<glyph unicode="I" horiz-adv-x="311" d="M55 623v17l60 8h68l59 -8v-17l-28 -6q-28 -6 -29 -38q-2 -32 -2 -100v-410q0 -21 6.5 -29t23.5 -12l28 -5v-18l-63 -8h-64l-58 8v17l27 6q17 4 23 12t7 29q1 25 1 97v312q0 68 -2 101q-1 32 -29 38z" />
<glyph unicode="J" horiz-adv-x="359" d="M39 47q-1 22 14 28q5 2 10 2q12 0 26 -9l57 -35l25 14q16 24 16 191v240q0 66 -2 101q-1 20 -6 26.5t-21 10.5l-30 7v17l60 8h69l58 -8v-17l-30 -7q-26 -7 -27 -37q-2 -46 -2 -100v-220q0 -117 -27.5 -176t-101.5 -85q-9 -4 -29 -6h-14q-8 0 -11 1q-12 -1 -22 5.5 t-11 18.5z" />
<glyph unicode="K" horiz-adv-x="586" d="M57 5v16l26 7q15 4 21 12.5t8 28.5q3 32 3 97v413q0 33 -25 37l-32 6v18l63 8h63l56 -8v-16l-56 -15v-244h53l176 220q10 12 10 20q0 9 -14 13l-22 6v16l62 8h61l52 -8v-16q-33 -5 -55 -15.5t-45 -37.5q-108 -128 -177 -206q64 -82 224 -316q14 -21 43 -26v-18l-95 -8 q-14 12 -20 21l-213 317h-40v-299l56 -13v-18l-62 -8h-63z" />
<glyph unicode="L" horiz-adv-x="538" d="M55 8v14l29 6q16 3 22.5 11.5t7.5 29.5q1 24 1 97v313q0 67 -2 100q-1 32 -29 38l-25 5v18l62 8h63l60 -8v-17l-29 -6q-28 -6 -29 -38q-2 -51 -2 -100v-449q21 -3 61 -3h132q27 0 42.5 11t21.5 41l19 100h34v-181l-105 2h-274z" />
<glyph unicode="M" horiz-adv-x="831" d="M40 5v17l39 11q16 5 19 45l38 514q1 9 -5 12.5t-16 5.5l-26 7v23l45 8h115v-25q-1 -1 -3 -2.5t-4 -7t0 -11.5l155 -518l181 516l6 48h92l60 -8v-16q-19 -4 -30 -8.5t-20.5 -14.5t-8.5 -25l36 -499q3 -37 14 -41l40 -14v-17l-61 -8h-61l-60 8v16l42 13q15 5 15 34v10 l-22 338l-10 147l-54 -151l-155 -423h-45l-137 436q-11 33 -41 153l-11 -153l-28 -390l48 -13v-17l-56 -8h-48z" />
<glyph unicode="N" horiz-adv-x="682" d="M50 621v19l58 8h58l277 -405q85 -123 86 -133h5v387q0 73 -1 113l-44 12v18l51 8h43l50 -8v-18l-27 -5q-25 -5 -28 -36q-2 -20 -2 -103v-478l-53 -8l-367 543v-501l45 -11v-18l-51 -8h-53l-43 8v18l35 9q14 3 19 19q6 20 6 109v415q0 8 -8 18.5t-21 15.5z" />
<glyph unicode="O" horiz-adv-x="669" d="M40 325q0 90 33 166.5t99 124.5t153 48q134 0 212 -96.5t78 -242.5q0 -142 -77.5 -241.5t-210.5 -99.5t-210 96.5t-77 244.5zM122 330q0 -140 54.5 -223.5t155.5 -83.5q90 0 145.5 72.5t55.5 219.5q0 142 -54 226.5t-158 84.5q-97 0 -148 -75.5t-51 -220.5z" />
<glyph unicode="P" horiz-adv-x="515" d="M56 623v17l66 8h120q249 0 249 -185q0 -79 -59.5 -135.5t-162.5 -56.5q-54 0 -84 3v-107q0 -117 1 -132l51 -12v-18l-60 -8h-64l-56 8v17l26 6q17 4 23.5 12t7.5 29q1 26 1 97v312q0 68 -2 100q-1 33 -30 39zM185 304q10 -1 72 -1q78 0 117 41t39 113q0 73 -42 116 t-118 43q-37 0 -67 -3q-1 -73 -1 -202v-107z" />
<glyph unicode="Q" horiz-adv-x="669" d="M40 325q0 90 33 166.5t99 124.5t153 48q134 0 212 -96.5t78 -242.5q0 -140 -76 -239t-206 -102q36 -15 42 -19q82 -52 182 -128q5 -2 41 -8v-30l-108 -7q-44 28 -118 109t-99 88h-2q-2 1 -6 1h2q-107 21 -167 113.5t-60 221.5zM122 330q0 -140 54.5 -223.5t155.5 -83.5 q90 0 145.5 72.5t55.5 219.5q0 142 -54 226.5t-158 84.5q-97 0 -148 -75.5t-51 -220.5z" />
<glyph unicode="R" horiz-adv-x="573" d="M55 622v18l62 8h126q252 0 252 -165q0 -60 -48 -112t-123 -67q18 -18 23 -24q16 -25 43.5 -70t51.5 -82t46 -68q19 -25 61 -33v-22l-97 -6q-11 8 -29 36l-171 259q-12 0 -35 0.5t-34 0.5v-96l1 -163l51 -13v-18l-59 -8h-63l-56 8v17l26 6q17 4 23 12t7 29q1 20 1 130v212 q0 120 -2 167q-1 33 -29 39zM183 326l128 2q42 12 74 52.5t32 91.5q0 63 -44 103.5t-114 40.5l-74 -1q-2 -73 -2 -204v-85z" />
<glyph unicode="S" horiz-adv-x="506" d="M50 30v159h31q12 -86 51 -125q38 -38 107 -38q61 0 96 40.5t35 95.5q0 88 -84 124l-98 42q-130 56 -130 166q0 77 60 121.5t152 44.5q70 0 136 -18l25 -7v-156h-29q-26 93 -49 116q-29 30 -95 30q-58 0 -94.5 -34t-36.5 -87q0 -71 83 -108l103 -46q73 -33 101 -76 t28 -100q0 -91 -62 -138q-59 -45 -147 -45h-8q-81 1 -163 35z" />
<glyph unicode="T" horiz-adv-x="589" d="M8 487l7 163q50 -4 74 -4h400l74 4l7 -163h-36q-20 85 -27 98q-14 27 -56 32q-16 2 -80 2h-48q-1 -40 -1 -143v-407q0 -21 6.5 -29t23.5 -12l28 -5v-18l-64 -8h-63l-58 8v17l27 6q17 4 23 12t7 29q1 24 1 97v310q0 95 -2 143h-58.5t-44 -2.5t-33 -3t-22.5 -8t-15.5 -10.5 t-9.5 -17.5t-8 -22t-6.5 -30.5t-9.5 -38h-36z" />
<glyph unicode="U" horiz-adv-x="637" d="M35 623v17l58 8h68l58 -8v-17l-62 -12q-1 -58 -1 -171v-206q0 -120 48 -168q48 -46 126 -46q88 0 128.5 56t40.5 141v263q0 18 -2 130l-53 13v17l59 8h47l53 -8v-17l-30 -8q-13 -4 -17 -11t-5 -25q-2 -60 -2 -100v-246q0 -120 -60 -185t-159 -65q-243 0 -243 249v208 q0 114 -1 139q-1 34 -27 39z" />
<glyph unicode="V" horiz-adv-x="616" d="M10 620v20l52 8h63l67 -8v-20l-62 -12l137 -397q38 -113 40 -143h5q12 41 48 143l135 398l-57 11v20l70 8h50l44 -8v-19l-35 -10q-22 -6 -36 -47l-209 -583h-49l-203 575q-14 40 -25 49q-3 2 -8 4z" />
<glyph unicode="W" horiz-adv-x="926" d="M10 620v20l52 8h63l67 -8v-20l-61 -11l116 -401q28 -96 30 -144h6q18 70 39 141l124 436l33 2l127 -434q27 -92 34 -145h6q6 40 37 141l123 404l-58 11v20l70 8h50l44 -8v-19l-35 -10q-22 -6 -36 -47l-186 -583h-54l-116 402l-34 117q-16 -58 -32 -114l-120 -405h-54 l-175 575q-8 28 -15.5 38t-20.5 16z" />
<glyph unicode="X" horiz-adv-x="589" d="M10 5v18l23 6q12 3 20.5 11.5t25.5 32.5l176 255l-151 239q-27 43 -47 48l-21 6v19l51 8h65l66 -8v-18l-57 -16l139 -218l137 222l-57 11v19l69 8h50l44 -8v-18l-29 -11q-22 -8 -50 -52l-139 -209l174 -271q2 -3 6.5 -11t7 -11t7 -8.5t9.5 -8.5t11 -6l25 -10v-19l-48 -8 h-64l-70 8v19l56 15l-159 250l-170 -256l63 -9v-19l-69 -8h-50z" />
<glyph unicode="Y" horiz-adv-x="521" d="M5 620v20l52 8h64l66 -8v-18l-61 -12l100 -221l33 -86h2q19 41 42 89l103 218l-62 12v18l70 8h41l52 -8v-19l-40 -12q-12 -5 -17.5 -13.5t-16.5 -31.5l-148 -294v-201q0 -20 7 -28.5t24 -12.5l27 -6v-17l-62 -8h-65l-58 8v17l27 6q16 4 22.5 12t7.5 28q1 13 1 98v104 l-154 317q-12 23 -32 28z" />
<glyph unicode="Z" horiz-adv-x="537" d="M25 1v19l31 52l351 548l-287 -1l-28 -151h-46l5 173l84 7h269l84 -10v-18l-27 -45l-350 -548l298 1l38 150h35l2 -169l-70 -11h-314z" />
<glyph unicode="[" horiz-adv-x="305" d="M90 -122v856h161v-46h-109v-764h109v-46h-161z" />
<glyph unicode="\" horiz-adv-x="398" d="M25 706h55l279 -819h-55z" />
<glyph unicode="]" horiz-adv-x="305" d="M40 -76h109v764h-109v46h161v-856h-161v46z" />
<glyph unicode="^" horiz-adv-x="456" d="M48 275l152 367h39l153 -367h-46l-128 301l-124 -301h-46z" />
<glyph unicode="_" horiz-adv-x="438" d="M30 -38h370v-50h-370v50z" />
<glyph unicode="`" horiz-adv-x="514" d="M107 638.5q2 6.5 9 6.5h69l118 -95q5 -4 3.5 -8.5t-5.5 -4.5h-35l-155 91q-6 4 -4 10.5z" />
<glyph unicode="a" horiz-adv-x="476" d="M40 95q0 54 35.5 81.5t95.5 44.5q64 17 130 25q0 12 0.5 34t0.5 35q0 128 -95 128q-42 0 -74 -24l14 -35q3 -8 3 -16t-4 -14q-8 -12 -26 -13h-50l-19 29l11 16l8 11q18 28 63.5 54.5t95.5 26.5q69 0 104 -36t35 -116q0 -46 -2 -131.5t-2 -112.5v-6q0 -24 7 -32 q8 -9 35 -9h26v-23l-86 -28l-43 58q-54 -56 -132 -56q-60 0 -95.5 30.5t-35.5 78.5zM112 103q0 -40 26.5 -59t63.5 -19q51 0 96 41l2 152q-63 -9 -115 -25q-73 -22 -73 -90z" />
<glyph unicode="b" horiz-adv-x="534" d="M27 671l4 20q58 21 125 21q-3 -61 -3 -150v-147q22 28 59.5 47.5t82.5 19.5q78 0 133.5 -63t55.5 -180q0 -67 -22.5 -118t-58 -79t-74 -42t-76.5 -14q-44 0 -85 12h-1l-82 8q4 30 4 168v350q0 125 -10 135q-12 13 -40 13q-6 0 -12 -1zM153 45q38 -22 106 -22q61 0 108 50 t47 156q0 103 -40 154t-102 51q-34 0 -67.5 -16.5t-51.5 -41.5v-331z" />
<glyph unicode="c" horiz-adv-x="455" d="M36 228q0 119 63.5 187.5t154.5 68.5q67 0 120 -43h1l29 -26q11 -9 13.5 -21t-3.5 -18l-13 -19q-9 -11 -23 -12h-1q-14 0 -27 16l-52 77q-21 6 -45 6q-69 0 -109.5 -55.5t-40.5 -144.5q0 -91 44 -149.5t113 -58.5q86 0 136 79l23 -14q-59 -116 -170 -116q-91 0 -152 67.5 t-61 175.5z" />
<glyph unicode="d" horiz-adv-x="533" d="M38 230q0 67 22 118t57 79t73 42t75 14q60 0 104 -18v59q0 95 -5 135q-14 8 -28 11t-22 2l-7 -1l4 20q58 21 125 21q-3 -98 -3 -153v-372l1 -105q0 -39 15 -45l37 -14v-18l-98 -10l-16 51q-55 -58 -141 -58q-81 0 -137 62t-56 180zM108 240q0 -103 41 -154t101 -51 q32 0 66 12.5t53 34.5v342q-41 22 -103 22q-63 0 -110.5 -50t-47.5 -156z" />
<glyph unicode="e" horiz-adv-x="480" d="M38 234q0 112 65.5 181t154.5 69q84 0 130 -53q43 -50 43 -107v-8v-19q-2 -25 -33 -25h-293v-24q0 -86 41 -148t121 -62q87 0 139 77l23 -14q-60 -116 -175 -116q-97 0 -156.5 70.5t-59.5 178.5zM105 303l253 6l-1 20q-3 51 -34 79t-73 28q-26 0 -48 -7t-31 -12.5 t-28 -19.5q-30 -45 -38 -94z" />
<glyph unicode="f" horiz-adv-x="320" d="M40 437v15l69 17v1q0 52 19.5 103.5t66 91t110.5 39.5q11 0 20 -3l18 -2q10 -2 13 -2.5t9 -3.5t8 -8t2 -13v-33q0 -12 -10 -16.5t-27 2.5l-82 41q-84 -19 -84 -164v-30h126v-36h-126v-402l59 -13v-16l-65 -8h-58l-59 8v16l14 3q24 5 32 14t11 31t3 84v283z" />
<glyph unicode="g" horiz-adv-x="504" d="M20 -121q0 49 41.5 84t86.5 48q-40 22 -40 65t43 72q-50 18 -81 60.5t-31 97.5q0 73 53 122.5t127 49.5q51 0 96 -26q-2 8 -2 14v24q0 32 30 32q9 0 20 -3l116 -28l1 -12l-107 -47q-15 -6 -25 -6q50 -50 50 -120q0 -73 -52 -121t-127 -48q-23 0 -34 2q-26 -15 -26 -39 q0 -28 41 -31q15 -1 50 -3t52.5 -4t46 -7t43.5 -13.5t32 -22t24 -35t7 -49.5q0 -79 -70 -132t-180 -53q-87 0 -136 35.5t-49 93.5zM77 -114q0 -37 40 -61t126 -24q75 0 122.5 32t47.5 87q0 28 -22.5 48.5t-69.5 24.5q-87 8 -124 11q-120 -37 -120 -118zM104 308 q0 -57 34 -96t86 -39q50 0 79 34.5t29 100.5q0 57 -34 95.5t-86 38.5q-49 0 -78.5 -37.5t-29.5 -96.5z" />
<glyph unicode="h" horiz-adv-x="574" d="M45 671l4 20q60 21 127 21q-5 -53 -5 -125v-178q30 31 71 51t81 20q76 0 112 -39t36 -120v-286l47 -13v-17l-55 -8h-59l-61 8v16l36 9q20 5 24.5 22.5t4.5 84.5v153q0 70 -22 106.5t-85 36.5q-75 0 -130 -59v-338l53 -13v-18l-59 -8h-57l-60 8v16l14 3q33 7 39 23t6 90 v385q0 124 -10 137q-16 12 -44 12h-8z" />
<glyph unicode="i" horiz-adv-x="289" d="M50 439l4 20q47 18 125 18q-2 -59 -2 -109v-332l53 -13v-18l-59 -8h-57l-60 8v16l28 7q22 5 27 21t5 71l-1 263q0 36 -13 45q-17 12 -40 12q-5 0 -10 -1zM95 653q0 19 12.5 32t32.5 13q19 0 32 -13t13 -32t-13 -32t-32 -13t-32 13t-13 32z" />
<glyph unicode="j" horiz-adv-x="261" d="M25 -228l25 12q31 34 41 88.5t10 176.5l-1 334q0 36 -13 45q-17 12 -39 12q-5 0 -10 -1l4 20q46 18 124 18q-2 -38 -2 -109v-269q0 -177 -28 -247q-17 -44 -38.5 -67t-53.5 -30zM82 653q0 19 13 32t32 13t32 -13t13 -32t-13 -32t-32 -13t-32 13t-13 32z" />
<glyph unicode="k" horiz-adv-x="501" d="M45 671l4 20q67 21 127 21q-5 -53 -5 -125v-313h33q8 0 14 8q119 137 128 155q-16 7 -50 11l4 19l71 5h44l60 -6v-18q-62 -11 -100 -47l-121 -126q19 -19 41.5 -47.5t39 -50t42.5 -58t38 -51.5q29 -39 77 -46v-17l-93 -6q-19 9 -35 30l-159 208h-34v-201l53 -13v-18 l-59 -8h-57l-60 8v16l14 3q33 7 39 25t6 104v369q0 127 -10 137q-12 12 -43 12h-9z" />
<glyph unicode="l" horiz-adv-x="283" d="M45 671l4 20q67 21 127 21q-5 -53 -5 -125v-551l53 -13v-18l-59 -8h-57l-60 8v16l14 3q33 7 39 25t6 104v369q0 127 -10 137q-12 12 -43 12h-9z" />
<glyph unicode="m" horiz-adv-x="871" d="M50 439l4 20q54 18 120 18v-38q0 -13 -5 -38q30 34 73.5 56.5t86.5 22.5q104 0 134 -75q30 32 72.5 53.5t84.5 21.5q76 0 112 -39t36 -120v-286l47 -11v-19l-55 -8h-61l-57 8v16l34 9q20 5 24.5 27t4.5 109v124q0 70 -22 106.5t-85 36.5q-71 0 -127 -56q6 -24 6 -56v-286 l47 -11v-19l-55 -8h-61l-57 8v16l34 9q20 5 24.5 27t4.5 109v124q0 70 -22 106.5t-85 36.5q-75 0 -130 -59v-338l53 -13v-18l-59 -8h-57l-60 8v16l28 7q22 5 26.5 20.5t4.5 71.5v263q0 30 -11 44q-21 13 -43 13q-5 0 -9 -1z" />
<glyph unicode="n" d="M50 439l4 20q54 18 120 18v-38q0 -13 -5 -38q30 34 73.5 56.5t86.5 22.5q76 0 112 -39t36 -120v-286l47 -13v-17l-55 -8h-59l-61 8v16l36 9q20 5 24.5 22.5t4.5 84.5v153q0 70 -22 106.5t-85 36.5q-75 0 -130 -59v-338l54 -14v-17l-60 -8h-57l-60 8v16l33 9q19 5 23 22 t4 85v246q0 29 -12 44q-22 13 -43 13z" />
<glyph unicode="o" horiz-adv-x="523" d="M38 233q0 114 58.5 183t157.5 69q100 0 158.5 -64.5t58.5 -176.5t-57.5 -185.5t-160.5 -73.5q-95 0 -155 71.5t-60 176.5zM110 245q0 -109 40.5 -166t106.5 -57q62 0 102 53.5t40 149.5q0 222 -148 222q-65 0 -103 -54.5t-38 -147.5z" />
<glyph unicode="p" horiz-adv-x="539" d="M31 439l4 20q60 18 120 18v-33q0 -13 -5 -38q60 77 148 77q78 0 133.5 -63t55.5 -180q0 -67 -22 -118.5t-57 -79.5t-72.5 -41.5t-75.5 -13.5q-61 0 -104 17v-219l53 -13v-18l-59 -8h-58l-59 8v16l14 3q18 4 26 7.5t13.5 18.5t6 35t0.5 68v415q0 101 -11 110 q-12 10 -25 13t-19 1zM156 46q39 -22 106 -22q61 0 108 50.5t47 155.5q0 103 -40 154t-102 51q-32 0 -66.5 -18.5t-52.5 -43.5v-327z" />
<glyph unicode="q" horiz-adv-x="528" d="M38 230q0 67 22 118t57 79t73 42t75 14q68 0 114 -23l61 -8l9 -7q-13 -42 -13 -114v-503q0 -31 1 -44l52 -12v-18l-56 -8h-65l-61 8v16l39 9q16 4 21 18t5 50v199q-55 -58 -141 -58q-81 0 -137 62t-56 180zM108 240q0 -103 40 -154t102 -51q33 0 68.5 14t53.5 36v337 q-38 24 -106 24q-63 0 -110.5 -50t-47.5 -156z" />
<glyph unicode="r" horiz-adv-x="362" d="M55 439l4 20q57 18 119 19v-39q0 -6 -3 -51l63 72l9 8l4 -2l1 5l63 7h9q12 0 19 -4q7 -5 7 -17v-5l-4 -30q-3 -27 -23 -27q-12 0 -29 9l-41 21l-3 -1l-69 -59v-200l1 -129l62 -13v-18l-69 -8h-57l-60 8v16l29 7q22 6 26.5 21.5t4.5 71.5v261q0 37 -11 45q-18 13 -42 13 q-5 0 -10 -1z" />
<glyph unicode="s" horiz-adv-x="436" d="M55 29v131h34q1 -23 6.5 -44t17 -43.5t35 -36.5t55.5 -14q48 0 77 21.5t29 66.5q0 47 -72 82l-92 45q-37 18 -57.5 44t-20.5 74q0 53 45 90t112 37q64 0 121 -31l9 -4v-126h-38q0 50 -24.5 89t-73.5 39q-33 0 -63 -18t-30 -62q0 -49 61 -79l86 -43q60 -30 80 -55.5 t20 -70.5t-39.5 -89t-119.5 -44q-98 0 -158 41z" />
<glyph unicode="t" horiz-adv-x="353" d="M40 435l5 29q31 1 51.5 18t38 49.5t23.5 39.5h22l-9 -99h141v-36h-144q-3 -129 -3 -336q0 -47 9 -56q7 -7 35 -7h14l85 4l3 -25q-102 -23 -142 -23q-65 0 -65 83q0 105 6 360q-24 -1 -70 -1z" />
<glyph unicode="u" horiz-adv-x="574" d="M35 439l4 20q3 1 13.5 4t19 5t22 4t31 3.5t37.5 1.5q-2 -32 -2 -72q0 -171 1 -258q2 -116 111 -116q70 0 122 64v217q0 8 0.5 25t0.5 27.5t-1 24t-3.5 23t-7.5 15.5q-22 12 -52 12l4 23q1 0 8.5 2t17 4t23.5 4t34 3.5t42 1.5q-2 -32 -2 -89v-306q0 -39 19 -47l33 -13v-17 l-102 -12l-12 67q-30 -34 -70 -54.5t-78 -20.5q-151 0 -151 158q0 7 0.5 70t0.5 105q0 62 -1.5 78.5t-7.5 25.5q-13 17 -54 17z" />
<glyph unicode="v" horiz-adv-x="444" d="M-10 444v19l56 8h61l58 -8v-19l-60 -16l84 -247q20 -63 34 -117q20 62 40 116l94 251l-52 13v19l46 8h53l39 -7v-20l-21 -4q-20 -5 -29 -30l-160 -418h-39l-151 418q-8 24 -26 28z" />
<glyph unicode="w" horiz-adv-x="679" d="M-3 443v20l56 8h61l58 -8v-16l-62 -17l74 -261l25 -96q11 44 30 101l96 294h32l91 -299q19 -64 25 -94q14 50 30 98l81 257l-52 13v20l46 8h53l36 -7v-23l-19 -4q-20 -5 -28 -27l-139 -418h-41l-90 289q-5 15 -24 85q-15 -53 -25 -86l-94 -288h-41l-126 418q-8 26 -31 30 z" />
<glyph unicode="x" horiz-adv-x="491" d="M5 5v19l14 3q50 11 62 29l124 184l-131 183q-10 14 -39 19l-13 2v19l55 8h59l58 -8v-16l-52 -14l104 -153q4 5 8.5 12t11.5 18.5t13 20.5l64 99l-51 14v19l59 8h48l53 -8v-19l-13 -3q-51 -12 -63 -30l-107 -152l2 -1l146 -214q6 -9 21 -12l34 -8v-19l-55 -8h-60l-57 8v16 l50 13l-83 122q-28 42 -39 60l-115 -178l52 -14v-19l-59 -8h-55z" />
<glyph unicode="y" horiz-adv-x="475" d="M15 -193q0 15 15 22q5 3 12 3q11 0 27 -8l56 -25q23 11 60 98q24 57 37 89q-7 17 -24 66l-129 358q-9 24 -26 28l-27 6v19l56 8h63l56 -8v-19l-61 -15l85 -248q20 -58 36 -121q33 90 133 370l-53 14v19l46 8h53l39 -7v-20l-22 -4q-12 -3 -17.5 -9.5t-10.5 -20.5 q-15 -37 -78.5 -208t-99.5 -267q-37 -98 -67.5 -137.5t-72.5 -45.5v-1h-7l-25 -3q-7 -1 -14 -1q-40 0 -40 28v32z" />
<glyph unicode="z" horiz-adv-x="475" d="M46 6v37l296 397l-219 -3l-18 -104h-41v135l52 7h238l58 2v-37l-301 -404l239 2l27 104h34l1 -136l-58 -8h-242z" />
<glyph unicode="{" horiz-adv-x="323" d="M45 213v33l45 14q40 12 55.5 37.5t15.5 90.5v189q0 79 29 122t78 43q12 0 24 -1v-24q-70 -2 -70 -139v-227q0 -51 -24 -83t-65 -40q89 -27 89 -122v-240q0 -58 19.5 -88.5t50.5 -30.5v-23q-11 -1 -24 -1q-49 0 -78 43.5t-29 124.5v181q0 57 -15.5 85t-55.5 41z" />
<glyph unicode="|" horiz-adv-x="159" d="M48 -254v966h49v-966h-49z" />
<glyph unicode="}" horiz-adv-x="281" d="M19 -252q70 2 70 139v227q0 51 24 83t65 40q-89 25 -89 122v240q0 58 -19.5 88.5t-50.5 30.5v23q11 1 24 1q49 0 78 -43.5t29 -124.5v-181q0 -57 15.5 -85t55.5 -41l45 -15v-33l-45 -14q-40 -13 -55.5 -38.5t-15.5 -89.5v-189q0 -79 -29 -122t-78 -43q-12 0 -24 1v24z " />
<glyph unicode="~" horiz-adv-x="454" d="M14 326q22 93 106 93q46 0 95 -26.5t91 -26.5q48 0 60 50l48 -13q-11 -42 -40.5 -64.5t-67.5 -22.5q-55 0 -106.5 26.5t-77.5 26.5q-52 0 -62 -57z" />
<glyph unicode="&#xa1;" horiz-adv-x="298" d="M59 -186l38 499h51l37 -485zM70 428q0 20 16 36t37 16t36.5 -15.5t15.5 -36.5q0 -22 -15 -37.5t-37 -15.5q-21 0 -37 15.5t-16 37.5z" />
<glyph unicode="&#xa2;" horiz-adv-x="454" d="M37 221q0 108 51 172.5t126 79.5v121h45v-117q84 -3 128 -50l16 -14q11 -9 13.5 -21t-3.5 -18l-13 -19q-8 -11 -22.5 -12t-28.5 16l-49 73q-19 4 -41 6v-392q47 1 75.5 19t51.5 54l34 -19q-30 -55 -68.5 -83t-92.5 -31v-131h-45v133q-81 12 -129 78t-48 155zM103 243 q0 -66 30.5 -119.5t80.5 -70.5v381q-56 -14 -83.5 -65.5t-27.5 -125.5z" />
<glyph unicode="&#xa3;" horiz-adv-x="451" d="M-5 21q26 55 73 69q35 15 53 44t18 87q0 38 -2 92h-89l10 42h77q-2 52 -2 80q0 110 55 150t150 40q21 0 47 -4l46 -9q19 -4 14 -25l-5 -20q-4 -16 -20 -20.5t-33 7.5l-49 35h-13q-58 0 -92.5 -26.5t-34.5 -99.5q0 -55 3 -108h134l-5 -42h-128q1 -19 1 -61 q0 -118 -60 -163q21 -4 62 -14.5t72.5 -18t48.5 -7.5q48 0 69 35l28 -13q-35 -76 -111 -76q-25 0 -110.5 21t-109.5 21q-43 0 -64 -34z" />
<glyph unicode="&#xa4;" horiz-adv-x="509" d="M40 539l48 40l58 -81q45 31 106 31q58 0 99 -27l56 77l48 -40l-60 -80q37 -56 37 -141q0 -86 -37 -140l60 -79l-48 -38l-55 74q-43 -26 -100 -26q-61 0 -104 29l-56 -77l-49 38l62 83q-34 53 -34 135q0 83 33 136zM134 318q0 -76 33.5 -116.5t82.5 -40.5q51 0 84.5 40 t33.5 117q0 81 -33 121t-85 40q-49 0 -82.5 -40.5t-33.5 -120.5z" />
<glyph unicode="&#xa5;" horiz-adv-x="533" d="M14 587v20l52 7h64l66 -7v-18l-60 -12l130 -270l5 -1l143 271l-61 12v18l70 7h24l69 -7v-19l-26 -6q-6 -1 -10.5 -3t-9 -5t-6.5 -4.5t-5.5 -7t-5 -7.5t-5.5 -10t-6 -11l-131 -230h127v-38h-144v-79h144v-38h-144v-83q0 -18 7 -26.5t24 -11.5l27 -5v-18l-62 -8h-65l-58 8 v17l27 6q16 4 22.5 11.5t7.5 25.5q1 11 1 84h-143v38h143v79h-143v38h125l-136 251q-11 22 -32 27z" />
<glyph unicode="&#xa6;" horiz-adv-x="163" d="M50 188h49v-442h-49v442zM50 265v447h49v-447h-49z" />
<glyph unicode="&#xa7;" horiz-adv-x="516" d="M44 249q0 57 41 98.5t107 55.5q-103 50 -103 151q0 74 56 115t127 41q48 0 133 -35q23 -9 14 -31l-11 -26q-7 -15 -24 -17.5t-33 11.5l-69 62q-7 1 -20 1q-57 0 -86 -29.5t-29 -73.5q0 -77 85 -114l85 -38q73 -33 100.5 -71.5t27.5 -86.5q0 -66 -41 -106t-102 -54 q100 -47 100 -140q0 -55 -32 -92t-72.5 -51t-84.5 -14q-50 0 -121 27q-47 12 -36 43l8 26q6 18 23.5 21t34.5 -15l67 -70q8 -1 34 -1q53 0 86.5 31.5t33.5 79.5q0 42 -22 64.5t-64 39.5l-93 39q-51 21 -85.5 61.5t-34.5 97.5zM108 259q0 -74 86 -110l61 -27q54 13 89.5 45.5 t35.5 86.5q0 71 -90 108l-50 20q-58 -11 -95 -43t-37 -80z" />
<glyph unicode="&#xa8;" horiz-adv-x="517" d="M114 601q0 18 12 30t30 12q17 0 29.5 -12t12.5 -30q0 -17 -12.5 -29.5t-29.5 -12.5q-18 0 -30 12.5t-12 29.5zM305 601q0 18 12 30t30 12q17 0 29.5 -12t12.5 -30q0 -17 -12.5 -29.5t-29.5 -12.5q-18 0 -30 12.5t-12 29.5z" />
<glyph unicode="&#xa9;" horiz-adv-x="784" d="M50 325q0 139 97.5 236t236.5 97t237.5 -97.5t98.5 -235.5q0 -139 -98.5 -237t-237.5 -98t-236.5 98t-97.5 237zM101 325q0 -121 82 -204.5t201 -83.5t201.5 83.5t82.5 204.5t-82 203.5t-202 82.5q-119 0 -201 -82.5t-82 -203.5zM180 327q0 94 61 152t169 58q16 0 34 -3 t42 -9t30 -7l23 -2v-106h-40q-19 64 -31 75q-23 20 -62 20q-68 0 -110.5 -46t-42.5 -122q0 -94 49.5 -136t113.5 -42q37 0 63 14l23 85h29l7 -50v-59q-3 -1 -16.5 -6t-24 -8t-26 -7.5t-33 -6.5t-34.5 -2q-32 0 -63 7.5t-60.5 23.5t-51.5 40t-35.5 59t-13.5 78z" />
<glyph unicode="&#xaa;" horiz-adv-x="309" d="M30 451q0 66 75 87q44 12 82 16v11q0 37 -13.5 55.5t-45.5 18.5q-48 0 -75 -27l-11 21q13 16 44 29t61 13q50 0 74 -23t24 -78q0 -18 -1 -63.5t-1 -70.5q-1 -18 3.5 -24t20.5 -6h17v-17l-63 -17l-27 34q-32 -34 -83 -34q-39 0 -60 21t-21 54zM88 455q0 -22 15 -33.5 t34 -11.5q27 0 49 20l1 98q-32 -5 -57 -14q-42 -15 -42 -59z" />
<glyph unicode="&#xab;" horiz-adv-x="344" d="M15 267v16l111 178h50l-97 -187l97 -186h-53zM159 267v16l111 178h50l-97 -187l97 -186h-53z" />
<glyph unicode="&#xac;" horiz-adv-x="585" d="M40 235v56h436v-215h-56v159h-380z" />
<glyph unicode="&#xae;" horiz-adv-x="784" d="M50 325q0 138 98 235.5t236 97.5q141 0 238.5 -96.5t97.5 -236.5q0 -139 -98.5 -237t-237.5 -98t-236.5 98t-97.5 237zM101 325q0 -121 82 -204.5t201 -83.5q122 0 203 82t81 206q0 121 -82 203.5t-202 82.5t-201.5 -82.5t-81.5 -203.5zM215 524l31 3h120q179 0 179 -102 q0 -42 -32.5 -68.5t-84.5 -34.5q10 -8 24 -24l80 -115q18 -16 28 -19l5 -2v-21l-73 -6q-17 5 -24 18l-107 166l-27 1v-148l47 -11v-20l-52 -6h-86l-25 2v23l30 5q18 3 18 27v2v4v7.5t0.5 11t0.5 13.5v16v18v124l-1 84q0 13 -6 19.5t-23 8.5l-19 3zM334 346l65 1 q34 6 57.5 27.5t23.5 49.5q0 68 -100 68h-46v-146z" />
<glyph unicode="&#xaf;" horiz-adv-x="426" d="M59 548v40h294v-40h-294z" />
<glyph unicode="&#xb0;" horiz-adv-x="413" d="M50 686q0 62 44 106.5t106 44.5q63 0 106 -43.5t43 -108.5q0 -63 -43 -107.5t-106 -44.5t-106.5 44.5t-43.5 108.5zM97 681q0 -40 29.5 -70.5t69.5 -30.5q47 0 76 29t29 75q0 47 -28.5 76.5t-73.5 29.5q-43 0 -72.5 -31.5t-29.5 -77.5z" />
<glyph unicode="&#xb1;" horiz-adv-x="420" d="M20 0v56h366v-56h-366zM40 289v56h135v135h56v-135h135v-56h-135v-135h-56v135h-135z" />
<glyph unicode="&#xb2;" horiz-adv-x="317" d="M20 354v31q76 68 137 125q37 34 37 80q0 26 -18.5 43t-47.5 17q-58 0 -77 -58l-29 12q14 42 45.5 66.5t76.5 24.5q56 0 87.5 -31.5t31.5 -72.5q0 -58 -76 -117q-88 -65 -120 -92l116 3q14 1 20.5 7t11.5 20l12 41h35v-99l-48 -5h-153z" />
<glyph unicode="&#xb3;" horiz-adv-x="306" d="M17 383l5 17q4 13 16 14.5t25 -10.5l32 -32q12 -3 26 -3q36 0 52.5 22t16.5 49q0 40 -43 62h-60v32q23 1 38.5 3.5t32 10t25 22t8.5 37.5t-16 39t-42 16q-51 0 -71 -66h-32v68q2 1 18 7.5t25.5 10t27.5 7t35 3.5q56 0 86 -24.5t30 -65.5q0 -30 -20.5 -51.5t-55.5 -29.5 q41 -8 61 -30t20 -49q0 -42 -36 -70.5t-97 -28.5q-32 0 -57 5q-43 9 -49 19q-4 6 -1 16z" />
<glyph unicode="&#xb4;" horiz-adv-x="514" d="M206.5 541.5q-1.5 4.5 3.5 8.5l118 95h69q7 0 9 -6.5t-4 -10.5l-155 -91h-35q-4 0 -5.5 4.5z" />
<glyph unicode="&#xb5;" horiz-adv-x="584" d="M102 -255l6 271v455h65q-2 -10 -2 -90v-240q0 -53 30.5 -81.5t86.5 -28.5q66 0 116 63v377h66q-2 -32 -2 -98v-291q0 -39 19 -47l33 -13v-17l-102 -12l-10 54q-26 -29 -68 -45.5t-79 -16.5q-62 0 -101 29l11 -260q-43 -9 -69 -9z" />
<glyph unicode="&#xb6;" horiz-adv-x="519" d="M50 496q0 75 49 113.5t125 38.5h22v-825h-58v523q-59 4 -98.5 40t-39.5 110zM308 -178v826h77l70 -8v-34l-60 -14q-14 -3 -21 -14.5t-7.5 -20.5t-0.5 -28v-707h-58z" />
<glyph unicode="&#xb7;" horiz-adv-x="250" d="M66 240q0 22 15 37.5t37 15.5q21 0 37 -15.5t16 -37.5q0 -20 -16 -36t-37 -16t-36.5 15.5t-15.5 36.5z" />
<glyph unicode="&#xb8;" horiz-adv-x="466" d="M185 -167q31 0 52 13t21 42q0 44 -46 60l19 79l32 -4l-5 -57q23 -7 39 -26.5t16 -47.5q0 -47 -37.5 -69.5t-87.5 -22.5z" />
<glyph unicode="&#xb9;" horiz-adv-x="251" d="M10 642q84 26 134 60h18q-3 -96 -3 -101v-199q0 -12 5.5 -18.5t14 -9t28.5 -6.5v-15l-43 -5h-70l-51 5v16q42 8 49 15q5 7 5 17l1 236q-38 -18 -78 -27z" />
<glyph unicode="&#xba;" horiz-adv-x="325" d="M21 520q0 69 35.5 111t98.5 42t99 -39.5t36 -107.5q0 -69 -35.5 -112.5t-99.5 -43.5q-61 0 -97.5 42.5t-36.5 107.5zM76 526q0 -64 22.5 -97.5t58.5 -33.5q35 0 56.5 31.5t21.5 89.5q0 131 -81 131q-37 0 -57.5 -32.5t-20.5 -88.5z" />
<glyph unicode="&#xbb;" horiz-adv-x="344" d="M10 88l97 186l-97 187h50l111 -178v-16l-108 -179h-53zM154 88l97 186l-97 187h50l111 -178v-16l-108 -179h-53z" />
<glyph unicode="&#xbc;" horiz-adv-x="850" d="M53 0l182 296l-26 -3h-70l-51 5v16q42 8 49 15q5 7 5 17l1 236q-38 -18 -78 -27l-10 32q84 26 134 60h18q-3 -96 -3 -101v-199q0 -17 8.5 -23t33.5 -10l206 334h62l-399 -648h-62zM474 107v26q80 121 168 217h41v-210h4l52 -7v-21l-52 -5h-4v-60q0 -11 3.5 -15.5 t13.5 -6.5l26 -6v-16l-42 -5h-76l-40 4v16l30 8q12 3 17 7.5t5 14.5v59h-146zM522 140h98v134q-45 -55 -98 -134z" />
<glyph unicode="&#xbd;" horiz-adv-x="850" d="M43 0l181 295l-15 -2h-70l-51 5v16q42 8 49 15q5 7 5 17l1 236q-38 -18 -78 -27l-10 32q84 26 134 60h18q-3 -96 -3 -101v-199q0 -15 7.5 -21.5t25.5 -10.5l205 333h62l-399 -648h-62zM491 4v31q76 68 137 125q37 34 37 80q0 26 -18.5 43t-47.5 17q-58 0 -77 -58l-29 12 q14 42 45.5 66.5t76.5 24.5q56 0 87.5 -31.5t31.5 -72.5q0 -58 -76 -117q-88 -65 -120 -92l116 3q14 1 20.5 7t11.5 20l12 41h35v-99l-48 -5h-153z" />
<glyph unicode="&#xbe;" horiz-adv-x="850" d="M17 328l5 17q4 13 16 14.5t25 -10.5l32 -32q12 -3 26 -3q36 0 52.5 22t16.5 49q0 40 -43 62h-60v32q23 1 38.5 3.5t32 10t25 22t8.5 37.5t-16 39t-42 16q-51 0 -71 -66h-32v68q2 1 18 7.5t25.5 10t27.5 7t35 3.5q56 0 86 -24.5t30 -65.5q0 -30 -20.5 -51.5t-55.5 -29.5 q41 -8 61 -30t20 -49q0 -42 -36 -70.5t-97 -28.5q-32 0 -57 5q-43 9 -49 19q-4 6 -1 16zM53 0l399 648h62l-399 -648h-62zM474 107v26q80 121 168 217h41v-210h4l52 -7v-21l-52 -5h-4v-60q0 -11 3.5 -15.5t13.5 -6.5l26 -6v-16l-42 -5h-76l-40 4v16l30 8q12 3 17 7.5t5 14.5 v59h-146zM522 140h98v134q-45 -55 -98 -134z" />
<glyph unicode="&#xbf;" horiz-adv-x="382" d="M1 -40q0 19 6 39t12.5 33.5t22.5 34t24 30t30 33t29 30.5q27 29 37.5 59t9.5 77h50q-1 -54 -16 -96.5t-36 -69t-41.5 -50t-35 -54t-14.5 -68.5q0 -50 29.5 -77t85.5 -27q27 0 55 14l32 84q8 21 27.5 24.5t31.5 -9.5l11 -11q15 -18 15 -26t-12 -21l-9 -10l-4 -1 q-23 -32 -68 -60.5t-95 -28.5q-84 0 -130.5 43t-46.5 108zM143 432q0 22 15 37.5t37 15.5q21 0 37 -15.5t16 -37.5q0 -20 -16 -36t-37 -16t-36.5 15.5t-15.5 36.5z" />
<glyph unicode="&#xc0;" d="M-15 5v19l39 11q9 2 15 8.5t8.5 12.5t9.5 25l212 583h49l203 -575q11 -33 16 -41.5t17 -12.5l27 -10v-20l-52 -8h-58l-72 8v18l62 12l-72 208h-225l-72 -209l61 -11v-18l-74 -8h-50zM141 800.5q2 6.5 9 6.5h69l118 -95q5 -4 3.5 -8.5t-5.5 -4.5h-35l-155 91q-6 4 -4 10.5 zM176 278h201l-73 215l-23 86h-5q-11 -44 -25 -86z" />
<glyph unicode="&#xc1;" d="M-15 5v19l39 11q9 2 15 8.5t8.5 12.5t9.5 25l212 583h49l203 -575q11 -33 16 -41.5t17 -12.5l27 -10v-20l-52 -8h-58l-72 8v18l62 12l-72 208h-225l-72 -209l61 -11v-18l-74 -8h-50zM176 278h201l-73 215l-23 86h-5q-11 -44 -25 -86zM249.5 703.5q-1.5 4.5 3.5 8.5 l118 95h69q7 0 9 -6.5t-4 -10.5l-155 -91h-35q-4 0 -5.5 4.5z" />
<glyph unicode="&#xc2;" d="M-15 5v19l39 11q9 2 15 8.5t8.5 12.5t9.5 25l212 583h49l203 -575q11 -33 16 -41.5t17 -12.5l27 -10v-20l-52 -8h-58l-72 8v18l62 12l-72 208h-225l-72 -209l61 -11v-18l-74 -8h-50zM174 743l117 108l121 -111l-20 -23l-101 72l-99 -72zM176 278h201l-73 215l-23 86h-5 q-11 -44 -25 -86z" />
<glyph unicode="&#xc3;" d="M-15 5v19l39 11q9 2 15 8.5t8.5 12.5t9.5 25l212 583h49l203 -575q11 -33 16 -41.5t17 -12.5l27 -10v-20l-52 -8h-58l-72 8v18l62 12l-72 208h-225l-72 -209l61 -11v-18l-74 -8h-50zM149 740q27 75 91 75q21 0 57.5 -22t56.5 -22q38 0 57 38l28 -15q-30 -73 -90 -73 q-21 0 -58 20.5t-57 20.5q-40 0 -57 -36zM176 278h201l-73 215l-23 86h-5q-11 -44 -25 -86z" />
<glyph unicode="&#xc4;" d="M-15 5v19l39 11q9 2 15 8.5t8.5 12.5t9.5 25l212 583h49l203 -575q11 -33 16 -41.5t17 -12.5l27 -10v-20l-52 -8h-58l-72 8v18l62 12l-72 208h-225l-72 -209l61 -11v-18l-74 -8h-50zM153 763q0 18 12 30t30 12q17 0 29.5 -12t12.5 -30q0 -17 -12.5 -29.5t-29.5 -12.5 q-18 0 -30 12.5t-12 29.5zM176 278h201l-73 215l-23 86h-5q-11 -44 -25 -86zM344 763q0 18 12 30t30 12q17 0 29.5 -12t12.5 -30q0 -17 -12.5 -29.5t-29.5 -12.5q-18 0 -30 12.5t-12 29.5z" />
<glyph unicode="&#xc5;" d="M-15 5v19l39 11q9 2 15 8.5t8.5 12.5t9.5 25l207 571q-24 8 -38.5 29t-14.5 48q0 35 24 59t58 24q35 0 59 -24t24 -59q0 -27 -15 -48t-39 -29l199 -563q11 -33 16 -41.5t17 -12.5l27 -10v-20l-52 -8h-58l-72 8v18l62 12l-72 208h-225l-72 -209l61 -11v-18l-74 -8h-50z M176 278h201l-73 215l-23 86h-5q-11 -44 -25 -86zM248 729q0 -19 13 -32t32 -13t32.5 13t13.5 32t-13.5 32.5t-32.5 13.5t-32 -13.5t-13 -32.5z" />
<glyph unicode="&#xc6;" horiz-adv-x="793" d="M-13 5v19q33 7 45.5 16.5t26.5 40.5l259 568h349q37 0 70 3q0 -28 -0.5 -86t-0.5 -86h-38l-15 97q-5 29 -24.5 37t-93.5 8h-140q0 -38 -0.5 -106.5t-0.5 -91.5v-75h162q5 0 9 3.5t7.5 10.5t6.5 14t6 18.5t4.5 18.5t4.5 20.5t4 17.5h26v-246h-25q-2 8 -6.5 26.5t-7.5 30.5 t-8 25.5t-10.5 20.5t-12.5 7h-160v-100q0 -143 1 -186h232q13 0 26 14.5t17 35.5l15 85h32v-167q-37 2 -115 2h-296l-41 5v16l29 7q17 4 23 12t7 29q1 25 1 97v97h-165l-100 -229l59 -11v-18l-70 -8h-48zM205 298h150v324h-9z" />
<glyph unicode="&#xc7;" horiz-adv-x="579" d="M42 315q0 145 87.5 246t223.5 101q106 0 173 -21v-90l-10 -80h-28l-4 24q-13 80 -33 105q-23 28 -104 28q-110 0 -166.5 -77t-56.5 -226q0 -138 70 -221t173 -83q41 0 68 8q35 10 46 67l13 72h33l-3 -110v-36q-56 -37 -171 -37h-6l-3 -39q23 -7 39 -26.5t16 -47.5 q0 -47 -37.5 -69.5t-87.5 -22.5l-3 33q31 0 52 13t21 42q0 44 -46 60l14 59q-115 13 -192.5 97t-77.5 231z" />
<glyph unicode="&#xc8;" horiz-adv-x="553" d="M56 5v16l28 7q17 4 23 12t7 29q1 25 1 97v312q0 68 -2 101q-1 32 -29 38l-25 5v18l62 9h306q37 0 70 3l-1 -172h-38l-14 90q-3 23 -12 32.5t-32 13.5t-75 4h-140q0 -39 -0.5 -105.5t-0.5 -90.5v-75h162q17 0 28 44l14 59h26v-246h-25l-17 67q-11 43 -28 43h-160v-100 q0 -143 1 -186h232q13 0 26 14.5t17 35.5l15 85h32v-167q-37 2 -115 2h-296zM196 810.5q2 6.5 9 6.5h69l118 -95q5 -4 3.5 -8.5t-5.5 -4.5h-35l-155 91q-6 4 -4 10.5z" />
<glyph unicode="&#xc9;" horiz-adv-x="553" d="M56 5v16l28 7q17 4 23 12t7 29q1 25 1 97v312q0 68 -2 101q-1 32 -29 38l-25 5v18l62 9h306q37 0 70 3l-1 -172h-38l-14 90q-3 23 -12 32.5t-32 13.5t-75 4h-140q0 -39 -0.5 -105.5t-0.5 -90.5v-75h162q17 0 28 44l14 59h26v-246h-25l-17 67q-11 43 -28 43h-160v-100 q0 -143 1 -186h232q13 0 26 14.5t17 35.5l15 85h32v-167q-37 2 -115 2h-296zM223.5 713.5q-1.5 4.5 3.5 8.5l118 95h69q7 0 9 -6.5t-4 -10.5l-155 -91h-35q-4 0 -5.5 4.5z" />
<glyph unicode="&#xca;" horiz-adv-x="553" d="M56 5v16l28 7q17 4 23 12t7 29q1 25 1 97v312q0 68 -2 101q-1 32 -29 38l-25 5v18l62 9h306q37 0 70 3l-1 -172h-38l-14 90q-3 23 -12 32.5t-32 13.5t-75 4h-140q0 -39 -0.5 -105.5t-0.5 -90.5v-75h162q17 0 28 44l14 59h26v-246h-25l-17 67q-11 43 -28 43h-160v-100 q0 -143 1 -186h232q13 0 26 14.5t17 35.5l15 85h32v-167q-37 2 -115 2h-296zM182 743l117 108l121 -111l-20 -23l-101 72l-99 -72z" />
<glyph unicode="&#xcb;" horiz-adv-x="553" d="M56 5v16l28 7q17 4 23 12t7 29q1 25 1 97v312q0 68 -2 101q-1 32 -29 38l-25 5v18l62 9h306q37 0 70 3l-1 -172h-38l-14 90q-3 23 -12 32.5t-32 13.5t-75 4h-140q0 -39 -0.5 -105.5t-0.5 -90.5v-75h162q17 0 28 44l14 59h26v-246h-25l-17 67q-11 43 -28 43h-160v-100 q0 -143 1 -186h232q13 0 26 14.5t17 35.5l15 85h32v-167q-37 2 -115 2h-296zM152 773q0 18 12 30t30 12q17 0 29.5 -12t12.5 -30q0 -17 -12.5 -29.5t-29.5 -12.5q-18 0 -30 12.5t-12 29.5zM343 773q0 18 12 30t30 12q17 0 29.5 -12t12.5 -30q0 -17 -12.5 -29.5t-29.5 -12.5 q-18 0 -30 12.5t-12 29.5z" />
<glyph unicode="&#xcc;" horiz-adv-x="313" d="M37 800.5q2 6.5 9 6.5h69l118 -95q5 -4 3.5 -8.5t-5.5 -4.5h-35l-155 91q-6 4 -4 10.5zM57 623v17l60 8h68l59 -8v-17l-28 -6q-28 -6 -29 -38q-2 -32 -2 -100v-410q0 -21 6.5 -29t23.5 -12l28 -5v-18l-63 -8h-64l-58 8v17l27 6q17 4 23 12t7 29q1 25 1 97v312 q0 68 -2 101q-1 32 -29 38z" />
<glyph unicode="&#xcd;" horiz-adv-x="313" d="M57 623v17l60 8h68l59 -8v-17l-28 -6q-28 -6 -29 -38q-2 -32 -2 -100v-410q0 -21 6.5 -29t23.5 -12l28 -5v-18l-63 -8h-64l-58 8v17l27 6q17 4 23 12t7 29q1 25 1 97v312q0 68 -2 101q-1 32 -29 38zM73.5 703.5q-1.5 4.5 3.5 8.5l118 95h69q7 0 9 -6.5t-4 -10.5l-155 -91 h-35q-4 0 -5.5 4.5z" />
<glyph unicode="&#xce;" horiz-adv-x="313" d="M31 727l117 108l121 -111l-20 -23l-101 72l-99 -72zM57 623v17l60 8h68l59 -8v-17l-28 -6q-28 -6 -29 -38q-2 -32 -2 -100v-410q0 -21 6.5 -29t23.5 -12l28 -5v-18l-63 -8h-64l-58 8v17l27 6q17 4 23 12t7 29q1 25 1 97v312q0 68 -2 101q-1 32 -29 38z" />
<glyph unicode="&#xcf;" horiz-adv-x="313" d="M12 763q0 18 12 30t30 12q17 0 29.5 -12t12.5 -30q0 -17 -12.5 -29.5t-29.5 -12.5q-18 0 -30 12.5t-12 29.5zM57 623v17l60 8h68l59 -8v-17l-28 -6q-28 -6 -29 -38q-2 -32 -2 -100v-410q0 -21 6.5 -29t23.5 -12l28 -5v-18l-63 -8h-64l-58 8v17l27 6q17 4 23 12t7 29 q1 25 1 97v312q0 68 -2 101q-1 32 -29 38zM203 763q0 18 12 30t30 12q17 0 29.5 -12t12.5 -30q0 -17 -12.5 -29.5t-29.5 -12.5q-18 0 -30 12.5t-12 29.5z" />
<glyph unicode="&#xd0;" horiz-adv-x="658" d="M43 291v56h71v116q0 83 -2 116q-1 32 -29 38l-23 5v18l61 8q13 0 66.5 0.5t83.5 0.5q155 0 244 -81t89 -237q0 -163 -95.5 -248.5t-263.5 -85.5h-130l-60 8v16l28 7q15 4 21 12.5t8 27.5q2 22 2 148v75h-71zM183 216q0 -129 3 -185l82 1q120 1 188.5 71t68.5 209 q0 141 -65.5 222t-197.5 80l-78 -1q-1 -50 -1 -182v-84h69v-56h-69v-75z" />
<glyph unicode="&#xd1;" horiz-adv-x="677" d="M50 621v19l58 8h58l277 -405q85 -123 86 -133h5v387q0 73 -1 113l-44 12v18l51 8h43l50 -8v-18l-27 -5q-25 -5 -28 -36q-2 -20 -2 -103v-478l-53 -8l-367 543v-501l45 -11v-18l-51 -8h-53l-43 8v18l35 9q14 3 19 19q6 20 6 109v415q0 8 -8 18.5t-21 15.5zM186 740 q27 75 91 75q21 0 57.5 -22t56.5 -22q38 0 57 38l28 -15q-30 -73 -90 -73q-21 0 -58 20.5t-57 20.5q-40 0 -57 -36z" />
<glyph unicode="&#xd2;" horiz-adv-x="679" d="M42 325q0 90 33 166.5t99 124.5t153 48q134 0 212 -96.5t78 -242.5q0 -142 -77.5 -241.5t-210.5 -99.5t-210 96.5t-77 244.5zM124 330q0 -140 54.5 -223.5t155.5 -83.5q90 0 145.5 72.5t55.5 219.5q0 142 -54 226.5t-158 84.5q-97 0 -148 -75.5t-51 -220.5zM229 810.5 q2 6.5 9 6.5h69l118 -95q5 -4 3.5 -8.5t-5.5 -4.5h-35l-155 91q-6 4 -4 10.5z" />
<glyph unicode="&#xd3;" horiz-adv-x="679" d="M42 325q0 90 33 166.5t99 124.5t153 48q134 0 212 -96.5t78 -242.5q0 -142 -77.5 -241.5t-210.5 -99.5t-210 96.5t-77 244.5zM124 330q0 -140 54.5 -223.5t155.5 -83.5q90 0 145.5 72.5t55.5 219.5q0 142 -54 226.5t-158 84.5q-97 0 -148 -75.5t-51 -220.5zM255.5 713.5 q-1.5 4.5 3.5 8.5l118 95h69q7 0 9 -6.5t-4 -10.5l-155 -91h-35q-4 0 -5.5 4.5z" />
<glyph unicode="&#xd4;" horiz-adv-x="679" d="M42 325q0 90 33 166.5t99 124.5t153 48q134 0 212 -96.5t78 -242.5q0 -142 -77.5 -241.5t-210.5 -99.5t-210 96.5t-77 244.5zM124 330q0 -140 54.5 -223.5t155.5 -83.5q90 0 145.5 72.5t55.5 219.5q0 142 -54 226.5t-158 84.5q-97 0 -148 -75.5t-51 -220.5zM211 743 l117 108l121 -111l-20 -23l-101 72l-99 -72z" />
<glyph unicode="&#xd5;" horiz-adv-x="679" d="M42 325q0 90 33 166.5t99 124.5t153 48q134 0 212 -96.5t78 -242.5q0 -142 -77.5 -241.5t-210.5 -99.5t-210 96.5t-77 244.5zM124 330q0 -140 54.5 -223.5t155.5 -83.5q90 0 145.5 72.5t55.5 219.5q0 142 -54 226.5t-158 84.5q-97 0 -148 -75.5t-51 -220.5zM190 755 q27 75 91 75q21 0 57.5 -22t56.5 -22q38 0 57 38l28 -15q-30 -73 -90 -73q-21 0 -58 20.5t-57 20.5q-40 0 -57 -36z" />
<glyph unicode="&#xd6;" horiz-adv-x="679" d="M42 325q0 90 33 166.5t99 124.5t153 48q134 0 212 -96.5t78 -242.5q0 -142 -77.5 -241.5t-210.5 -99.5t-210 96.5t-77 244.5zM124 330q0 -140 54.5 -223.5t155.5 -83.5q90 0 145.5 72.5t55.5 219.5q0 142 -54 226.5t-158 84.5q-97 0 -148 -75.5t-51 -220.5zM195 763 q0 18 12 30t30 12q17 0 29.5 -12t12.5 -30q0 -17 -12.5 -29.5t-29.5 -12.5q-18 0 -30 12.5t-12 29.5zM386 763q0 18 12 30t30 12q17 0 29.5 -12t12.5 -30q0 -17 -12.5 -29.5t-29.5 -12.5q-18 0 -30 12.5t-12 29.5z" />
<glyph unicode="&#xd7;" horiz-adv-x="453" d="M50 180l130 137l-128 136l42 39l126 -134l126 132l40 -37l-128 -135l131 -138l-42 -39l-129 136l-128 -136z" />
<glyph unicode="&#xd8;" horiz-adv-x="679" d="M42 325q0 90 33 166.5t99 124.5t153 48q62 0 116 -24l31 72h56l-42 -97q62 -45 95.5 -121t33.5 -169q0 -142 -77.5 -241.5t-210.5 -99.5q-53 0 -104 18l-33 -77h-55l43 100q-67 43 -102.5 122t-35.5 178zM124 330q0 -173 78 -253l223 521q-45 28 -102 28 q-97 0 -148 -75.5t-51 -220.5zM244 45q41 -22 90 -22q90 0 145.5 72.5t55.5 219.5q0 165 -70 247z" />
<glyph unicode="&#xd9;" horiz-adv-x="648" d="M26 623v17l58 8h68l58 -8v-17l-62 -12q-1 -58 -1 -171v-206q0 -120 48 -168q48 -46 126 -46q88 0 128.5 56t40.5 141v263q0 18 -2 130l-53 13v17l59 8h47l53 -8v-17l-30 -8q-13 -4 -17 -11t-5 -25q-2 -60 -2 -100v-246q0 -120 -60 -185t-159 -65q-243 0 -243 249v208 q0 114 -1 139q-1 34 -27 39zM204 800.5q2 6.5 9 6.5h69l118 -95q5 -4 3.5 -8.5t-5.5 -4.5h-35l-155 91q-6 4 -4 10.5z" />
<glyph unicode="&#xda;" horiz-adv-x="648" d="M26 623v17l58 8h68l58 -8v-17l-62 -12q-1 -58 -1 -171v-206q0 -120 48 -168q48 -46 126 -46q88 0 128.5 56t40.5 141v263q0 18 -2 130l-53 13v17l59 8h47l53 -8v-17l-30 -8q-13 -4 -17 -11t-5 -25q-2 -60 -2 -100v-246q0 -120 -60 -185t-159 -65q-243 0 -243 249v208 q0 114 -1 139q-1 34 -27 39zM240.5 703.5q-1.5 4.5 3.5 8.5l118 95h69q7 0 9 -6.5t-4 -10.5l-155 -91h-35q-4 0 -5.5 4.5z" />
<glyph unicode="&#xdb;" horiz-adv-x="648" d="M26 623v17l58 8h68l58 -8v-17l-62 -12q-1 -58 -1 -171v-206q0 -120 48 -168q48 -46 126 -46q88 0 128.5 56t40.5 141v263q0 18 -2 130l-53 13v17l59 8h47l53 -8v-17l-30 -8q-13 -4 -17 -11t-5 -25q-2 -60 -2 -100v-246q0 -120 -60 -185t-159 -65q-243 0 -243 249v208 q0 114 -1 139q-1 34 -27 39zM203 727l117 108l121 -111l-20 -23l-101 72l-99 -72z" />
<glyph unicode="&#xdc;" horiz-adv-x="648" d="M26 623v17l58 8h68l58 -8v-17l-62 -12q-1 -58 -1 -171v-206q0 -120 48 -168q48 -46 126 -46q88 0 128.5 56t40.5 141v263q0 18 -2 130l-53 13v17l59 8h47l53 -8v-17l-30 -8q-13 -4 -17 -11t-5 -25q-2 -60 -2 -100v-246q0 -120 -60 -185t-159 -65q-243 0 -243 249v208 q0 114 -1 139q-1 34 -27 39zM179 763q0 18 12 30t30 12q17 0 29.5 -12t12.5 -30q0 -17 -12.5 -29.5t-29.5 -12.5q-18 0 -30 12.5t-12 29.5zM370 763q0 18 12 30t30 12q17 0 29.5 -12t12.5 -30q0 -17 -12.5 -29.5t-29.5 -12.5q-18 0 -30 12.5t-12 29.5z" />
<glyph unicode="&#xdd;" horiz-adv-x="524" d="M14 620v20l52 8h64l66 -8v-18l-61 -12l100 -221l33 -86h2q19 41 42 89l103 218l-62 12v18l70 8h41l52 -8v-19l-40 -12q-12 -5 -17.5 -13.5t-16.5 -31.5l-148 -294v-201q0 -20 7 -28.5t24 -12.5l27 -6v-17l-62 -8h-65l-58 8v17l27 6q16 4 22.5 12t7.5 28q1 13 1 98v104 l-154 317q-12 23 -32 28zM198.5 703.5q-1.5 4.5 3.5 8.5l118 95h69q7 0 9 -6.5t-4 -10.5l-155 -91h-35q-4 0 -5.5 4.5z" />
<glyph unicode="&#xde;" horiz-adv-x="519" d="M56 623v17l60 8h68l59 -8v-17l-28 -6q-28 -6 -29 -38q-1 -17 -1 -51h57q249 0 249 -185q0 -82 -62 -137t-160 -55q-54 0 -84 3q0 -31 0.5 -65t0.5 -54l56 -12v-18l-63 -8h-64l-58 8v17l27 6q17 4 23 12t7 29q1 25 1 97v312q0 68 -2 101q-1 32 -29 38zM185 184 q11 -1 72 -1q77 0 117 41.5t40 112.5q0 73 -42.5 116t-118.5 43q-35 0 -68 -3v-309z" />
<glyph unicode="&#xdf;" horiz-adv-x="557" d="M26 5v34l44 10q22 5 30 14.5t9 36.5q2 70 2 103v267l3 52q5 82 52 133t127 51q75 0 120 -39.5t45 -100.5q0 -70 -37 -110t-94 -54q87 -10 135 -66.5t48 -138.5q0 -62 -20.5 -106.5t-52 -64.5t-57.5 -28t-50 -8q-59 0 -116 19v131h37q5 -116 78 -116q49 0 79 39.5 t30 122.5q0 84 -53.5 138.5t-149.5 54.5v27l25 8q127 41 127 141q0 50 -27.5 80.5t-77.5 30.5q-46 0 -78 -36.5t-32 -114.5v-518h-57z" />
<glyph unicode="&#xe0;" horiz-adv-x="492" d="M55 95q0 54 35.5 81.5t95.5 44.5q64 17 130 25q0 12 0.5 34t0.5 35q0 128 -95 128q-42 0 -74 -24l14 -35q7 -18 -1 -30.5t-26 -12.5h-50l-19 29l11 16l8 11q18 28 63.5 54.5t95.5 26.5q69 0 104 -36t35 -116q0 -46 -2 -131.5t-2 -112.5q-1 -29 7 -38t35 -9h26v-23 l-86 -28l-43 58q-54 -56 -132 -56q-60 0 -95.5 30.5t-35.5 78.5zM127 103q0 -40 26.5 -59t63.5 -19q51 0 96 41l2 152q-63 -9 -115 -25q-73 -22 -73 -90zM136 638.5q2 6.5 9 6.5h69l118 -95q5 -4 3.5 -8.5t-5.5 -4.5h-35l-155 91q-6 4 -4 10.5z" />
<glyph unicode="&#xe1;" horiz-adv-x="492" d="M55 95q0 54 35.5 81.5t95.5 44.5q64 17 130 25q0 12 0.5 34t0.5 35q0 128 -95 128q-42 0 -74 -24l14 -35q7 -18 -1 -30.5t-26 -12.5h-50l-19 29l11 16l8 11q18 28 63.5 54.5t95.5 26.5q69 0 104 -36t35 -116q0 -46 -2 -131.5t-2 -112.5q-1 -29 7 -38t35 -9h26v-23 l-86 -28l-43 58q-54 -56 -132 -56q-60 0 -95.5 30.5t-35.5 78.5zM127 103q0 -40 26.5 -59t63.5 -19q51 0 96 41l2 152q-63 -9 -115 -25q-73 -22 -73 -90zM152.5 541.5q-1.5 4.5 3.5 8.5l118 95h69q7 0 9 -6.5t-4 -10.5l-155 -91h-35q-4 0 -5.5 4.5z" />
<glyph unicode="&#xe2;" horiz-adv-x="492" d="M55 95q0 54 35.5 81.5t95.5 44.5q64 17 130 25q0 12 0.5 34t0.5 35q0 128 -95 128q-42 0 -74 -24l14 -35q7 -18 -1 -30.5t-26 -12.5h-50l-19 29l11 16l8 11q18 28 63.5 54.5t95.5 26.5q69 0 104 -36t35 -116q0 -46 -2 -131.5t-2 -112.5q-1 -29 7 -38t35 -9h26v-23 l-86 -28l-43 58q-54 -56 -132 -56q-60 0 -95.5 30.5t-35.5 78.5zM118 580l117 108l121 -111l-20 -23l-101 72l-99 -72zM127 103q0 -40 26.5 -59t63.5 -19q51 0 96 41l2 152q-63 -9 -115 -25q-73 -22 -73 -90z" />
<glyph unicode="&#xe3;" horiz-adv-x="492" d="M55 95q0 54 35.5 81.5t95.5 44.5q64 17 130 25q0 12 0.5 34t0.5 35q0 128 -95 128q-42 0 -74 -24l14 -35q7 -18 -1 -30.5t-26 -12.5h-50l-19 29l11 16l8 11q18 28 63.5 54.5t95.5 26.5q69 0 104 -36t35 -116q0 -46 -2 -131.5t-2 -112.5q-1 -29 7 -38t35 -9h26v-23 l-86 -28l-43 58q-54 -56 -132 -56q-60 0 -95.5 30.5t-35.5 78.5zM92 608q27 75 91 75q21 0 57.5 -22t56.5 -22q38 0 57 38l28 -15q-30 -73 -90 -73q-21 0 -58 20.5t-57 20.5q-40 0 -57 -36zM127 103q0 -40 26.5 -59t63.5 -19q51 0 96 41l2 152q-63 -9 -115 -25 q-73 -22 -73 -90z" />
<glyph unicode="&#xe4;" horiz-adv-x="492" d="M55 95q0 54 35.5 81.5t95.5 44.5q64 17 130 25q0 12 0.5 34t0.5 35q0 128 -95 128q-42 0 -74 -24l14 -35q7 -18 -1 -30.5t-26 -12.5h-50l-19 29l11 16l8 11q18 28 63.5 54.5t95.5 26.5q69 0 104 -36t35 -116q0 -46 -2 -131.5t-2 -112.5q-1 -29 7 -38t35 -9h26v-23 l-86 -28l-43 58q-54 -56 -132 -56q-60 0 -95.5 30.5t-35.5 78.5zM96 609q0 18 12 30t30 12q17 0 29.5 -12t12.5 -30q0 -17 -12.5 -29.5t-29.5 -12.5q-18 0 -30 12.5t-12 29.5zM127 103q0 -40 26.5 -59t63.5 -19q51 0 96 41l2 152q-63 -9 -115 -25q-73 -22 -73 -90zM287 609 q0 18 12 30t30 12q17 0 29.5 -12t12.5 -30q0 -17 -12.5 -29.5t-29.5 -12.5q-18 0 -30 12.5t-12 29.5z" />
<glyph unicode="&#xe5;" horiz-adv-x="492" d="M55 95q0 54 35.5 81.5t95.5 44.5q64 17 130 25q0 12 0.5 34t0.5 35q0 128 -95 128q-42 0 -74 -24l14 -35q7 -18 -1 -30.5t-26 -12.5h-50l-19 29l11 16l8 11q18 28 63.5 54.5t95.5 26.5q69 0 104 -36t35 -116q0 -46 -2 -131.5t-2 -112.5q-1 -29 7 -38t35 -9h26v-23 l-86 -28l-43 58q-54 -56 -132 -56q-60 0 -95.5 30.5t-35.5 78.5zM127 103q0 -40 26.5 -59t63.5 -19q51 0 96 41l2 152q-63 -9 -115 -25q-73 -22 -73 -90zM157 607q0 35 24 59t58 24q35 0 59 -24t24 -59q0 -34 -24 -58t-59 -24t-58.5 23.5t-23.5 58.5zM194 607q0 -19 13 -32 t32 -13t32.5 13t13.5 32t-13.5 32.5t-32.5 13.5t-32 -13.5t-13 -32.5z" />
<glyph unicode="&#xe6;" horiz-adv-x="741" d="M55 95q0 54 35.5 81.5t95.5 44.5q57 16 110 22q0 21 5 46v2l6 40q1 71 -42.5 100t-99.5 1q-12 -6 -18 -11l15 -37q7 -18 -1 -30.5t-26 -12.5h-50l-19 29l11 16q22 31 45 48q54 44 116 44q93 0 117 -70q64 76 161 76q84 0 131 -53t44 -115v-5.5v-7.5v-6q-2 -25 -33 -25 h-294v-24q0 -80 40.5 -143t120.5 -63q83 0 134 75l29 -18q-59 -114 -176 -114q-103 0 -164 80q-58 -79 -152 -79q-67 0 -104 30t-37 79zM127 103q0 -40 26.5 -59t63.5 -19q66 0 115 65q-31 52 -36 125q-59 -11 -96 -22q-73 -22 -73 -90zM363 304l251 6l-1 19q-1 51 -32 79 t-73 28q-26 0 -48 -7t-31 -12.5t-28 -19.5q-30 -46 -38 -93z" />
<glyph unicode="&#xe7;" horiz-adv-x="454" d="M35 228q0 119 63.5 187.5t154.5 68.5q67 0 120 -43h1l29 -26q11 -9 13.5 -21t-3.5 -18l-13 -19q-8 -11 -22.5 -12t-28.5 16l-52 77q-21 6 -45 6q-69 0 -109.5 -55.5t-40.5 -144.5q0 -91 44 -149.5t113 -58.5q86 0 136 79l23 -14q-59 -115 -167 -116l-3 -39 q23 -7 39 -26.5t16 -47.5q0 -47 -37.5 -69.5t-87.5 -22.5l-3 33q31 0 52 13t21 42q0 44 -46 60l14 60q-79 12 -130 77t-51 163z" />
<glyph unicode="&#xe8;" horiz-adv-x="483" d="M38 234q0 112 65.5 181t154.5 69q84 0 130 -53t43 -115v-19q-2 -25 -33 -25h-293v-24q0 -86 41 -148t121 -62q87 0 139 77l23 -14q-60 -116 -175 -116q-97 0 -156.5 70.5t-59.5 178.5zM105 303l253 6l-1 20q-3 51 -34 79t-73 28q-26 0 -48 -7t-31 -12.5t-28 -19.5 q-30 -45 -38 -94zM138 648.5q2 6.5 9 6.5h69l118 -95q5 -4 3.5 -8.5t-5.5 -4.5h-35l-155 91q-6 4 -4 10.5z" />
<glyph unicode="&#xe9;" horiz-adv-x="483" d="M38 234q0 112 65.5 181t154.5 69q84 0 130 -53t43 -115v-19q-2 -25 -33 -25h-293v-24q0 -86 41 -148t121 -62q87 0 139 77l23 -14q-60 -116 -175 -116q-97 0 -156.5 70.5t-59.5 178.5zM105 303l253 6l-1 20q-3 51 -34 79t-73 28q-26 0 -48 -7t-31 -12.5t-28 -19.5 q-30 -45 -38 -94zM178.5 551.5q-1.5 4.5 3.5 8.5l118 95h69q7 0 9 -6.5t-4 -10.5l-155 -91h-35q-4 0 -5.5 4.5z" />
<glyph unicode="&#xea;" horiz-adv-x="483" d="M38 234q0 112 65.5 181t154.5 69q84 0 130 -53t43 -115v-19q-2 -25 -33 -25h-293v-24q0 -86 41 -148t121 -62q87 0 139 77l23 -14q-60 -116 -175 -116q-97 0 -156.5 70.5t-59.5 178.5zM105 303l253 6l-1 20q-3 51 -34 79t-73 28q-26 0 -48 -7t-31 -12.5t-28 -19.5 q-30 -45 -38 -94zM127 580l117 108l121 -111l-20 -23l-101 72l-99 -72z" />
<glyph unicode="&#xeb;" horiz-adv-x="483" d="M38 234q0 112 65.5 181t154.5 69q84 0 130 -53t43 -115v-19q-2 -25 -33 -25h-293v-24q0 -86 41 -148t121 -62q87 0 139 77l23 -14q-60 -116 -175 -116q-97 0 -156.5 70.5t-59.5 178.5zM105 303l253 6l-1 20q-3 51 -34 79t-73 28q-26 0 -48 -7t-31 -12.5t-28 -19.5 q-30 -45 -38 -94zM112 610q0 18 12 30t30 12q17 0 29.5 -12t12.5 -30q0 -17 -12.5 -29.5t-29.5 -12.5q-18 0 -30 12.5t-12 29.5zM303 610q0 18 12 30t30 12q17 0 29.5 -12t12.5 -30q0 -17 -12.5 -29.5t-29.5 -12.5q-18 0 -30 12.5t-12 29.5z" />
<glyph unicode="&#xec;" horiz-adv-x="333" d="M48.5 640.5q2.5 5.5 10.5 5.5h52l55 -95q3 -4 1.5 -8.5t-7.5 -4.5h-26l-83 91q-5 6 -2.5 11.5zM50 439l4 20q47 18 125 18q-2 -59 -2 -109v-332l53 -13v-18l-59 -8h-57l-60 8v16l28 7q22 5 27 21t5 71l-1 263q0 36 -13 45q-21 14 -50 11z" />
<glyph unicode="&#xed;" horiz-adv-x="333" d="M50 439l4 20q47 18 125 18q-2 -59 -2 -109v-332l53 -13v-18l-59 -8h-57l-60 8v16l28 7q22 5 27 21t5 71l-1 263q0 36 -13 45q-21 14 -50 11zM103.5 541.5q-1.5 4.5 1.5 8.5l55 95h52q8 0 10.5 -5.5t-2.5 -11.5l-83 -91h-26q-6 0 -7.5 4.5z" />
<glyph unicode="&#xee;" horiz-adv-x="289" d="M13 580l117 108l121 -111l-20 -23l-101 72l-99 -72zM50 439l4 20q47 18 125 18q-2 -59 -2 -109v-332l53 -13v-18l-59 -8h-57l-60 8v16l28 7q22 5 27 21t5 71l-1 263q0 36 -13 45q-21 14 -50 11z" />
<glyph unicode="&#xef;" horiz-adv-x="289" d="M1 653q0 18 12 30t30 12q17 0 29.5 -12t12.5 -30q0 -17 -12.5 -29.5t-29.5 -12.5q-18 0 -30 12.5t-12 29.5zM50 439l4 20q47 18 125 18q-2 -59 -2 -109v-332l53 -13v-18l-59 -8h-57l-60 8v16l28 7q22 5 27 21t5 71l-1 263q0 36 -13 45q-21 14 -50 11zM172 653q0 18 12 30 t30 12q17 0 29.5 -12t12.5 -30q0 -17 -12.5 -29.5t-29.5 -12.5q-18 0 -30 12.5t-12 29.5z" />
<glyph unicode="&#xf0;" horiz-adv-x="534" d="M35 247q0 107 58 172.5t151 65.5q50 0 92 -21.5t66 -57.5q-9 98 -51 170l-96 -35l-14 35l87 32q-62 76 -157 76q-35 0 -80 -12l-4 21q54 18 100 18q125 0 201 -81l99 36l14 -35l-88 -32q68 -99 68 -269t-67.5 -257t-165.5 -87q-95 0 -154 73.5t-59 187.5zM107 238 q0 -98 44.5 -156.5t103.5 -58.5q26 0 49 10t48 36t39.5 82.5t14.5 138.5v33q-20 52 -63.5 88t-94.5 36q-62 0 -101.5 -56.5t-39.5 -152.5z" />
<glyph unicode="&#xf1;" d="M50 439l4 20q54 18 120 18v-38q0 -13 -5 -38q30 34 73.5 56.5t86.5 22.5q76 0 112 -39t36 -120v-286l47 -13v-17l-55 -8h-59l-61 8v16l36 9q20 5 24.5 22.5t4.5 84.5v153q0 70 -22 106.5t-85 36.5q-75 0 -130 -59v-338l54 -14v-17l-60 -8h-57l-60 8v16l33 9q19 5 23 22 t4 85v246q0 29 -12 44q-26 15 -52 12zM148 608q27 75 91 75q21 0 57.5 -22t56.5 -22q38 0 57 38l28 -15q-30 -73 -90 -73q-21 0 -58 20.5t-57 20.5q-40 0 -57 -36z" />
<glyph unicode="&#xf2;" horiz-adv-x="521" d="M37 233q0 114 58.5 183t157.5 69q100 0 158.5 -64.5t58.5 -176.5t-57.5 -185.5t-160.5 -73.5q-95 0 -155 71.5t-60 176.5zM109 245q0 -109 40.5 -166t106.5 -57q62 0 102 53.5t40 149.5q0 222 -148 222q-65 0 -103 -54.5t-38 -147.5zM140 648.5q2 6.5 9 6.5h69l118 -95 q5 -4 3.5 -8.5t-5.5 -4.5h-35l-155 91q-6 4 -4 10.5z" />
<glyph unicode="&#xf3;" horiz-adv-x="521" d="M37 233q0 114 58.5 183t157.5 69q100 0 158.5 -64.5t58.5 -176.5t-57.5 -185.5t-160.5 -73.5q-95 0 -155 71.5t-60 176.5zM109 245q0 -109 40.5 -166t106.5 -57q62 0 102 53.5t40 149.5q0 222 -148 222q-65 0 -103 -54.5t-38 -147.5zM167.5 551.5q-1.5 4.5 3.5 8.5 l118 95h69q7 0 9 -6.5t-4 -10.5l-155 -91h-35q-4 0 -5.5 4.5z" />
<glyph unicode="&#xf4;" horiz-adv-x="521" d="M37 233q0 114 58.5 183t157.5 69q100 0 158.5 -64.5t58.5 -176.5t-57.5 -185.5t-160.5 -73.5q-95 0 -155 71.5t-60 176.5zM109 245q0 -109 40.5 -166t106.5 -57q62 0 102 53.5t40 149.5q0 222 -148 222q-65 0 -103 -54.5t-38 -147.5zM135 580l117 108l121 -111l-20 -23 l-101 72l-99 -72z" />
<glyph unicode="&#xf5;" horiz-adv-x="521" d="M37 233q0 114 58.5 183t157.5 69q100 0 158.5 -64.5t58.5 -176.5t-57.5 -185.5t-160.5 -73.5q-95 0 -155 71.5t-60 176.5zM109 245q0 -109 40.5 -166t106.5 -57q62 0 102 53.5t40 149.5q0 222 -148 222q-65 0 -103 -54.5t-38 -147.5zM115 608q27 75 91 75q21 0 57.5 -22 t56.5 -22q38 0 57 38l28 -15q-30 -73 -90 -73q-21 0 -58 20.5t-57 20.5q-40 0 -57 -36z" />
<glyph unicode="&#xf6;" horiz-adv-x="521" d="M37 233q0 114 58.5 183t157.5 69q100 0 158.5 -64.5t58.5 -176.5t-57.5 -185.5t-160.5 -73.5q-95 0 -155 71.5t-60 176.5zM109 245q0 -109 40.5 -166t106.5 -57q62 0 102 53.5t40 149.5q0 222 -148 222q-65 0 -103 -54.5t-38 -147.5zM116 601q0 18 12 30t30 12 q17 0 29.5 -12t12.5 -30q0 -17 -12.5 -29.5t-29.5 -12.5q-18 0 -30 12.5t-12 29.5zM307 601q0 18 12 30t30 12q17 0 29.5 -12t12.5 -30q0 -17 -12.5 -29.5t-29.5 -12.5q-18 0 -30 12.5t-12 29.5z" />
<glyph unicode="&#xf7;" horiz-adv-x="483" d="M38 289v56h403v-56h-403zM185 164q0 22 15 37.5t37 15.5q21 0 37 -15.5t16 -37.5q0 -20 -16 -36t-37 -16t-36.5 15.5t-15.5 36.5zM185 460q0 22 15 37.5t37 15.5q21 0 37 -15.5t16 -37.5q0 -20 -16 -36t-37 -16t-36.5 15.5t-15.5 36.5z" />
<glyph unicode="&#xf8;" horiz-adv-x="521" d="M-85 -72l134 218q-12 40 -12 87q0 114 58.5 183t157.5 69h5l56 91h62l-61 -99q73 -18 114 -79t41 -154q0 -112 -57.5 -185.5t-160.5 -73.5q-116 0 -177 102l-98 -159h-62zM109 242l125 204q-58 -7 -91.5 -60.5t-33.5 -140.5v-3zM117 156q15 -66 51.5 -100t87.5 -34 q62 0 102 53.5t40 149.5q0 186 -105 216z" />
<glyph unicode="&#xf9;" horiz-adv-x="584" d="M45 439l4 20q3 1 13.5 4t19 5t22 4t31 3.5t37.5 1.5q-2 -32 -2 -72q0 -171 1 -258q2 -116 111 -116q70 0 122 64v217q0 8 0.5 25t0.5 27.5t-1 24t-3.5 23t-7.5 15.5q-22 12 -52 12l4 23q1 0 8.5 2t17 4t23.5 4t34 3.5t42 1.5q-2 -32 -2 -89v-306q0 -39 19 -47l33 -13v-17 l-102 -12l-12 67q-30 -34 -70 -54.5t-78 -20.5q-151 0 -151 158q0 7 0.5 70t0.5 105q0 62 -1.5 78.5t-7.5 25.5q-13 17 -54 17zM162 648.5q2 6.5 9 6.5h69l118 -95q5 -4 3.5 -8.5t-5.5 -4.5h-35l-155 91q-6 4 -4 10.5z" />
<glyph unicode="&#xfa;" horiz-adv-x="584" d="M45 439l4 20q3 1 13.5 4t19 5t22 4t31 3.5t37.5 1.5q-2 -32 -2 -72q0 -171 1 -258q2 -116 111 -116q70 0 122 64v217q0 8 0.5 25t0.5 27.5t-1 24t-3.5 23t-7.5 15.5q-22 12 -52 12l4 23q1 0 8.5 2t17 4t23.5 4t34 3.5t42 1.5q-2 -32 -2 -89v-306q0 -39 19 -47l33 -13v-17 l-102 -12l-12 67q-30 -34 -70 -54.5t-78 -20.5q-151 0 -151 158q0 7 0.5 70t0.5 105q0 62 -1.5 78.5t-7.5 25.5q-13 17 -54 17zM201.5 551.5q-1.5 4.5 3.5 8.5l118 95h69q7 0 9 -6.5t-4 -10.5l-155 -91h-35q-4 0 -5.5 4.5z" />
<glyph unicode="&#xfb;" horiz-adv-x="584" d="M45 439l4 20q3 1 13.5 4t19 5t22 4t31 3.5t37.5 1.5q-2 -32 -2 -72q0 -171 1 -258q2 -116 111 -116q70 0 122 64v217q0 8 0.5 25t0.5 27.5t-1 24t-3.5 23t-7.5 15.5q-22 12 -52 12l4 23q1 0 8.5 2t17 4t23.5 4t34 3.5t42 1.5q-2 -32 -2 -89v-306q0 -39 19 -47l33 -13v-17 l-102 -12l-12 67q-30 -34 -70 -54.5t-78 -20.5q-151 0 -151 158q0 7 0.5 70t0.5 105q0 62 -1.5 78.5t-7.5 25.5q-13 17 -54 17zM160 580l117 108l121 -111l-20 -23l-101 72l-99 -72z" />
<glyph unicode="&#xfc;" horiz-adv-x="584" d="M45 439l4 20q3 1 13.5 4t19 5t22 4t31 3.5t37.5 1.5q-2 -32 -2 -72q0 -171 1 -258q2 -116 111 -116q70 0 122 64v217q0 8 0.5 25t0.5 27.5t-1 24t-3.5 23t-7.5 15.5q-22 12 -52 12l4 23q1 0 8.5 2t17 4t23.5 4t34 3.5t42 1.5q-2 -32 -2 -89v-306q0 -39 19 -47l33 -13v-17 l-102 -12l-12 67q-30 -34 -70 -54.5t-78 -20.5q-151 0 -151 158q0 7 0.5 70t0.5 105q0 62 -1.5 78.5t-7.5 25.5q-13 17 -54 17zM146 601q0 18 12 30t30 12q17 0 29.5 -12t12.5 -30q0 -17 -12.5 -29.5t-29.5 -12.5q-18 0 -30 12.5t-12 29.5zM337 601q0 18 12 30t30 12 q17 0 29.5 -12t12.5 -30q0 -17 -12.5 -29.5t-29.5 -12.5q-18 0 -30 12.5t-12 29.5z" />
<glyph unicode="&#xfd;" horiz-adv-x="491" d="M26 -193q0 15 14 22t40 -5l58 -26q25 9 63 99q24 57 37 89q-7 17 -24 66l-129 358q-9 24 -26 28l-27 6v19l56 8h63l56 -8v-19l-61 -15l85 -248q20 -58 36 -121q33 90 133 370l-53 14v19l46 8h53l39 -7v-20l-22 -4q-12 -3 -17.5 -9.5t-10.5 -20.5q-15 -37 -78.5 -208 t-99.5 -267q-40 -105 -72.5 -144t-81.5 -41l-23 -2q-54 -5 -54 27v32zM202.5 551.5q-1.5 4.5 3.5 8.5l118 95h69q7 0 9 -6.5t-4 -10.5l-155 -91h-35q-4 0 -5.5 4.5z" />
<glyph unicode="&#xfe;" horiz-adv-x="550" d="M49 671l4 20q67 21 125 21q-3 -53 -3 -125v-169q57 64 141 64q78 0 133 -63t55 -182q0 -65 -22 -116t-57.5 -79t-73.5 -42t-76 -14q-55 0 -100 16v-217l53 -13v-18l-59 -8h-58l-59 8v16l14 3q24 5 31.5 14t11 39t3.5 109l-1 590q0 124 -10 134q-14 14 -52 12zM175 44 q37 -21 106 -21q59 0 106 51t47 153q0 105 -39.5 156t-101.5 51q-34 0 -66.5 -16t-51.5 -39v-335z" />
<glyph unicode="&#xff;" horiz-adv-x="491" d="M26 -193q0 15 14 22t40 -5l58 -26q25 9 63 99q24 57 37 89q-7 17 -24 66l-129 358q-9 24 -26 28l-27 6v19l56 8h63l56 -8v-19l-61 -15l85 -248q20 -58 36 -121q33 90 133 370l-53 14v19l46 8h53l39 -7v-20l-22 -4q-12 -3 -17.5 -9.5t-10.5 -20.5q-15 -37 -78.5 -208 t-99.5 -267q-40 -105 -72.5 -144t-81.5 -41l-23 -2q-54 -5 -54 27v32zM134 601q0 18 12 30t30 12q17 0 29.5 -12t12.5 -30q0 -17 -12.5 -29.5t-29.5 -12.5q-18 0 -30 12.5t-12 29.5zM325 601q0 18 12 30t30 12q17 0 29.5 -12t12.5 -30q0 -17 -12.5 -29.5t-29.5 -12.5 q-18 0 -30 12.5t-12 29.5z" />
<glyph unicode="&#x152;" horiz-adv-x="984" d="M40 325q0 90 33 166.5t99 124.5t153 48q135 0 216 -102v87h341l47 3l-2 -172h-37l-16 97q-3 20 -11 28.5t-31.5 12.5t-74.5 4h-140q0 -38 -1 -105t-1 -91v-77h162q4 0 6.5 1t5.5 3.5t4.5 5t3.5 8t3.5 10.5t3.5 14t4 16.5t4.5 20.5t5.5 24h27v-246h-26q-2 7 -6 26.5 t-7 30.5t-8 25t-10.5 21t-12.5 7h-160v-100q0 -90 4 -186h229q13 0 26 14.5t17 35.5l15 86h32v-168l-119 2h-278v88q-81 -104 -214 -104t-210 96.5t-77 244.5zM122 330q0 -140 54.5 -223.5t155.5 -83.5q201 0 201 292q0 142 -54 226.5t-158 84.5q-97 0 -148 -75.5 t-51 -220.5z" />
<glyph unicode="&#x153;" horiz-adv-x="846" d="M38 233q0 114 58.5 183t157.5 69q131 0 188 -107q31 50 79.5 78t102.5 28q84 0 130 -53t43 -115v-5.5v-7.5v-6q-2 -25 -33 -25h-293v-32q2 -84 43 -143t119 -59q87 0 139 77l23 -14q-60 -116 -175 -116q-61 0 -108 29t-75 81q-57 -110 -184 -110q-95 0 -155 71.5 t-60 176.5zM110 245q0 -109 40.5 -166t106.5 -57q62 0 102 53.5t40 149.5q0 222 -148 222q-65 0 -103 -54.5t-38 -147.5zM471 303l253 6l-1 20q-3 51 -34 79t-73 28q-26 0 -48 -7t-31 -12.5t-28 -19.5q-30 -45 -38 -94z" />
<glyph unicode="&#x178;" horiz-adv-x="524" d="M14 620v20l52 8h64l66 -8v-18l-61 -12l100 -221l33 -86h2q19 41 42 89l103 218l-62 12v18l70 8h41l52 -8v-19l-40 -12q-12 -5 -17.5 -13.5t-16.5 -31.5l-148 -294v-201q0 -20 7 -28.5t24 -12.5l27 -6v-17l-62 -8h-65l-58 8v17l27 6q16 4 22.5 12t7.5 28q1 13 1 98v104 l-154 317q-12 23 -32 28zM138 778q0 18 12 30t30 12q17 0 29.5 -12t12.5 -30q0 -17 -12.5 -29.5t-29.5 -12.5q-18 0 -30 12.5t-12 29.5zM329 778q0 18 12 30t30 12q17 0 29.5 -12t12.5 -30q0 -17 -12.5 -29.5t-29.5 -12.5q-18 0 -30 12.5t-12 29.5z" />
<glyph unicode="&#x2c6;" horiz-adv-x="485" d="M107 565l117 108l121 -111l-20 -23l-101 72l-99 -72z" />
<glyph unicode="&#x2dc;" horiz-adv-x="454" d="M69 578q27 75 91 75q21 0 57.5 -22t56.5 -22q38 0 57 38l28 -15q-30 -73 -90 -73q-21 0 -58 20.5t-57 20.5q-40 0 -57 -36z" />
<glyph unicode="&#x2013;" horiz-adv-x="440" d="M30 289v56h366v-56h-366z" />
<glyph unicode="&#x2014;" horiz-adv-x="710" d="M0 289v56h697v-56h-697z" />
<glyph unicode="&#x2018;" horiz-adv-x="164" d="M24 508q0 31 14 67t37 61l28 -27q-25 -39 -27 -80h23q19 -14 19 -37q0 -18 -12.5 -31t-35.5 -13q-46 0 -46 60z" />
<glyph unicode="&#x2019;" horiz-adv-x="163" d="M30 592q0 18 12.5 31t35.5 13q46 0 46 -60q0 -31 -14 -67t-37 -61l-27 25q18 26 27 79q-43 0 -43 40z" />
<glyph unicode="&#x201a;" horiz-adv-x="210" d="M42 41q0 20 18 35t39 15q53 0 53 -66q0 -27 -23.5 -89t-47.5 -93l-29 19q34 94 34 114l-32 19q-12 21 -12 46z" />
<glyph unicode="&#x201c;" horiz-adv-x="305" d="M24 508q0 31 14 67t37 61l28 -27q-25 -39 -27 -80h23q19 -14 19 -37q0 -18 -12.5 -31t-35.5 -13q-35 0 -44 41q-2 12 -2 19zM167 508q0 31 14 67t37 61l28 -27q-25 -39 -27 -80h23q19 -14 19 -37q0 -18 -12.5 -31t-35.5 -13q-46 0 -46 60z" />
<glyph unicode="&#x201d;" horiz-adv-x="306" d="M34 592q0 18 12.5 31t35.5 13q46 0 46 -60q0 -31 -14 -67t-37 -61l-27 25q18 26 27 79q-43 0 -43 40zM174 592q0 18 12.5 31t35.5 13q46 0 46 -60q0 -31 -14 -67t-37 -61l-27 25q18 26 27 79q-43 0 -43 40z" />
<glyph unicode="&#x201e;" horiz-adv-x="355" d="M25 41q0 20 18 35t39 15q53 0 53 -66q0 -27 -23.5 -89t-47.5 -93l-29 19q34 94 34 114l-32 19q-12 21 -12 46zM183 41q0 20 18 35t39 15q53 0 53 -66q0 -27 -23.5 -89t-47.5 -93l-29 19q34 94 34 114l-32 19q-12 21 -12 46z" />
<glyph unicode="&#x2022;" horiz-adv-x="478" d="M80 268q0 63 44.5 107t107.5 44t107.5 -44t44.5 -107q0 -64 -44.5 -108t-107.5 -44t-107.5 44t-44.5 108z" />
<glyph unicode="&#x2026;" horiz-adv-x="569" d="M66 40q0 22 15 37.5t37 15.5q21 0 37 -15.5t16 -37.5q0 -20 -16 -36t-37 -16t-36.5 15.5t-15.5 36.5zM251 40q0 22 15 37.5t37 15.5q21 0 37 -15.5t16 -37.5q0 -20 -16 -36t-37 -16t-36.5 15.5t-15.5 36.5zM436 40q0 22 15 37.5t37 15.5q21 0 37 -15.5t16 -37.5 q0 -20 -16 -36t-37 -16t-36.5 15.5t-15.5 36.5z" />
<glyph unicode="&#x2039;" horiz-adv-x="204" d="M15 267v16l111 178h54l-97 -187l97 -186h-57z" />
<glyph unicode="&#x203a;" horiz-adv-x="204" d="M10 88l97 186l-97 187h54l111 -178v-16l-108 -179h-57z" />
<glyph unicode="&#x20ac;" horiz-adv-x="605" d="M5 221l10 38h69q-2 26 -2 40q0 31 2 46h-79l10 38h76q25 108 103.5 177t188.5 69q102 0 167 -21v-76l-9 -78h-29l-3 23q-11 67 -32 92q-23 26 -100 26q-180 0 -204 -212h278l-10 -38h-271q-1 -12 -1 -36q0 -26 3 -50h279l-10 -38h-263q20 -94 80 -147t139 -53q41 0 65 8 q36 12 44 59l12 66h33l-2 -96v-36q-54 -36 -166 -36q-106 0 -188.5 60t-105.5 175h-84z" />
<glyph unicode="&#x2122;" horiz-adv-x="674" d="M30 650l12 -1q12 -1 19 -1h170q8 0 19 1l11 1v-62h-24q-5 23 -11.5 31.5t-27.5 9.5l-29 1v-189q0 -21 2 -27t10 -8l17 -3v-12l-31 -3h-51l-28 3v12l18 3q12 1 12 35v189l-31 -1q-17 -1 -22 -8t-9 -33h-25zM272 391v11l21 5q10 2 10 16l17 195q1 6 -9 11l-17 5v11l24 3h69 l1 -13q-1 0 -2 -0.5t-3 -3.5t0 -8l57 -188l76 193l2 20h58l31 -3v-10q-8 -3 -16 -0.5t-13.5 -3.5t-4.5 -23l15 -185q2 -14 8 -16l24 -4v-12l-31 -3h-49l-32 3v10l21 5q10 2 8 16l-10 146q-1 12 -1 32q-2 -9 -10 -31l-71 -184h-37l-60 181q-5 13 -9 36q0 -8 -2 -34l-14 -159 l31 -7v-11l-33 -3h-25z" />
<glyph unicode="&#xe000;" horiz-adv-x="484" d="M0 0v470h470v-470h-470z" />
<glyph unicode="&#xfb04;" horiz-adv-x="926" d="M73 437v15l69 17q1 58 24 104t61 74t83.5 42.5t93.5 14.5q92 0 160 -21q42 21 94 21q40 0 58 -4q45 12 94 12q-5 -53 -5 -125v-551l53 -13v-18l-59 -8h-57l-60 8v16l14 3q33 7 39 25t6 104v369q0 127 -10 137q-5 5 -15 8q-108 14 -159.5 -20t-51.5 -147v-28h126v-36h-126 v-402l59 -13v-16l-65 -8h-58l-58 8v16q37 8 42 11q15 10 16 73q1 23 1 81v250l-69 1v15l69 17q1 119 79 185q-48 16 -114 16q-98 0 -150 -38t-52 -142v-18h126v-36h-126v-402l59 -13v-16l-65 -8h-58l-58 8v16q37 8 42 11q15 10 16 73q1 23 1 81v250z" />
</font>
</defs>
</svg>
