<?xml version="1.0" standalone="no"?>
<!DOCTYPE svg PUBLIC "-//W3C//DTD SVG 1.1//EN" "http://www.w3.org/Graphics/SVG/1.1/DTD/svg11.dtd" >
<svg xmlns="http://www.w3.org/2000/svg">
<metadata></metadata>
<defs>
<font id="JournalBBold" horiz-adv-x="282" >
<font-face units-per-em="1000" ascent="800" descent="-200" />
<missing-glyph horiz-adv-x="212" />
<glyph horiz-adv-x="12" />
<glyph horiz-adv-x="12" />
<glyph horiz-adv-x="1000" />
<glyph unicode=" "  horiz-adv-x="212" />
<glyph unicode="&#x09;" horiz-adv-x="212" />
<glyph unicode="&#xa0;" horiz-adv-x="212" />
<glyph unicode="!" horiz-adv-x="350" d="M70 89q0 43 28.5 71t70.5 28t70.5 -28t28.5 -71t-28.5 -71t-70.5 -28t-70.5 28t-28.5 71zM80 420v280h178v-280l-54 -153h-70z" />
<glyph unicode="&#x22;" horiz-adv-x="378" d="M50 656v44h106v-44l-20 -147h-66zM210 656v44h106v-44l-20 -147h-66z" />
<glyph unicode="#" horiz-adv-x="747" d="M30 174v100h122l52 162h-105v100h137l52 164h110l-52 -164h150l52 164h110l-52 -164h99v-100h-131l-51 -162h113v-100h-144l-55 -174h-111l55 174h-149l-55 -174h-111l55 174h-91zM263 274h149l52 162h-150z" />
<glyph unicode="$" horiz-adv-x="610" d="M55 35v160q104 -70 177 -70q30 0 51 13.5t21 40.5q0 52 -69 90l-42 23q-67 37 -102.5 86.5t-35.5 130.5q0 100 67.5 152.5t161.5 52.5q91 0 172 -45v-147q-85 55 -162 55q-27 0 -46.5 -15.5t-19.5 -42.5q0 -44 58 -74l56 -29q64 -33 100.5 -81.5t36.5 -132.5 q0 -105 -70 -159.5t-172 -54.5q-90 0 -182 47zM208 -80v160h110v-160h-110zM208 620v170h110v-170h-110z" />
<glyph unicode="%" horiz-adv-x="857" d="M30 522q0 87 47 140.5t130 53.5t130 -53.5t47 -140.5q0 -98 -45.5 -150t-131.5 -52t-131.5 52t-45.5 150zM155 0l436 714h105l-435 -714h-106zM160 522q0 -108 47 -108t47 108q0 100 -47 100t-47 -100zM461 192q0 87 47 140.5t130 53.5t130 -53.5t47 -140.5 q0 -98 -45.5 -150t-131.5 -52t-131.5 52t-45.5 150zM591 192q0 -108 47 -108t47 108q0 100 -47 100t-47 -100z" />
<glyph unicode="&#x26;" horiz-adv-x="663" d="M50 198q0 133 120 199q-45 72 -45 129q0 93 61.5 141.5t160.5 48.5q87 0 160 -32l1 -145q-76 41 -131 41q-32 0 -52 -16.5t-20 -47.5q0 -34 23.5 -77t72.5 -110l31 -43q11 60 13 141h150q-9 -156 -69 -270l115 -157h-187l-27 37q-66 -49 -150 -49q-95 0 -161 58.5 t-66 151.5zM227 208q0 -38 22 -61t56 -23q29 0 49 14l-102 142q-25 -28 -25 -72z" />
<glyph unicode="'" horiz-adv-x="218" d="M50 656v44h106v-44l-20 -147h-66z" />
<glyph unicode="(" horiz-adv-x="316" d="M50 275q0 236 141 439h123q-51 -85 -81.5 -203.5t-30.5 -235.5q0 -110 31 -233t81 -203h-123q-64 82 -102.5 201.5t-38.5 234.5z" />
<glyph unicode=")" horiz-adv-x="316" d="M-10 -161q50 80 81 203t31 233q0 117 -30.5 235.5t-81.5 203.5h123q141 -203 141 -439q0 -115 -38.5 -234.5t-102.5 -201.5h-123z" />
<glyph unicode="*" horiz-adv-x="422" d="M40 497l85 40l-85 40l48 83l77 -55l-8 95h96l-8 -94l77 55l48 -83l-86 -41l86 -39l-48 -83l-78 54l9 -94h-96l8 93l-77 -54z" />
<glyph unicode="+" horiz-adv-x="526" d="M50 227v100h154v150h106v-150h154v-100h-154v-157h-106v157h-154z" />
<glyph unicode="," d="M32 -143q17 23 46 73t35 71q-29 3 -50.5 27t-21.5 61t25.5 63t62.5 26q50 0 76 -38q23 -32 23 -78q0 -35 -10 -64q-5 -18 -30.5 -64t-47.5 -77h-108z" />
<glyph unicode="-" horiz-adv-x="366" d="M40 207v120h274v-120h-274z" />
<glyph unicode="." horiz-adv-x="300" d="M45 89q0 43 28.5 71t70.5 28t70.5 -28t28.5 -71t-28.5 -71t-70.5 -28t-70.5 28t-28.5 71z" />
<glyph unicode="/" horiz-adv-x="523" d="M10 -127l386 893h105l-385 -893h-106z" />
<glyph unicode="0" horiz-adv-x="596" d="M25 362q0 159 71.5 256.5t195.5 97.5t195.5 -97.5t71.5 -256.5q0 -181 -67.5 -276.5t-199.5 -95.5t-199.5 95.5t-67.5 276.5zM205 362q0 -238 87 -238t87 238q0 220 -87 220t-87 -220z" />
<glyph unicode="1" horiz-adv-x="380" d="M15 486v100l234 130h59v-716h-170v486h-123z" />
<glyph unicode="2" horiz-adv-x="462" d="M10 0v4l190 329q28 49 38 67t18.5 44.5t8.5 52.5q0 34 -26.5 58t-65.5 24q-69 0 -150 -63v160q82 40 185 40t156.5 -52.5t53.5 -143.5q0 -62 -22 -115t-77 -145l-75 -125h186v-135h-420z" />
<glyph unicode="3" horiz-adv-x="480" d="M50 10v153q84 -42 145 -42q38 0 62 22.5t24 64.5q0 56 -41.5 81.5t-112.5 23.5v79q145 31 145 113q0 38 -21.5 57.5t-55.5 19.5q-51 0 -135 -42v150q81 26 164 26q88 0 149.5 -51t61.5 -131q0 -112 -91 -165q50 -22 79.5 -66t29.5 -99q0 -103 -62.5 -159.5t-166.5 -56.5 q-96 0 -174 22z" />
<glyph unicode="4" horiz-adv-x="542" d="M20 125v114l258 461h157v-455h75v-120h-75v-125h-159v125h-256zM156 245h120v217z" />
<glyph unicode="5" horiz-adv-x="497" d="M55 22v163q90 -52 154 -52q38 0 60.5 23.5t22.5 72.5q0 54 -23 80t-75 26q-73 0 -122 -42l-17 10v397h382v-139h-239v-118q29 31 88 31q87 0 133 -61t46 -174q0 -116 -62.5 -182.5t-156.5 -66.5q-114 0 -191 32z" />
<glyph unicode="6" horiz-adv-x="561" d="M40 362q0 175 69.5 264.5t179.5 89.5q93 0 176 -31v-142q-95 41 -166 41q-47 0 -73.5 -36t-32.5 -122q45 49 116 49q89 0 149.5 -56t60.5 -175q0 -115 -63.5 -184.5t-166.5 -69.5q-124 0 -186.5 95.5t-62.5 276.5zM204 224q22 -94 85 -94q35 0 56.5 30.5t21.5 77.5 q0 45 -23 74.5t-55 29.5q-38 0 -61 -31.5t-24 -86.5z" />
<glyph unicode="7" horiz-adv-x="450" d="M10 550v150h423v-25q-101 -174 -153 -336t-57 -339h-176q22 313 185 550h-222z" />
<glyph unicode="8" horiz-adv-x="532" d="M30 206q0 110 87 171q-67 56 -67 143q0 81 57.5 138.5t151.5 57.5t152.5 -57.5t58.5 -138.5q0 -84 -69 -143q89 -53 89 -171q0 -94 -62 -156t-169 -62t-168 62t-61 156zM194 206q0 -45 17 -72.5t48 -27.5q32 0 49.5 27.5t17.5 72.5q0 43 -17.5 72t-49.5 29t-48.5 -28 t-16.5 -73zM202 520q0 -36 16 -59.5t41 -23.5t42 24t17 59q0 32 -17 55.5t-42 23.5t-41 -23.5t-16 -55.5z" />
<glyph unicode="9" horiz-adv-x="561" d="M30 462q0 115 63.5 184.5t166.5 69.5q124 0 186.5 -95.5t62.5 -276.5q0 -175 -69.5 -264.5t-179.5 -89.5q-93 0 -176 31v142q95 -41 166 -41q46 0 72.5 36t33.5 122q-46 -49 -116 -49q-89 0 -149.5 56t-60.5 175zM182 468q0 -45 23 -74.5t55 -29.5q38 0 61 31t24 86 q-24 95 -85 95q-35 0 -56.5 -30.5t-21.5 -77.5z" />
<glyph unicode=":" d="M36 89q0 43 28.5 71t70.5 28t70.5 -28t28.5 -71t-28.5 -71t-70.5 -28t-70.5 28t-28.5 71zM36 417q0 43 28.5 71t70.5 28t70.5 -28t28.5 -71t-28.5 -71t-70.5 -28t-70.5 28t-28.5 71z" />
<glyph unicode=";" d="M32 -143q17 23 46 73t35 71q-29 3 -50.5 27t-21.5 61t25.5 63t62.5 26q50 0 76 -38q23 -32 23 -78q0 -35 -10 -64q-5 -18 -30.5 -64t-47.5 -77h-108zM36 417q0 43 28.5 71t70.5 28t70.5 -28t28.5 -71t-28.5 -71t-70.5 -28t-70.5 28t-28.5 71z" />
<glyph unicode="&#x3c;" horiz-adv-x="405" d="M40 220v84l313 152v-123l-165 -69l165 -67v-128z" />
<glyph unicode="=" horiz-adv-x="588" d="M50 107v99h476v-99h-476zM50 323v100h476v-100h-476z" />
<glyph unicode="&#x3e;" horiz-adv-x="405" d="M40 69v123l165 69l-165 67v128l313 -151v-84z" />
<glyph unicode="?" horiz-adv-x="526" d="M60 516v153q26 19 78.5 33t106.5 14q100 0 164.5 -45t64.5 -124q0 -38 -13 -68t-32.5 -47.5t-42.5 -37t-42.5 -37.5t-32.5 -48t-13 -69v-13h-170v29q0 47 17 84.5t41 61t48.5 42.5t41.5 39t17 40q0 49 -78 49q-84 0 -155 -56zM114 89q0 43 28.5 71t70.5 28t70.5 -28 t28.5 -71t-28.5 -71t-70.5 -28t-70.5 28t-28.5 71z" />
<glyph unicode="@" horiz-adv-x="992" d="M50 244q0 126 52.5 230t155.5 167.5t239 63.5q110 0 195.5 -36t136 -97.5t76 -136t25.5 -157.5q0 -126 -59.5 -192t-154.5 -66q-120 0 -159 97v-6q-14 -37 -49 -64t-74 -27q-76 0 -119 59t-43 175q0 117 48.5 179.5t123.5 62.5q66 0 100 -56v41h150v-273q0 -94 43 -94 q31 0 53.5 42t22.5 122q0 46 -8 87.5t-29.5 85t-55.5 75t-91.5 51.5t-131.5 20q-79 0 -143.5 -30.5t-104 -81t-61 -112.5t-21.5 -129q0 -155 96 -250t246 -95q63 0 132 18t119 49l44 -85q-141 -88 -295 -88q-119 0 -222.5 52.5t-170 157.5t-66.5 241zM441 264 q0 -121 56 -121q28 0 47 28v112q0 88 -47 88q-56 0 -56 -107z" />
<glyph unicode="A" horiz-adv-x="612" d="M8 0l189 700h202l193 -700h-188l-29 130h-160l-28 -130h-179zM243 259h103l-32 147q-9 39 -20 107q-9 -60 -19 -107z" />
<glyph unicode="B" horiz-adv-x="594" d="M60 0v700h213q127 0 189 -54t62 -142q0 -48 -24 -87t-63 -58q50 -19 77.5 -60t27.5 -93q0 -96 -65 -151t-194 -55h-223zM230 139h43q49 0 72 17.5t23 58.5q0 75 -95 75h-43v-151zM230 419h33q44 0 64.5 17t20.5 54q0 71 -85 71h-33v-142z" />
<glyph unicode="C" horiz-adv-x="529" d="M30 354q0 178 75 270t205 92q98 0 172 -34v-176q-79 58 -142 58t-95.5 -56t-32.5 -154q0 -100 32 -157t96 -57q76 0 142 58v-176q-65 -34 -172 -34q-131 0 -205.5 94t-74.5 272z" />
<glyph unicode="D" horiz-adv-x="616" d="M60 0v700h233q77 0 132.5 -27t87.5 -76.5t46.5 -110.5t14.5 -137q0 -162 -67.5 -255.5t-213.5 -93.5h-233zM238 149h45q105 0 105 200q0 92 -26.5 147t-78.5 55h-45v-402z" />
<glyph unicode="E" horiz-adv-x="516" d="M60 0v700h402v-139h-224v-121h204v-139h-204v-162h226v-139h-404z" />
<glyph unicode="F" horiz-adv-x="471" d="M60 0v700h384v-139h-206v-121h188v-139h-188v-301h-178z" />
<glyph unicode="G" horiz-adv-x="625" d="M30 354q0 176 88.5 269t231.5 93q98 0 213 -36v-163q-127 57 -193 57q-79 0 -118.5 -59t-39.5 -161q0 -110 30 -172t88 -62q44 0 75 23v148h-115v117h273v-418h-23l-54 49q-72 -51 -176 -51q-131 0 -205.5 94t-74.5 272z" />
<glyph unicode="H" horiz-adv-x="640" d="M60 0v700h178v-260h152v260h178v-700h-178v301h-152v-301h-178z" />
<glyph unicode="I" horiz-adv-x="310" d="M60 0v700h178v-700h-178z" />
<glyph unicode="J" horiz-adv-x="366" d="M15 -2v160q31 -12 69 -12q52 0 52 96v458h178v-489q0 -221 -210 -221q-54 0 -89 8z" />
<glyph unicode="K" horiz-adv-x="626" d="M60 0v700h174v-211l162 211h203l-181 -230l191 -470h-197l-119 312l-59 -75v-237h-174z" />
<glyph unicode="L" horiz-adv-x="456" d="M60 0v700h178v-561h196v-139h-374z" />
<glyph unicode="M" horiz-adv-x="740" d="M60 0v700h208l70 -171q16 -38 26 -76q16 52 26 76l70 171h208v-700h-174v290q0 70 10 158q-32 -84 -45 -111l-92 -189h-6l-90 188q-23 46 -48 116q11 -99 11 -162v-290h-174z" />
<glyph unicode="N" horiz-adv-x="670" d="M60 0v700h176l158 -315q11 -23 33 -79q-5 72 -5 117v277h176v-700h-176l-157 313q-14 26 -33 77q4 -78 4 -109v-281h-176z" />
<glyph unicode="O" horiz-adv-x="650" d="M30 354q0 178 77.5 270t212.5 92q134 0 211 -93t77 -269q0 -180 -76 -273t-212 -93q-135 0 -212.5 94t-77.5 272zM222 354q0 -109 25 -171.5t73 -62.5t72 62t24 172q0 107 -24 168.5t-72 61.5t-73 -61.5t-25 -168.5z" />
<glyph unicode="P" horiz-adv-x="562" d="M60 0v700h213q257 0 257 -241q0 -110 -61 -174.5t-196 -64.5h-35v-220h-178zM238 369h25q48 0 67.5 21t19.5 69q0 92 -69 92q-43 0 -43 -46v-136z" />
<glyph unicode="Q" horiz-adv-x="650" d="M30 354q0 178 77.5 270t212.5 92q134 0 211 -93t77 -269q0 -165 -66 -259l62 -139l-20 -20l-172 65q-46 -13 -92 -13q-135 0 -212.5 94t-77.5 272zM222 354q0 -109 25 -171.5t73 -62.5t72 62t24 172q0 107 -24 168.5t-72 61.5t-73 -61.5t-25 -168.5z" />
<glyph unicode="R" horiz-adv-x="593" d="M60 0v700h223q122 0 187.5 -62.5t65.5 -158.5q0 -129 -118 -190q36 -11 55.5 -36t27.5 -68q7 -55 19.5 -75.5t41.5 -28.5v-79q-60 -10 -102 -10q-58 0 -90.5 32t-41.5 103q-8 61 -24 89.5t-57 30.5h-13v-247h-174zM234 376h29q95 0 95 93q0 40 -19 66t-56 26 q-21 0 -34 -14.5t-15 -39.5v-131z" />
<glyph unicode="S" horiz-adv-x="485" d="M25 35v160q104 -70 177 -70q30 0 51 13.5t21 40.5q0 52 -69 90l-42 23q-67 37 -102.5 86.5t-35.5 130.5q0 100 67.5 152.5t161.5 52.5q91 0 172 -45v-147q-85 55 -162 55q-27 0 -46.5 -15.5t-19.5 -42.5q0 -44 58 -74l56 -29q64 -33 100.5 -81.5t36.5 -132.5 q0 -105 -70 -159.5t-172 -54.5q-90 0 -182 47z" />
<glyph unicode="T" horiz-adv-x="538" d="M10 561v139h506v-139h-104q-60 0 -60 -70v-491h-178v497q-3 64 -60 64h-104z" />
<glyph unicode="U" horiz-adv-x="612" d="M50 221v479h178v-492q0 -41 19 -65t52 -24q34 0 53.5 24t19.5 65v492h178v-479q0 -111 -64 -171.5t-187 -60.5q-122 0 -185.5 60.5t-63.5 171.5z" />
<glyph unicode="V" horiz-adv-x="573" d="M0 700h191l93 -480l92 480h185l-176 -700h-207z" />
<glyph unicode="W" horiz-adv-x="834" d="M10 700h181l46 -310q8 -51 18 -160q14 108 24 160l57 310h156l58 -310q10 -52 24 -165q10 113 18 165l45 310h175l-136 -700h-187l-56 250q-9 40 -23 124q-13 -81 -22 -124l-53 -250h-187z" />
<glyph unicode="X" horiz-adv-x="611" d="M5 0l196 351l-191 349h201l91 -167l93 167h184l-185 -335l200 -365h-201l-100 183l-101 -183h-187z" />
<glyph unicode="Y" horiz-adv-x="576" d="M20 4v146q53 -14 103 -14q67 0 88 88l-191 476h191l87 -278l86 278h180l-178 -454q-22 -55 -33 -81.5t-29 -61.5t-33 -50t-38 -31t-50.5 -21t-64.5 -5q-72 0 -118 8z" />
<glyph unicode="Z" horiz-adv-x="506" d="M20 0v8l212 543h-206v149h448v-8l-213 -543h212v-149h-453z" />
<glyph unicode="[" horiz-adv-x="348" d="M80 -194v908h236v-90h-133v-729h133v-89h-236z" />
<glyph unicode="\" horiz-adv-x="572" d="M40 786h94l386 -893h-95z" />
<glyph unicode="]" horiz-adv-x="348" d="M20 -104h133v729h-133v89h236v-908h-236v90z" />
<glyph unicode="_" horiz-adv-x="516" d="M20 -30h464v-100h-464v100z" />
<glyph unicode="`" horiz-adv-x="326" d="M50 714h168l46 -141h-94z" />
<glyph unicode="a" horiz-adv-x="509" d="M35 134q0 76 40 112.5t127 54.5l75 15v4q0 58 -73 58q-36 0 -78.5 -18t-69.5 -39v150q76 43 179 43q96 0 155 -41.5t58 -130.5l-1 -228q0 -51 5 -114h-131l-38 56q-58 -66 -112 -66q-61 0 -98.5 36.5t-37.5 107.5zM197 170q0 -24 11.5 -39.5t24.5 -15.5q27 0 44 23v93 l-18 -4q-34 -10 -48 -21t-14 -36z" />
<glyph unicode="b" horiz-adv-x="554" d="M50 -10v724h170v-267q20 29 52.5 49t67.5 20q80 0 126 -65t46 -191q0 -131 -60.5 -201.5t-151.5 -70.5q-102 0 -151 53l-62 -51h-37zM220 181q0 -68 47 -68q66 0 66 137q0 143 -66 143q-30 0 -47 -30v-182z" />
<glyph unicode="c" horiz-adv-x="424" d="M30 253q0 121 64.5 192t172.5 71q61 0 120 -23v-143q-65 35 -100 35q-76 0 -76 -132q0 -68 21 -101t55 -33q42 0 100 36v-144q-48 -23 -120 -23q-111 0 -174 69t-63 196z" />
<glyph unicode="d" horiz-adv-x="554" d="M30 244q0 131 51.5 201.5t130.5 70.5q72 0 110 -58v256h170v-714h-147l-16 69q-18 -33 -53.5 -56t-73.5 -23q-80 0 -126 64t-46 190zM209 254q0 -141 66 -141q28 0 47 28v162q0 88 -47 88q-66 0 -66 -137z" />
<glyph unicode="e" horiz-adv-x="505" d="M30 253q0 116 58.5 189.5t163.5 73.5q104 0 160 -69.5t56 -206.5v-17h-267q7 -114 92 -114q68 0 150 57v-135q-82 -42 -180 -42q-103 0 -168 68t-65 196zM200 295h108q-2 64 -14 92t-41 28q-27 0 -39 -28.5t-14 -91.5z" />
<glyph unicode="f" horiz-adv-x="344" d="M15 370v130h55v44q0 81 42 126.5t112 45.5q55 0 103 -16v-130q-33 21 -61 21q-26 0 -26 -39v-52h87v-130h-87v-370h-170v370h-55z" />
<glyph unicode="g" horiz-adv-x="549" d="M30 244q0 131 51.5 201.5t130.5 70.5q72 0 110 -58v42h170v-478q0 -103 -66.5 -162.5t-177.5 -59.5q-104 0 -185 26v150q83 -51 163 -51q49 0 72.5 23.5t23.5 75.5v33q-20 -29 -52.5 -48t-67.5 -19q-80 0 -126 64t-46 190zM209 254q0 -141 66 -141q28 0 47 28v171 q-3 79 -47 79q-66 0 -66 -137z" />
<glyph unicode="h" horiz-adv-x="540" d="M50 0v714h170v-257q46 59 113 59t108.5 -39.5t41.5 -128.5v-348h-170v331q0 49 -38 49q-16 0 -32 -12.5t-23 -31.5v-336h-170z" />
<glyph unicode="i" d="M36 638q0 43 28.5 71t70.5 28t70.5 -28t28.5 -71t-28.5 -71t-70.5 -28t-70.5 28t-28.5 71zM50 0v500h170v-500h-170z" />
<glyph unicode="j" d="M-60 -54q43 -16 72 -16q38 0 38 38v532h170v-509q0 -190 -159 -190q-69 0 -121 17v128zM36 638q0 43 28.5 71t70.5 28t70.5 -28t28.5 -71t-28.5 -71t-70.5 -28t-70.5 28t-28.5 71z" />
<glyph unicode="k" horiz-adv-x="522" d="M50 0v714h160v-349l111 135h178l-143 -162l144 -338h-178l-81 208l-31 -36v-172h-160z" />
<glyph unicode="l" d="M50 0v714h170v-714h-170z" />
<glyph unicode="m" horiz-adv-x="803" d="M50 0v510h36l72 -56q55 62 145 62q89 0 136 -43q54 43 127 43q80 0 130 -37.5t50 -120.5v-358h-170v331q0 49 -46 49q-39 0 -47 -42v-338h-170v331q0 49 -46 49q-39 0 -47 -42v-338h-170z" />
<glyph unicode="n" horiz-adv-x="540" d="M50 0v510h36l70 -55q59 61 147 61q80 0 130 -39.5t50 -128.5v-348h-170v321q0 49 -45 49q-30 0 -48 -29v-341h-170z" />
<glyph unicode="o" horiz-adv-x="540" d="M30 253q0 124 64 192.5t170 68.5q109 0 171.5 -66.5t62.5 -194.5q0 -130 -63 -197.5t-171 -67.5q-110 0 -172 66t-62 199zM208 253q0 -159 56 -159t56 159q0 80 -13 118t-43 38t-43 -37.5t-13 -118.5z" />
<glyph unicode="p" horiz-adv-x="554" d="M50 -194v694h147l15 -66q17 33 52.5 56.5t75.5 23.5q80 0 126 -64t46 -190q0 -131 -51.5 -201.5t-130.5 -70.5q-74 0 -110 57v-239h-170zM220 201q0 -88 47 -88q66 0 66 137q0 141 -66 141q-30 0 -47 -28v-162z" />
<glyph unicode="q" horiz-adv-x="571" d="M30 244q0 131 51.5 201.5t130.5 70.5q84 0 119 -75l14 59h147v-694h-170v251q-20 -29 -52.5 -48t-67.5 -19q-80 0 -126 64t-46 190zM209 254q0 -141 66 -141q28 0 47 28v162q0 88 -47 88q-66 0 -66 -137z" />
<glyph unicode="r" horiz-adv-x="369" d="M50 0v510h46l71 -60q46 56 112 56q27 0 63 -4v-183h-6q-36 33 -97 33q-13 0 -19 -1v-351h-170z" />
<glyph unicode="s" horiz-adv-x="420" d="M35 359q0 76 56.5 115.5t137.5 39.5q93 0 136 -23v-137q-60 35 -136 35q-22 0 -36.5 -8t-14.5 -22q0 -21 29 -31l56 -19q64 -22 94.5 -56.5t30.5 -98.5q0 -81 -55.5 -123.5t-140.5 -42.5q-104 0 -151 27v150q72 -50 146 -50q56 0 56 32q0 21 -63 43l-41 15 q-104 39 -104 154z" />
<glyph unicode="t" horiz-adv-x="362" d="M5 370v89l215 185h20v-144h95v-130h-95v-215q0 -20 12.5 -30.5t29.5 -10.5q29 0 53 13v-122q-42 -16 -101 -16q-77 0 -120.5 39.5t-43.5 122.5v219h-65z" />
<glyph unicode="u" horiz-adv-x="540" d="M46 166v334h170v-327q0 -49 45 -49q34 0 47 32v344h170v-510h-46l-65 54q-58 -56 -141 -56q-80 0 -130 42t-50 136z" />
<glyph unicode="v" horiz-adv-x="496" d="M10 500h176l49 -292q7 -46 9 -85h10q2 41 9 85l48 292h163l-125 -500h-213z" />
<glyph unicode="w" horiz-adv-x="666" d="M10 500h169l32 -226q2 -10 7 -81h6q2 13 6 40.5t5 40.5l47 226h103l50 -228q0 -2 4 -31.5t6 -47.5h6q1 44 6 79l31 228h156l-100 -500h-163l-38 140q-10 39 -16 78q-10 -54 -16 -78l-37 -140h-163z" />
<glyph unicode="x" horiz-adv-x="515" d="M5 0l149 254l-144 246h174l67 -129l68 129h164l-138 -239l153 -261h-174l-76 143l-76 -143h-167z" />
<glyph unicode="y" horiz-adv-x="496" d="M5 500h184l60 -391l59 391h171l-120 -500q-48 -199 -216 -199q-39 0 -109 8v139q61 -21 119 -21q34 0 52.5 17.5t26.5 55.5h-106z" />
<glyph unicode="z" horiz-adv-x="393" d="M15 0v1l138 369h-133v130h346v-1l-137 -369h130v-130h-344z" />
<glyph unicode="{" horiz-adv-x="303" d="M20 242v60q74 20 74 115v99q0 94 49 146t138 52v-111q-32 -10 -44.5 -28t-12.5 -59v-101q0 -103 -81 -143q81 -41 81 -146v-121q0 -41 12.5 -58.5t44.5 -29.5v-111q-89 -1 -138 51.5t-49 147.5v121q0 95 -74 116z" />
<glyph unicode="|" horiz-adv-x="216" d="M50 -194v908h104v-908h-104z" />
<glyph unicode="}" horiz-adv-x="303" d="M10 -83q32 10 44.5 28t12.5 59v101q0 103 81 143q-81 41 -81 146v121q0 41 -12.5 58.5t-44.5 29.5v111q89 1 138 -51.5t49 -147.5v-121q0 -95 74 -116v-60q-74 -20 -74 -115v-99q0 -94 -49 -146t-138 -52v111z" />
<glyph unicode="~" horiz-adv-x="786" d="M94 275l32 -18l-8 -8l-13 -17q11 26 -11 43zM103 226l2 5q0 -3 -2 -5zM126 257q79 90 199 90h202q62 0 108 40l92 -53q-82 -90 -200 -90h-202q-65 0 -109 -41zM190 172q8 14 26 30l-3 -1l3 2l26 -14q-10 6 -24 3.5t-21 -12.5zM609 403l3 -2q-1 0 -3 2zM612 401 q10 -5 23.5 -2.5t20.5 12.5l6 8q-8 -14 -25 -29l2 1l-4 -4zM727 334l6 7l14 22q-13 -28 10 -46zM747 363l1 1z" />
<glyph unicode="&#xa3;" horiz-adv-x="714" d="M78 340h33v-33q-5 26 -33 33zM81 0h30v-31q-6 28 -30 31zM82 90q24 3 29 30v-30h-29zM82 429q24 3 29 30v-30h-29zM111 0v90h105v250h-105v89h105v125q0 85 59.5 144.5t143.5 59.5h40q72 0 129 -52t70 -127h-98q-13 40 -46 69t-72 29q-50 0 -85 -34.5t-39 -88.5v-125h112 v-89h-112v-250h325v-90h-532zM430 307v33h31q-11 -3 -20.5 -12.5t-10.5 -20.5zM430 429v29q2 -11 10 -19.5t18 -9.5h-28zM535 579h25q6 -28 6 -41l-2 11q-5 23 -29 30zM643 0h29q-10 -1 -18.5 -9.5t-10.5 -18.5v28zM643 90v29q2 -11 10 -19.5t18 -9.5h-28zM658 579h33 q-26 -5 -29 -29q0 17 -4 29z" />
<glyph unicode="&#xa8;" horiz-adv-x="488" d="M46 641q0 31 22 53.5t54 22.5t54 -22.5t22 -53.5t-22 -53.5t-54 -22.5t-54 22.5t-22 53.5zM278 641q0 31 22 53.5t54 22.5t54 -22.5t22 -53.5t-22 -53.5t-54 -22.5t-54 22.5t-22 53.5z" />
<glyph unicode="&#xab;" horiz-adv-x="609" d="M30 238v60l237 155v-129l-106 -55l106 -55v-132zM310 238v60l237 155v-129l-106 -55l106 -55v-132z" />
<glyph unicode="&#xac;" horiz-adv-x="611" d="M85 161h31v-37q0 13 -9 24t-22 13zM87 267q23 3 29 29v-29h-29zM116 161v106h427v-212h-106v106h-321zM407 55h30v-31q-5 25 -30 31zM543 25v30h29q-25 -8 -29 -30zM543 267v29q4 -28 27 -29h-27z" />
<glyph unicode="&#xad;" horiz-adv-x="366" d="M40 207v120h274v-120h-274z" />
<glyph unicode="&#xb0;" horiz-adv-x="542" d="M120 593q0 71 50.5 121t121.5 50t121.5 -50t50.5 -121t-50.5 -121.5t-121.5 -50.5t-121.5 50.5t-50.5 121.5zM197 593q0 -39 28 -67t67 -28q40 0 67.5 28t27.5 67t-27.5 66.5t-67.5 27.5q-39 0 -67 -28t-28 -66z" />
<glyph unicode="&#xb1;" horiz-adv-x="526" d="M50 0v110h154v140h-154v100h154v150h106v-150h154v-100h-154v-140h155v-110h-415z" />
<glyph unicode="&#xb4;" horiz-adv-x="276" d="M30 573l46 141h168l-120 -141h-94z" />
<glyph unicode="&#xb7;" d="M36 259q0 43 28.5 71t70.5 28t70.5 -28t28.5 -71t-28.5 -71t-70.5 -28t-70.5 28t-28.5 71z" />
<glyph unicode="&#xb8;" horiz-adv-x="314" d="M60 -126q31 -11 60 -11q35 0 35 27q0 32 -63 38v94h79v-52q29 -6 50 -28t21 -56q0 -38 -28 -62.5t-72 -24.5q-46 0 -82 10v65z" />
<glyph unicode="&#xbb;" horiz-adv-x="609" d="M50 82v129l106 55l-106 55v132l237 -156v-60zM330 82v129l106 55l-106 55v132l237 -156v-60z" />
<glyph unicode="&#xc4;" horiz-adv-x="612" d="M8 0l189 700h202l193 -700h-188l-29 130h-160l-28 -130h-179zM106 841q0 31 22 53.5t54 22.5t54 -22.5t22 -53.5t-22 -53.5t-54 -22.5t-54 22.5t-22 53.5zM243 259h103l-32 147q-9 39 -20 107q-9 -60 -19 -107zM338 841q0 31 22 53.5t54 22.5t54 -22.5t22 -53.5 t-22 -53.5t-54 -22.5t-54 22.5t-22 53.5z" />
<glyph unicode="&#xc7;" horiz-adv-x="529" d="M30 354q0 178 75 270t205 92q98 0 172 -34v-176q-79 58 -142 58t-95.5 -56t-32.5 -154q0 -100 32 -157t96 -57q76 0 142 58v-176q-63 -32 -162 -34v-18q29 -6 50 -28t21 -56q0 -38 -28 -62.5t-72 -24.5q-46 0 -82 10v65q31 -11 60 -11q35 0 35 27q0 32 -63 38v68 q-100 23 -155.5 114t-55.5 244z" />
<glyph unicode="&#xd6;" horiz-adv-x="650" d="M30 354q0 178 77.5 270t212.5 92q134 0 211 -93t77 -269q0 -180 -76 -273t-212 -93q-135 0 -212.5 94t-77.5 272zM128 841q0 31 22 53.5t54 22.5t54 -22.5t22 -53.5t-22 -53.5t-54 -22.5t-54 22.5t-22 53.5zM222 354q0 -109 25 -171.5t73 -62.5t72 62t24 172 q0 107 -24 168.5t-72 61.5t-73 -61.5t-25 -168.5zM360 841q0 31 22 53.5t54 22.5t54 -22.5t22 -53.5t-22 -53.5t-54 -22.5t-54 22.5t-22 53.5z" />
<glyph unicode="&#xdc;" horiz-adv-x="612" d="M50 221v479h178v-492q0 -41 19 -65t52 -24q34 0 53.5 24t19.5 65v492h178v-479q0 -111 -64 -171.5t-187 -60.5q-122 0 -185.5 60.5t-63.5 171.5zM108 841q0 31 22 53.5t54 22.5t54 -22.5t22 -53.5t-22 -53.5t-54 -22.5t-54 22.5t-22 53.5zM340 841q0 31 22 53.5t54 22.5 t54 -22.5t22 -53.5t-22 -53.5t-54 -22.5t-54 22.5t-22 53.5z" />
<glyph unicode="&#xdf;" horiz-adv-x="638" d="M50 0v464q0 116 68.5 184t196.5 68q94 0 161.5 -42.5t67.5 -123.5q0 -40 -18.5 -72t-40.5 -48.5t-40.5 -35t-18.5 -35.5t13.5 -28.5t33.5 -17.5t43 -17.5t43 -25.5t33.5 -43.5t13.5 -70.5q0 -75 -57 -120.5t-139 -45.5q-71 0 -131 17v150q75 -40 136 -40q46 0 46 32 q0 20 -28 34.5t-61 25t-61 44t-28 88.5q0 40 16.5 70.5t35.5 45t35.5 33.5t16.5 38q0 25 -19.5 44t-51.5 19q-44 0 -70 -31t-26 -88v-472h-170z" />
<glyph unicode="&#xe0;" horiz-adv-x="509" d="M35 134q0 76 40 112.5t127 54.5l75 15v4q0 58 -73 58q-36 0 -78.5 -18t-69.5 -39v150q76 43 179 43q96 0 155 -41.5t58 -130.5l-1 -228q0 -51 5 -114h-131l-38 56q-58 -66 -112 -66q-61 0 -98.5 36.5t-37.5 107.5zM82 714h168l46 -141h-94zM197 170q0 -24 11.5 -39.5 t24.5 -15.5q27 0 44 23v93l-18 -4q-34 -10 -48 -21t-14 -36z" />
<glyph unicode="&#xe1;" horiz-adv-x="509" d="M35 134q0 76 40 112.5t127 54.5l75 15v4q0 58 -73 58q-36 0 -78.5 -18t-69.5 -39v150q76 43 179 43q96 0 155 -41.5t58 -130.5l-1 -228q0 -51 5 -114h-131l-38 56q-58 -66 -112 -66q-61 0 -98.5 36.5t-37.5 107.5zM188 573l46 141h168l-120 -141h-94zM197 170 q0 -24 11.5 -39.5t24.5 -15.5q27 0 44 23v93l-18 -4q-34 -10 -48 -21t-14 -36z" />
<glyph unicode="&#xe2;" horiz-adv-x="509" d="M35 134q0 76 40 112.5t127 54.5l75 15v4q0 58 -73 58q-36 0 -78.5 -18t-69.5 -39v150q76 43 179 43q96 0 155 -41.5t58 -130.5l-1 -228q0 -51 5 -114h-131l-38 56q-58 -66 -112 -66q-61 0 -98.5 36.5t-37.5 107.5zM78 573l106 141h102l106 -141h-104l-53 60l-53 -60h-104 zM197 170q0 -24 11.5 -39.5t24.5 -15.5q27 0 44 23v93l-18 -4q-34 -10 -48 -21t-14 -36z" />
<glyph unicode="&#xe4;" horiz-adv-x="509" d="M35 134q0 76 40 112.5t127 54.5l75 15v4q0 58 -73 58q-36 0 -78.5 -18t-69.5 -39v150q76 43 179 43q96 0 155 -41.5t58 -130.5l-1 -228q0 -51 5 -114h-131l-38 56q-58 -66 -112 -66q-61 0 -98.5 36.5t-37.5 107.5zM43 641q0 31 22.5 53.5t53.5 22.5t53.5 -22.5 t22.5 -53.5t-22.5 -53.5t-53.5 -22.5t-53.5 22.5t-22.5 53.5zM197 170q0 -24 11.5 -39.5t24.5 -15.5q27 0 44 23v93l-18 -4q-34 -10 -48 -21t-14 -36zM275 641q0 31 22.5 53.5t53.5 22.5t53.5 -22.5t22.5 -53.5t-22.5 -53.5t-53.5 -22.5t-53.5 22.5t-22.5 53.5z" />
<glyph unicode="&#xe6;" horiz-adv-x="753" d="M35 134q0 76 40 112.5t127 54.5l75 15v4q0 58 -73 58q-36 0 -78.5 -18t-69.5 -39v150q76 43 179 43q89 0 143 -34q52 36 122 36q104 0 160 -69.5t56 -206.5v-17h-267q7 -114 92 -114q68 0 150 57v-135q-82 -42 -180 -42q-40 0 -76 11h-114l-38 56q-58 -66 -112 -66 q-61 0 -98.5 36.5t-37.5 107.5zM197 170q0 -24 11.5 -39.5t24.5 -15.5q27 0 44 23v93l-18 -4q-34 -10 -48 -21t-14 -36zM448 295h108q-2 64 -14 92t-41 28q-27 0 -39 -28.5t-14 -91.5z" />
<glyph unicode="&#xe7;" horiz-adv-x="424" d="M30 253q0 121 64.5 192t172.5 71q61 0 120 -23v-143q-65 35 -100 35q-76 0 -76 -132q0 -68 21 -101t55 -33q42 0 100 36v-144q-41 -20 -110 -23v-18q29 -6 50 -28t21 -56q0 -38 -28 -62.5t-72 -24.5q-46 0 -82 10v65q31 -11 60 -11q35 0 35 27q0 32 -63 38v68 q-80 20 -124 86t-44 171z" />
<glyph unicode="&#xe8;" horiz-adv-x="495" d="M25 253q0 116 58.5 189.5t163.5 73.5q104 0 160 -69.5t56 -206.5v-17h-267q7 -114 92 -114q68 0 150 57v-135q-82 -42 -180 -42q-103 0 -168 68t-65 196zM96 714h168l46 -141h-94zM195 295h108q-2 64 -14 92t-41 28q-27 0 -39 -28.5t-14 -91.5z" />
<glyph unicode="&#xe9;" horiz-adv-x="495" d="M25 253q0 116 58.5 189.5t163.5 73.5q104 0 160 -69.5t56 -206.5v-17h-267q7 -114 92 -114q68 0 150 57v-135q-82 -42 -180 -42q-103 0 -168 68t-65 196zM195 295h108q-2 64 -14 92t-41 28q-27 0 -39 -28.5t-14 -91.5zM202 573l46 141h168l-120 -141h-94z" />
<glyph unicode="&#xea;" horiz-adv-x="500" d="M30 253q0 116 58.5 189.5t163.5 73.5q104 0 160 -69.5t56 -206.5v-17h-267q7 -114 92 -114q68 0 150 57v-135q-82 -42 -180 -42q-103 0 -168 68t-65 196zM97 573l106 141h102l106 -141h-104l-53 60l-53 -60h-104zM200 295h108q-2 64 -14 92t-41 28q-27 0 -39 -28.5 t-14 -91.5z" />
<glyph unicode="&#xeb;" horiz-adv-x="495" d="M25 253q0 116 58.5 189.5t163.5 73.5q104 0 160 -69.5t56 -206.5v-17h-267q7 -114 92 -114q68 0 150 57v-135q-82 -42 -180 -42q-103 0 -168 68t-65 196zM57 641q0 31 22.5 53.5t53.5 22.5t53.5 -22.5t22.5 -53.5t-22.5 -53.5t-53.5 -22.5t-53.5 22.5t-22.5 53.5z M195 295h108q-2 64 -14 92t-41 28q-27 0 -39 -28.5t-14 -91.5zM289 641q0 31 22.5 53.5t53.5 22.5t53.5 -22.5t22.5 -53.5t-22.5 -53.5t-53.5 -22.5t-53.5 22.5t-22.5 53.5z" />
<glyph unicode="&#xee;" d="M-22 573l106 141h102l106 -141h-104l-53 60l-53 -60h-104zM50 0v500h170v-500h-170z" />
<glyph unicode="&#xef;" d="M-57 641q0 31 22.5 53.5t53.5 22.5t53.5 -22.5t22.5 -53.5t-22.5 -53.5t-53.5 -22.5t-53.5 22.5t-22.5 53.5zM50 0v500h170v-500h-170zM175 641q0 31 22.5 53.5t53.5 22.5t53.5 -22.5t22.5 -53.5t-22.5 -53.5t-53.5 -22.5t-53.5 22.5t-22.5 53.5z" />
<glyph unicode="&#xf4;" horiz-adv-x="540" d="M30 253q0 124 64 192.5t170 68.5q109 0 171.5 -66.5t62.5 -194.5q0 -130 -63 -197.5t-171 -67.5q-110 0 -172 66t-62 199zM107 573l106 141h102l106 -141h-104l-53 60l-53 -60h-104zM208 253q0 -159 56 -159t56 159q0 80 -13 118t-43 38t-43 -37.5t-13 -118.5z" />
<glyph unicode="&#xf6;" horiz-adv-x="530" d="M25 253q0 124 64 192.5t170 68.5q109 0 171.5 -66.5t62.5 -194.5q0 -130 -63 -197.5t-171 -67.5q-110 0 -172 66t-62 199zM67 641q0 31 22.5 53.5t53.5 22.5t53.5 -22.5t22.5 -53.5t-22.5 -53.5t-53.5 -22.5t-53.5 22.5t-22.5 53.5zM203 253q0 -159 56 -159t56 159 q0 80 -13 118t-43 38t-43 -37.5t-13 -118.5zM299 641q0 31 22.5 53.5t53.5 22.5t53.5 -22.5t22.5 -53.5t-22.5 -53.5t-53.5 -22.5t-53.5 22.5t-22.5 53.5z" />
<glyph unicode="&#xf7;" horiz-adv-x="527" d="M50 207v110h415v-110h-415zM186 65q0 30 20.5 51t50.5 21t51 -21t21 -51t-21 -50.5t-51 -20.5t-50.5 20.5t-20.5 50.5zM186 455q0 30 20.5 51t50.5 21t51 -21t21 -51t-21 -50.5t-51 -20.5t-50.5 20.5t-20.5 50.5z" />
<glyph unicode="&#xfb;" horiz-adv-x="540" d="M46 166v334h170v-327q0 -49 45 -49q34 0 47 32v344h170v-510h-46l-65 54q-58 -56 -141 -56q-80 0 -130 42t-50 136zM105 573l106 141h102l106 -141h-104l-53 60l-53 -60h-104z" />
<glyph unicode="&#xfc;" horiz-adv-x="540" d="M46 166v334h170v-327q0 -49 45 -49q34 0 47 32v344h170v-510h-46l-65 54q-58 -56 -141 -56q-80 0 -130 42t-50 136zM68 641q0 31 22 53.5t54 22.5t54 -22.5t22 -53.5t-22 -53.5t-54 -22.5t-54 22.5t-22 53.5zM300 641q0 31 22 53.5t54 22.5t54 -22.5t22 -53.5t-22 -53.5 t-54 -22.5t-54 22.5t-22 53.5z" />
<glyph unicode="&#x152;" horiz-adv-x="887" d="M30 354q0 178 77.5 270t212.5 92q59 0 111 -20v4h402v-139h-224v-121h204v-139h-204v-162h226v-139h-404v7q-52 -19 -111 -19q-135 0 -212.5 94t-77.5 272zM222 354q0 -109 25 -171.5t73 -62.5t72 62t24 172q0 107 -24 168.5t-72 61.5t-73 -61.5t-25 -168.5z" />
<glyph unicode="&#x153;" horiz-adv-x="803" d="M30 253q0 124 64 192.5t170 68.5q90 0 148 -46q58 48 138 48q104 0 160 -69.5t56 -206.5v-17h-267q7 -114 92 -114q68 0 150 57v-135q-82 -42 -180 -42q-85 0 -146 47q-59 -48 -151 -48q-110 0 -172 66t-62 199zM208 253q0 -159 56 -159t56 159q0 80 -13 118t-43 38 t-43 -37.5t-13 -118.5zM498 295h108q-2 64 -14 92t-41 28q-27 0 -39 -28.5t-14 -91.5z" />
<glyph unicode="&#x178;" horiz-adv-x="546" d="M-5 4v146q53 -14 103 -14q67 0 88 88l-191 476h191l87 -278l86 278h180l-178 -454q-22 -55 -33 -81.5t-29 -61.5t-33 -50t-38 -31t-50.5 -21t-64.5 -5q-72 0 -118 8zM75 841q0 31 22.5 53.5t53.5 22.5t53.5 -22.5t22.5 -53.5t-22.5 -53.5t-53.5 -22.5t-53.5 22.5 t-22.5 53.5zM307 841q0 31 22.5 53.5t53.5 22.5t53.5 -22.5t22.5 -53.5t-22.5 -53.5t-53.5 -22.5t-53.5 22.5t-22.5 53.5z" />
<glyph unicode="&#x2c6;" horiz-adv-x="386" d="M30 573l106 141h102l106 -141h-104l-53 60l-53 -60h-104z" />
<glyph unicode="&#x2dc;" horiz-adv-x="512" d="M130 970q10 -3 18 -12zM148 958l30 -18l-22 -23l-2 -2q11 23 -6 43zM178 940q59 54 130 54h149q41 0 83 28l47 -29q-54 -51 -130 -51h-149q-51 0 -84 -29zM198 889l5 5zM203 894l15 13l-5 -3l11 9l21 -13q-24 9 -42 -6zM526 1028q17 -3 31 8l-2 -2q-5 -6 -15 -12z M587 993l15 17v1l9 8q-14 -26 13 -47l5 -3z" />
<glyph unicode="&#x2000;" horiz-adv-x="518" />
<glyph unicode="&#x2001;" horiz-adv-x="1036" />
<glyph unicode="&#x2002;" horiz-adv-x="518" />
<glyph unicode="&#x2003;" horiz-adv-x="1036" />
<glyph unicode="&#x2004;" horiz-adv-x="345" />
<glyph unicode="&#x2005;" horiz-adv-x="259" />
<glyph unicode="&#x2006;" horiz-adv-x="172" />
<glyph unicode="&#x2007;" horiz-adv-x="172" />
<glyph unicode="&#x2008;" horiz-adv-x="129" />
<glyph unicode="&#x2009;" horiz-adv-x="207" />
<glyph unicode="&#x200a;" horiz-adv-x="57" />
<glyph unicode="&#x2010;" horiz-adv-x="366" d="M40 207v120h274v-120h-274z" />
<glyph unicode="&#x2011;" horiz-adv-x="366" d="M40 207v120h274v-120h-274z" />
<glyph unicode="&#x2012;" horiz-adv-x="366" d="M40 207v120h274v-120h-274z" />
<glyph unicode="&#x2013;" horiz-adv-x="532" d="M50 220v110h420v-110h-420z" />
<glyph unicode="&#x2014;" horiz-adv-x="882" d="M50 220v110h770v-110h-770z" />
<glyph unicode="&#x2018;" horiz-adv-x="278" d="M40 485q0 35 10 64q5 18 30.5 64t47.5 77h108q-17 -23 -46 -73t-35 -71q29 -3 50.5 -27t21.5 -61t-25.5 -63t-62.5 -26q-50 0 -76 38q-23 32 -23 78z" />
<glyph unicode="&#x2019;" horiz-adv-x="278" d="M30 383q17 23 46 73t35 71q-29 3 -50.5 27t-21.5 61t25.5 63t62.5 26q50 0 76 -38q23 -32 23 -78q0 -35 -10 -64q-5 -18 -30.5 -64t-47.5 -77h-108z" />
<glyph unicode="&#x201a;" horiz-adv-x="278" d="M30 -143q17 23 46 73t35 71q-29 3 -50.5 27t-21.5 61t25.5 63t62.5 26q50 0 76 -38q23 -32 23 -78q0 -35 -10 -64q-5 -18 -30.5 -64t-47.5 -77h-108z" />
<glyph unicode="&#x201c;" horiz-adv-x="508" d="M40 485q0 35 10 64q5 18 30.5 64t47.5 77h108q-17 -23 -46 -73t-35 -71q29 -3 50.5 -27t21.5 -61t-25.5 -63t-62.5 -26q-50 0 -76 38q-23 32 -23 78zM270 485q0 35 10 64q5 18 30.5 64t47.5 77h108q-17 -23 -46 -73t-35 -71q29 -3 50.5 -27t21.5 -61t-25.5 -63t-62.5 -26 q-50 0 -76 38q-23 32 -23 78z" />
<glyph unicode="&#x201d;" horiz-adv-x="508" d="M30 383q17 23 46 73t35 71q-29 3 -50.5 27t-21.5 61t25.5 63t62.5 26q50 0 76 -38q23 -32 23 -78q0 -35 -10 -64q-5 -18 -30.5 -64t-47.5 -77h-108zM260 383q17 23 46 73t35 71q-29 3 -50.5 27t-21.5 61t25.5 63t62.5 26q50 0 76 -38q23 -32 23 -78q0 -35 -10 -64 q-5 -18 -30.5 -64t-47.5 -77h-108z" />
<glyph unicode="&#x201e;" horiz-adv-x="508" d="M30 -143q17 23 46 73t35 71q-29 3 -50.5 27t-21.5 61t25.5 63t62.5 26q50 0 76 -38q23 -32 23 -78q0 -35 -10 -64q-5 -18 -30.5 -64t-47.5 -77h-108zM260 -143q17 23 46 73t35 71q-29 3 -50.5 27t-21.5 61t25.5 63t62.5 26q50 0 76 -38q23 -32 23 -78q0 -35 -10 -64 q-5 -18 -30.5 -64t-47.5 -77h-108z" />
<glyph unicode="&#x202f;" horiz-adv-x="207" />
<glyph unicode="&#x2039;" horiz-adv-x="329" d="M30 238v60l237 155v-129l-106 -55l106 -55v-132z" />
<glyph unicode="&#x203a;" horiz-adv-x="329" d="M50 82v129l106 55l-106 55v132l237 -156v-60z" />
<glyph unicode="&#x205f;" horiz-adv-x="259" />
<glyph unicode="&#x20ac;" horiz-adv-x="631" d="M40 227l10 90h78q-1 12 -1 37q0 22 1 33h-72l10 90h72q24 118 94 178.5t175 60.5q98 0 172 -34v-176q-79 58 -142 58q-79 0 -110 -87h179l-10 -90h-186q-1 -11 -1 -33q0 -25 1 -37h180l-10 -90h-153q32 -87 110 -87q76 0 142 58v-176q-65 -34 -172 -34q-105 0 -174.5 61 t-93.5 178h-99z" />
<glyph unicode="&#xe000;" horiz-adv-x="512" d="M0 0v500h500v-500h-500z" />
</font>
</defs>
</svg>
