<?xml version="1.0" standalone="no"?>
<!DOCTYPE svg PUBLIC "-//W3C//DTD SVG 1.1//EN" "http://www.w3.org/Graphics/SVG/1.1/DTD/svg11.dtd" >
<svg xmlns="http://www.w3.org/2000/svg">
<metadata></metadata>
<defs>
<font id="AlekseiBold" horiz-adv-x="637" >
<font-face units-per-em="1000" ascent="750" descent="-250" />
<missing-glyph horiz-adv-x="196" />
<glyph unicode="&#xfb01;" horiz-adv-x="681" d="M43 5v36l34 8q27 6 33 28.5t6 117.5v230l-70 1v24l70 35q6 102 75 163t186 61q56 0 125 -9q28 -3 48 -22.5t20 -48.5q0 -30 -21.5 -50.5t-50.5 -20.5q-31 0 -51.5 20.5t-20.5 50.5q0 11 1 16l-51 14q-70 0 -102.5 -36t-32.5 -110v-25h224v-2q54 7 106 7q-3 -59 -3 -109 v-326l59 -16v-37l-79 -8h-107l-66 8v36l29 7q26 7 31.5 24.5t5.5 93.5l-1 182q0 42 -1.5 54t-9.5 18q-1 1 -5 2.5t-6 2.5h-177v-368l66 -15v-37l-87 -8h-112z" />
<glyph unicode="&#xfb02;" horiz-adv-x="687" d="M46 5v29l24 6t19 4.5t11.5 8.5t9 14.5t3.5 26.5t3 41v60v234l-70 1v20l70 35q7 103 78.5 163.5t178.5 60.5q39 0 78 -7q59 10 123 10q-6 -52 -6 -120v-533l60 -17v-37l-77 -8h-104l-78 8v36l23 5q15 3 22 6.5t14 10t9 21.5t3 35t1 56v370q0 81 -14 90q-19 13 -61 11v7 q-125 -3 -125 -140v-25h106v-59h-106v-379l65 -16v-29l-86 -8h-112z" />
<glyph unicode="&#xfb03;" horiz-adv-x="998" d="M46 5v29l24 6t19 4.5t11.5 8.5t9 14.5t3.5 26.5t3 41v60v234l-70 1v20l70 35q7 107 85.5 165.5t198.5 58.5q108 0 183 -21q55 21 119 21q58 0 125 -9q29 -3 48.5 -22.5t19.5 -48.5q0 -30 -21 -50.5t-51 -20.5t-51 20.5t-21 50.5q0 11 1 16l-51 14q-69 0 -101.5 -36 t-32.5 -110v-25h223v-2q54 7 107 7q-3 -59 -3 -109v-333l58 -16v-30l-79 -8h-107l-65 8v29l28 7q19 5 25.5 14t9 31t2.5 80v183q0 42 -2 55.5t-10 19.5q-1 1 -5 2.5t-6 2.5h-176v-380l65 -15v-29l-87 -8h-112l-62 8v29q8 2 24.5 6t19 4.5t11.5 8.5t9 14.5t3 26.5t3 40.5 v60.5v234h-200v-379l65 -16v-29l-86 -8h-112zM241 488h165v-21l35 18q6 92 62 151q-64 17 -106 17q-156 0 -156 -145v-20z" />
<glyph horiz-adv-x="1000" />
<glyph horiz-adv-x="1000" />
<glyph unicode=" "  horiz-adv-x="196" />
<glyph unicode="&#x09;" horiz-adv-x="196" />
<glyph unicode="&#xa0;" horiz-adv-x="196" />
<glyph unicode="!" horiz-adv-x="284" d="M51 644l151 10l-42 -466h-67zM55 58q0 30 20.5 50.5t50.5 20.5t51 -20.5t21 -50.5q0 -28 -21.5 -48.5t-50.5 -20.5q-30 0 -50.5 20.5t-20.5 48.5z" />
<glyph unicode="&#x22;" horiz-adv-x="187" d="M5 690l64 5l-22 -188h-36zM96 690l64 5l-22 -188h-35z" />
<glyph unicode="#" horiz-adv-x="633" d="M5 188l14 70h105l27 138h-107l14 69h106l35 182h95l-35 -182h115l35 182h95l-35 -182h112l-14 -69h-112l-26 -138h113l-13 -70h-114l-36 -188h-94l36 188h-116l-36 -188h-94l36 188h-106zM219 258h115l27 138h-116z" />
<glyph unicode="$" horiz-adv-x="421" d="M32 67l4 148h55q12 -76 24 -103q23 -19 58 -25v174l-28 12q-109 44 -109 139q0 112 137 135v86h49v-81h7h8.5h6.5q49 -1 113 -21l-3 -136h-57q-16 74 -24 95q-21 15 -51 18v-157l44 -19q59 -26 82.5 -60t23.5 -82q0 -64 -43 -102.5t-107 -47.5v-96h-49v94q-67 4 -141 29z M121 442q0 -42 52 -69v130q-25 -8 -38.5 -25t-13.5 -36zM222 88q29 6 46.5 25.5t17.5 47.5q0 29 -14 46t-50 33v-152z" />
<glyph unicode="%" horiz-adv-x="830" d="M47 466q0 71 43.5 114t117.5 43q75 0 115.5 -42t40.5 -112t-45.5 -112t-112.5 -42q-77 0 -118 41.5t-41 109.5zM150 468q0 -52 16 -81t42 -29q53 0 53 110q0 113 -57 113q-54 0 -54 -113zM155 0l1 21l224 300l171 327h116l-1 -23l-228 -316l-163 -309h-120zM455 142 q0 71 43 114t117 43q75 0 116 -42t41 -112t-45.5 -112t-112.5 -42q-77 0 -118 41.5t-41 109.5zM557 144q0 -52 16 -81t43 -29q52 0 52 110q0 113 -56 113q-55 0 -55 -113z" />
<glyph unicode="&#x26;" horiz-adv-x="653" d="M44 149q0 55 30 90.5t85 62.5q-46 43 -69.5 82t-23.5 86q0 78 56 121t139 43q71 0 124.5 -35t53.5 -102q0 -86 -116 -152l-23 -14q20 -19 68 -66.5t76 -74.5q20 47 30 110l-62 18v34l60 8h78l62 -8v-34l-58 -14q-18 -6 -23 -28q-19 -74 -47 -125q15 -14 32 -30t38 -36 t33 -31l35 -17l-12 -32l-110 -9q-27 19 -81 66q-73 -71 -168 -71q-90 0 -148.5 38.5t-58.5 119.5zM150 154q0 -43 30.5 -75.5t81.5 -32.5q69 0 120 50q-19 17 -152 143l-32 28q-48 -43 -48 -113zM170 505q0 -55 96 -144q82 62 82 129q0 43 -25 68.5t-69 25.5 q-37 0 -60.5 -22t-23.5 -57z" />
<glyph unicode="'" horiz-adv-x="157" d="M22 509v189l83 10l-23 -199h-60z" />
<glyph unicode="(" horiz-adv-x="274" d="M43 291q0 252 137 416l59 -32q-102 -152 -102 -384q0 -235 103 -381l-61 -32q-60 68 -98 173.5t-38 239.5z" />
<glyph unicode=")" horiz-adv-x="274" d="M20 675l61 32q136 -155 136 -412q0 -253 -137 -417l-59 33q102 152 102 384q0 234 -103 380z" />
<glyph unicode="*" horiz-adv-x="365" d="M14 550l12 36q8 29 34 15l65 -35l30 -33l-6 -19l2 1l15 -11l-6 -43l-33 -65q-13 -26 -36 -9l-31 21q-23 19 -2 39l52 50l38 17l-43 -7l-70 12q-29 5 -21 31zM124 647q-5 29 23 29h38q30 0 24 -29l-12 -72l-22 -39h-20l-20 39zM168 506l15 11l-1 1l-6 18l30 32l65 33 q27 13 35 -13l11 -36q11 -30 -20 -33l-71 -11l-40 9l39 -19l49 -51q21 -21 -1 -37l-31 -23q-24 -17 -37 9l-31 65z" />
<glyph unicode="+" horiz-adv-x="507" d="M54 263v92h146v147h93v-147h146v-92h-146v-148h-93v148h-146z" />
<glyph unicode="," horiz-adv-x="257" d="M52 57q0 28 21 48t51 20t50.5 -19.5t20.5 -55.5q0 -47 -24 -108t-58 -113l-43 25q44 88 47 128l-40 17q-25 18 -25 58z" />
<glyph unicode="-" horiz-adv-x="356" d="M27 264v88h286v-88h-286z" />
<glyph unicode="." horiz-adv-x="249" d="M46 58q0 30 20.5 50.5t50.5 20.5t51 -20.5t21 -50.5q0 -28 -21.5 -48.5t-50.5 -20.5q-30 0 -50.5 20.5t-20.5 48.5z" />
<glyph unicode="/" horiz-adv-x="396" d="M9 -73l287 785h67l-288 -785h-66z" />
<glyph unicode="0" horiz-adv-x="545" d="M29 309q0 150 64 238t172 88q114 0 175.5 -86.5t61.5 -237.5q0 -153 -68 -239.5t-168 -86.5q-99 0 -168 84.5t-69 239.5zM157 316q0 -129 31 -199.5t81 -70.5q104 0 104 255q0 130 -28 203t-84 73q-52 0 -78 -69.5t-26 -191.5z" />
<glyph unicode="1" horiz-adv-x="459" d="M49 533q145 46 236 110h43q-5 -97 -5 -177l-1 -281v-85q2 -22 11.5 -33t31.5 -16l41 -8v-38l-74 -8h-132l-97 8v37l47 11q25 5 34 28.5t9 99.5l2 338q-72 -33 -130 -48z" />
<glyph unicode="2" horiz-adv-x="515" d="M26 8v56q55 55 216 228q64 68 64 145q0 50 -28.5 79t-75.5 29q-94 0 -124 -107l-44 17q18 82 71 129.5t135 47.5q92 0 146 -51t54 -132q0 -116 -126 -220q-109 -90 -195 -166l174 5q54 2 67 47l19 72h63v-179l-81 -10h-262z" />
<glyph unicode="3" horiz-adv-x="495" d="M18 66l8 31q6 25 29.5 28t45.5 -19l56 -59q20 -5 45 -5q59 0 88 35.5t29 85.5q0 39 -21.5 68t-53.5 44h-103v64q93 0 130.5 27.5t37.5 96.5q0 46 -25.5 74.5t-70.5 28.5q-88 0 -112 -119h-60v130l22 11q22 10 34 14.5t35 12.5t47 11.5t49 3.5q93 0 149 -45t56 -118 q0 -55 -35 -95.5t-90 -52.5v-3q68 -11 102.5 -50t34.5 -96q0 -84 -65 -132.5t-176 -48.5q-71 0 -128 16q-35 9 -49.5 21.5t-8.5 39.5z" />
<glyph unicode="4" horiz-adv-x="507" d="M16 193v50q52 88 132 202t148 193h84v-382h7l86 -13v-40l-86 -10h-7v-99q0 -19 5.5 -27t22.5 -13l47 -12v-37l-71 -8h-145l-66 7v37l52 14q20 5 27.5 12.5t7.5 27.5v98h-244zM100 256h161v242q-89 -119 -161 -242z" />
<glyph unicode="5" horiz-adv-x="506" d="M17 68l33 35q53 -56 132 -56q62 0 99 37.5t37 101.5t-40 101.5t-118 37.5q-44 0 -101 -11l26 313h275l85 4l-15 -102h-275l-13 -142q43 10 90 10q97 0 159.5 -52t62.5 -143q0 -119 -96 -177q-63 -37 -156 -37q-119 0 -185 80z" />
<glyph unicode="6" horiz-adv-x="513" d="M26 263q0 70 21 131.5t56 104.5t80 74t92.5 46t93.5 15q56 0 78 -12l-9 -36q-35 2 -57 0q-82 -9 -142.5 -75.5t-71.5 -168.5q46 48 118 48q85 0 134.5 -50t49.5 -135q0 -102 -64.5 -158.5t-152.5 -56.5q-31 0 -60.5 7.5t-60.5 27t-53.5 49.5t-37 78.5t-14.5 110.5z M164.5 253.5q0.5 -20.5 0.5 -22.5q1 -90 26 -137.5t66 -47.5q35 0 55.5 38.5t20.5 104.5q0 126 -79 126q-53 0 -89 -39q-1 -2 -0.5 -22.5z" />
<glyph unicode="7" horiz-adv-x="495" d="M24 531v96h438v-42l-286 -594l-111 7l284 533h-202q-17 0 -28 -4t-17.5 -16.5t-8.5 -20.5t-5.5 -32t-5.5 -35h-53z" />
<glyph unicode="8" horiz-adv-x="506" d="M34 146q0 103 123 157q-104 57 -104 165q0 74 55 120t137 46q74 0 129 -36t55 -105q0 -85 -102 -143l5 -3q70 -38 94 -80t24 -99q0 -79 -60.5 -131.5t-145.5 -52.5q-92 0 -151 41t-59 121zM141 149q0 -45 29 -78t76 -33q46 0 75.5 30t29.5 71q0 56 -73 95q-25 14 -75 44 q-62 -52 -62 -129zM156 502q0 -50 67 -88l58 -36q56 47 56 113q0 39 -24.5 65t-70.5 26q-38 0 -62 -21.5t-24 -58.5z" />
<glyph unicode="9" horiz-adv-x="510" d="M28 419q0 103 64 158.5t153 55.5q29 0 57.5 -7.5t59.5 -27t54.5 -49t38.5 -78.5t15 -111q0 -78 -23 -142.5t-59 -105.5t-82.5 -69.5t-91.5 -40.5t-88 -12q-60 0 -77 10l9 38q30 -4 60 -1q84 9 142.5 76t69.5 169q-44 -46 -119 -46q-83 0 -133 49t-50 134zM161 434 q0 -57 21.5 -92.5t60.5 -35.5q52 0 87 38q2 17 2 48q0 90 -25.5 138t-65.5 48q-37 0 -58.5 -39.5t-21.5 -104.5z" />
<glyph unicode=":" horiz-adv-x="255" d="M51 58q0 30 20.5 50.5t50.5 20.5t51 -20.5t21 -50.5q0 -28 -21.5 -48.5t-50.5 -20.5q-30 0 -50.5 20.5t-20.5 48.5zM51 440q0 30 20.5 50.5t50.5 20.5t51 -20.5t21 -50.5q0 -28 -21.5 -48.5t-50.5 -20.5q-30 0 -50.5 20.5t-20.5 48.5z" />
<glyph unicode=";" horiz-adv-x="262" d="M59 440q0 30 20.5 50.5t50.5 20.5t51 -20.5t21 -50.5q0 -28 -21.5 -48.5t-50.5 -20.5q-30 0 -50.5 20.5t-20.5 48.5zM61 57q0 28 21 48t51 20t50.5 -19.5t20.5 -55.5q0 -47 -24 -108t-58 -113l-43 25q44 88 47 128l-40 17q-25 18 -25 58z" />
<glyph unicode="&#x3c;" horiz-adv-x="536" d="M59 236v78l368 142v-91l-252 -92l252 -93v-89z" />
<glyph unicode="=" horiz-adv-x="551" d="M41 180v83h440v-83h-440zM41 333v83h440v-83h-440z" />
<glyph unicode="&#x3e;" horiz-adv-x="460" d="M33 91v89l253 93l-253 95v88l368 -145v-78z" />
<glyph unicode="?" horiz-adv-x="474" d="M21 516q-22 23 5 48l38 35h1q21 21 67 41.5t95 20.5q93 0 146 -43t53 -110q0 -14 -2.5 -27.5t-5 -24t-9.5 -23.5t-10.5 -20t-14.5 -20t-14 -17t-17 -17t-16 -14.5t-18 -14.5l-16 -14q-41 -31 -57 -61t-16 -70h-75q-4 53 8.5 94t34 67t43 48.5t37.5 52t16 63.5 q0 41 -23 66t-69 25q-27 0 -51 -11l-32 -86q-10 -26 -33.5 -30.5t-37.5 12.5zM123 58q0 30 20.5 50.5t50.5 20.5t51 -20.5t21 -50.5q0 -28 -21.5 -48.5t-50.5 -20.5q-30 0 -50.5 20.5t-20.5 48.5z" />
<glyph unicode="@" horiz-adv-x="796" d="M50 192q0 157 109 262.5t258 105.5q143 0 233.5 -84t90.5 -217q0 -69 -19.5 -122t-50 -81.5t-63 -43t-64.5 -14.5q-37 0 -59.5 20.5t-32.5 68.5q-52 -91 -109 -92q-56 -1 -88.5 50t-32.5 131q0 29 6 58t21 59t36.5 53.5t56 38t76.5 14.5q33 0 117 -8l-3 -272 q2 -37 15 -50.5t32 3.5q33 14 52.5 66.5t19.5 114.5q0 105 -62.5 168.5t-177.5 63.5q-114 0 -192 -84.5t-78 -205.5q0 -136 75.5 -205t192.5 -69l84 3l2 -58q-33 -11 -95 -11t-120.5 17.5t-111.5 54t-85.5 105t-32.5 160.5zM324 201q0 -60 12.5 -91t33.5 -31q25 0 62 55 q0 68 2 204q-36 5 -68 -12q-42 -30 -42 -125z" />
<glyph unicode="A" horiz-adv-x="661" d="M-15 5v37l41 9q26 5 40 42l199 568h123l189 -564q8 -22 16.5 -31t24.5 -13l40 -10v-38l-65 -8h-123l-94 8v36l69 15l-52 170h-205l-54 -170l67 -15v-36l-87 -8h-70zM206 282h169l-66 215q-2 5 -18 64q-7 -30 -17 -64z" />
<glyph unicode="B" horiz-adv-x="611" d="M33 5v37l49 12q28 7 28 33q2 33 2 106v253q0 77 -2 114q-1 25 -28 32l-49 11v37l71 8h170q133 0 198.5 -37.5t65.5 -127.5q0 -60 -41 -96t-103 -44v-3q164 -22 164 -160q0 -95 -71 -139t-176 -44h-210zM247 58h42q129 1 129 113q0 73 -35 104t-106 31h-30v-248zM247 359 l30 1q129 3 129 115q0 53 -31.5 81t-85.5 28h-40q-2 -58 -2 -153v-72z" />
<glyph unicode="C" horiz-adv-x="590" d="M25 315q0 150 88 248.5t235 98.5q88 0 187 -32v-75l-5 -104h-70l-4 35q-9 67 -34 92q-21 25 -79 25q-78 0 -125 -70t-47 -203q0 -134 58.5 -204t140.5 -70q37 0 53 9q22 10 28 52l16 87h67l4 -101v-69q-27 -20 -79 -35t-112 -15q-144 0 -233 84t-89 247z" />
<glyph unicode="D" horiz-adv-x="682" d="M32 5v37l50 12q24 6 26 34q2 36 2 123v226q0 97 -2 123q-1 26 -28 32l-46 11v37l73 8q67 1 174 1q174 0 266.5 -79t92.5 -236q0 -162 -98 -249.5t-265 -87.5h-174zM248 212q0 -88 2 -149h45q99 1 150 68t51 184q0 128 -52 199q-51 70 -148 70h-3l-44 -1q-1 -47 -1 -152 v-219z" />
<glyph unicode="E" horiz-adv-x="597" d="M33 5v36l49 13q27 6 28 34q2 54 2 102v257q0 76 -3 113q-1 25 -27 32l-47 11v36l72 10h338q45 0 88 3v-175h-67l-16 71q-6 25 -22 33t-63 8h-118v-223h98q21 0 28 33l12 55h54v-249h-53l-14 63q-7 32 -29 32h-96v-83q0 -99 2 -157h168q34 0 41 41l15 77h65v-180 q-78 2 -119 2h-326z" />
<glyph unicode="F" horiz-adv-x="568" d="M38 5v36l49 13q16 4 21.5 11t6.5 23q2 21 2 106v258q0 72 -2 107q-1 26 -28 33l-49 11v37l78 9h362q1 0 55 3v-175h-65l-16 73q-5 25 -20 32t-64 7h-116v-228h90q20 0 28 32l12 56h54v-249h-53l-14 62q-8 32 -29 32h-88v-122q0 -84 1 -112l85 -17v-38l-101 -7h-140z" />
<glyph unicode="G" d="M24 317q0 149 90 247t238 98q89 0 188 -32v-75l-5 -104h-70l-5 35q-8 63 -33 92q-22 24 -82 24q-78 0 -126 -70t-48 -201q0 -135 57.5 -205t138.5 -70q36 0 65 7v139q0 34 -33 40l-46 11v39l75 6h127l61 -8v-40l-30 -9q-16 -4 -21.5 -12.5t-5.5 -27.5v-174 q-103 -43 -212 -43q-149 0 -236 85t-87 248z" />
<glyph unicode="H" horiz-adv-x="794" d="M32 5v36l49 13q15 4 20.5 10.5t6.5 22.5q3 30 3 103v258q0 67 -1 106q-1 19 -6.5 26.5t-20.5 10.5l-50 12v37l76 8h135l71 -8v-36l-67 -18v-220h284v219l-68 19v36l72 8h138l74 -8v-36l-49 -12q-15 -4 -20.5 -10.5t-6.5 -25.5q-3 -81 -3 -100v-259q0 -64 2 -110 q1 -27 26 -33l49 -12v-37l-73 -8h-137l-72 8v36l68 19v241h-284v-241l68 -18v-37l-74 -8h-139z" />
<glyph unicode="I" horiz-adv-x="372" d="M32 5v37l50 12q15 4 20.5 10.5t6.5 23.5q2 29 2 105v248q0 79 -2 119q-1 25 -27 32l-49 12v36l75 8h144l74 -8v-36l-50 -13q-14 -3 -19.5 -10t-6.5 -24q-2 -60 -2 -115v-248q0 -59 2 -106q0 -15 6 -22t21 -12l49 -12v-37l-76 -8h-144z" />
<glyph unicode="J" horiz-adv-x="430" d="M19 18v44q-1 22 17 32q8 3 16 3q12 0 26 -8l79 -47l9 6q15 14 20 50.5t5 139.5v208q0 75 -3 114q-1 15 -6 21t-20 10l-52 13v36l73 8h154l67 -8v-36l-48 -13q-14 -3 -19.5 -10t-6.5 -24q-2 -48 -2 -101v-200q0 -122 -40.5 -186.5t-143.5 -75.5q-30 -2 -45 -2l-35 -3h-7 q-14 0 -24 6q-13 8 -14 23z" />
<glyph unicode="K" horiz-adv-x="659" d="M33 5v36l49 13q15 4 20.5 10.5t6.5 22.5q3 45 3 103v258q0 28 -2 106q0 18 -5.5 26t-20.5 11l-50 12v37l76 8h134l70 -8v-36l-66 -17v-217h40l149 188q12 15 8.5 26.5t-21.5 15.5l-22 5v35l95 9l77 -2l52 -7v-35q-51 -4 -96 -56q-94 -106 -145 -162q24 -32 54.5 -81 t74 -123t58.5 -99q14 -26 47 -41v-38l-145 -7q-27 21 -47 65l-142 250h-37v-253l62 -18v-37l-68 -8h-138z" />
<glyph unicode="L" horiz-adv-x="564" d="M32 6v36l50 12q15 4 21 10.5t7 22.5q2 52 2 101v259q0 74 -3 115q-1 24 -26 30l-49 11v37l75 8h145l75 -8v-36l-51 -12q-27 -5 -28 -35q-2 -84 -2 -110v-386q15 -1 53 -1h72q40 0 58.5 12t24.5 47l12 71h63v-192l-121 2h-308z" />
<glyph unicode="M" horiz-adv-x="948" d="M25 5v36l55 15q24 6 27 40l39 454v6q0 28 -25 34l-45 11v39l66 8h183l1 -35l-2.5 -2.5t-4 -7t0.5 -11.5l135 -469l161 474l5 51h177l70 -8v-36q-50 -10 -61 -18q-20 -14 -20 -49v-10l32 -423q3 -42 29 -49l51 -13v-37l-73 -8h-130l-85 8v35l52 13q23 6 23 42v9l-19 303 l-8 125q-34 -113 -39 -129l-145 -409h-103l-132 414q-9 28 -31 138q-2 -63 -6 -130l-27 -357l75 -18v-36l-81 -8h-82z" />
<glyph unicode="N" horiz-adv-x="715" d="M31 5v37l51 13q12 3 17 8t7 16q4 29 4 113v328q0 47 -39 67l-38 17v36l63 8h110l271 -381q29 -41 59 -94v293q0 78 -1 119l-72 18v37l83 8h64l68 -8v-37l-43 -11q-25 -5 -26 -34q-3 -72 -3 -116v-442l-100 -7l-324 470v-403l68 -18v-37l-72 -8h-88z" />
<glyph unicode="O" horiz-adv-x="655" d="M23 324q0 146 78 243t217 97q147 0 223.5 -93.5t76.5 -245.5q0 -148 -78 -245t-220 -97q-140 0 -218.5 92t-78.5 249zM170 329q0 -132 39.5 -207t115.5 -75q67 0 106 68t39 196q0 290 -155 290q-73 0 -109 -74t-36 -198z" />
<glyph unicode="P" horiz-adv-x="558" d="M33 5v37l49 12q15 4 21 10.5t7 23.5q2 60 2 105v254q0 54 -2 112q-1 26 -27 33l-50 12v36l77 8h147q149 0 218.5 -46t69.5 -146q0 -83 -62 -139t-167 -56q-43 0 -68 2v-58q0 -50 0.5 -93t0.5 -50l75 -19v-38l-74 -8h-146zM248 310h39q61 0 91.5 38t30.5 103 q0 71 -31.5 103t-95.5 32q-9 0 -20 -0.5t-12 -0.5q-2 -73 -2 -174v-101z" />
<glyph unicode="Q" horiz-adv-x="655" d="M23 324q0 146 78 243t217 97q147 0 223.5 -93.5t76.5 -245.5q0 -125 -56.5 -215.5t-160.5 -116.5q28 -12 35 -16q24 -14 145 -104q14 -9 47 -17v-48l-147 -14q-27 19 -99 99.5t-95 91.5q-125 11 -194.5 101t-69.5 238zM170 329q0 -132 39.5 -207t115.5 -75q67 0 106 68 t39 196q0 290 -155 290q-73 0 -109 -74t-36 -198z" />
<glyph unicode="R" horiz-adv-x="626" d="M34 5v37l49 12q15 3 21 9.5t7 23.5q2 46 2 119v210q0 96 -3 144q-1 15 -6.5 21.5t-20.5 10.5l-49 11v37l75 8h181q138 0 204 -42.5t66 -128.5q0 -57 -36 -103t-96 -68q17 -23 29 -44q91 -160 102 -179q19 -33 49 -39v-39l-156 -8q-16 18 -25 37l-129 254h-51v-83l1 -147 l60 -16v-37l-77 -8h-129zM247 342l90 1q38 11 61.5 44t23.5 78q0 55 -34 87t-89 32q-16 0 -32.5 -0.5t-17.5 -0.5q-2 -92 -2 -175v-66z" />
<glyph unicode="S" horiz-adv-x="526" d="M36 34v179h69q8 -88 47 -129q35 -34 92 -34q48 0 76.5 27.5t28.5 72.5q0 73 -79 106l-79 33q-73 32 -111.5 75t-38.5 111q0 89 61.5 139.5t160.5 50.5q89 0 170 -31l24 -8v-169h-67q-13 87 -45 121q-28 29 -84 29q-44 0 -73 -25.5t-29 -67.5q0 -64 78 -97l96 -41 q74 -31 106 -74.5t32 -109.5q1 -96 -67 -150q-66 -53 -165 -53h-4q-92 1 -180 39z" />
<glyph unicode="T" horiz-adv-x="622" d="M18 651q36 -3 70 -3h440q34 0 70 3l-2 -171h-65q-16 81 -39 97t-119 17v-131v-270q0 -89 1 -107q1 -14 7 -21t22 -11l47 -12v-37l-78 -8h-143l-72 8v36l50 13q15 4 20.5 10.5t6.5 22.5q2 46 2 105v271q0 86 -1 131q-27 -1 -44.5 -1.5t-33.5 -3t-25 -3.5t-17.5 -7.5 t-11.5 -10t-7 -15t-5 -18t-4.5 -25t-5.5 -30.5h-61z" />
<glyph unicode="U" horiz-adv-x="656" d="M8 604v36l70 8h133l70 -6v-38l-70 -14q-1 -50 -1 -148v-195q0 -128 41 -168q36 -34 98 -34q136 0 136 184v230q0 30 -2 130l-65 15v36l87 8h61l68 -8v-36l-40 -11q-14 -5 -20 -12.5t-7 -24.5q-2 -26 -2 -105v-211q0 -129 -64.5 -193t-168.5 -64q-130 0 -194.5 61 t-64.5 197v194q0 71 -2 119q-2 38 -25 42z" />
<glyph unicode="V" horiz-adv-x="655" d="M-11 602v39l66 8h147l72 -8v-38l-69 -15l113 -362q20 -67 31 -129q19 72 39 130l115 362l-65 13v39l74 8h83l60 -8v-38l-41 -10q-28 -7 -41 -43l-200 -568h-111l-193 564q-12 38 -37 45z" />
<glyph unicode="W" horiz-adv-x="984" d="M-11 603v37l66 8h112l112 -8v-37l-72 -14l90 -365q16 -67 27 -132q8 36 32 131l109 420l99 1l104 -419q22 -88 29 -141q5 28 34 139l100 366l-65 13v38l102 8h51l65 -8v-37l-47 -11q-23 -6 -33 -38l-171 -573h-130l-88 351q-19 68 -27 102q-7 -32 -25 -101l-97 -352h-139 l-159 567q-11 36 -34 43z" />
<glyph unicode="X" horiz-adv-x="640" d="M2 5v34l37 8q25 7 45 36l159 228l-155 249q-18 28 -48 38l-23 8v34l57 8h114l103 -8v-36l-63 -14l113 -179l108 180l-64 12v37l73 8h86l60 -8v-34l-32 -8q-36 -9 -63 -50l-132 -194l164 -261q22 -35 51 -45l25 -8v-35l-68 -8h-106l-106 8v36l66 14l-125 201l-124 -204 l69 -10v-37l-74 -8h-83z" />
<glyph unicode="Y" horiz-adv-x="607" d="M4 602v38l65 8h146l75 -8v-37l-67 -15l79 -180q19 -42 35 -88l41 88l88 181l-64 14v37l78 8h55l68 -8v-37l-39 -10q-28 -9 -41 -38l-148 -296v-60q0 -73 2 -109q0 -28 28 -34l48 -13v-38l-71 -8h-148l-73 8v38l45 12q17 5 23.5 12t7.5 22q2 28 2 87v69l-157 316 q-15 26 -37 32z" />
<glyph unicode="Z" horiz-adv-x="547" d="M14 5v20l28 47l320 520l-227 -1l-23 -137h-77l5 185l80 9h281l109 -11v-26l-20 -35l-316 -522l226 2l32 138l69 2l2 -187l-70 -11h-313z" />
<glyph unicode="[" horiz-adv-x="310" d="M60 -144v899h190v-67h-109v-764h109v-68h-190z" />
<glyph unicode="\" horiz-adv-x="396" d="M13 706h88l279 -819h-90z" />
<glyph unicode="]" horiz-adv-x="310" d="M38 -77h109v764h-109v68h189v-899h-189v67z" />
<glyph unicode="^" horiz-adv-x="456" d="M25 277l156 368h78l153 -368h-89l-104 260l-106 -260h-88z" />
<glyph unicode="_" horiz-adv-x="487" d="M30 -26h408v-86h-408v86z" />
<glyph unicode="`" horiz-adv-x="514" d="M81 650.5q2 8.5 11 8.5h108l125 -107q5 -4 3 -10t-7 -6h-61l-172 101q-9 5 -7 13.5z" />
<glyph unicode="a" horiz-adv-x="520" d="M34 107q0 100 114 132q63 18 149 27q0 12 0.5 35.5t0.5 36.5q0 52 -19.5 75.5t-63.5 23.5q-22 0 -40 -10l6 -37q1 -6 1 -11q0 -16 -9 -30q-12 -18 -41 -18h-66l-12 55l17 19q22 26 55 46q66 45 145 45q80 0 118 -37t38 -117q0 -34 -0.5 -71.5t-1.5 -82.5t-1 -71v-9 q0 -25 5 -34q6 -11 32 -11h31v-42l-135 -31l-48 61q-54 -64 -141 -64q-65 0 -99.5 33.5t-34.5 86.5zM155 127q0 -62 71 -62q39 0 72 24l2 130q-61 -10 -96 -23q-49 -19 -49 -69z" />
<glyph unicode="b" horiz-adv-x="579" d="M12 646l3 39q93 27 205 27q-7 -72 -7 -125v-146q52 56 129 56q84 0 138.5 -64t54.5 -180q0 -72 -22.5 -125.5t-60 -82.5t-78 -42.5t-83.5 -13.5q-52 0 -88 11l-120 5q3 31 3 148v379q0 85 -11 102q-18 13 -47 13q-8 0 -16 -1zM213 60q28 -12 68 -12q55 0 88.5 47.5 t33.5 149.5q0 94 -31.5 137.5t-79.5 43.5q-42 0 -79 -30v-336z" />
<glyph unicode="c" horiz-adv-x="469" d="M31 235q0 126 69 194.5t171 68.5q69 0 122 -37l20 -9q23 -11 23 -33q0 -9 -4 -21l-13 -38q-8 -24 -35 -26q-2 0 -3 -1q-25 0 -41 23l-63 87h-1q-53 0 -83 -49t-30 -136q0 -77 35 -127t95 -50q80 0 125 66l30 -17q-54 -144 -193 -144q-104 0 -164 69t-60 180z" />
<glyph unicode="d" horiz-adv-x="579" d="M30 233q0 72 22.5 125.5t59.5 82.5t77.5 42.5t83.5 13.5q41 0 77 -9v44q0 80 -10 103q-19 11 -64 11l3 39q112 27 205 27q-7 -86 -7 -126v-468q0 -32 5 -41.5t22 -11.5l37 -6v-40l-146 -25l-35 53q-50 -57 -136 -57q-85 0 -139.5 63.5t-54.5 179.5zM162 241 q0 -93 31.5 -137t79.5 -44q45 0 77 26v341q-28 11 -65 11q-55 0 -89 -47t-34 -150z" />
<glyph unicode="e" horiz-adv-x="502" d="M43 239q0 117 68 188.5t174 71.5q90 -1 140 -57q46 -52 46 -113v-10l-3 -38q-2 -26 -34 -26h-268v-8q0 -71 37 -118.5t102 -47.5q90 0 135 61l29 -17q-28 -69 -79.5 -104.5t-115.5 -35.5q-109 0 -170 69.5t-61 184.5zM166 309l191 5l-1 18q-1 48 -24.5 75.5t-64.5 27.5 q-36 0 -71 -22q-25 -45 -30 -104z" />
<glyph unicode="f" horiz-adv-x="357" d="M28 5v36l22 5q26 5 35 14t12.5 32t3.5 83v250l-69 1v24l69 35q5 84 53 150t135 74q9 1 27 1l1 1q58 -2 70 -6q31 -8 31 -35v-23q0 -30 -22 -42q-10 -6 -19 -6q-11 0 -20 7l-80 51q-24 -12 -37 -47t-13 -80v-42h105v-63h-105v-367l71 -17v-36l-93 -8h-102z" />
<glyph unicode="g" horiz-adv-x="528" d="M6 -125q0 55 40 87.5t91 42.5q-48 20 -48 66t65 76q-55 19 -86 63t-31 100q0 77 57.5 129.5t144.5 52.5q59 0 108 -27l1 20q2 43 46 43q8 0 17 -1l114 -22l7 -41l-116 -43l-13 -4q37 -48 37 -108q0 -76 -57 -126t-145 -50q-18 0 -27 1q-13 -15 -13 -29q0 -25 42 -28 q118 -8 150 -15q99 -23 107 -106q1 -9 1 -18q0 -75 -74 -132t-197 -57q-100 0 -160.5 32t-60.5 94zM126 -103q0 -87 123 -87q58 0 96 25.5t38 71.5q1 26 -17.5 42.5t-57.5 19.5l-125 9q-57 -32 -57 -81zM158 310q0 -60 24.5 -94t61.5 -34q78 0 78 128q0 60 -24 94t-61 34 q-36 0 -57.5 -33t-21.5 -95z" />
<glyph unicode="h" horiz-adv-x="625" d="M28 646l3 39q108 27 205 27q-7 -51 -7 -120v-177q29 33 71 57t86 24q145 0 145 -157v-279l58 -18v-37l-65 -8h-99l-80 8v36l29 9q19 6 23.5 21t4.5 80v148q0 58 -16 85t-63 27q-53 0 -93 -47v-304l55 -17v-38l-65 -8h-108l-81 8v36l23 6q18 4 26 8t14.5 17.5t7.5 34.5 t1 65v359q0 84 -12 104q-19 12 -49 12q-7 0 -14 -1z" />
<glyph unicode="i" horiz-adv-x="336" d="M32 428l2 43q129 22 204 22q-3 -59 -3 -109v-325l60 -17v-37l-76 -8h-112l-73 8v37l37 9q26 7 31 23t5 92v182q0 38 -2 51t-10 17q-22 12 -51 12h-12zM94 643q0 29 21 50t51 21q29 0 50.5 -21t21.5 -50q0 -30 -21.5 -51t-50.5 -21q-31 0 -51.5 20.5t-20.5 51.5z" />
<glyph unicode="j" horiz-adv-x="301" d="M18 428l3 43q127 22 203 22q-4 -51 -4 -107v-310q0 -155 -36 -227q-35 -71 -130 -93l-24 24l19 12q30 26 37 80.5t7 191.5v312q0 32 -14 41q-18 12 -48 12q-6 0 -13 -1zM78 643q0 29 21 50t51 21q29 0 50.5 -21t21.5 -50q0 -30 -21.5 -51t-50.5 -21q-31 0 -51.5 20.5 t-20.5 51.5z" />
<glyph unicode="k" horiz-adv-x="575" d="M28 646l3 39q101 27 205 27q-6 -52 -6 -120v-302h27q8 0 13 7q94 107 103 128q-14 7 -56 10l2 41l112 8h46l70 -11v-37q-70 -8 -104 -45l-88 -96q37 -25 142 -201q14 -24 27.5 -34t35.5 -19v-36l-145 -8q-13 9 -31 36q-31 46 -120 199h-34v-173l60 -17v-37l-77 -8h-104 l-78 8v36l23 5q15 3 22 6.5t14 10t9 21.5t3 35t1 56v370q0 81 -14 90q-16 11 -50 11h-11z" />
<glyph unicode="l" horiz-adv-x="337" d="M28 646l3 39q101 27 205 27q-6 -52 -6 -120v-533l60 -17v-37l-77 -8h-104l-78 8v36l23 5q15 3 22 6.5t14 10t9 21.5t3 35t1 56v370q0 81 -14 90q-16 11 -50 11h-11z" />
<glyph unicode="m" horiz-adv-x="927" d="M32 428l3 43q122 22 197 22v-37q0 -16 -5 -51q28 37 72.5 64t92.5 27q109 0 135 -88q29 35 72.5 61.5t90.5 26.5q144 0 144 -157v-279l60 -18v-37l-68 -8h-97l-79 8v37l29 8q10 3 14.5 6t7.5 18t3.5 37t0.5 70v118q0 58 -16.5 85t-63.5 27q-50 0 -90 -45q0 -4 0.5 -13 t0.5 -14v-279l53 -17v-38l-68 -8h-91l-79 8v37l29 8q19 5 23.5 25t4.5 106v118q0 58 -16.5 85t-63.5 27q-52 0 -92 -47v-304l55 -17v-38l-86 -8h-102l-68 8v37l41 9q22 5 27 20.5t5 73.5l-1 215q0 42 -11 56q-24 12 -52 12h-12z" />
<glyph unicode="n" horiz-adv-x="631" d="M32 428l4 43q119 22 196 22v-37q0 -16 -5 -51q28 37 72.5 64t92.5 27q145 0 145 -157v-279l58 -18v-37l-65 -8h-99l-80 8v36l29 9q19 6 23.5 21t4.5 80v148q0 58 -16 85t-63 27q-53 0 -93 -47v-304l55 -18v-37l-79 -8h-105l-71 8v36l41 11q21 5 26 21t5 78v209 q0 41 -12 56q-24 12 -52 12h-12z" />
<glyph unicode="o" horiz-adv-x="553" d="M30 237q0 117 62.5 189.5t176.5 72.5q116 0 178 -68.5t62 -183.5q0 -122 -63.5 -193t-177.5 -71q-112 0 -175 71t-63 183zM164 244q0 -100 29.5 -153t77.5 -53q50 0 76.5 51t26.5 146q0 207 -107 207q-50 0 -76.5 -52t-26.5 -146z" />
<glyph unicode="p" horiz-adv-x="588" d="M22 428l3 44q123 23 194 23v-36q0 -16 -3 -28q56 67 136 67q84 0 138 -64t54 -180q0 -72 -22.5 -126t-59.5 -82.5t-77 -42t-83 -13.5q-48 0 -79 8v-189l67 -17v-37l-73 -9h-122l-71 8v36l25 6q23 4 31.5 12.5t12 32t3.5 83.5v405q0 79 -12 88q-18 13 -43 13q-9 0 -19 -2z M223 60q27 -11 67 -11q55 0 88 47t33 150q0 94 -31 137.5t-80 43.5q-40 0 -77 -33v-334z" />
<glyph unicode="q" horiz-adv-x="566" d="M29 233q0 72 22.5 125.5t60 82.5t78 42.5t83.5 13.5q53 0 92 -14l117 -9l4 -14q-8 -44 -8 -129v-477q0 -31 1 -47l64 -16v-35l-68 -10h-133l-75 10v34l43 9q26 6 33.5 19.5t7.5 48.5v171q-50 -48 -127 -48q-85 0 -140 63.5t-55 179.5zM162 241q0 -93 31 -137t80 -44 q45 0 78 27v260q0 58 -1 79q-30 12 -65 12q-55 0 -89 -47t-34 -150z" />
<glyph unicode="r" horiz-adv-x="425" d="M36 428l3 43q112 22 194 22v-36q0 -21 -5 -64l45 67l2 21l24 3l13 7l2 -5l48 6q10 2 17 1q13 1 21 -3q14 -6 13 -27l-2 -39q-1 -26 -21 -34q-10 -4 -21 -4q-12 0 -25 5l-49 15l-57 -50v-297l70 -17v-37l-88 -8h-109l-72 8v36l36 9q26 7 31 23.5t5 92.5v182q0 61 -11 68 q-21 12 -54 12h-10z" />
<glyph unicode="s" horiz-adv-x="463" d="M47 21v142h64q12 -125 102 -125q34 0 56.5 16.5t22.5 49.5q0 45 -54 69l-79 32q-110 40 -110 140q0 69 50 111t131 42t152 -33q1 0 4.5 -1.5t5.5 -2.5v-133h-71q-3 40 -27 79t-69 39q-25 0 -46.5 -15t-21.5 -48q0 -25 13.5 -39.5t44.5 -26.5l86 -36q61 -25 84.5 -56 t23.5 -81q0 -68 -52.5 -113t-138.5 -45q-87 0 -171 35z" />
<glyph unicode="t" horiz-adv-x="369" d="M26 424l2 47q22 0 42 14.5t32 31t29 43.5t24 37l62 3l-5 -114h123v-61h-124q0 -52 -1 -149t-1 -150q0 -44 11 -56q8 -9 31 -9q7 0 16 1q36 4 53 5l12 -46q-95 -34 -153 -34q-94 0 -94 102l4 335h-63z" />
<glyph unicode="u" horiz-adv-x="617" d="M17 429l4 43q102 21 198 21q-2 -32 -2 -96q0 -190 1 -234q1 -48 19 -72t59 -24q53 0 90 48v204q0 77 -5 88q-2 6 -7 10q-20 12 -58 12l3 44q132 20 199 20q-2 -28 -2 -78v-315q0 -38 20 -45l36 -12v-38l-169 -11l-16 73q-62 -82 -148 -82q-67 0 -109 38.5t-42 119.5 q0 19 0.5 83t0.5 92v29q1 33 -1 45q-2 18 -13 25q-15 13 -43 13q-7 0 -15 -1z" />
<glyph unicode="v" horiz-adv-x="511" d="M-13 437v39l63 8h98l92 -8v-39l-64 -11l78 -239q10 -31 22 -84q9 42 24 84l87 240l-56 10v39l66 8h59l61 -8v-39l-29 -6q-23 -5 -32 -30l-158 -409h-94l-153 409q-9 23 -26 28z" />
<glyph unicode="w" horiz-adv-x="759" d="M-13 438v38l76 8h99l79 -8v-38l-66 -12l64 -245l15 -65q5 21 20 68l94 299h77l82 -302q13 -52 16 -67q10 39 19 69l70 245l-53 9v40l68 7h61l56 -7v-41l-30 -6q-24 -6 -31 -28l-130 -410h-104l-66 237q-1 4 -8.5 32t-11.5 45q-10 -38 -21 -74l-77 -240h-112l-123 412 q-6 22 -29 26z" />
<glyph unicode="x" horiz-adv-x="525" d="M-1 4v40l19 3q45 9 60 28l119 155l-141 187q-10 14 -37 18l-13 3v38l68 8h88l89 -8v-37l-51 -11l77 -114l27 35l56 76l-49 12v39l70 8h57l61 -8v-39l-16 -4q-44 -9 -59 -27l-110 -139l149 -203q11 -13 29 -16l20 -5v-38l-65 -8h-88l-89 8v38l50 10l-60 86q-14 20 -27 43 l-92 -127l53 -12v-38l-69 -8h-66z" />
<glyph unicode="y" horiz-adv-x="551" d="M26 437v39l64 8h122l70 -8v-40l-63 -12l67 -197q16 -45 34 -113q47 130 107 314l-53 9v39l66 8h54l65 -8v-39l-33 -6q-15 -2 -21.5 -7.5t-11.5 -19.5q-3 -9 -40 -113.5t-68.5 -189t-59.5 -153.5q-42 -101 -84.5 -146.5t-116.5 -49.5v1l-28 -4h-11q-52 0 -52 47v30 q0 26 21 36q9 4 19 4q14 0 30 -8l71 -34q40 5 74 92q17 47 17 48q-22 55 -40 97l-137 344q-9 22 -28 25z" />
<glyph unicode="z" horiz-adv-x="492" d="M29 6v37l281 389l-174 -2l-24 -97h-72l6 145l69 9h257l74 -7v-40l-277 -385l179 2l30 99h67v-150l-58 -9h-293z" />
<glyph unicode="{" horiz-adv-x="360" d="M45 211v33l45 9q38 7 54.5 37t16.5 93v194q0 88 29 126.5t102 38.5q9 0 17.5 -1t14 -2t6.5 -1v-31q-46 1 -63.5 -23.5t-17.5 -96.5v-216q0 -108 -80 -143q80 -38 80 -142v-219q0 -68 17.5 -91t63.5 -23v-32q-21 -7 -38 -7q-73 0 -102 38.5t-29 128.5v191q0 61 -16 91 t-55 39z" />
<glyph unicode="|" horiz-adv-x="206" d="M53 -255v968h84v-968h-84z" />
<glyph unicode="}" horiz-adv-x="332" d="M13 -250q45 -2 63 23t18 96v216q0 108 80 143q-80 36 -80 142v220q0 68 -17.5 91t-63.5 23v31q21 7 38 7q73 0 102 -38.5t29 -127.5v-192q0 -61 16 -91t55 -39l45 -9v-33l-45 -9q-38 -8 -54.5 -37.5t-16.5 -92.5v-194q0 -88 -29 -126.5t-102 -38.5q-9 0 -17.5 1t-14 2 t-6.5 1v32z" />
<glyph unicode="~" horiz-adv-x="492" d="M5 313q5 53 40.5 86t85.5 33q34 0 82 -25.5t80 -25.5q25 0 42.5 14t21.5 40l60 -19q-8 -51 -41.5 -82.5t-84.5 -31.5q-38 0 -87.5 24t-74.5 24q-58 0 -66 -56z" />
<glyph unicode="&#xa1;" horiz-adv-x="284" d="M42 -170l43 483h78l43 -472zM53 428q0 26 21.5 46.5t50.5 20.5q30 0 50.5 -20t20.5 -47q0 -30 -20.5 -49.5t-50.5 -19.5t-51 19.5t-21 49.5z" />
<glyph unicode="&#xa2;" horiz-adv-x="468" d="M31 231q0 108 49.5 173.5t129.5 83.5v122h72v-115q65 -3 109 -33l22 -11q32 -15 19 -54l-13 -38q-8 -25 -35 -26.5t-44 22.5l-58 82v-71h-72v52q-49 -45 -49 -161q0 -89 49 -140v52h72v-86h9q80 0 124 66l32 -19q-48 -127 -165 -142v-128h-72v130q-85 14 -132 80.5 t-47 160.5z" />
<glyph unicode="&#xa3;" horiz-adv-x="527" d="M25 33q19 56 71 80q61 40 61 126q0 28 -3 55h-93l13 63h73q-4 46 -4 72q0 201 218 201q34 0 64 -6l64 -16q33 -8 24 -40l-14 -45q-5 -19 -24.5 -21t-35.5 14l-70 68q-102 -6 -102 -116q0 -27 7 -111h126l-12 -63h-109v-24q0 -106 -58 -159q16 -4 60 -16t70.5 -17.5 t43.5 -5.5q45 0 68 38l37 -24q-18 -47 -51 -71.5t-70 -24.5q-34 0 -123.5 25t-115.5 25q-49 0 -72 -39z" />
<glyph unicode="&#xa4;" horiz-adv-x="509" d="M15 102l74 90q-29 49 -29 126q0 74 29 124l-74 97l76 67l71 -95q36 18 80 18q51 0 91 -20l74 95l75 -68l-78 -98q25 -50 25 -120q0 -68 -24 -118l77 -101l-75 -66l-75 97q-39 -18 -90 -18q-42 0 -78 14l-72 -91zM157 318q0 -65 23 -100t63 -35q42 0 65 34.5t23 100.5 q0 139 -88 139q-39 0 -62.5 -35t-23.5 -104z" />
<glyph unicode="&#xa5;" horiz-adv-x="614" d="M18 571v36l58 7h143l70 -7v-36l-63 -14l115 -244l129 245l-61 14v35l75 7h50l70 -7v-36l-28 -7q-20 -5 -29.5 -13.5t-21.5 -28.5l-117 -209h115v-56h-146v-66h146v-55h-146q0 -35 2 -51q1 -26 30 -31l48 -11v-38l-71 -8h-151l-69 8v38l43 10q18 5 25.5 11t8.5 20 q2 15 2 52h-145v55h145v58l-5 8h-140v56h109l-121 218q-13 24 -41 32z" />
<glyph unicode="&#xa6;" horiz-adv-x="208" d="M54 180h84v-435h-84v435zM54 264v449h84v-449h-84z" />
<glyph unicode="&#xa7;" horiz-adv-x="530" d="M31 224q0 60 36 104t98 61q-96 55 -96 152q0 75 55 120.5t137 45.5q66 0 135 -30l16 -5q17 -6 22.5 -14.5t0.5 -27.5l-18 -48q-8 -19 -27.5 -19t-34.5 17l-64 72q-14 3 -32 3q-42 0 -66 -23.5t-24 -60.5q0 -61 75 -94l82 -37q137 -61 137 -172q0 -61 -37 -105.5 t-95 -64.5q94 -51 94 -145q0 -80 -62.5 -126.5t-144.5 -46.5q-57 0 -139 35v1l-7 2q-41 11 -31 47l10 35q8 27 29.5 31.5t39.5 -15.5l66 -76q15 -8 46 -8q43 0 69.5 23.5t26.5 63.5q0 35 -18.5 55.5t-58.5 36.5l-85 37q-135 58 -135 176zM133 246q0 -63 88 -100l41 -17 q95 25 95 111q0 66 -88 103l-32 13q-45 -11 -74.5 -39.5t-29.5 -70.5z" />
<glyph unicode="&#xa8;" horiz-adv-x="517" d="M85 616q0 27 18.5 45.5t45.5 18.5q26 0 45 -18.5t19 -45.5t-19 -45.5t-45 -18.5q-27 0 -45.5 18.5t-18.5 45.5zM287 616q0 27 18.5 45.5t45.5 18.5q26 0 45 -18.5t19 -45.5t-19 -45.5t-45 -18.5q-27 0 -45.5 18.5t-18.5 45.5z" />
<glyph unicode="&#xa9;" horiz-adv-x="762" d="M39 325q0 139 97.5 236t236.5 97t237.5 -97t98.5 -236q0 -140 -98.5 -237.5t-237.5 -97.5t-236.5 97.5t-97.5 237.5zM111 325q0 -115 75.5 -193.5t186.5 -78.5q112 0 187.5 78.5t75.5 193.5t-75.5 192.5t-187.5 77.5q-111 0 -186.5 -77.5t-75.5 -192.5zM188 321 q0 85 54.5 141t148.5 56q43 0 104 -22l23 -7v-101h-61q-9 52 -25 70q-14 17 -43 17q-37 0 -63.5 -39.5t-26.5 -105.5q0 -69 32 -104.5t72 -35.5q23 0 41 6l13 86h60l5 -55v-49q-19 -16 -56 -29.5t-75 -13.5q-86 0 -144.5 50t-58.5 136z" />
<glyph unicode="&#xaa;" horiz-adv-x="350" d="M23 431q0 67 69 89q39 12 95 17v11q0 62 -55 62q-50 0 -81 -29l-15 27q49 53 138 53q63 0 88 -26.5t25 -88.5q0 -12 -1 -49t-1 -60v-5q0 -12 0.5 -17.5t5.5 -9.5t15 -4h23v-28l-105 -21l-27 37q-34 -37 -89 -37q-41 0 -63 22t-22 57zM107 441q0 -39 40 -39q19 0 41 12 l-1 86q-38 -8 -50 -12q-30 -12 -30 -47z" />
<glyph unicode="&#xab;" horiz-adv-x="441" d="M29 261v27l120 180h82l-100 -193l101 -194h-86zM212 261v27l120 180h82l-100 -193l101 -194h-86z" />
<glyph unicode="&#xac;" horiz-adv-x="585" d="M40 235v56h436v-215h-56v159h-380z" />
<glyph unicode="&#xae;" horiz-adv-x="762" d="M39 325q0 139 97.5 236t236.5 97q140 0 238 -96.5t98 -236.5t-98.5 -237.5t-237.5 -97.5t-236.5 97.5t-97.5 237.5zM111 325q0 -115 75.5 -193.5t186.5 -78.5q113 0 188 78t75 194q0 115 -75.5 192.5t-187.5 77.5q-111 0 -186.5 -77.5t-75.5 -192.5zM197 161v26l22 6 q16 5 16 24q0 1 0.5 20t0.5 40v101q0 16 -0.5 43t-0.5 30q0 17 -21 23l-15 5l-1 25l35 6h131q91 0 132.5 -23.5t41.5 -72.5q0 -71 -92 -97q21 -8 32 -28l46 -76q15 -26 27 -29l4 -2v-24l-105 -5q-18 14 -28 45l-57 111l-26 -1v-118l37 -9v-23l-44 -4h-100zM339 344h45 q21 5 34 22.5t13 41.5q0 59 -63 59h-29v-123z" />
<glyph unicode="&#xaf;" horiz-adv-x="424" d="M46 568v70h317v-70h-317z" />
<glyph unicode="&#xb0;" horiz-adv-x="391" d="M39 686q0 62 44 106.5t106 44.5q63 0 106 -43.5t43 -108.5q0 -63 -43 -107.5t-106 -44.5t-106.5 44.5t-43.5 108.5zM102 682q0 -34 25 -60t59 -26q39 0 63.5 24.5t24.5 63.5q0 40 -24 64.5t-62 24.5q-36 0 -61 -26.5t-25 -64.5z" />
<glyph unicode="&#xb1;" horiz-adv-x="507" d="M27 0v88h440v-88h-440zM54 276v93h146v141h93v-141h146v-93h-146v-130h-93v130h-146z" />
<glyph unicode="&#xb2;" horiz-adv-x="349" d="M21 607q10 46 47 76.5t92 30.5q61 0 95.5 -33.5t34.5 -77.5q0 -62 -76 -115q-104 -70 -126 -88l97 3q19 0 29 9t18 31l11 34h48v-122l-53 -6h-151l-64 6v54q23 24 45 45.5t47 44t36 32.5q33 33 33 70q0 21 -14 33.5t-38 12.5q-51 0 -62 -57z" />
<glyph unicode="&#xb3;" horiz-adv-x="361" d="M18 407l6 19q7 21 25 21.5t31 -14.5l41 -42q8 -2 23 -2q35 0 49.5 18t14.5 42q0 31 -28 50h-75v47q101 2 101 66q0 23 -15.5 36t-38.5 13q-59 0 -67 -69h-50v91l15 6q15 6 23.5 8.5t25.5 7t35 6.5t38 2q62 0 99 -24t37 -68q0 -34 -25 -58t-65 -27v-3q99 -7 99 -79 q0 -107 -170 -107q-48 0 -78 9q-33 9 -45.5 19t-5.5 32z" />
<glyph unicode="&#xb4;" horiz-adv-x="514" d="M191 542q-2 6 3 10l125 107h108q9 0 11 -8.5t-6 -13.5l-173 -101h-61q-5 0 -7 6z" />
<glyph unicode="&#xb5;" horiz-adv-x="621" d="M93 -255l2 268v471h131q-4 -16 -4 -74v-256q0 -93 81 -93q51 0 88 48v217v158h131q-2 -28 -2 -76v-316q0 -38 18 -44l39 -13v-30l-169 -11l-13 60q-48 -69 -127 -69q-34 0 -62 13l14 -238q-53 -15 -127 -15z" />
<glyph unicode="&#xb6;" horiz-adv-x="609" d="M58 476q0 79 56 125.5t151 46.5h9v-825h-75v479q-61 9 -101 54t-40 120zM331 -178v826h94l68 -8v-37l-59 -14q-7 -1 -11.5 -5t-7.5 -10.5t-5 -12t-2.5 -16.5t-0.5 -16.5v-17.5v-16v-673h-76z" />
<glyph unicode="&#xb7;" horiz-adv-x="249" d="M46 251q0 30 20.5 50.5t50.5 20.5t51 -20.5t21 -50.5q0 -28 -21.5 -48.5t-50.5 -20.5q-30 0 -50.5 20.5t-20.5 48.5z" />
<glyph unicode="&#xb8;" horiz-adv-x="466" d="M156 -160q27 1 46.5 13.5t19.5 36.5q0 38 -39 56l14 77l71 -2l-4 -55q51 -25 51 -76q0 -48 -47.5 -74t-103.5 -26z" />
<glyph unicode="&#xb9;" horiz-adv-x="319" d="M22 635q112 33 175 73h29q-4 -60 -4 -97v-195q0 -18 11.5 -24.5t44.5 -12.5v-26l-47 -5h-121l-63 5v25q24 4 35 6.5t20.5 10t9.5 20.5l1 194q-55 -20 -81 -26z" />
<glyph unicode="&#xba;" horiz-adv-x="365" d="M16 500q0 72 40.5 116.5t118.5 44.5t119 -42.5t41 -112.5q0 -77 -42.5 -119t-117.5 -42q-78 0 -118.5 42.5t-40.5 112.5zM113 503q0 -57 19 -89t44 -32q27 0 43.5 32t16.5 87q0 58 -17.5 90t-44.5 32t-44 -32t-17 -88z" />
<glyph unicode="&#xbb;" horiz-adv-x="440" d="M13 81l101 194l-101 193h83l120 -180v-27l-118 -180h-85zM196 81l101 194l-101 193h83l120 -180v-27l-118 -180h-85z" />
<glyph unicode="&#xbc;" horiz-adv-x="893" d="M44 574q112 33 175 73h29q-4 -60 -4 -97v-195q0 -18 11.5 -24.5t44.5 -12.5v-26l-47 -5h-121l-63 5v25q24 4 35 6.5t20.5 10t9.5 20.5l1 194q-55 -20 -81 -26zM135 0l455 648h81l-454 -648h-82zM489 107v34q78 127 169 228h99v-213h2l54 -10v-31l-54 -8h-2v-43 q0 -19 15 -23l38 -9v-28l-46 -5h-131l-45 5v28l39 8q15 3 20 8t5 17v42h-163zM562 156h91v131q-50 -65 -91 -131z" />
<glyph unicode="&#xbd;" horiz-adv-x="865" d="M44 574q112 33 175 73h29q-4 -60 -4 -97v-195q0 -18 11.5 -24.5t44.5 -12.5v-26l-47 -5h-121l-63 5v25q24 4 35 6.5t20.5 10t9.5 20.5l1 194q-55 -20 -81 -26zM120 0l455 648h81l-454 -648h-82zM508 258q10 46 47 76.5t92 30.5q61 0 95.5 -33.5t34.5 -77.5 q0 -62 -76 -115q-104 -70 -126 -88l97 3q19 0 29 9t18 31l11 34h48v-122l-53 -6h-151l-64 6v54q23 24 45 45.5t47 44t36 32.5q33 33 33 70q0 21 -14 33.5t-38 12.5q-51 0 -62 -57z" />
<glyph unicode="&#xbe;" horiz-adv-x="893" d="M14 346l6 19q7 21 25 21.5t31 -14.5l41 -42q8 -2 23 -2q35 0 49.5 18t14.5 42q0 31 -28 50h-75v47q101 2 101 66q0 23 -15.5 36t-38.5 13q-59 0 -67 -69h-50v91l15 6q15 6 23.5 8.5t25.5 7t35 6.5t38 2q62 0 99 -24t37 -68q0 -34 -25 -58t-65 -27v-3q99 -7 99 -79 q0 -107 -170 -107q-48 0 -78 9q-33 9 -45.5 19t-5.5 32zM135 0l455 648h81l-454 -648h-82zM489 107v34q78 127 169 228h99v-213h2l54 -10v-31l-54 -8h-2v-43q0 -19 15 -23l38 -9v-28l-46 -5h-131l-45 5v28l39 8q15 3 20 8t5 17v42h-163zM562 156h91v131q-50 -65 -91 -131z " />
<glyph unicode="&#xbf;" horiz-adv-x="455" d="M8 -39q0 14 2.5 27.5t5 24t9.5 23.5t10.5 20t14.5 20t14 17t17 17t16 14.5t18 15.5l16 13q41 31 57 61t16 70h75q4 -53 -8.5 -94t-34 -67t-43 -48.5t-37.5 -52t-16 -63.5q0 -41 23 -66t69 -25q28 0 54 13l33 86q10 26 33.5 30.5t37.5 -12.5l27 -30q22 -23 -5 -48l-38 -35 h-4q-19 -21 -66 -42.5t-97 -21.5q-93 0 -146 43t-53 110zM176 426q0 30 20.5 50.5t50.5 20.5t51 -20.5t21 -50.5q0 -28 -21.5 -48.5t-50.5 -20.5q-30 0 -50.5 20.5t-20.5 48.5z" />
<glyph unicode="&#xc0;" d="M-24 5v37l41 9q26 5 40 42l199 568h123l189 -564q8 -22 16.5 -31t24.5 -13l40 -10v-38l-65 -8h-123l-94 8v36l69 15l-52 170h-205l-54 -170l67 -15v-36l-87 -8h-70zM136 812.5q2 8.5 11 8.5h108l125 -107q5 -4 3 -10t-7 -6h-61l-172 101q-9 5 -7 13.5zM197 282h169 l-66 215q-2 5 -18 64q-7 -30 -17 -64z" />
<glyph unicode="&#xc1;" d="M-24 5v37l41 9q26 5 40 42l199 568h123l189 -564q8 -22 16.5 -31t24.5 -13l40 -10v-38l-65 -8h-123l-94 8v36l69 15l-52 170h-205l-54 -170l67 -15v-36l-87 -8h-70zM197 282h169l-66 215q-2 5 -18 64q-7 -30 -17 -64zM250 704q-2 6 3 10l125 107h108q9 0 11 -8.5 t-6 -13.5l-173 -101h-61q-5 0 -7 6z" />
<glyph unicode="&#xc2;" d="M-24 5v37l41 9q26 5 40 42l199 568h123l189 -564q8 -22 16.5 -31t24.5 -13l40 -10v-38l-65 -8h-123l-94 8v36l69 15l-52 170h-205l-54 -170l67 -15v-36l-87 -8h-70zM176 748l139 119l144 -119l-35 -44l-114 76l-105 -74zM197 282h169l-66 215q-2 5 -18 64q-7 -30 -17 -64 z" />
<glyph unicode="&#xc3;" d="M-24 5v37l41 9q26 5 40 42l199 568h123l189 -564q8 -22 16.5 -31t24.5 -13l40 -10v-38l-65 -8h-123l-94 8v36l69 15l-52 170h-205l-54 -170l67 -15v-36l-87 -8h-70zM142 751q28 80 109 80q23 0 63.5 -23t62.5 -23q38 0 65 39l45 -28q-19 -43 -52 -67t-64 -24 q-23 0 -65.5 21.5t-64.5 21.5q-43 0 -61 -27zM197 282h169l-66 215q-2 5 -18 64q-7 -30 -17 -64z" />
<glyph unicode="&#xc4;" d="M-24 5v37l41 9q26 5 40 42l199 568h123l189 -564q8 -22 16.5 -31t24.5 -13l40 -10v-38l-65 -8h-123l-94 8v36l69 15l-52 170h-205l-54 -170l67 -15v-36l-87 -8h-70zM148 778q0 27 18.5 45.5t45.5 18.5q26 0 45 -18.5t19 -45.5t-19 -45.5t-45 -18.5q-27 0 -45.5 18.5 t-18.5 45.5zM197 282h169l-66 215q-2 5 -18 64q-7 -30 -17 -64zM350 778q0 27 18.5 45.5t45.5 18.5q26 0 45 -18.5t19 -45.5t-19 -45.5t-45 -18.5q-27 0 -45.5 18.5t-18.5 45.5z" />
<glyph unicode="&#xc5;" d="M-24 5v37l41 9q26 5 40 42l198 565q-38 30 -38 78q0 41 28.5 69.5t68.5 28.5t69 -29t29 -69q0 -47 -36 -75h3l189 -564q8 -22 16.5 -31t24.5 -13l40 -10v-38l-65 -8h-123l-94 8v36l69 15l-52 170h-205l-54 -170l67 -15v-36l-87 -8h-70zM197 282h169l-66 215q-2 5 -18 64 q-7 -30 -17 -64zM271 736q0 -18 12.5 -30.5t30.5 -12.5t30.5 12.5t12.5 30.5t-12.5 30.5t-30.5 12.5t-30.5 -12.5t-12.5 -30.5z" />
<glyph unicode="&#xc6;" horiz-adv-x="830" d="M-23 5v31q25 5 34.5 7.5t23 13.5t21.5 31l248 561h386q46 0 89 3v-175h-68l-16 81q-6 25 -21.5 32t-66.5 7h-114q0 -22 -0.5 -76t-0.5 -79v-79h102q7 0 13 5.5t9.5 17t5.5 21t5 25.5t4 22h53v-249h-52q-2 8 -4.5 24t-4.5 26.5t-6 22.5t-10 18.5t-15 6.5h-100v-86 q0 -104 2 -163h170q34 0 40 40l15 84h64v-180q-78 2 -119 2h-327l-56 5v29l46 11q15 3 21 10t7 23q2 27 2 110v47h-162l-77 -184l68 -16v-30l-100 -8h-51zM219 291h138v306h-10z" />
<glyph unicode="&#xc7;" horiz-adv-x="590" d="M25 315q0 150 88 248.5t235 98.5q88 0 187 -32v-75l-5 -104h-70l-4 35q-9 67 -34 92q-21 25 -79 25q-78 0 -125 -70t-47 -203q0 -134 58.5 -204t140.5 -70q37 0 53 9q22 10 28 52l16 87h67l4 -101v-69q-27 -20 -79 -35t-112 -15h-14l-1 -24q51 -25 51 -76 q0 -48 -47.5 -74t-103.5 -26l-8 50q27 1 46.5 13.5t19.5 36.5q0 38 -39 56l9 53q-108 22 -171.5 103.5t-63.5 218.5z" />
<glyph unicode="&#xc8;" horiz-adv-x="589" d="M33 5v36l49 13q27 6 28 34q2 54 2 102v257q0 76 -3 113q-1 25 -27 32l-47 11v36l72 10h338q45 0 88 3v-175h-67l-16 71q-6 25 -22 33t-63 8h-118v-223h98q21 0 28 33l12 55h54v-249h-53l-14 63q-7 32 -29 32h-96v-83q0 -99 2 -157h168q34 0 41 41l15 77h65v-180 q-78 2 -119 2h-326zM162 815q2 9 11 9h108l125 -107q5 -5 3 -10.5t-7 -5.5h-61l-172 101q-9 4 -7 13z" />
<glyph unicode="&#xc9;" horiz-adv-x="589" d="M33 5v36l49 13q27 6 28 34q2 54 2 102v257q0 76 -3 113q-1 25 -27 32l-47 11v36l72 10h338q45 0 88 3v-175h-67l-16 71q-6 25 -22 33t-63 8h-118v-223h98q21 0 28 33l12 55h54v-249h-53l-14 63q-7 32 -29 32h-96v-83q0 -99 2 -157h168q34 0 41 41l15 77h65v-180 q-78 2 -119 2h-326zM201 706.5q-2 5.5 3 10.5l125 107h108q9 0 11 -9t-6 -13l-173 -101h-61q-5 0 -7 5.5z" />
<glyph unicode="&#xca;" horiz-adv-x="589" d="M33 5v36l49 13q27 6 28 34q2 54 2 102v257q0 76 -3 113q-1 25 -27 32l-47 11v36l72 10h338q45 0 88 3v-175h-67l-16 71q-6 25 -22 33t-63 8h-118v-223h98q21 0 28 33l12 55h54v-249h-53l-14 63q-7 32 -29 32h-96v-83q0 -99 2 -157h168q34 0 41 41l15 77h65v-180 q-78 2 -119 2h-326zM175 749l139 119l144 -119l-35 -44l-114 76l-105 -74z" />
<glyph unicode="&#xcb;" horiz-adv-x="589" d="M33 5v36l49 13q27 6 28 34q2 54 2 102v257q0 76 -3 113q-1 25 -27 32l-47 11v36l72 10h338q45 0 88 3v-175h-67l-16 71q-6 25 -22 33t-63 8h-118v-223h98q21 0 28 33l12 55h54v-249h-53l-14 63q-7 32 -29 32h-96v-83q0 -99 2 -157h168q34 0 41 41l15 77h65v-180 q-78 2 -119 2h-326zM132 781q0 27 18.5 45.5t45.5 18.5q26 0 45 -18.5t19 -45.5t-19 -45.5t-45 -18.5q-27 0 -45.5 18.5t-18.5 45.5zM334 781q0 27 18.5 45.5t45.5 18.5q26 0 45 -18.5t19 -45.5t-19 -45.5t-45 -18.5q-27 0 -45.5 18.5t-18.5 45.5z" />
<glyph unicode="&#xcc;" horiz-adv-x="372" d="M33 5v37l50 12q15 4 20.5 10.5t6.5 23.5q2 29 2 105v248q0 79 -2 119q-1 25 -27 32l-49 12v36l75 8h144l74 -8v-36l-50 -13q-14 -3 -19.5 -10t-6.5 -24q-2 -60 -2 -115v-248q0 -59 2 -106q0 -15 6 -22t21 -12l49 -12v-37l-76 -8h-144zM47 812.5q2 8.5 11 8.5h108 l125 -107q5 -4 3 -10t-7 -6h-61l-172 101q-9 5 -7 13.5z" />
<glyph unicode="&#xcd;" horiz-adv-x="372" d="M33 5v37l50 12q15 4 20.5 10.5t6.5 23.5q2 29 2 105v248q0 79 -2 119q-1 25 -27 32l-49 12v36l75 8h144l74 -8v-36l-50 -13q-14 -3 -19.5 -10t-6.5 -24q-2 -60 -2 -115v-248q0 -59 2 -106q0 -15 6 -22t21 -12l49 -12v-37l-76 -8h-144zM80 704q-2 6 3 10l125 107h108 q9 0 11 -8.5t-6 -13.5l-173 -101h-61q-5 0 -7 6z" />
<glyph unicode="&#xce;" horiz-adv-x="372" d="M33 5v37l50 12q15 4 20.5 10.5t6.5 23.5q2 29 2 105v248q0 79 -2 119q-1 25 -27 32l-49 12v36l75 8h144l74 -8v-36l-50 -13q-14 -3 -19.5 -10t-6.5 -24q-2 -60 -2 -115v-248q0 -59 2 -106q0 -15 6 -22t21 -12l49 -12v-37l-76 -8h-144zM38 747l139 119l144 -119l-35 -44 l-114 76l-105 -74z" />
<glyph unicode="&#xcf;" horiz-adv-x="372" d="M14 778q0 27 18.5 45.5t45.5 18.5q26 0 45 -18.5t19 -45.5t-19 -45.5t-45 -18.5q-27 0 -45.5 18.5t-18.5 45.5zM33 5v37l50 12q15 4 20.5 10.5t6.5 23.5q2 29 2 105v248q0 79 -2 119q-1 25 -27 32l-49 12v36l75 8h144l74 -8v-36l-50 -13q-14 -3 -19.5 -10t-6.5 -24 q-2 -60 -2 -115v-248q0 -59 2 -106q0 -15 6 -22t21 -12l49 -12v-37l-76 -8h-144zM216 778q0 27 18.5 45.5t45.5 18.5q26 0 45 -18.5t19 -45.5t-19 -45.5t-45 -18.5q-27 0 -45.5 18.5t-18.5 45.5z" />
<glyph unicode="&#xd0;" horiz-adv-x="678" d="M32 5v37l50 12q24 6 26 34q2 36 2 123v67h-78v88h78v71q0 97 -2 123q-1 26 -28 32l-46 11v37l73 8q67 1 174 1q174 0 266.5 -79t92.5 -236q0 -162 -98 -249.5t-265 -87.5h-174zM248 212q0 -88 2 -149h45q99 1 150 68t51 184q0 128 -51.5 199t-151.5 70l-44 -1 q-1 -47 -1 -152v-65h70v-88h-70v-66z" />
<glyph unicode="&#xd1;" horiz-adv-x="713" d="M29 5v37l51 13q12 3 17 8t7 16q4 29 4 113v328q0 47 -39 67l-38 17v36l63 8h110l271 -381q29 -41 59 -94v293q0 78 -1 119l-72 18v37l83 8h64l68 -8v-37l-43 -11q-25 -5 -26 -34q-3 -72 -3 -116v-442l-100 -7l-324 470v-403l68 -18v-37l-72 -8h-88zM177 751q28 80 109 80 q23 0 63.5 -23t62.5 -23q38 0 65 39l45 -28q-19 -43 -52 -67t-64 -24q-23 0 -65.5 21.5t-64.5 21.5q-43 0 -61 -27z" />
<glyph unicode="&#xd2;" horiz-adv-x="660" d="M24 324q0 146 78 243t217 97q147 0 223.5 -93.5t76.5 -245.5q0 -148 -78 -245t-220 -97q-140 0 -218.5 92t-78.5 249zM171 329q0 -132 39.5 -207t115.5 -75q67 0 106 68t39 196q0 290 -155 290q-73 0 -109 -74t-36 -198zM193 815q2 9 11 9h108l125 -107q5 -5 3 -10.5 t-7 -5.5h-61l-172 101q-9 4 -7 13z" />
<glyph unicode="&#xd3;" horiz-adv-x="660" d="M24 324q0 146 78 243t217 97q147 0 223.5 -93.5t76.5 -245.5q0 -148 -78 -245t-220 -97q-140 0 -218.5 92t-78.5 249zM171 329q0 -132 39.5 -207t115.5 -75q67 0 106 68t39 196q0 290 -155 290q-73 0 -109 -74t-36 -198zM226 706.5q-2 5.5 3 10.5l125 107h108q9 0 11 -9 t-6 -13l-173 -101h-61q-5 0 -7 5.5z" />
<glyph unicode="&#xd4;" horiz-adv-x="660" d="M24 324q0 146 78 243t217 97q147 0 223.5 -93.5t76.5 -245.5q0 -148 -78 -245t-220 -97q-140 0 -218.5 92t-78.5 249zM171 329q0 -132 39.5 -207t115.5 -75q67 0 106 68t39 196q0 290 -155 290q-73 0 -109 -74t-36 -198zM183 749l139 119l144 -119l-35 -44l-114 76 l-105 -74z" />
<glyph unicode="&#xd5;" horiz-adv-x="660" d="M24 324q0 146 78 243t217 97q147 0 223.5 -93.5t76.5 -245.5q0 -148 -78 -245t-220 -97q-140 0 -218.5 92t-78.5 249zM158 752q28 80 109 80q23 0 63.5 -23t62.5 -23q38 0 65 39l45 -28q-19 -43 -52 -67t-64 -24q-23 0 -65.5 21.5t-64.5 21.5q-43 0 -61 -27zM171 329 q0 -132 39.5 -207t115.5 -75q67 0 106 68t39 196q0 290 -155 290q-73 0 -109 -74t-36 -198z" />
<glyph unicode="&#xd6;" horiz-adv-x="660" d="M24 324q0 146 78 243t217 97q147 0 223.5 -93.5t76.5 -245.5q0 -148 -78 -245t-220 -97q-140 0 -218.5 92t-78.5 249zM158 778q0 27 18.5 45.5t45.5 18.5q26 0 45 -18.5t19 -45.5t-19 -45.5t-45 -18.5q-27 0 -45.5 18.5t-18.5 45.5zM171 329q0 -132 39.5 -207t115.5 -75 q67 0 106 68t39 196q0 290 -155 290q-73 0 -109 -74t-36 -198zM360 778q0 27 18.5 45.5t45.5 18.5q26 0 45 -18.5t19 -45.5t-19 -45.5t-45 -18.5q-27 0 -45.5 18.5t-18.5 45.5z" />
<glyph unicode="&#xd7;" horiz-adv-x="490" d="M39 164l139 146l-138 146l62 59l136 -143l135 142l62 -58l-139 -145l140 -146l-62 -60l-137 144l-137 -144z" />
<glyph unicode="&#xd8;" horiz-adv-x="660" d="M24 324q0 146 78 243t217 97q63 0 120 -21l33 72h67l-46 -100q126 -86 126 -290q0 -148 -78 -245t-220 -97q-56 0 -110 18l-32 -71h-66l44 97q-133 85 -133 297zM171 329q0 -126 34 -198l199 435q-37 35 -88 35q-73 0 -109 -74t-36 -198zM246 76q34 -29 80 -29 q67 0 106 68t39 196q0 123 -28 194z" />
<glyph unicode="&#xd9;" horiz-adv-x="661" d="M4 604v36l70 8h133l70 -6v-38l-70 -14q-1 -50 -1 -148v-195q0 -128 41 -168q36 -34 98 -34q136 0 136 184v230q0 30 -2 130l-65 15v36l87 8h61l68 -8v-36l-40 -11q-14 -5 -20 -12.5t-7 -24.5q-2 -26 -2 -105v-211q0 -129 -64.5 -193t-168.5 -64q-130 0 -194.5 61 t-64.5 197v194q0 71 -2 119q-2 38 -25 42zM190 812.5q2 8.5 11 8.5h108l125 -107q5 -4 3 -10t-7 -6h-61l-172 101q-9 5 -7 13.5z" />
<glyph unicode="&#xda;" horiz-adv-x="661" d="M4 604v36l70 8h133l70 -6v-38l-70 -14q-1 -50 -1 -148v-195q0 -128 41 -168q36 -34 98 -34q136 0 136 184v230q0 30 -2 130l-65 15v36l87 8h61l68 -8v-36l-40 -11q-14 -5 -20 -12.5t-7 -24.5q-2 -26 -2 -105v-211q0 -129 -64.5 -193t-168.5 -64q-130 0 -194.5 61 t-64.5 197v194q0 71 -2 119q-2 38 -25 42zM212 704q-2 6 3 10l125 107h108q9 0 11 -8.5t-6 -13.5l-173 -101h-61q-5 0 -7 6z" />
<glyph unicode="&#xdb;" horiz-adv-x="661" d="M4 604v36l70 8h133l70 -6v-38l-70 -14q-1 -50 -1 -148v-195q0 -128 41 -168q36 -34 98 -34q136 0 136 184v230q0 30 -2 130l-65 15v36l87 8h61l68 -8v-36l-40 -11q-14 -5 -20 -12.5t-7 -24.5q-2 -26 -2 -105v-211q0 -129 -64.5 -193t-168.5 -64q-130 0 -194.5 61 t-64.5 197v194q0 71 -2 119q-2 38 -25 42zM183 747l139 119l144 -119l-35 -44l-114 76l-105 -74z" />
<glyph unicode="&#xdc;" horiz-adv-x="661" d="M4 604v36l70 8h133l70 -6v-38l-70 -14q-1 -50 -1 -148v-195q0 -128 41 -168q36 -34 98 -34q136 0 136 184v230q0 30 -2 130l-65 15v36l87 8h61l68 -8v-36l-40 -11q-14 -5 -20 -12.5t-7 -24.5q-2 -26 -2 -105v-211q0 -129 -64.5 -193t-168.5 -64q-130 0 -194.5 61 t-64.5 197v194q0 71 -2 119q-2 38 -25 42zM159 778q0 27 18.5 45.5t45.5 18.5q26 0 45 -18.5t19 -45.5t-19 -45.5t-45 -18.5q-27 0 -45.5 18.5t-18.5 45.5zM361 778q0 27 18.5 45.5t45.5 18.5q26 0 45 -18.5t19 -45.5t-19 -45.5t-45 -18.5q-27 0 -45.5 18.5t-18.5 45.5z" />
<glyph unicode="&#xdd;" horiz-adv-x="610" d="M8 602v38l65 8h146l75 -8v-37l-67 -15l79 -180q19 -42 35 -88l41 88l88 181l-64 14v37l78 8h55l68 -8v-37l-39 -10q-28 -9 -41 -38l-148 -296v-60q0 -73 2 -109q0 -28 28 -34l48 -13v-38l-71 -8h-148l-73 8v38l45 12q17 5 23.5 12t7.5 22q2 28 2 87v69l-157 316 q-15 26 -37 32zM193 704q-2 6 3 10l125 107h108q9 0 11 -8.5t-6 -13.5l-173 -101h-61q-5 0 -7 6z" />
<glyph unicode="&#xde;" horiz-adv-x="571" d="M37 5v30l45 10q15 3 21 9.5t7 23.5q2 54 2 110v259q0 82 -3 123q-1 25 -27 30l-45 11v29l67 8h153l65 -8v-29l-46 -11q-14 -3 -19.5 -10t-6.5 -24q-1 -10 -1 -31h8q149 0 218.5 -46t69.5 -146q0 -82 -62.5 -139t-166.5 -57q-43 0 -68 3q0 -19 0.5 -51t0.5 -46l73 -17v-31 l-68 -8h-153zM248 197q12 -1 39 -1q60 0 91 39t31 103q0 141 -127 141q-28 0 -33 -1h-1v-281z" />
<glyph unicode="&#xdf;" horiz-adv-x="630" d="M17 5v36l41 10q22 5 30 14t9 35q2 35 2 103v267q2 34 5 51q11 84 70.5 135t153.5 51q97 0 152 -42.5t55 -108.5q0 -60 -38 -99.5t-97 -52.5q90 -14 137 -70t47 -132q0 -55 -15.5 -96.5t-37.5 -63.5t-52 -35t-52 -16.5t-44 -3.5q-57 0 -126 26v124h48q8 -101 62 -101 q40 0 60 32.5t20 113.5q0 85 -44 141.5t-129 56.5v37l22 6q61 20 87.5 48.5t26.5 85.5q0 44 -23 74.5t-66 30.5q-102 0 -102 -147v-48l-2 -470h-113z" />
<glyph unicode="&#xe0;" horiz-adv-x="527" d="M41 107q0 100 114 132q63 18 149 27q0 12 0.5 35.5t0.5 36.5q0 52 -19.5 75.5t-63.5 23.5q-22 0 -40 -10l6 -37q4 -23 -8 -41t-41 -18h-66l-12 55l17 19q22 26 55 46q66 45 145 45q80 0 118 -37t38 -117q0 -34 -0.5 -71.5t-1.5 -82.5t-1 -71q-1 -32 5 -43t32 -11h31v-42 l-135 -31l-48 61q-54 -64 -141 -64q-65 0 -99.5 33.5t-34.5 86.5zM126 650.5q2 8.5 11 8.5h108l125 -107q5 -4 3 -10t-7 -6h-61l-172 101q-9 5 -7 13.5zM162 127q0 -62 71 -62q39 0 72 24l2 130q-61 -10 -96 -23q-49 -19 -49 -69z" />
<glyph unicode="&#xe1;" horiz-adv-x="527" d="M41 107q0 100 114 132q63 18 149 27q0 12 0.5 35.5t0.5 36.5q0 52 -19.5 75.5t-63.5 23.5q-22 0 -40 -10l6 -37q4 -23 -8 -41t-41 -18h-66l-12 55l17 19q22 26 55 46q66 45 145 45q80 0 118 -37t38 -117q0 -34 -0.5 -71.5t-1.5 -82.5t-1 -71q-1 -32 5 -43t32 -11h31v-42 l-135 -31l-48 61q-54 -64 -141 -64q-65 0 -99.5 33.5t-34.5 86.5zM157 542q-2 6 3 10l125 107h108q9 0 11 -8.5t-6 -13.5l-173 -101h-61q-5 0 -7 6zM162 127q0 -62 71 -62q39 0 72 24l2 130q-61 -10 -96 -23q-49 -19 -49 -69z" />
<glyph unicode="&#xe2;" horiz-adv-x="527" d="M41 107q0 100 114 132q63 18 149 27q0 12 0.5 35.5t0.5 36.5q0 52 -19.5 75.5t-63.5 23.5q-22 0 -40 -10l6 -37q4 -23 -8 -41t-41 -18h-66l-12 55l17 19q22 26 55 46q66 45 145 45q80 0 118 -37t38 -117q0 -34 -0.5 -71.5t-1.5 -82.5t-1 -71q-1 -32 5 -43t32 -11h31v-42 l-135 -31l-48 61q-54 -64 -141 -64q-65 0 -99.5 33.5t-34.5 86.5zM114 589l139 119l144 -119l-35 -44l-114 76l-105 -74zM162 127q0 -62 71 -62q39 0 72 24l2 130q-61 -10 -96 -23q-49 -19 -49 -69z" />
<glyph unicode="&#xe3;" horiz-adv-x="527" d="M41 107q0 100 114 132q63 18 149 27q0 12 0.5 35.5t0.5 36.5q0 52 -19.5 75.5t-63.5 23.5q-22 0 -40 -10l6 -37q4 -23 -8 -41t-41 -18h-66l-12 55l17 19q22 26 55 46q66 45 145 45q80 0 118 -37t38 -117q0 -34 -0.5 -71.5t-1.5 -82.5t-1 -71q-1 -32 5 -43t32 -11h31v-42 l-135 -31l-48 61q-54 -64 -141 -64q-65 0 -99.5 33.5t-34.5 86.5zM85 609q28 80 109 80q23 0 63.5 -23t62.5 -23q38 0 65 39l45 -28q-19 -43 -52 -67t-64 -24q-23 0 -65.5 21.5t-64.5 21.5q-43 0 -61 -27zM162 127q0 -62 71 -62q39 0 72 24l2 130q-61 -10 -96 -23 q-49 -19 -49 -69z" />
<glyph unicode="&#xe4;" horiz-adv-x="527" d="M41 107q0 100 114 132q63 18 149 27q0 12 0.5 35.5t0.5 36.5q0 52 -19.5 75.5t-63.5 23.5q-22 0 -40 -10l6 -37q4 -23 -8 -41t-41 -18h-66l-12 55l17 19q22 26 55 46q66 45 145 45q80 0 118 -37t38 -117q0 -34 -0.5 -71.5t-1.5 -82.5t-1 -71q-1 -32 5 -43t32 -11h31v-42 l-135 -31l-48 61q-54 -64 -141 -64q-65 0 -99.5 33.5t-34.5 86.5zM106 620q0 27 18.5 45.5t45.5 18.5q26 0 45 -18.5t19 -45.5t-19 -45.5t-45 -18.5q-27 0 -45.5 18.5t-18.5 45.5zM162 127q0 -62 71 -62q39 0 72 24l2 130q-61 -10 -96 -23q-49 -19 -49 -69zM308 620 q0 27 18.5 45.5t45.5 18.5q26 0 45 -18.5t19 -45.5t-19 -45.5t-45 -18.5q-27 0 -45.5 18.5t-18.5 45.5z" />
<glyph unicode="&#xe5;" horiz-adv-x="527" d="M41 107q0 100 114 132q63 18 149 27q0 12 0.5 35.5t0.5 36.5q0 52 -19.5 75.5t-63.5 23.5q-22 0 -40 -10l6 -37q4 -23 -8 -41t-41 -18h-66l-12 55l17 19q22 26 55 46q66 45 145 45q80 0 118 -37t38 -117q0 -34 -0.5 -71.5t-1.5 -82.5t-1 -71q-1 -32 5 -43t32 -11h31v-42 l-135 -31l-48 61q-54 -64 -141 -64q-65 0 -99.5 33.5t-34.5 86.5zM162 127q0 -62 71 -62q39 0 72 24l2 130q-61 -10 -96 -23q-49 -19 -49 -69zM163 626q0 41 28.5 69.5t68.5 28.5t69 -29t29 -69t-28.5 -68.5t-69.5 -28.5q-40 0 -68.5 28.5t-28.5 68.5zM217 626 q0 -18 12.5 -30.5t30.5 -12.5t30.5 12.5t12.5 30.5t-12.5 30.5t-30.5 12.5t-30.5 -12.5t-12.5 -30.5z" />
<glyph unicode="&#xe6;" horiz-adv-x="753" d="M41 107q0 99 115 133q57 16 127 25q3 30 11 61l2 36q0 47 -28.5 66t-65.5 8q-3 0 -20 -6l6 -40q4 -23 -8 -41t-41 -18h-66l-12 55l17 19q1 1 1 2q86 89 191 89q79 0 110 -43q63 46 145 46q90 0 140 -56.5t46 -123.5q0 -13 -2 -35q-2 -26 -35 -26h-268v-11q0 -69 37 -118 t101 -49q86 0 134 63l33 -19q-27 -68 -80 -103.5t-114 -35.5q-119 0 -182 80q-54 -78 -146 -78q-74 0 -111 33t-37 87zM162 127q0 -33 20 -50t54 -17q46 0 80 34q-28 52 -33 124q-50 -11 -73 -20q-48 -19 -48 -71zM405 310l190 4v18q-1 48 -25 76t-64 28q-37 0 -70 -22 q-23 -40 -31 -104z" />
<glyph unicode="&#xe7;" horiz-adv-x="468" d="M30 235q0 126 69 194.5t171 68.5q66 0 119 -35l24 -11q32 -15 19 -54l-13 -38q-8 -25 -35 -26.5t-44 22.5l-63 87h-2q-53 0 -83 -49t-30 -136q0 -77 35 -127t95 -50q80 0 125 66l30 -17q-51 -135 -177 -143l-2 -27q51 -25 51 -76q0 -48 -47.5 -74t-103.5 -26l-8 50 q27 1 46.5 13.5t19.5 36.5q0 38 -39 56l9 53q-78 18 -122 83t-44 159z" />
<glyph unicode="&#xe8;" horiz-adv-x="503" d="M33 239q0 117 68 188.5t174 71.5q90 0 140 -56.5t46 -123.5l-3 -38q-2 -26 -34 -26h-268v-8q0 -71 37 -118.5t102 -47.5q90 0 135 61l29 -17q-28 -69 -79.5 -104.5t-115.5 -35.5q-109 0 -170 69.5t-61 184.5zM119 657q2 9 11 9h108l125 -107q5 -5 3 -10.5t-7 -5.5h-61 l-172 101q-9 4 -7 13zM156 309l191 5l-1 18q-1 48 -24.5 75.5t-64.5 27.5q-36 0 -71 -22q-25 -45 -30 -104z" />
<glyph unicode="&#xe9;" horiz-adv-x="503" d="M33 239q0 117 68 188.5t174 71.5q90 0 140 -56.5t46 -123.5l-3 -38q-2 -26 -34 -26h-268v-8q0 -71 37 -118.5t102 -47.5q90 0 135 61l29 -17q-28 -69 -79.5 -104.5t-115.5 -35.5q-109 0 -170 69.5t-61 184.5zM156 309l191 5l-1 18q-1 48 -24.5 75.5t-64.5 27.5 q-36 0 -71 -22q-25 -45 -30 -104zM177 548.5q-2 5.5 3 10.5l125 107h108q9 0 11 -9t-6 -13l-173 -101h-61q-5 0 -7 5.5z" />
<glyph unicode="&#xea;" horiz-adv-x="503" d="M33 239q0 117 68 188.5t174 71.5q90 0 140 -56.5t46 -123.5l-3 -38q-2 -26 -34 -26h-268v-8q0 -71 37 -118.5t102 -47.5q90 0 135 61l29 -17q-28 -69 -79.5 -104.5t-115.5 -35.5q-109 0 -170 69.5t-61 184.5zM126 590l139 119l144 -119l-35 -44l-114 76l-105 -74z M156 309l191 5l-1 18q-1 48 -24.5 75.5t-64.5 27.5q-36 0 -71 -22q-25 -45 -30 -104z" />
<glyph unicode="&#xeb;" horiz-adv-x="503" d="M33 239q0 117 68 188.5t174 71.5q90 0 140 -56.5t46 -123.5l-3 -38q-2 -26 -34 -26h-268v-8q0 -71 37 -118.5t102 -47.5q90 0 135 61l29 -17q-28 -69 -79.5 -104.5t-115.5 -35.5q-109 0 -170 69.5t-61 184.5zM104 617q0 27 18.5 45.5t45.5 18.5q26 0 45 -18.5t19 -45.5 t-19 -45.5t-45 -18.5q-27 0 -45.5 18.5t-18.5 45.5zM156 309l191 5l-1 18q-1 48 -24.5 75.5t-64.5 27.5q-36 0 -71 -22q-25 -45 -30 -104zM306 617q0 27 18.5 45.5t45.5 18.5q26 0 45 -18.5t19 -45.5t-19 -45.5t-45 -18.5q-27 0 -45.5 18.5t-18.5 45.5z" />
<glyph unicode="&#xec;" horiz-adv-x="356" d="M32 428l2 43q129 22 204 22q-3 -59 -3 -109v-325l60 -17v-37l-76 -8h-112l-73 8v37l37 9q26 7 31 23t5 92v182q0 38 -2 51t-10 17q-26 15 -63 12zM37.5 662.5q3.5 7.5 12.5 7.5h97l68 -118q3 -4 1 -9t-8 -5h-60l-106 109q-8 8 -4.5 15.5z" />
<glyph unicode="&#xed;" horiz-adv-x="356" d="M32 428l2 43q129 22 204 22q-3 -59 -3 -109v-325l60 -17v-37l-76 -8h-112l-73 8v37l37 9q26 7 31 23t5 92v182q0 38 -2 51t-10 17q-26 15 -63 12zM118.5 543q-2.5 5 0.5 9l68 118h98q9 0 12 -7.5t-4 -15.5l-107 -109h-60q-5 0 -7.5 5z" />
<glyph unicode="&#xee;" horiz-adv-x="342" d="M32 428l2 43q129 22 204 22q-3 -59 -3 -109v-325l60 -17v-37l-76 -8h-112l-73 8v37l37 9q26 7 31 23t5 92v182q0 38 -2 51t-10 17q-26 15 -63 12zM57 590l139 119l144 -119l-35 -44l-114 76l-105 -74z" />
<glyph unicode="&#xef;" horiz-adv-x="342" d="M-4 639q0 27 18.5 46t45.5 19q26 0 45 -19t19 -46q0 -26 -19 -45t-45 -19q-27 0 -45.5 19t-18.5 45zM32 428l2 43q129 22 204 22q-3 -59 -3 -109v-325l60 -17v-37l-76 -8h-112l-73 8v37l37 9q26 7 31 23t5 92v182q0 38 -2 51t-10 17q-26 15 -63 12zM189 639q0 27 18.5 46 t45.5 19q26 0 45 -19t19 -46q0 -26 -19 -45t-45 -19q-27 0 -45.5 19t-18.5 45z" />
<glyph unicode="&#xf0;" horiz-adv-x="556" d="M34 246q0 106 58.5 175.5t158.5 69.5q81 0 126 -51q-8 75 -42 129l-86 -39l-23 47l74 33q-52 47 -124 47q-36 0 -70 -9l-13 46q43 18 106 18q113 0 191 -61l87 40l23 -46l-71 -32q84 -101 84 -284q0 -95 -22.5 -165t-61 -107.5t-80 -54.5t-86.5 -17q-98 0 -163.5 71.5 t-65.5 189.5zM167 241q0 -92 29.5 -144t77.5 -52t80.5 55.5t32.5 169.5q0 38 -4 86q-41 73 -108 73q-50 0 -79 -55t-29 -133z" />
<glyph unicode="&#xf1;" horiz-adv-x="631" d="M32 428l4 43q119 22 196 22v-37q0 -16 -5 -51q28 37 72.5 64t92.5 27q145 0 145 -157v-279l58 -18v-37l-65 -8h-99l-80 8v36l29 9q19 6 23.5 21t4.5 80v148q0 58 -16 85t-63 27q-53 0 -93 -47v-304l55 -18v-37l-79 -8h-105l-71 8v36l41 11q21 5 26 21t5 78v209 q0 41 -12 56q-29 15 -64 12zM139 609q28 80 109 80q23 0 63.5 -23t62.5 -23q38 0 65 39l45 -28q-19 -43 -52 -67t-64 -24q-23 0 -65.5 21.5t-64.5 21.5q-43 0 -61 -27z" />
<glyph unicode="&#xf2;" horiz-adv-x="552" d="M30 237q0 117 62.5 189.5t176.5 72.5q116 0 178 -68.5t62 -183.5q0 -122 -63.5 -193t-177.5 -71q-112 0 -175 71t-63 183zM136 653q2 9 11 9h108l125 -107q5 -5 3 -10.5t-7 -5.5h-61l-172 101q-9 4 -7 13zM164 244q0 -100 29.5 -153t77.5 -53q50 0 76.5 51t26.5 146 q0 207 -107 207q-50 0 -76.5 -52t-26.5 -146z" />
<glyph unicode="&#xf3;" horiz-adv-x="552" d="M30 237q0 117 62.5 189.5t176.5 72.5q116 0 178 -68.5t62 -183.5q0 -122 -63.5 -193t-177.5 -71q-112 0 -175 71t-63 183zM155 544.5q-2 5.5 3 10.5l125 107h108q9 0 11 -9t-6 -13l-173 -101h-61q-5 0 -7 5.5zM164 244q0 -100 29.5 -153t77.5 -53q50 0 76.5 51t26.5 146 q0 207 -107 207q-50 0 -76.5 -52t-26.5 -146z" />
<glyph unicode="&#xf4;" horiz-adv-x="552" d="M30 237q0 117 62.5 189.5t176.5 72.5q116 0 178 -68.5t62 -183.5q0 -122 -63.5 -193t-177.5 -71q-112 0 -175 71t-63 183zM128 589l139 119l144 -119l-35 -44l-114 76l-105 -74zM164 244q0 -100 29.5 -153t77.5 -53q50 0 76.5 51t26.5 146q0 207 -107 207 q-50 0 -76.5 -52t-26.5 -146z" />
<glyph unicode="&#xf5;" horiz-adv-x="552" d="M30 237q0 117 62.5 189.5t176.5 72.5q116 0 178 -68.5t62 -183.5q0 -122 -63.5 -193t-177.5 -71q-112 0 -175 71t-63 183zM106 609q28 80 109 80q23 0 63.5 -23t62.5 -23q38 0 65 39l45 -28q-19 -43 -52 -67t-64 -24q-23 0 -65.5 21.5t-64.5 21.5q-43 0 -61 -27zM164 244 q0 -100 29.5 -153t77.5 -53q50 0 76.5 51t26.5 146q0 207 -107 207q-50 0 -76.5 -52t-26.5 -146z" />
<glyph unicode="&#xf6;" horiz-adv-x="552" d="M30 237q0 117 62.5 189.5t176.5 72.5q116 0 178 -68.5t62 -183.5q0 -122 -63.5 -193t-177.5 -71q-112 0 -175 71t-63 183zM104 616q0 27 18.5 45.5t45.5 18.5q26 0 45 -18.5t19 -45.5t-19 -45.5t-45 -18.5q-27 0 -45.5 18.5t-18.5 45.5zM164 244q0 -100 29.5 -153 t77.5 -53q50 0 76.5 51t26.5 146q0 207 -107 207q-50 0 -76.5 -52t-26.5 -146zM306 616q0 27 18.5 45.5t45.5 18.5q26 0 45 -18.5t19 -45.5t-19 -45.5t-45 -18.5q-27 0 -45.5 18.5t-18.5 45.5z" />
<glyph unicode="&#xf7;" horiz-adv-x="594" d="M50 264v88h484v-88h-484zM214 140q0 30 20.5 50.5t50.5 20.5t51 -20.5t21 -50.5q0 -28 -21.5 -48.5t-50.5 -20.5q-30 0 -50.5 20.5t-20.5 48.5zM214 478q0 30 20.5 50.5t50.5 20.5t51 -20.5t21 -50.5q0 -28 -21.5 -48.5t-50.5 -20.5q-30 0 -50.5 20.5t-20.5 48.5z" />
<glyph unicode="&#xf8;" horiz-adv-x="552" d="M-22 -65l98 140q-46 66 -46 162q0 117 62.5 189.5t176.5 72.5q49 0 94 -15l70 99h81l-91 -131q86 -66 86 -205q0 -122 -63.5 -193t-177.5 -71q-84 0 -145 43l-63 -91h-82zM164 244q0 -29 1 -42l156 221q-24 19 -54 19q-50 0 -76.5 -52t-26.5 -146zM184 112q28 -74 87 -74 q50 0 76.5 51t26.5 146q0 78 -15 126z" />
<glyph unicode="&#xf9;" horiz-adv-x="621" d="M21 429l4 43q102 21 198 21q-2 -32 -2 -96q0 -190 1 -234q1 -48 19 -72t59 -24q53 0 90 48v204q0 77 -5 88q-2 6 -7 10q-20 12 -58 12l3 44q132 20 199 20q-2 -28 -2 -78v-315q0 -38 20 -45l36 -12v-38l-169 -11l-16 73q-62 -82 -148 -82q-67 0 -109 38.5t-42 119.5 q0 19 0.5 83t0.5 92q1 56 -1.5 73.5t-12.5 25.5q-19 16 -58 12zM156 657q2 9 11 9h108l125 -107q5 -5 3 -10.5t-7 -5.5h-61l-172 101q-9 4 -7 13z" />
<glyph unicode="&#xfa;" horiz-adv-x="621" d="M21 429l4 43q102 21 198 21q-2 -32 -2 -96q0 -190 1 -234q1 -48 19 -72t59 -24q53 0 90 48v204q0 77 -5 88q-2 6 -7 10q-20 12 -58 12l3 44q132 20 199 20q-2 -28 -2 -78v-315q0 -38 20 -45l36 -12v-38l-169 -11l-16 73q-62 -82 -148 -82q-67 0 -109 38.5t-42 119.5 q0 19 0.5 83t0.5 92q1 56 -1.5 73.5t-12.5 25.5q-19 16 -58 12zM191 546q-2 6 3 10l125 107h108q9 0 11 -8.5t-6 -13.5l-173 -101h-61q-5 0 -7 6z" />
<glyph unicode="&#xfb;" horiz-adv-x="621" d="M21 429l4 43q102 21 198 21q-2 -32 -2 -96q0 -190 1 -234q1 -48 19 -72t59 -24q53 0 90 48v204q0 77 -5 88q-2 6 -7 10q-20 12 -58 12l3 44q132 20 199 20q-2 -28 -2 -78v-315q0 -38 20 -45l36 -12v-38l-169 -11l-16 73q-62 -82 -148 -82q-67 0 -109 38.5t-42 119.5 q0 19 0.5 83t0.5 92q1 56 -1.5 73.5t-12.5 25.5q-19 16 -58 12zM152 590l139 119l144 -119l-35 -44l-114 76l-105 -74z" />
<glyph unicode="&#xfc;" horiz-adv-x="621" d="M21 429l4 43q102 21 198 21q-2 -32 -2 -96q0 -190 1 -234q1 -48 19 -72t59 -24q53 0 90 48v204q0 77 -5 88q-2 6 -7 10q-20 12 -58 12l3 44q132 20 199 20q-2 -28 -2 -78v-315q0 -38 20 -45l36 -12v-38l-169 -11l-16 73q-62 -82 -148 -82q-67 0 -109 38.5t-42 119.5 q0 19 0.5 83t0.5 92q1 56 -1.5 73.5t-12.5 25.5q-19 16 -58 12zM128 617q0 27 18.5 45.5t45.5 18.5q26 0 45 -18.5t19 -45.5t-19 -45.5t-45 -18.5q-27 0 -45.5 18.5t-18.5 45.5zM330 617q0 27 18.5 45.5t45.5 18.5q26 0 45 -18.5t19 -45.5t-19 -45.5t-45 -18.5 q-27 0 -45.5 18.5t-18.5 45.5z" />
<glyph unicode="&#xfd;" horiz-adv-x="537" d="M33 437v39l64 8h122l70 -8v-40l-63 -12l67 -197q16 -45 34 -113q47 130 107 314l-53 9v39l66 8h54l65 -8v-39l-33 -6q-15 -2 -21.5 -7.5t-11.5 -19.5q-3 -9 -40 -113.5t-68.5 -189t-59.5 -153.5q-39 -92 -76.5 -137t-98.5 -56v-1l-42 -5q-63 -5 -63 47v30q0 26 21.5 36 t48.5 -4l67 -32q37 15 66 90q16 47 17 48q-22 55 -40 97l-137 344q-9 22 -28 25zM202 544.5q-2 5.5 3 10.5l125 107h108q9 0 11 -9t-6 -13l-173 -101h-61q-5 0 -7 5.5z" />
<glyph unicode="&#xfe;" horiz-adv-x="584" d="M30 646l3 39q99 27 205 27q-7 -47 -7 -109v-152q51 46 116 46q87 0 142 -64t55 -180q0 -72 -22.5 -125.5t-59.5 -82t-77 -42t-84 -13.5t-70 6v-188l69 -17v-36l-73 -9h-122l-73 8v36l25 6q24 5 32.5 13.5t12 34t3.5 89.5l-1 616q0 78 -13 86q-20 13 -61 11zM231 52 q22 -7 62 -7q121 0 121 201q0 94 -31.5 139.5t-78.5 45.5q-36 0 -73 -20v-359z" />
<glyph unicode="&#xff;" horiz-adv-x="537" d="M33 437v39l64 8h122l70 -8v-40l-63 -12l67 -197q16 -45 34 -113q47 130 107 314l-53 9v39l66 8h54l65 -8v-39l-33 -6q-15 -2 -21.5 -7.5t-11.5 -19.5q-3 -9 -40 -113.5t-68.5 -189t-59.5 -153.5q-39 -92 -76.5 -137t-98.5 -56v-1l-42 -5q-63 -5 -63 47v30q0 26 21.5 36 t48.5 -4l67 -32q37 15 66 90q16 47 17 48q-22 55 -40 97l-137 344q-9 22 -28 25zM152 616q0 27 18.5 45.5t45.5 18.5q26 0 45 -18.5t19 -45.5t-19 -45.5t-45 -18.5q-27 0 -45.5 18.5t-18.5 45.5zM354 616q0 27 18.5 45.5t45.5 18.5q26 0 45 -18.5t19 -45.5t-19 -45.5 t-45 -18.5q-27 0 -45.5 18.5t-18.5 45.5z" />
<glyph unicode="&#x152;" horiz-adv-x="965" d="M23 324q0 146 78 243t217 97q99 0 169 -45v30h366l53 3v-175h-65l-15 79q-6 26 -21.5 34.5t-62.5 8.5h-125q0 -22 -0.5 -75t-0.5 -83v-69q0 -2 0.5 -5t0.5 -5h106q13 0 19 15t19 77h52v-249h-51q-12 56 -20 77.5t-21 21.5h-104q0 -17 -1 -25v-62q0 -99 3 -165h175 q33 0 40 41l15 84h61v-179l-120 2h-303v32q-71 -49 -167 -49q-140 0 -218.5 92t-78.5 249zM170 329q0 -131 40 -207t118 -76q63 0 102.5 67t39.5 198q0 291 -155 291q-73 0 -109 -74.5t-36 -198.5z" />
<glyph unicode="&#x153;" horiz-adv-x="864" d="M30 237q0 117 62.5 189.5t176.5 72.5q121 0 184 -76q68 76 178 76q90 0 140 -56.5t46 -123.5l-3 -38q-2 -26 -34 -26h-268v-8q0 -71 37 -118.5t102 -47.5q90 0 135 61l29 -17q-28 -69 -79.5 -104.5t-115.5 -35.5q-111 0 -172 72q-65 -74 -180 -74q-112 0 -175 71t-63 183 zM164 244q0 -100 29.5 -153t77.5 -53q50 0 76.5 51t26.5 146q0 207 -107 207q-50 0 -76.5 -52t-26.5 -146zM512 308l191 6l-1 18q-1 48 -24.5 75.5t-64.5 27.5q-36 0 -71 -22q-25 -45 -30 -105z" />
<glyph unicode="&#x178;" horiz-adv-x="610" d="M8 602v38l65 8h146l75 -8v-37l-67 -15l79 -180q27 -65 35 -88l41 88l88 181l-64 14v37l78 8h55l68 -8v-37l-39 -10q-28 -9 -41 -38l-148 -296v-60q0 -73 2 -109q0 -28 28 -34l48 -13v-38l-71 -8h-148l-73 8v38l45 12q17 5 23.5 12t7.5 22q2 28 2 87v69l-157 316 q-15 26 -37 32zM169 780q0 27 18.5 45.5t45.5 18.5q26 0 45 -18.5t19 -45.5t-19 -45.5t-45 -18.5q-27 0 -45.5 18.5t-18.5 45.5zM371 780q0 27 18.5 45.5t45.5 18.5q26 0 45 -18.5t19 -45.5t-19 -45.5t-45 -18.5q-27 0 -45.5 18.5t-18.5 45.5z" />
<glyph unicode="&#x2c6;" horiz-adv-x="485" d="M91 585l139 119l144 -119l-35 -44l-114 76l-105 -74z" />
<glyph unicode="&#x2dc;" horiz-adv-x="492" d="M49 589q28 80 109 80q23 0 63.5 -23t62.5 -23q38 0 65 39l45 -28q-19 -43 -52 -67t-64 -24q-23 0 -65.5 21.5t-64.5 21.5q-43 0 -61 -27z" />
<glyph unicode="&#x2013;" horiz-adv-x="541" d="M41 264v88h440v-88h-440z" />
<glyph unicode="&#x2014;" horiz-adv-x="822" d="M0 247v105h809v-105h-809z" />
<glyph unicode="&#x2018;" horiz-adv-x="202" d="M19 493q0 33 15 71.5t28 60t42 64.5l44 -33q-28 -62 -41 -108l30 -12q26 -19 26 -58q0 -26 -20.5 -45t-52.5 -19q-30 0 -50.5 20.5t-20.5 58.5z" />
<glyph unicode="&#x2019;" horiz-adv-x="202" d="M24 612q0 26 21 45.5t53 19.5q29 0 50 -21t21 -59q0 -82 -75 -192l-46 28q15 38 33 109q-57 18 -57 70z" />
<glyph unicode="&#x201a;" horiz-adv-x="245" d="M41 55q0 26 23 46t54 20t52.5 -20t21.5 -62q0 -41 -24.5 -103.5t-58.5 -113.5l-48 26q1 5 17 55t20 69l-34 20q-9 6 -16 25t-7 38z" />
<glyph unicode="&#x201c;" horiz-adv-x="400" d="M23 484q-1 12 0 25q9 74 82 183l47 -30q-33 -78 -42 -115l30 -12q26 -20 26 -57q0 -26 -20.5 -45.5t-52.5 -19.5q-28 0 -48.5 18t-21.5 53zM217 493q0 78 78 192l47 -29q-24 -56 -37 -109l30 -12q26 -19 26 -57q0 -26 -20.5 -45.5t-52.5 -19.5q-30 0 -50.5 21t-20.5 59z " />
<glyph unicode="&#x201d;" horiz-adv-x="400" d="M26 612q0 26 20.5 45.5t53.5 19.5q29 0 49.5 -21t20.5 -59q0 -84 -74 -192l-47 28q18 42 33 109q-56 19 -56 70zM220 612q0 26 20.5 45.5t52.5 19.5q30 0 50.5 -21t20.5 -59q0 -81 -79 -199l-47 29q21 49 38 115q-56 19 -56 70z" />
<glyph unicode="&#x201e;" horiz-adv-x="453" d="M33 55q0 26 23.5 46t54.5 20q30 0 51.5 -20t21.5 -62t-24.5 -104.5t-58.5 -112.5l-47 26q1 3 16.5 54t19.5 70l-34 20q-9 6 -16 25t-7 38zM236 55q0 26 23.5 46t54.5 20t52.5 -20t21.5 -62t-25 -104t-59 -113l-47 26q1 3 16.5 54t19.5 70l-34 20q-9 6 -16 25t-7 38z" />
<glyph unicode="&#x2022;" horiz-adv-x="456" d="M69 268q0 63 44.5 107t107.5 44t107.5 -44t44.5 -107q0 -64 -44.5 -108t-107.5 -44t-107.5 44t-44.5 108z" />
<glyph unicode="&#x2026;" horiz-adv-x="650" d="M46 58q0 30 20.5 50.5t50.5 20.5t51 -20.5t21 -50.5q0 -28 -21.5 -48.5t-50.5 -20.5q-30 0 -50.5 20.5t-20.5 48.5zM258 58q0 30 20.5 50.5t50.5 20.5t51 -20.5t21 -50.5q0 -28 -21.5 -48.5t-50.5 -20.5q-30 0 -50.5 20.5t-20.5 48.5zM470 58q0 30 20.5 50.5t50.5 20.5 t51 -20.5t21 -50.5q0 -28 -21.5 -48.5t-50.5 -20.5q-30 0 -50.5 20.5t-20.5 48.5z" />
<glyph unicode="&#x2039;" horiz-adv-x="252" d="M12 261v27l120 180h90l-101 -193l101 -194h-92z" />
<glyph unicode="&#x203a;" horiz-adv-x="252" d="M15 81l101 193l-100 194h90l120 -180v-27l-118 -180h-93z" />
<glyph unicode="&#x20ac;" horiz-adv-x="625" d="M4 218l15 56h59v25q0 15 2 45h-72l15 57h67q27 103 105 165.5t192 62.5q85 0 181 -32v-65l-4 -84h-60l-5 33q-8 53 -28 73q-22 20 -77 20q-64 0 -108 -44t-59 -129h223l-15 -57h-214v-30q0 -28 1 -40h225l-15 -56h-201q20 -82 69.5 -124t109.5 -42q37 0 55 9q24 10 29 43 l11 73h62l6 -85v-58q-28 -20 -78.5 -34.5t-108.5 -14.5q-119 0 -199.5 58.5t-101.5 174.5h-81z" />
<glyph unicode="&#x2122;" horiz-adv-x="775" d="M30 650q10 -2 30 -2h224q18 0 28 2l-3 -85h-40q-4 24 -11.5 36.5t-27.5 12.5h-13v-167q0 -21 3 -27t13 -9l26 -6v-22l-39 -3h-105l-36 3v22l29 6q9 2 11.5 8.5t2.5 27.5v167h-13q-14 0 -22 -7.5t-9.5 -15t-4.5 -26.5h-40zM310 384v20l24 6q15 4 16 21l18 167q1 16 -11 20 l-23 6v22l29 2h117l1 -21q-1 0 -2.5 -0.5t-3 -3.5t-0.5 -7l43 -159l54 168l2 23h109l32 -3v-21q-1 0 -7 -1t-6.5 -1t-5.5 -1t-5 -2t-4 -3.5t-3 -5t-2.5 -7t-1 -9.5t0.5 -12l11 -155q1 -16 17 -19l18 -3v-21l-29 -4h-85l-35 3v20l17 4q13 3 12 18l-7 125q-1 14 -1 37l-9 -34 l-55 -171h-68l-50 156q-4 11 -10 45q0 -15 -2 -41l-12 -129l33 -9v-20l-33 -4h-54z" />
<glyph unicode="&#xe000;" horiz-adv-x="499" d="M0 0v485h485v-485h-485z" />
<glyph unicode="&#xfb04;" horiz-adv-x="1005" d="M46 5v29l24 6t19 4.5t11.5 8.5t9 14.5t3.5 26.5t3 41v60v234l-70 1v20l70 35q7 107 85.5 165.5t198.5 58.5q111 0 184 -22q55 22 115 22q47 0 78 -7q59 10 123 10q-6 -52 -6 -120v-533l60 -17v-37l-77 -8h-104l-78 8v36l23 5q15 3 22 6.5t14 10t9 21.5t3 35t1 56v370 q0 81 -14 90q-19 13 -61 11v7q-125 -3 -125 -140v-25h105v-59h-105v-379l65 -16v-29l-87 -8h-112l-62 8v29q8 2 24.5 6t19 4.5t11.5 8.5t9 14.5t3 26.5t3 40.5v60.5v234h-200v-379l65 -16v-29l-86 -8h-112zM241 488h165v-21l35 18q6 92 64 150q-68 18 -108 18 q-156 0 -156 -145v-20z" />
</font>
</defs>
</svg>
